<svg width="14" height="14" viewBox="0 0 14 14" fill="none" xmlns="http://www.w3.org/2000/svg">
<path fill-rule="evenodd" clip-rule="evenodd" d="M0.47321 0.473088C0.764151 0.182148 1.23586 0.182148 1.5268 0.473088L7 5.94629L12.4732 0.473088C12.7642 0.182148 13.2359 0.182148 13.5268 0.473088C13.8177 0.764029 13.8177 1.23574 13.5268 1.52668L8.05359 6.99988L13.5268 12.4731C13.8177 12.764 13.8177 13.2357 13.5268 13.5267C13.2359 13.8176 12.7642 13.8176 12.4732 13.5267L7 8.05347L1.5268 13.5267C1.23586 13.8176 0.764151 13.8176 0.47321 13.5267C0.18227 13.2357 0.18227 12.764 0.47321 12.4731L5.94642 6.99988L0.47321 1.52668C0.18227 1.23574 0.18227 0.764029 0.47321 0.473088Z" fill="#143644"/>
</svg>
