<svg xmlns="http://www.w3.org/2000/svg" width="21" height="20" viewBox="0 0 21 20" fill="none">
  <g clip-path="url(#clip0_6352_247671)">
    <rect x="0.5" width="20" height="20" rx="3" fill="white" fill-opacity="0.01"/>
    <path fill-rule="evenodd" clip-rule="evenodd" d="M3 0H18C18.663 0 19.2989 0.263392 19.7678 0.732233C20.2366 1.20107 20.5 1.83696 20.5 2.5V17.5C20.5 18.163 20.2366 18.7989 19.7678 19.2678C19.2989 19.7366 18.663 20 18 20H3C2.33696 20 1.70107 19.7366 1.23223 19.2678C0.763392 18.7989 0.5 18.163 0.5 17.5L0.5 2.5C0.5 1.83696 0.763392 1.20107 1.23223 0.732233C1.70107 0.263392 2.33696 0 3 0V0ZM4.53833 10.1417H4.94083C5.87083 10.1417 5.94333 9.87333 5.94333 9.495C5.94333 9.06333 5.72 8.8525 5.2625 8.8525H4.53833V10.1408V10.1417ZM9.78 11.9608H10.3333C10.9517 11.9608 11.5842 11.7775 11.5842 10.415C11.5842 9.04 10.9158 8.865 10.3333 8.865H9.77917V11.9608H9.78ZM4.21833 13.325H3.31833C3.23375 13.3246 3.15279 13.2907 3.09314 13.2307C3.03348 13.1707 3 13.0896 3 13.005V7.81917C3 7.64417 3.1425 7.5 3.31917 7.5H5.3975C6.63333 7.5 7.4975 8.32 7.4975 9.495C7.4975 10.6867 6.65167 11.4867 5.39333 11.4867H4.53833V13.005C4.53833 13.0897 4.50473 13.171 4.4449 13.231C4.38507 13.291 4.30389 13.3248 4.21917 13.325H4.21833ZM10.4267 13.325H8.56C8.51798 13.325 8.47637 13.3167 8.43754 13.3006C8.39872 13.2846 8.36344 13.261 8.33373 13.2313C8.30401 13.2016 8.28044 13.1663 8.26436 13.1275C8.24828 13.0886 8.24 13.047 8.24 13.005V7.81917C8.24 7.64417 8.38333 7.5 8.55917 7.5H10.4275C12.1833 7.5 13.1508 8.53083 13.1508 10.4033C13.1508 12.2867 12.1842 13.325 10.4275 13.325H10.4267ZM15.24 13.325H14.34C14.298 13.325 14.2564 13.3167 14.2175 13.3006C14.1787 13.2846 14.1434 13.261 14.1137 13.2313C14.084 13.2016 14.0604 13.1663 14.0444 13.1275C14.0283 13.0886 14.02 13.047 14.02 13.005V7.81917C14.02 7.64417 14.1633 7.5 14.3392 7.5H17.68C17.855 7.5 17.9992 7.64333 17.9992 7.81917V8.5525C17.9992 8.63715 17.9655 8.71833 17.9057 8.77818C17.8458 8.83804 17.7646 8.87167 17.68 8.87167H15.5592V9.82167H17.4692C17.6458 9.82167 17.7883 9.965 17.7883 10.1408V10.8633C17.7883 11.0383 17.6458 11.1825 17.4692 11.1825H15.5592V13.005C15.5592 13.0897 15.5256 13.171 15.4657 13.231C15.4059 13.291 15.3247 13.3248 15.24 13.325Z" fill="#FF5630"/>
  </g>
  <defs>
    <clipPath id="clip0_6352_247671">
      <rect x="0.5" width="20" height="20" rx="3" fill="white"/>
    </clipPath>
  </defs>
</svg>