<svg width="24" height="24" viewBox="0 0 24 24" fill="none" xmlns="http://www.w3.org/2000/svg">
<path id="Union" fill-rule="evenodd" clip-rule="evenodd" d="M12 0.75C12.6904 0.75 13.25 1.30964 13.25 2V10.75H22C22.6904 10.75 23.25 11.3096 23.25 12C23.25 12.6904 22.6904 13.25 22 13.25H13.25V22C13.25 22.6904 12.6904 23.25 12 23.25C11.3096 23.25 10.75 22.6904 10.75 22V13.25H2C1.30964 13.25 0.75 12.6904 0.75 12C0.75 11.3096 1.30964 10.75 2 10.75H10.75V2C10.75 1.30964 11.3096 0.75 12 0.75Z" fill="#94A3B8"/>
</svg>
