<svg width="20" height="20" viewBox="0 0 20 20" fill="none" xmlns="http://www.w3.org/2000/svg">
<path fill-rule="evenodd" clip-rule="evenodd" d="M3.09999 9.16706C3.09999 5.81653 5.81613 3.10039 9.16666 3.10039C12.5172 3.10039 15.2333 5.81653 15.2333 9.16706C15.2333 12.5176 12.5172 15.2337 9.16666 15.2337C5.81613 15.2337 3.09999 12.5176 3.09999 9.16706ZM9.16666 1.90039C5.15339 1.90039 1.89999 5.15379 1.89999 9.16706C1.89999 13.1803 5.15339 16.4337 9.16666 16.4337C10.9573 16.4337 12.5967 15.7861 13.8633 14.7122L16.2424 17.0913C16.4767 17.3256 16.8566 17.3256 17.0909 17.0913C17.3252 16.857 17.3252 16.4771 17.0909 16.2428L14.7118 13.8637C15.7857 12.5971 16.4333 10.9577 16.4333 9.16706C16.4333 5.15379 13.1799 1.90039 9.16666 1.90039Z" fill="#94A3B8"/>
</svg>
