<svg width="20" height="20" viewBox="0 0 20 20" fill="none" xmlns="http://www.w3.org/2000/svg">
    <g id="User - Plus">
        <path id="Union" fill-rule="evenodd" clip-rule="evenodd" d="M7.50008 3.25C6.07335 3.25 4.91675 4.4066 4.91675 5.83333C4.91675 7.26007 6.07335 8.41667 7.50008 8.41667C8.92682 8.41667 10.0834 7.26007 10.0834 5.83333C10.0834 4.4066 8.92682 3.25 7.50008 3.25ZM3.41675 5.83333C3.41675 3.57817 5.24492 1.75 7.50008 1.75C9.75524 1.75 11.5834 3.57817 11.5834 5.83333C11.5834 8.0885 9.75524 9.91667 7.50008 9.91667C5.24492 9.91667 3.41675 8.0885 3.41675 5.83333ZM5.00008 13.25C3.57335 13.25 2.41675 14.4066 2.41675 15.8333C2.41675 16.3396 2.82715 16.75 3.33342 16.75H11.6667C12.173 16.75 12.5834 16.3396 12.5834 15.8333C12.5834 14.4066 11.4268 13.25 10.0001 13.25H5.00008ZM0.916748 15.8333C0.916748 13.5782 2.74492 11.75 5.00008 11.75H10.0001C12.2552 11.75 14.0834 13.5782 14.0834 15.8333C14.0834 17.168 13.0014 18.25 11.6667 18.25H3.33342C1.99873 18.25 0.916748 17.168 0.916748 15.8333ZM17.4167 5.83333C17.4167 5.41912 17.081 5.08333 16.6667 5.08333C16.2525 5.08333 15.9167 5.41912 15.9167 5.83333V7.58333H14.1667C13.7525 7.58333 13.4167 7.91912 13.4167 8.33333C13.4167 8.74755 13.7525 9.08333 14.1667 9.08333H15.9167V10.8333C15.9167 11.2475 16.2525 11.5833 16.6667 11.5833C17.081 11.5833 17.4167 11.2475 17.4167 10.8333V9.08333H19.1667C19.581 9.08333 19.9167 8.74755 19.9167 8.33333C19.9167 7.91912 19.581 7.58333 19.1667 7.58333H17.4167V5.83333Z" fill="#2B1694"/>
    </g>
</svg>