<svg width="20" height="20" viewBox="0 0 20 20" fill="none" xmlns="http://www.w3.org/2000/svg">
    <g id="User - Cross">
        <path id="Union" fill-rule="evenodd" clip-rule="evenodd" d="M7.50008 3.25C6.07335 3.25 4.91675 4.4066 4.91675 5.83333C4.91675 7.26007 6.07335 8.41667 7.50008 8.41667C8.92682 8.41667 10.0834 7.26007 10.0834 5.83333C10.0834 4.4066 8.92682 3.25 7.50008 3.25ZM3.41675 5.83333C3.41675 3.57817 5.24492 1.75 7.50008 1.75C9.75524 1.75 11.5834 3.57817 11.5834 5.83333C11.5834 8.0885 9.75524 9.91667 7.50008 9.91667C5.24492 9.91667 3.41675 8.0885 3.41675 5.83333ZM5.00008 13.25C3.57335 13.25 2.41675 14.4066 2.41675 15.8333C2.41675 16.3396 2.82715 16.75 3.33341 16.75H11.6667C12.173 16.75 12.5834 16.3396 12.5834 15.8333C12.5834 14.4066 11.4268 13.25 10.0001 13.25H5.00008ZM0.916748 15.8333C0.916748 13.5782 2.74492 11.75 5.00008 11.75H10.0001C12.2552 11.75 14.0834 13.5782 14.0834 15.8333C14.0834 17.168 13.0014 18.25 11.6667 18.25H3.33341C1.99873 18.25 0.916748 17.168 0.916748 15.8333ZM15.5304 5.303C15.2375 5.01011 14.7626 5.01011 14.4698 5.303C14.1769 5.5959 14.1769 6.07077 14.4698 6.36366L16.0228 7.91667L14.4698 9.46967C14.1769 9.76256 14.1769 10.2374 14.4698 10.5303C14.7626 10.8232 15.2375 10.8232 15.5304 10.5303L17.0834 8.97733L18.6364 10.5303C18.9293 10.8232 19.4042 10.8232 19.6971 10.5303C19.99 10.2374 19.99 9.76256 19.6971 9.46967L18.1441 7.91667L19.6971 6.36366C19.99 6.07077 19.99 5.5959 19.6971 5.303C19.4042 5.01011 18.9293 5.01011 18.6364 5.303L17.0834 6.85601L15.5304 5.303Z" fill="#2B1694"/>
    </g>
</svg>