<svg width="21" height="21" viewBox="0 0 21 21" fill="none" xmlns="http://www.w3.org/2000/svg">
    <g id="Users">
        <path id="Union" fill-rule="evenodd" clip-rule="evenodd" d="M4.58329 6.16536C4.58329 4.73863 5.73989 3.58203 7.16663 3.58203C8.59336 3.58203 9.74996 4.73863 9.74996 6.16536C9.74996 7.5921 8.59336 8.7487 7.16663 8.7487C5.73989 8.7487 4.58329 7.5921 4.58329 6.16536ZM7.16663 2.08203C4.91146 2.08203 3.08329 3.9102 3.08329 6.16536C3.08329 8.42053 4.91146 10.2487 7.16663 10.2487C9.42179 10.2487 11.25 8.42053 11.25 6.16536C11.25 3.9102 9.42179 2.08203 7.16663 2.08203ZM12.1666 2.08203C11.7524 2.08203 11.4166 2.41782 11.4166 2.83203C11.4166 3.24624 11.7524 3.58203 12.1666 3.58203C13.5934 3.58203 14.75 4.73863 14.75 6.16536C14.75 7.5921 13.5934 8.7487 12.1666 8.7487C11.7524 8.7487 11.4166 9.08448 11.4166 9.4987C11.4166 9.91291 11.7524 10.2487 12.1666 10.2487C14.4218 10.2487 16.25 8.42053 16.25 6.16536C16.25 3.9102 14.4218 2.08203 12.1666 2.08203ZM5.49996 13.582C4.07322 13.582 2.91663 14.7386 2.91663 16.1654C2.91663 16.6716 3.32703 17.082 3.83329 17.082H10.5C11.0062 17.082 11.4166 16.6716 11.4166 16.1654C11.4166 14.7386 10.26 13.582 8.83329 13.582H5.49996ZM1.41663 16.1654C1.41663 13.9102 3.2448 12.082 5.49996 12.082H8.83329C11.0885 12.082 12.9166 13.9102 12.9166 16.1654C12.9166 17.5001 11.8346 18.582 10.5 18.582H3.83329C2.4986 18.582 1.41663 17.5001 1.41663 16.1654ZM13.8333 12.082C13.4191 12.082 13.0833 12.4178 13.0833 12.832C13.0833 13.2462 13.4191 13.582 13.8333 13.582H15.5C16.9267 13.582 18.0833 14.7386 18.0833 16.1654C18.0833 16.6716 17.6729 17.082 17.1666 17.082H13.8333C13.4191 17.082 13.0833 17.4178 13.0833 17.832C13.0833 18.2462 13.4191 18.582 13.8333 18.582H17.1666C18.5013 18.582 19.5833 17.5001 19.5833 16.1654C19.5833 13.9102 17.7551 12.082 15.5 12.082H13.8333Z" fill="#2B1694"/>
    </g>
</svg>