<svg width="248" height="186" viewBox="0 0 248 186" fill="none" xmlns="http://www.w3.org/2000/svg">
    <path d="M247.899 162.949H0.101074V163.073H247.899V162.949Z" fill="#EBEBEB"/>
    <path d="M223.07 170.926H215.685V171.05H223.07V170.926Z" fill="#EBEBEB"/>
    <path d="M164.252 172.27H159.944V172.394H164.252V172.27Z" fill="#EBEBEB"/>
    <path d="M213.592 166.324H196.647V166.448H213.592V166.324Z" fill="#EBEBEB"/>
    <path d="M54.4331 168.883H33.0271V169.007H54.4331V168.883Z" fill="#EBEBEB"/>
    <path d="M66.5661 168.883H58.8461V169.007H66.5661V168.883Z" fill="#EBEBEB"/>
    <path d="M126.356 167.219H79.931V167.343H126.356V167.219Z" fill="#EBEBEB"/>
    <path d="M117.564 140.846H21.864C21.114 140.845 20.3949 140.547 19.8645 140.016C19.3341 139.486 19.0358 138.767 19.035 138.017V3.49597C19.0361 2.74609 19.3345 2.02724 19.8649 1.49709C20.3952 0.966937 21.1142 0.668762 21.864 0.667969H117.564C118.314 0.669027 119.032 0.967317 119.563 1.49744C120.093 2.02756 120.391 2.74626 120.392 3.49597V138.015C120.392 138.765 120.094 139.485 119.564 140.015C119.033 140.546 118.314 140.845 117.564 140.846ZM21.865 0.791969C21.1496 0.79408 20.4641 1.07922 19.9582 1.58511C19.4523 2.091 19.1671 2.77653 19.165 3.49197V138.015C19.1671 138.73 19.4523 139.416 19.9582 139.922C20.4641 140.428 21.1496 140.713 21.865 140.715H117.565C118.28 140.713 118.966 140.428 119.472 139.922C119.978 139.416 120.263 138.73 120.265 138.015V3.49597C120.263 2.78053 119.978 2.095 119.472 1.58911C118.966 1.08322 118.28 0.798081 117.565 0.795971L21.865 0.791969Z" fill="#EBEBEB"/>
    <path d="M224.76 140.846H129.06C128.31 140.845 127.591 140.546 127.061 140.016C126.531 139.486 126.233 138.767 126.232 138.017V3.49597C126.233 2.74618 126.531 2.02733 127.061 1.49715C127.591 0.96697 128.31 0.668763 129.06 0.667969H224.76C225.51 0.668762 226.229 0.966937 226.759 1.49709C227.29 2.02724 227.588 2.74609 227.589 3.49597V138.015C227.589 138.765 227.291 139.485 226.76 140.016C226.23 140.547 225.51 140.845 224.76 140.846ZM129.06 0.791969C128.345 0.79408 127.659 1.07922 127.153 1.58511C126.647 2.091 126.362 2.77653 126.36 3.49197V138.015C126.362 138.73 126.647 139.416 127.153 139.922C127.659 140.428 128.345 140.713 129.06 140.715H224.76C225.476 140.714 226.163 140.43 226.67 139.924C227.177 139.418 227.463 138.731 227.465 138.015V3.49597C227.463 2.77967 227.177 2.09339 226.67 1.58735C226.163 1.08132 225.476 0.796761 224.76 0.795971L129.06 0.791969Z" fill="#EBEBEB"/>
    <path d="M106.394 162.945H115.623L115.623 99.5733H106.394V162.945Z" fill="#E6E6E6"/>
    <path d="M109.643 162.946H106.394V150.906H113.049L109.643 162.946Z" fill="#F0F0F0"/>
    <path d="M203.988 162.945H213.217V99.5733H203.988V162.945Z" fill="#E6E6E6"/>
    <path d="M106.394 159.66H206.823V99.5752L106.394 99.5752L106.394 159.66Z" fill="#F0F0F0"/>
    <path d="M203.578 162.946H206.827V150.906H200.168L203.578 162.946Z" fill="#F0F0F0"/>
    <path d="M173.713 104.546V154.25H203.484V104.546H173.713Z" fill="#E6E6E6"/>
    <path d="M185.654 106.296H191.544C194.037 106.321 196.449 105.415 198.308 103.754H178.891C180.75 105.414 183.162 106.321 185.654 106.296Z" fill="#F0F0F0"/>
    <path d="M141.723 104.546V154.25H171.494V104.546H141.723Z" fill="#E6E6E6"/>
    <path d="M153.363 106.296H159.253C161.745 106.321 164.157 105.414 166.016 103.754H146.599C148.458 105.415 150.87 106.321 153.363 106.296Z" fill="#F0F0F0"/>
    <path d="M109.733 104.546V154.25H139.504V104.546H109.733Z" fill="#E6E6E6"/>
    <path d="M121.373 106.296H127.263C129.756 106.321 132.168 105.415 134.027 103.754H114.609C116.468 105.415 118.88 106.321 121.373 106.296Z" fill="#F0F0F0"/>
    <path d="M34.7831 162.945H97.7531L97.7531 21.3933H34.7831L34.7831 162.945Z" fill="#F0F0F0"/>
    <path d="M34.7831 162.945H96.4241L96.4241 21.3933H34.7831L34.7831 162.945Z" fill="#F5F5F5"/>
    <path d="M92.6681 159.733L92.6681 24.6055L38.5391 24.6055L38.5391 159.733H92.6681Z" fill="#F0F0F0"/>
    <path d="M87.3491 49.7375C87.3491 47.7995 86.9674 45.8806 86.2258 44.0902C85.4842 42.2998 84.3972 40.673 83.0269 39.3027C81.6566 37.9324 80.0298 36.8454 78.2394 36.1038C76.449 35.3622 74.5301 34.9805 72.5921 34.9805H58.6161C54.7023 34.9805 50.9488 36.5352 48.1814 39.3027C45.4139 42.0702 43.8591 45.8237 43.8591 49.7375H87.3491Z" fill="#FAFAFA"/>
    <path d="M87.3491 151.337V119.055H43.8591V151.337H87.3491Z" fill="#F5F5F5"/>
    <path d="M87.3491 58.8398H68.1661V114.889H87.3491V58.8398Z" fill="#F5F5F5"/>
    <path d="M63.0421 58.8398H43.8591V114.889H63.0421V58.8398Z" fill="#F5F5F5"/>
    <path d="M50.8161 86.6099H42.9591C42.6361 86.6091 42.3265 86.4804 42.098 86.252C41.8696 86.0235 41.7409 85.7139 41.7401 85.3909C41.7412 85.0679 41.8699 84.7585 42.0983 84.5301C42.3267 84.3017 42.6361 84.1729 42.9591 84.1719H50.8161C51.1391 84.1729 51.4485 84.3017 51.6769 84.5301C51.9053 84.7585 52.0341 85.0679 52.0351 85.3909C52.0343 85.7139 51.9056 86.0235 51.6772 86.252C51.4488 86.4804 51.1392 86.6091 50.8161 86.6099Z" fill="#E0E0E0"/>
    <path d="M39.514 159.733L39.514 24.6055H38.54L38.54 159.733H39.514Z" fill="#F0F0F0"/>
    <path d="M137.583 84.0391L204.362 84.0391V21.3951L137.583 21.3951V84.0391Z" fill="#E6E6E6"/>
    <path d="M135.9 84.0391L202.679 84.0391V21.3951L135.9 21.3951V84.0391Z" fill="#F5F5F5"/>
    <path d="M132.001 87.6641L204.362 87.6641V84.0381L132.001 84.0381V87.6641Z" fill="#E6E6E6"/>
    <path d="M130.106 87.6641L198.74 87.6641V84.0381L130.106 84.0381V87.6641Z" fill="#F5F5F5"/>
    <path d="M199.657 80.7793V24.6523L138.921 24.6523V80.7793H199.657Z" fill="white"/>
    <path d="M170.972 80.7793V24.6523H167.605V80.7793H170.972Z" fill="#F5F5F5"/>
    <path d="M140.194 80.7793V24.6523H138.921V80.7793H140.194Z" fill="#E6E6E6"/>
    <path d="M172.245 80.7793V24.6523H170.972V80.7793H172.245Z" fill="#E6E6E6"/>
    <path d="M146.56 85.7001C145.332 72.9751 144.477 52.3261 145.141 45.4201C145.153 45.3015 145.189 45.1866 145.249 45.0831C145.308 44.9797 145.389 44.8901 145.485 44.8201C145.613 44.7262 145.766 44.6702 145.924 44.6585C146.083 44.6469 146.242 44.6801 146.383 44.7543C146.523 44.8285 146.64 44.9408 146.72 45.0783C146.8 45.2159 146.84 45.3731 146.835 45.5321C146.718 48.9541 146.583 57.5071 147.312 72.2621C147.675 79.6072 148.198 84.6371 147.839 85.6981L146.56 85.7001Z" fill="#E6E6E6"/>
    <path d="M141.982 56.3683C138.482 52.4853 131.343 49.7243 124.065 49.7383C121.208 49.7443 132.758 54.2553 137.565 59.2383C141.407 63.3763 144.569 68.0964 146.934 73.2233C146.006 65.6183 145.479 60.2493 141.982 56.3683Z" fill="#E6E6E6"/>
    <path d="M148.914 57.5517C151.814 53.5077 158.521 50.3977 165.774 50.0457C168.621 49.9077 157.788 54.9827 153.745 60.1847C150.52 64.5326 148.068 69.4039 146.498 74.5847C146.286 66.9717 146.01 61.5967 148.914 57.5517Z" fill="#E6E6E6"/>
    <path d="M141.826 42.1883C138.865 38.9003 132.817 36.5623 126.654 36.5743C124.235 36.5743 134.015 40.4003 138.082 44.6153C141.335 48.1191 144.013 52.1159 146.016 56.4573C145.234 50.0233 144.785 45.4763 141.826 42.1883Z" fill="#E6E6E6"/>
    <path d="M147.695 47.0497C150.154 43.6247 155.831 40.9917 161.972 40.6937C164.383 40.5767 155.21 44.8737 151.786 49.2787C149.054 52.9623 146.978 57.0894 145.649 61.4787C145.471 55.0267 145.236 50.4727 147.695 47.0497Z" fill="#E6E6E6"/>
    <path d="M147.054 99.5762C145.209 99.5762 143.433 98.8704 142.091 97.6035C140.75 96.3367 139.943 94.6046 139.837 92.7622L139.199 81.6992H154.909L154.271 92.7622C154.165 94.6046 153.359 96.3367 152.017 97.6035C150.675 98.8704 148.9 99.5762 147.054 99.5762Z" fill="#E6E6E6"/>
    <path d="M155.926 84.2133H138.185L137.677 79.6133H156.438L155.926 84.2133Z" fill="#E6E6E6"/>
    <path d="M124 185.333C177.07 185.333 220.091 182.821 220.091 179.721C220.091 176.622 177.07 174.109 124 174.109C70.9305 174.109 27.9091 176.622 27.9091 179.721C27.9091 182.821 70.9305 185.333 124 185.333Z" fill="#F5F5F5"/>
    <path d="M125.939 174.357L121.801 174.823L120.275 165.439L124.413 164.973L125.939 174.357Z" fill="#FFC3BD"/>
    <path d="M144.465 175.26H140.333L139.304 165.691H143.436L144.465 175.26Z" fill="#FFC3BD"/>
    <path d="M139.993 174.777H145.03C145.112 174.777 145.192 174.805 145.256 174.857C145.32 174.908 145.364 174.979 145.382 175.059L146.198 178.732C146.217 178.822 146.216 178.915 146.194 179.003C146.173 179.092 146.131 179.175 146.073 179.246C146.015 179.317 145.941 179.373 145.858 179.411C145.775 179.45 145.685 179.469 145.593 179.467C143.972 179.439 142.793 179.344 140.749 179.344C139.493 179.344 135.705 179.474 133.971 179.474C132.271 179.474 132.01 177.759 132.72 177.604C135.904 176.904 138.303 175.947 139.32 175.031C139.505 174.866 139.745 174.776 139.993 174.777Z" fill="#263238"/>
    <path d="M121.733 174.112L126.217 173.604C126.299 173.594 126.381 173.613 126.45 173.657C126.52 173.7 126.572 173.766 126.599 173.844L127.824 177.401C127.855 177.487 127.866 177.579 127.856 177.67C127.846 177.761 127.815 177.848 127.766 177.925C127.717 178.002 127.651 178.067 127.573 178.115C127.495 178.163 127.407 178.192 127.316 178.201C125.696 178.357 123.348 178.527 121.316 178.758C118.939 179.028 118.543 179.664 115.739 179.599C114.039 179.559 113.613 177.834 114.326 177.699C117.574 177.068 118.202 176.577 120.783 174.551C121.053 174.319 121.382 174.167 121.733 174.112Z" fill="#263238"/>
    <path d="M125.383 53.8426C123.995 54.9886 122.629 55.9846 121.216 57.0046C119.803 58.0246 118.36 58.9716 116.875 59.8906C115.39 60.8096 113.866 61.6906 112.268 62.4906C110.635 63.3369 108.934 64.0466 107.183 64.6126C106.72 64.7606 106.269 64.8826 105.749 65.0126C105.241 65.1228 104.727 65.2053 104.209 65.2596C103.278 65.3596 102.402 65.4046 101.529 65.4446C99.7892 65.5246 98.0822 65.5226 96.3772 65.5106C92.9672 65.4696 89.5862 65.3056 86.1902 65.0056L86.1392 61.9056C89.4742 61.4766 92.8242 61.1056 96.1392 60.7326C97.7962 60.5526 99.4491 60.3506 101.064 60.1396C101.864 60.0306 102.664 59.9026 103.402 59.7656C103.719 59.7096 104.033 59.6358 104.342 59.5446C104.633 59.4446 104.99 59.3306 105.32 59.1976C106.737 58.6222 108.113 57.9492 109.437 57.1836C110.808 56.3966 112.18 55.5516 113.528 54.6536C114.876 53.7556 116.218 52.8256 117.548 51.8766C118.878 50.9276 120.207 49.9226 121.455 48.9766L125.383 53.8426Z" fill="#FFC3BD"/>
    <path d="M129.422 50.3104C128.828 54.2164 120.604 60.1914 120.604 60.1914L114.704 52.8684C117.289 50.1101 120.029 47.5022 122.912 45.0574C125.567 42.8874 130.068 46.0604 129.422 50.3104Z" fill="#407BFF"/>
    <path d="M87.2771 62.2325L84.9311 60.5625L84.6741 65.8385C85.0287 65.8394 85.3782 65.7535 85.6919 65.5883C86.0057 65.423 86.2742 65.1835 86.4741 64.8905L87.2771 62.2325Z" fill="#FFC3BD"/>
    <path d="M82.8121 59.0273L82.3322 64.1983L84.6762 65.8393L84.9332 60.5633L82.8121 59.0273Z" fill="#FFC3BD"/>
    <path opacity="0.2" d="M120.277 165.443L121.063 170.28L125.202 169.814L124.416 164.977L120.277 165.443Z" fill="black"/>
    <path opacity="0.2" d="M143.438 165.695H139.304L139.836 170.627H143.97L143.438 165.695Z" fill="black"/>
    <path d="M143.497 45.1832C143.805 45.2522 144.096 45.382 144.353 45.5651C144.609 45.7482 144.827 45.9808 144.993 46.2493C145.158 46.5177 145.268 46.8166 145.317 47.1283C145.365 47.44 145.351 47.7582 145.274 48.0642C144.378 51.7857 143.702 55.5569 143.25 59.3582C142.859 62.5582 142.625 65.6152 142.479 68.3862C142.136 74.8812 142.279 79.8322 142.085 81.5102C138.854 81.2862 126.678 80.4392 120.039 79.9752C117.798 62.4312 120.424 51.2352 121.899 46.6862C122.125 45.9773 122.548 45.3472 123.118 44.8692C123.688 44.3912 124.382 44.085 125.119 43.9862C125.965 43.8752 126.977 43.7682 128.045 43.7052C128.419 43.6812 128.798 43.6682 129.184 43.6602C132.318 43.6973 135.448 43.915 138.557 44.3122C139.147 44.3822 139.743 44.4692 140.323 44.5622C141.482 44.7562 142.584 44.9792 143.497 45.1832Z" fill="#346AE1"/>
    <path d="M138.366 33.6992C137.566 36.6732 136.588 42.1572 138.558 44.3172C133.448 47.7542 130.186 52.5932 129.245 51.5422C128.752 50.9922 128.538 44.6272 129.186 43.6632C132.605 43.0952 132.692 40.5942 132.27 38.2102L138.366 33.6992Z" fill="#FFC3BD"/>
    <path d="M138.162 43.0859C138.162 43.0859 129.835 46.7709 128.731 55.0109C131.025 52.3549 136.092 49.4649 136.092 49.4649L133.857 48.8229C135.278 48.2835 136.75 47.8875 138.25 47.6409C138.002 46.5029 139.324 44.2329 139.324 44.2329L138.162 43.0859Z" fill="#407BFF"/>
    <path d="M130.649 42.9531C130.649 42.9531 131.759 47.6591 128.732 55.0111C128.135 52.4451 127.317 49.9356 126.286 47.5111L128.325 48.0661C128.325 48.0661 128.225 47.1171 126.574 45.8551C127.262 44.8558 128.12 43.985 129.109 43.2821L130.649 42.9531Z" fill="#407BFF"/>
    <path opacity="0.2" d="M135.881 35.543L132.273 38.211C132.38 38.7662 132.438 39.3296 132.446 39.895C133.746 39.795 135.606 38.512 135.837 37.177C135.95 36.6394 135.965 36.0858 135.881 35.543Z" fill="black"/>
    <path d="M127.785 25.087C125.77 25.174 124.658 28.648 126.703 31.509C128.748 34.37 130.5 24.97 127.785 25.087Z" fill="#263238"/>
    <path d="M137.722 28.1458C137.961 32.2398 138.309 34.6228 136.507 36.9558C133.797 40.4648 128.557 39.2069 127.1 35.2669C125.789 31.7208 125.618 25.6218 129.4 23.5268C130.232 23.0604 131.169 22.8145 132.123 22.8125C133.077 22.8105 134.016 23.0524 134.849 23.5153C135.683 23.9781 136.385 24.6466 136.888 25.457C137.391 26.2675 137.678 27.1931 137.722 28.1458Z" fill="#FFC3BD"/>
    <path d="M138.323 31.291C137.228 30.6493 136.272 29.7962 135.511 28.7814C134.749 27.7666 134.197 26.6103 133.886 25.38C132.686 25.664 126.705 28.416 124.866 25.38C123.027 22.344 125.341 20.563 128.782 22.432C127.26 19.746 128.644 18.432 133.426 18.316C138.208 18.2 137.565 20.972 137.565 20.972C137.565 20.972 141.185 19.396 142.465 22.172C143.948 25.362 141.212 30.809 138.323 31.291Z" fill="#263238"/>
    <path d="M136.747 20.2373C136.791 20.2373 138.558 20.6623 140.594 18.6133C140.229 20.3613 137.067 21.5253 137.067 21.5253L136.747 20.2373Z" fill="#263238"/>
    <path d="M139.123 26.2289C137.216 25.5699 134.907 28.3949 135.76 31.8059C136.613 35.2169 141.692 27.1169 139.123 26.2289Z" fill="#263238"/>
    <path d="M140.202 31.5513C140.028 32.568 139.457 33.4741 138.616 34.0713C137.495 34.8533 136.485 33.9593 136.416 32.6653C136.358 31.5013 136.87 29.6913 138.177 29.4243C138.464 29.3707 138.76 29.3897 139.037 29.4794C139.315 29.5691 139.566 29.7268 139.767 29.9382C139.968 30.1495 140.113 30.4078 140.189 30.6895C140.265 30.9712 140.27 31.2675 140.202 31.5513Z" fill="#FFC3BD"/>
    <path d="M126.253 126.531C127.246 114.445 134.53 80.9876 134.53 80.9876L120.036 79.9766C120.036 79.9766 114.447 113.188 114.019 125.792C113.573 138.897 118.844 168.023 118.844 168.023L125.795 167.232C125.795 167.232 125.256 138.667 126.253 126.531Z" fill="#407BFF"/>
    <path opacity="0.5" d="M126.253 126.531C127.246 114.445 134.53 80.9876 134.53 80.9876L120.036 79.9766C120.036 79.9766 114.447 113.188 114.019 125.792C113.573 138.897 118.844 168.023 118.844 168.023L125.795 167.232C125.795 167.232 125.256 138.667 126.253 126.531Z" fill="white"/>
    <path opacity="0.2" d="M129.07 92.3164C126.148 96.0524 126.096 109.173 127.226 118.867C128.303 111.874 130 102.993 131.487 95.5904L129.07 92.3164Z" fill="black"/>
    <path d="M127.857 80.5195C127.857 80.5195 129.421 115.895 131.166 127.875C133.076 140.994 137.927 169.667 137.927 169.667H145.495C145.495 169.667 144.25 142.661 143.251 129.772C142.114 115.091 142.083 81.5115 142.083 81.5115L127.857 80.5195Z" fill="#407BFF"/>
    <path opacity="0.5" d="M127.857 80.5195C127.857 80.5195 129.421 115.895 131.166 127.875C133.076 140.994 137.927 169.667 137.927 169.667H145.495C145.495 169.667 144.25 142.661 143.251 129.772C142.114 115.091 142.083 81.5115 142.083 81.5115L127.857 80.5195Z" fill="white"/>
    <path d="M137.017 169.827H145.928V167.165L135.967 166.992L137.017 169.827Z" fill="#407BFF"/>
    <path d="M118.541 168.803L126.825 167.864L126.525 165.188L117.248 166.096L118.541 168.803Z" fill="#407BFF"/>
    <path d="M131.694 30.0226C131.734 30.3536 131.594 30.6426 131.374 30.6686C131.154 30.6946 130.95 30.4476 130.911 30.1166C130.872 29.7856 131.011 29.4966 131.231 29.4706C131.451 29.4446 131.655 29.6916 131.694 30.0226Z" fill="#263238"/>
    <path d="M127.955 30.4718C127.995 30.8028 127.855 31.0918 127.635 31.1178C127.415 31.1438 127.211 30.8968 127.171 30.5658C127.131 30.2348 127.271 29.9458 127.491 29.9198C127.711 29.8938 127.915 30.1448 127.955 30.4718Z" fill="#263238"/>
    <path d="M129.163 30.4922C128.89 31.5509 128.473 32.5671 127.923 33.5122C128.168 33.6466 128.44 33.7258 128.719 33.7443C128.998 33.7628 129.278 33.7201 129.539 33.6192L129.163 30.4922Z" fill="#ED847E"/>
    <path d="M132.711 28.6747C132.676 28.6852 132.639 28.686 132.604 28.677C132.569 28.6681 132.537 28.6496 132.511 28.6237C132.346 28.4419 132.14 28.3018 131.91 28.2149C131.68 28.128 131.432 28.0967 131.188 28.1237C131.137 28.1323 131.085 28.1209 131.042 28.0918C131 28.0627 130.97 28.0183 130.959 27.9678C130.954 27.9424 130.954 27.9163 130.959 27.891C130.964 27.8657 130.974 27.8416 130.989 27.8202C131.003 27.7989 131.022 27.7807 131.044 27.7667C131.065 27.7527 131.09 27.7432 131.115 27.7387C131.424 27.6988 131.737 27.7335 132.029 27.84C132.321 27.9465 132.584 28.1217 132.794 28.3507C132.83 28.388 132.85 28.4376 132.85 28.4892C132.85 28.5409 132.83 28.5905 132.794 28.6277C132.771 28.6501 132.742 28.6663 132.711 28.6747Z" fill="#263238"/>
    <path d="M131.274 34.9399C131.746 34.8406 132.187 34.6293 132.56 34.3236C132.933 34.018 133.227 33.6271 133.417 33.1839C133.426 33.1574 133.425 33.1283 133.413 33.1029C133.4 33.0776 133.379 33.0582 133.352 33.0489C133.326 33.0396 133.297 33.0413 133.271 33.0535C133.246 33.0656 133.226 33.0874 133.217 33.1139C133.035 33.5216 132.76 33.8807 132.413 34.1625C132.067 34.4442 131.659 34.6406 131.223 34.7359C131.21 34.739 131.197 34.7447 131.186 34.7527C131.174 34.7607 131.165 34.7709 131.158 34.7826C131.15 34.7943 131.145 34.8073 131.143 34.8209C131.141 34.8345 131.141 34.8485 131.144 34.8619C131.147 34.8754 131.153 34.8881 131.161 34.8994C131.169 34.9106 131.179 34.9202 131.191 34.9275C131.203 34.9348 131.216 34.9398 131.229 34.9421C131.243 34.9444 131.257 34.944 131.27 34.9409L131.274 34.9399Z" fill="#263238"/>
    <path d="M126.196 29.3753C126.157 29.3884 126.114 29.3884 126.075 29.3753C126.027 29.3574 125.987 29.3215 125.965 29.2751C125.942 29.2287 125.938 29.1754 125.954 29.1263C126.048 28.8297 126.212 28.5601 126.432 28.3404C126.652 28.1207 126.922 27.9574 127.219 27.8643C127.269 27.8529 127.322 27.8614 127.366 27.8878C127.41 27.9143 127.442 27.9567 127.456 28.0063C127.468 28.0564 127.459 28.1089 127.433 28.153C127.407 28.1971 127.365 28.2295 127.315 28.2433C127.082 28.3211 126.87 28.4533 126.698 28.6289C126.526 28.8045 126.397 29.0185 126.324 29.2533C126.314 29.2821 126.297 29.3081 126.274 29.3292C126.252 29.3504 126.225 29.3662 126.196 29.3753Z" fill="#263238"/>
    <path d="M138.632 175.501C138.349 175.523 138.067 175.449 137.832 175.29C137.759 175.226 137.702 175.146 137.667 175.056C137.633 174.966 137.62 174.869 137.632 174.773C137.632 174.715 137.648 174.659 137.677 174.611C137.707 174.562 137.749 174.522 137.8 174.496C138.259 174.26 139.59 175.08 139.74 175.174C139.757 175.184 139.77 175.199 139.778 175.217C139.786 175.235 139.788 175.254 139.785 175.274C139.782 175.293 139.773 175.31 139.76 175.325C139.747 175.339 139.73 175.349 139.711 175.354C139.358 175.443 138.996 175.492 138.632 175.501ZM138.018 174.646C137.974 174.644 137.931 174.652 137.891 174.67C137.871 174.681 137.854 174.698 137.843 174.718C137.832 174.738 137.827 174.762 137.829 174.785C137.82 174.85 137.828 174.917 137.851 174.979C137.874 175.041 137.912 175.096 137.962 175.14C138.424 175.35 138.949 175.377 139.429 175.214C138.998 174.934 138.517 174.741 138.013 174.646H138.018Z" fill="#407BFF"/>
    <path d="M139.685 175.357C139.669 175.357 139.653 175.353 139.638 175.345C139.211 175.113 138.384 174.207 138.471 173.745C138.485 173.673 138.524 173.608 138.581 173.561C138.637 173.515 138.709 173.489 138.782 173.488C138.857 173.479 138.932 173.486 139.004 173.507C139.076 173.529 139.142 173.566 139.199 173.614C139.679 174.007 139.778 175.199 139.781 175.249C139.782 175.267 139.779 175.284 139.771 175.3C139.763 175.316 139.752 175.33 139.737 175.339C139.722 175.35 139.704 175.356 139.685 175.357ZM138.851 173.682H138.806C138.679 173.698 138.668 173.756 138.663 173.782C138.611 174.054 139.138 174.738 139.563 175.061C139.535 174.589 139.365 174.136 139.075 173.761C139.012 173.709 138.933 173.681 138.851 173.682Z" fill="#407BFF"/>
    <path d="M121.397 174.723L121.381 174.73C120.734 174.937 119.576 175.23 119.081 174.884C119.008 174.833 118.948 174.766 118.907 174.687C118.866 174.608 118.845 174.52 118.845 174.432C118.841 174.378 118.851 174.324 118.874 174.276C118.897 174.227 118.932 174.186 118.976 174.155C119.441 173.828 121.188 174.471 121.386 174.546C121.403 174.553 121.418 174.565 121.428 174.58C121.439 174.595 121.445 174.613 121.446 174.631C121.447 174.65 121.443 174.668 121.435 174.684C121.426 174.701 121.413 174.714 121.397 174.724V174.723ZM119.114 174.299L119.091 174.313C119.073 174.325 119.059 174.341 119.05 174.361C119.041 174.381 119.038 174.402 119.041 174.424C119.04 174.482 119.053 174.54 119.08 174.593C119.106 174.645 119.145 174.69 119.193 174.724C119.801 174.913 120.457 174.878 121.041 174.624C120.436 174.355 119.773 174.243 119.113 174.299H119.114Z" fill="#407BFF"/>
    <path d="M121.397 174.724C121.374 174.736 121.346 174.738 121.321 174.73C120.801 174.564 119.721 173.787 119.741 173.315C119.746 173.204 119.809 173.059 120.073 173.002C120.168 172.98 120.267 172.979 120.363 172.997C120.459 173.015 120.55 173.053 120.631 173.108C121.055 173.513 121.341 174.041 121.447 174.618C121.45 174.634 121.45 174.652 121.444 174.668C121.439 174.684 121.43 174.699 121.417 174.711C121.411 174.716 121.404 174.72 121.397 174.724ZM120.006 173.234C119.939 173.27 119.937 173.312 119.936 173.328C119.922 173.612 120.668 174.234 121.209 174.48C121.109 174.019 120.87 173.6 120.524 173.28C120.465 173.239 120.398 173.211 120.327 173.197C120.257 173.183 120.184 173.185 120.114 173.201C120.077 173.207 120.04 173.218 120.006 173.234Z" fill="#407BFF"/>
    <path d="M146.983 51.1436C146.878 52.7576 146.688 54.2606 146.491 55.8126C146.294 57.3646 146.029 58.8856 145.738 60.4206C145.162 63.5558 144.312 66.6343 143.197 69.6206L142.706 70.7776L142.582 71.0666L142.551 71.1386L142.5 71.2486L142.356 71.5336C142.166 71.8799 141.937 72.2039 141.675 72.4996C141.244 72.9848 140.74 73.3997 140.181 73.7296C139.728 73.999 139.254 74.2295 138.762 74.4186C137.124 75.0095 135.411 75.3669 133.674 75.4806C130.519 75.7163 127.348 75.5979 124.22 75.1276L124.333 72.0276L126.519 71.7806C127.252 71.6936 127.981 71.5806 128.706 71.4806C130.153 71.2676 131.585 71.0296 132.95 70.7126C134.213 70.4556 135.44 70.0487 136.606 69.5006C136.92 69.3685 137.196 69.1582 137.406 68.8896C137.419 68.8186 137.261 69.1296 137.447 68.6326L137.774 67.6766C138.575 64.936 139.188 62.1438 139.608 59.3196C139.843 57.8816 140.044 56.4306 140.238 54.9756C140.432 53.5206 140.592 52.0356 140.745 50.6406L146.983 51.1436Z" fill="#FFC3BD"/>
    <path d="M147.343 48.1483C149.366 51.5413 147.643 62.2053 147.643 62.2053L137.043 60.2463C137.043 60.2463 136.469 54.1463 138.487 49.4523C140.678 44.3433 144.892 44.0373 147.343 48.1483Z" fill="#407BFF"/>
    <path d="M121.365 81.6203L115.74 55.4563C115.47 54.339 114.844 53.3398 113.957 52.6092C113.069 51.8787 111.968 51.4565 110.82 51.4062H89.2671C90.4156 51.4563 91.5167 51.8784 92.4044 52.6089C93.292 53.3395 93.9181 54.3388 94.1881 55.4563L99.8131 81.6203C100.083 82.7375 100.709 83.7368 101.596 84.4673C102.484 85.1978 103.585 85.62 104.733 85.6703H126.285C125.137 85.62 124.036 85.1978 123.148 84.4673C122.261 83.7368 121.635 82.7375 121.365 81.6203Z" fill="#263238"/>
    <path opacity="0.7" d="M121.365 81.6203L115.74 55.4563C115.47 54.339 114.844 53.3398 113.957 52.6092C113.069 51.8787 111.968 51.4565 110.82 51.4062H89.2671C90.4156 51.4563 91.5167 51.8784 92.4044 52.6089C93.292 53.3395 93.9181 54.3388 94.1881 55.4563L99.8131 81.6203C100.083 82.7375 100.709 83.7368 101.596 84.4673C102.484 85.1978 103.585 85.62 104.733 85.6703H126.285C125.137 85.62 124.036 85.1978 123.148 84.4673C122.261 83.7368 121.635 82.7375 121.365 81.6203Z" fill="#407BFF"/>
    <path d="M89.2671 51.4062H110.819C109.716 51.4269 108.658 51.8499 107.844 52.5957C107.031 53.3415 106.517 54.3587 106.401 55.4563L100.81 116.256C100.694 117.354 100.18 118.371 99.3668 119.117C98.5533 119.862 97.4955 120.285 96.3921 120.306H82.9401C82.4219 120.316 81.9077 120.215 81.4318 120.009C80.9559 119.804 80.5294 119.5 80.1808 119.116C79.8322 118.733 79.5695 118.279 79.4104 117.786C79.2512 117.293 79.1993 116.771 79.2581 116.256L84.8501 55.4563C84.9664 54.3589 85.4794 53.3418 86.2928 52.596C87.1061 51.8503 88.1638 51.4272 89.2671 51.4062Z" fill="#407BFF"/>
    <path d="M92.7101 116.254C92.6513 116.769 92.7033 117.29 92.8624 117.784C93.0215 118.277 93.2842 118.73 93.6328 119.114C93.9814 119.497 94.408 119.802 94.8838 120.007C95.3597 120.212 95.874 120.314 96.3921 120.304H74.8401C74.3219 120.314 73.8076 120.213 73.3316 120.007C72.8557 119.802 72.4291 119.498 72.0804 119.114C71.7318 118.731 71.4691 118.277 71.31 117.784C71.151 117.29 71.0992 116.769 71.1581 116.254H92.7101Z" fill="#263238"/>
    <path opacity="0.7" d="M92.7101 116.254C92.6513 116.769 92.7033 117.29 92.8624 117.784C93.0215 118.277 93.2842 118.73 93.6328 119.114C93.9814 119.497 94.408 119.802 94.8838 120.007C95.3597 120.212 95.874 120.314 96.3921 120.304H74.8401C74.3219 120.314 73.8076 120.213 73.3316 120.007C72.8557 119.802 72.4291 119.498 72.0804 119.114C71.7318 118.731 71.4691 118.277 71.31 117.784C71.151 117.29 71.0992 116.769 71.1581 116.254H92.7101Z" fill="#407BFF"/>
    <g opacity="0.5">
        <path opacity="0.5" d="M102.666 58.2172H88.0821C87.9695 58.2188 87.8579 58.1963 87.7546 58.1514C87.6513 58.1065 87.5588 58.0401 87.4831 57.9567C87.4074 57.8733 87.3504 57.7747 87.3157 57.6676C87.2811 57.5604 87.2696 57.4471 87.2821 57.3352C87.308 57.0965 87.42 56.8753 87.597 56.713C87.774 56.5507 88.004 56.4584 88.2441 56.4532H102.826C102.939 56.4517 103.05 56.4741 103.154 56.519C103.257 56.5639 103.349 56.6303 103.425 56.7137C103.501 56.7971 103.558 56.8957 103.593 57.0028C103.627 57.11 103.639 57.2233 103.626 57.3352C103.6 57.5736 103.489 57.7945 103.312 57.9568C103.135 58.119 102.906 58.2116 102.666 58.2172Z" fill="white"/>
        <path opacity="0.5" d="M102.232 62.9867H87.6482C87.5356 62.9883 87.4239 62.9658 87.3206 62.9209C87.2174 62.876 87.1248 62.8097 87.0492 62.7262C86.9735 62.6428 86.9164 62.5443 86.8818 62.4371C86.8471 62.3299 86.8357 62.2166 86.8482 62.1047C86.8741 61.866 86.986 61.6448 87.163 61.4825C87.34 61.3202 87.5701 61.2279 87.8102 61.2227H102.394C102.507 61.2212 102.618 61.2436 102.722 61.2885C102.825 61.3334 102.918 61.3998 102.993 61.4832C103.069 61.5666 103.126 61.6652 103.161 61.7723C103.195 61.8795 103.207 61.9928 103.194 62.1047C103.168 62.3436 103.057 62.5649 102.88 62.7272C102.702 62.8895 102.472 62.9818 102.232 62.9867Z" fill="white"/>
        <path opacity="0.5" d="M98.2232 67.7602H87.2142C87.1016 67.7617 86.99 67.7393 86.8867 67.6944C86.7834 67.6495 86.6909 67.5831 86.6152 67.4997C86.5395 67.4163 86.4825 67.3177 86.4478 67.2105C86.4132 67.1034 86.4017 66.9901 86.4142 66.8782C86.4401 66.6394 86.5521 66.4182 86.7291 66.2559C86.9061 66.0937 87.1361 66.0013 87.3762 65.9962H98.3852C98.4978 65.9946 98.6095 66.017 98.7127 66.0619C98.816 66.1069 98.9086 66.1732 98.9842 66.2567C99.0599 66.3401 99.1169 66.4386 99.1516 66.5458C99.1862 66.6529 99.1977 66.7662 99.1852 66.8782C99.1593 67.1169 99.0474 67.3381 98.8703 67.5004C98.6933 67.6627 98.4633 67.755 98.2232 67.7602Z" fill="white"/>
        <path opacity="0.5" d="M90.5142 72.5297H86.7812C86.6686 72.5313 86.557 72.5088 86.4537 72.4639C86.3504 72.419 86.2579 72.3526 86.1822 72.2692C86.1065 72.1858 86.0495 72.0872 86.0148 71.9801C85.9802 71.8729 85.9687 71.7596 85.9812 71.6477C86.0069 71.409 86.1186 71.1879 86.2955 71.0256C86.4723 70.8633 86.7022 70.7709 86.9422 70.7657H90.6762C90.7888 70.7642 90.9005 70.7866 91.0038 70.8315C91.107 70.8764 91.1996 70.9428 91.2752 71.0262C91.3509 71.1096 91.4079 71.2082 91.4426 71.3153C91.4773 71.4225 91.4887 71.5358 91.4762 71.6477C91.4503 71.8865 91.3384 72.1076 91.1614 72.2699C90.9843 72.4322 90.7543 72.5246 90.5142 72.5297Z" fill="white"/>
        <path opacity="0.5" d="M100.93 77.2992H86.3421C86.2295 77.3008 86.1179 77.2784 86.0146 77.2334C85.9113 77.1885 85.8188 77.1222 85.7431 77.0387C85.6675 76.9553 85.6104 76.8568 85.5758 76.7496C85.5411 76.6425 85.5296 76.5292 85.5421 76.4172C85.5681 76.1785 85.68 75.9573 85.857 75.795C86.034 75.6327 86.264 75.5404 86.5041 75.5352H101.088C101.201 75.5337 101.312 75.5561 101.416 75.601C101.519 75.6459 101.611 75.7123 101.687 75.7957C101.763 75.8791 101.82 75.9777 101.855 76.0849C101.889 76.192 101.901 76.3053 101.888 76.4172C101.862 76.6553 101.751 76.8759 101.575 77.0381C101.399 77.2004 101.17 77.2931 100.93 77.2992Z" fill="white"/>
        <path opacity="0.5" d="M94.7532 82.0727H85.9132C85.8006 82.0742 85.6889 82.0518 85.5856 82.0069C85.4824 81.962 85.3898 81.8956 85.3142 81.8122C85.2385 81.7288 85.1814 81.6302 85.1468 81.5231C85.1121 81.4159 85.1007 81.3026 85.1132 81.1907C85.1389 80.952 85.2506 80.7309 85.4274 80.5685C85.6043 80.4062 85.8342 80.3138 86.0742 80.3087H94.9142C95.0268 80.3071 95.1384 80.3296 95.2417 80.3745C95.345 80.4194 95.4375 80.4857 95.5132 80.5692C95.5888 80.6526 95.6459 80.7511 95.6805 80.8583C95.7152 80.9654 95.7267 81.0787 95.7142 81.1907C95.6883 81.4293 95.5765 81.6503 95.3997 81.8126C95.2229 81.9748 94.9931 82.0673 94.7532 82.0727Z" fill="white"/>
        <path opacity="0.5" d="M100.063 86.8422H85.4792C85.3666 86.8437 85.255 86.8213 85.1517 86.7764C85.0484 86.7315 84.9559 86.6651 84.8802 86.5817C84.8045 86.4983 84.7475 86.3997 84.7128 86.2926C84.6782 86.1854 84.6667 86.0721 84.6792 85.9602C84.7051 85.7215 84.8171 85.5003 84.9941 85.338C85.1711 85.1757 85.4011 85.0834 85.6412 85.0782H100.226C100.339 85.0767 100.45 85.0991 100.554 85.144C100.657 85.1889 100.75 85.2553 100.825 85.3387C100.901 85.4221 100.958 85.5207 100.993 85.6278C101.027 85.735 101.039 85.8483 101.026 85.9602C101 86.1991 100.888 86.4204 100.711 86.5827C100.534 86.7451 100.303 86.8373 100.063 86.8422Z" fill="white"/>
        <path opacity="0.5" d="M96.0541 91.6117H85.0451C84.9325 91.6133 84.8209 91.5909 84.7176 91.5459C84.6143 91.501 84.5218 91.4347 84.4461 91.3513C84.3705 91.2678 84.3134 91.1693 84.2788 91.0621C84.2441 90.955 84.2326 90.8417 84.2451 90.7297C84.2711 90.491 84.383 90.2698 84.56 90.1075C84.737 89.9452 84.967 89.8529 85.2071 89.8477H96.2161C96.3287 89.8462 96.4404 89.8686 96.5437 89.9135C96.647 89.9584 96.7395 90.0248 96.8152 90.1082C96.8908 90.1916 96.9479 90.2902 96.9825 90.3974C97.0172 90.5045 97.0286 90.6178 97.0161 90.7297C96.9902 90.9685 96.8783 91.1896 96.7013 91.3519C96.5243 91.5142 96.2942 91.6066 96.0541 91.6117Z" fill="white"/>
        <path opacity="0.5" d="M88.3452 96.3813H84.6092C84.4966 96.3828 84.385 96.3604 84.2817 96.3155C84.1784 96.2706 84.0859 96.2042 84.0102 96.1208C83.9345 96.0374 83.8775 95.9388 83.8428 95.8316C83.8082 95.7245 83.7967 95.6112 83.8092 95.4993C83.8351 95.2605 83.9471 95.0394 84.1241 94.8771C84.3011 94.7148 84.5311 94.6224 84.7712 94.6173H88.5092C88.6218 94.6157 88.7335 94.6381 88.8368 94.6831C88.94 94.728 89.0326 94.7943 89.1082 94.8777C89.1839 94.9612 89.241 95.0597 89.2756 95.1669C89.3103 95.274 89.3217 95.3873 89.3092 95.4993C89.2832 95.7384 89.1711 95.9598 88.9936 96.1221C88.8162 96.2845 88.5857 96.3766 88.3452 96.3813Z" fill="white"/>
        <path opacity="0.5" d="M98.7612 101.155H84.1772C84.0646 101.156 83.953 101.134 83.8497 101.089C83.7464 101.044 83.6539 100.978 83.5782 100.894C83.5025 100.811 83.4455 100.712 83.4108 100.605C83.3762 100.498 83.3647 100.385 83.3772 100.273C83.4031 100.034 83.5151 99.8128 83.6921 99.6505C83.8691 99.4882 84.0991 99.3959 84.3392 99.3907H98.9232C99.0358 99.3892 99.1475 99.4116 99.2507 99.4565C99.354 99.5014 99.4466 99.5678 99.5222 99.6512C99.5979 99.7346 99.655 99.8332 99.6896 99.9403C99.7243 100.047 99.7357 100.161 99.7232 100.273C99.6973 100.511 99.5854 100.733 99.4084 100.895C99.2313 101.057 99.0013 101.15 98.7612 101.155Z" fill="white"/>
        <path opacity="0.5" d="M92.5841 105.924H83.7441C83.6315 105.926 83.5199 105.903 83.4166 105.858C83.3133 105.814 83.2208 105.747 83.1451 105.664C83.0694 105.58 83.0124 105.482 82.9777 105.375C82.9431 105.267 82.9316 105.154 82.9441 105.042C82.9698 104.803 83.0817 104.582 83.2587 104.42C83.4358 104.257 83.6659 104.165 83.9061 104.16H92.7451C92.8577 104.159 92.9694 104.181 93.0726 104.226C93.1759 104.271 93.2685 104.337 93.3441 104.421C93.4198 104.504 93.4768 104.603 93.5115 104.71C93.5461 104.817 93.5576 104.93 93.5451 105.042C93.5192 105.281 93.4074 105.502 93.2306 105.664C93.0538 105.826 92.824 105.919 92.5841 105.924Z" fill="white"/>
        <path opacity="0.5" d="M97.8932 110.694H83.3092C83.1966 110.695 83.0849 110.673 82.9816 110.628C82.8784 110.583 82.7858 110.517 82.7102 110.433C82.6345 110.35 82.5774 110.251 82.5428 110.144C82.5081 110.037 82.4967 109.924 82.5092 109.812C82.5351 109.573 82.647 109.352 82.824 109.19C83.0011 109.027 83.2311 108.935 83.4712 108.93H98.0532C98.1658 108.928 98.2774 108.951 98.3807 108.996C98.484 109.04 98.5765 109.107 98.6522 109.19C98.7279 109.274 98.7849 109.372 98.8196 109.479C98.8542 109.587 98.8657 109.7 98.8532 109.812C98.8273 110.05 98.7157 110.271 98.5391 110.433C98.3625 110.596 98.1329 110.688 97.8932 110.694Z" fill="white"/>
    </g>
    <path d="M125.604 72.3682L122.438 69.6172L120.954 74.6812C120.954 74.6812 124.17 76.4252 125.284 74.8242L125.604 72.3682Z" fill="#FFC3BD"/>
    <path d="M118.989 69.418L117.959 73.662L120.951 74.682L122.435 69.617L118.989 69.418Z" fill="#FFC3BD"/>
</svg>