<svg width="21" height="21" viewBox="0 0 21 21" fill="none" xmlns="http://www.w3.org/2000/svg">
    <g id="icons / 20 / container">
        <path id="container" fill-rule="evenodd" clip-rule="evenodd" d="M10.5 4.58203C10.9142 4.58203 11.25 4.91782 11.25 5.33203V9.58203H15.5C15.9142 9.58203 16.25 9.91782 16.25 10.332C16.25 10.7462 15.9142 11.082 15.5 11.082H11.25V15.332C11.25 15.7462 10.9142 16.082 10.5 16.082C10.0858 16.082 9.75 15.7462 9.75 15.332V11.082H5.5C5.08579 11.082 4.75 10.7462 4.75 10.332C4.75 9.91782 5.08579 9.58203 5.5 9.58203H9.75V5.33203C9.75 4.91782 10.0858 4.58203 10.5 4.58203Z" fill="white"/>
    </g>
</svg>