<svg width="20" height="20" viewBox="0 0 20 20" fill="none" xmlns="http://www.w3.org/2000/svg">
    <g id="icons / 20 / container">
        <path id="container" fill-rule="evenodd" clip-rule="evenodd" d="M4.08341 5.83333C4.08341 4.4066 5.24001 3.25 6.66675 3.25C8.09348 3.25 9.25008 4.4066 9.25008 5.83333C9.25008 7.26007 8.09348 8.41667 6.66675 8.41667C5.24001 8.41667 4.08341 7.26007 4.08341 5.83333ZM6.66675 1.75C4.41159 1.75 2.58341 3.57817 2.58341 5.83333C2.58341 8.0885 4.41159 9.91667 6.66675 9.91667C8.92191 9.91667 10.7501 8.0885 10.7501 5.83333C10.7501 3.57817 8.92191 1.75 6.66675 1.75ZM11.6667 1.75C11.2525 1.75 10.9167 2.08579 10.9167 2.5C10.9167 2.91421 11.2525 3.25 11.6667 3.25C13.0935 3.25 14.2501 4.4066 14.2501 5.83333C14.2501 7.26007 13.0935 8.41667 11.6667 8.41667C11.2525 8.41667 10.9167 8.75245 10.9167 9.16667C10.9167 9.58088 11.2525 9.91667 11.6667 9.91667C13.9219 9.91667 15.7501 8.0885 15.7501 5.83333C15.7501 3.57817 13.9219 1.75 11.6667 1.75ZM5.00008 13.25C3.57335 13.25 2.41675 14.4066 2.41675 15.8333C2.41675 16.3396 2.82715 16.75 3.33341 16.75H10.0001C10.5063 16.75 10.9167 16.3396 10.9167 15.8333C10.9167 14.4066 9.76015 13.25 8.33341 13.25H5.00008ZM0.916748 15.8333C0.916748 13.5782 2.74492 11.75 5.00008 11.75H8.33341C10.5886 11.75 12.4167 13.5782 12.4167 15.8333C12.4167 17.168 11.3348 18.25 10.0001 18.25H3.33341C1.99873 18.25 0.916748 17.168 0.916748 15.8333ZM13.3334 11.75C12.9192 11.75 12.5834 12.0858 12.5834 12.5C12.5834 12.9142 12.9192 13.25 13.3334 13.25H15.0001C16.4268 13.25 17.5834 14.4066 17.5834 15.8333C17.5834 16.3396 17.173 16.75 16.6667 16.75H13.3334C12.9192 16.75 12.5834 17.0858 12.5834 17.5C12.5834 17.9142 12.9192 18.25 13.3334 18.25H16.6667C18.0014 18.25 19.0834 17.168 19.0834 15.8333C19.0834 13.5782 17.2552 11.75 15.0001 11.75H13.3334Z" fill="white"/>
    </g>
</svg>