<svg width="118" height="36" viewBox="0 0 118 36" fill="none" xmlns="http://www.w3.org/2000/svg">
<mask id="mask0_1_7206" style="mask-type:luminance" maskUnits="userSpaceOnUse" x="0" y="0" width="32" height="36">
<path d="M23.4775 4.49996L27.3889 6.75227L28.8395 7.58765C30.4059 8.48765 31.305 10.0338 31.305 11.8384V24.1753C31.305 25.9753 30.4106 27.5215 28.8441 28.4261L23.4821 31.5092L18.1201 34.5923C16.5537 35.4923 14.7601 35.4923 13.1937 34.5923L11.7431 33.7569L7.83168 31.5046L3.92024 29.2569L2.46966 28.4215C0.903231 27.5215 0.00878906 25.9753 0.00878906 24.1707V11.8338C0.00878906 10.0338 0.903231 8.48765 2.46966 7.58304L7.83168 4.49996L13.1937 1.41688C14.7601 0.516882 16.5537 0.516882 18.1201 1.41688L19.5707 2.25227L23.4821 4.50457L23.4775 4.49996Z" fill="white"/>
</mask>
<g mask="url(#mask0_1_7206)">
<path fill-rule="evenodd" clip-rule="evenodd" d="M15.65 27L7.82715 31.5L11.7386 33.7477L23.4776 27V22.5V18V13.5V9L27.3937 6.74769L23.4776 4.5L15.65 9V13.5V18V22.5V27Z" fill="#FF0066"/>
<path fill-rule="evenodd" clip-rule="evenodd" d="M15.65 27L7.82715 31.5L11.7386 33.7477L23.4776 27V22.5V18V13.5V9L27.3937 6.74769L23.4776 4.5L15.65 9V13.5V18V22.5V27Z" fill="#FF0066"/>
<path fill-rule="evenodd" clip-rule="evenodd" d="M23.4773 26.9999L11.7383 33.7476L15.6497 35.9999L23.4773 31.4999L31.3048 26.9999V22.4999V17.9999V13.4999V8.99993L27.3933 6.74762L23.4773 8.99993V13.4999V17.9999V22.4999V26.9999Z" fill="#FF9000"/>
<path fill-rule="evenodd" clip-rule="evenodd" d="M23.4773 26.9999L11.7383 33.7476L15.6497 35.9999L23.4773 31.4999L31.3048 26.9999V22.4999V17.9999V13.4999V8.99993L27.3933 6.74762L23.4773 8.99993V13.4999V17.9999V22.4999V26.9999Z" fill="#FFD038"/>
<path fill-rule="evenodd" clip-rule="evenodd" d="M23.4774 9L27.3935 6.74769L23.4774 4.5L15.6499 9H23.4774Z" fill="#FF1F8B"/>
<path fill-rule="evenodd" clip-rule="evenodd" d="M31.3056 8.99993L27.3941 6.74762L23.478 8.99993H31.3056Z" fill="#FFD851"/>
<path fill-rule="evenodd" clip-rule="evenodd" d="M15.65 27L7.82715 31.5L11.7386 33.7477L23.4776 27H15.65Z" fill="#DC0045"/>
<path fill-rule="evenodd" clip-rule="evenodd" d="M23.4773 27L11.7383 33.7477L15.6497 36L23.4773 31.5L31.3048 27H23.4773Z" fill="#E3BC35"/>
<path fill-rule="evenodd" clip-rule="evenodd" d="M3.91096 29.2477L7.82704 27V22.5V18V13.5V9L19.566 2.25231L15.6499 0L7.82704 4.5L-0.000488281 9V13.5V18V22.5V27L3.91096 29.2477Z" fill="#3ECE7A"/>
<path fill-rule="evenodd" clip-rule="evenodd" d="M7.82721 27.0001L3.91113 29.2478L7.82721 31.5001L15.6501 27.0001V22.5001V18.0001V13.5001V9.00007L23.4776 4.50007L19.5662 2.25238L7.82721 9.00007V13.5001V18.0001V22.5001V27.0001Z" fill="#000DB2"/>
<path fill-rule="evenodd" clip-rule="evenodd" d="M7.82704 9L19.566 2.25231L15.6499 0L7.82704 4.5L-0.000488281 9H7.82704Z" fill="#74E2A1"/>
<path fill-rule="evenodd" clip-rule="evenodd" d="M15.65 9.00007L23.4776 4.50007L19.5661 2.25238L7.82715 9.00007H15.65Z" fill="#1A25BA"/>
<path fill-rule="evenodd" clip-rule="evenodd" d="M3.91096 29.2477L7.82704 27H-0.000488281L3.91096 29.2477Z" fill="#3CB16C"/>
<path fill-rule="evenodd" clip-rule="evenodd" d="M7.82721 27L3.91113 29.2477L7.82721 31.5L15.6501 27H7.82721Z" fill="#000A82"/>
</g>
<path fill-rule="evenodd" clip-rule="evenodd" d="M44.0547 20.5731C44.8713 22.2008 46.7331 23.2603 49.0594 23.2603C51.9011 23.2603 53.8827 21.6986 53.8827 19.532C53.8827 17.787 52.7867 16.6249 50.5728 16.0566L49.0594 15.6534C47.448 15.2501 46.8165 14.8139 46.8165 14.0073C46.8165 13.1165 47.7493 12.497 48.9941 12.497C50.2389 12.497 51.3386 13.0835 51.8031 13.9597L53.7158 12.9186C52.9355 11.3752 51.139 10.4 49.0268 10.4C46.3157 10.4 44.4866 11.9617 44.4866 14.1137C44.4866 15.811 45.5826 16.9511 47.7964 17.523L49.3098 17.9263C50.9212 18.3295 51.5563 18.7841 51.5563 19.6383C51.5563 20.5621 50.493 21.167 49.0957 21.167C47.6985 21.167 46.5008 20.4631 45.9854 19.5027L44.0583 20.5768L44.0547 20.5731Z" fill="white"/>
<path fill-rule="evenodd" clip-rule="evenodd" d="M61.7837 13.989V18.6925C61.7837 20.2395 60.8365 21.2623 59.5045 21.2623C58.1726 21.2623 57.4939 20.4741 57.4939 18.9271V13.989H55.2329V19.0774C55.2329 21.7132 56.6628 23.2603 58.9892 23.2603C60.2522 23.2603 61.301 22.6554 61.7837 21.7316V23.0257H64.0629V13.989H61.7837Z" fill="white"/>
<path fill-rule="evenodd" clip-rule="evenodd" d="M75.4179 18.5055C75.4687 15.8696 73.5561 13.7031 71.0628 13.7507C69.8143 13.7507 68.751 14.2713 68.1521 15.2611V13.9853H65.8911V26.6H68.1521V21.7279C68.751 22.7177 69.7998 23.2566 71.0628 23.2566C73.5561 23.2896 75.4687 21.1413 75.4179 18.5018V18.5055ZM73.2549 18.5055C73.2549 20.0672 72.206 21.2586 70.6926 21.2586C69.1792 21.2586 68.1666 20.1662 68.1666 18.5055C68.1666 16.8448 69.2155 15.7523 70.6926 15.7523C71.4402 15.7523 72.0572 16.02 72.5399 16.5405C73.0226 17.0611 73.2549 17.7173 73.2549 18.5055Z" fill="white"/>
<path fill-rule="evenodd" clip-rule="evenodd" d="M85.5881 17.9189C85.5881 15.2831 84.1581 13.7544 81.8318 13.7544C80.5688 13.7544 79.5381 14.3593 79.0227 15.2831V10.411H76.7617V23.0256H79.0227V18.3075C79.0227 16.7788 79.9881 15.756 81.3019 15.756C82.6157 15.756 83.3125 16.5442 83.3125 18.0912V23.0293H85.5917V17.9226L85.5881 17.9189Z" fill="white"/>
<path fill-rule="evenodd" clip-rule="evenodd" d="M93.7793 13.989V18.6925C93.7793 20.2395 92.8321 21.2623 91.5001 21.2623C90.1682 21.2623 89.4895 20.4741 89.4895 18.9271V13.989H87.2285V19.0774C87.2285 21.7132 88.6584 23.2603 90.9848 23.2603C92.2478 23.2603 93.2966 22.6554 93.7793 21.7316V23.0257H96.0585V13.989H93.7793Z" fill="white"/>
<path fill-rule="evenodd" clip-rule="evenodd" d="M107.356 18.5056C107.407 15.8698 105.495 13.7032 103.001 13.7508C101.753 13.7508 100.689 14.2714 100.091 15.2612V10.4075H97.8296V23.0221H100.091V21.728C100.689 22.7178 101.738 23.2567 103.001 23.2567C105.495 23.2897 107.407 21.1415 107.356 18.502V18.5056ZM105.193 18.5056C105.193 20.0673 104.144 21.2588 102.631 21.2588C101.118 21.2588 100.105 20.1663 100.105 18.5056C100.105 16.8449 101.154 15.7525 102.631 15.7525C103.379 15.7525 103.996 16.0201 104.478 16.5407C104.961 17.0612 105.193 17.7174 105.193 18.5056Z" fill="white"/>
</svg>
