<svg width="12" height="12" viewBox="0 0 12 12" fill="none" xmlns="http://www.w3.org/2000/svg">
<path fill-rule="evenodd" clip-rule="evenodd" d="M6.00003 1.12085C5.53841 1.12085 5.20166 1.39876 4.91355 1.76078C4.63174 2.11488 4.33186 2.63289 3.961 3.2735L3.94464 3.30175L1.91353 6.81002L1.89716 6.8383C1.52489 7.48129 1.22394 8.00109 1.05666 8.42306C0.885707 8.85431 0.812157 9.28591 1.04328 9.68677C1.2744 10.0876 1.68476 10.2402 2.14364 10.3084C2.59263 10.375 3.19326 10.375 3.93625 10.375H3.96892H8.03113H8.06381C8.80679 10.375 9.40742 10.375 9.85642 10.3084C10.3153 10.2402 10.7257 10.0876 10.9568 9.68677C11.1879 9.28591 11.1143 8.85431 10.9434 8.42306C10.7761 8.0011 10.4752 7.48132 10.1029 6.83835L10.1029 6.83831L10.0865 6.81003L8.05541 3.30175L8.03906 3.2735C7.6682 2.63289 7.36831 2.11488 7.08651 1.76078C6.7984 1.39876 6.46165 1.12085 6.00003 1.12085ZM6.37503 4.49997C6.37503 4.29287 6.20713 4.12497 6.00003 4.12497C5.79292 4.12497 5.62503 4.29287 5.62503 4.49997V6.49997C5.62503 6.70708 5.79292 6.87497 6.00003 6.87497C6.20713 6.87497 6.37503 6.70708 6.37503 6.49997V4.49997ZM6.50003 7.99997C6.50003 8.27611 6.27617 8.49997 6.00003 8.49997C5.72388 8.49997 5.50003 8.27611 5.50003 7.99997C5.50003 7.72383 5.72388 7.49997 6.00003 7.49997C6.27617 7.49997 6.50003 7.72383 6.50003 7.99997Z" fill="#F52419"/>
</svg>
