<svg width="20" height="20" viewBox="0 0 20 20" fill="none" xmlns="http://www.w3.org/2000/svg">
<path fill-rule="evenodd" clip-rule="evenodd" d="M7.41668 0.833313C7.41668 0.419099 7.08089 0.083313 6.66668 0.083313C6.25246 0.083313 5.91668 0.419099 5.91668 0.833313V1.7862C5.89207 1.78908 5.86778 1.79218 5.84377 1.79553C3.7414 2.0888 2.08883 3.74137 1.79556 5.84374C1.7499 6.17104 1.74994 6.54724 1.75 7.13863L1.75001 7.20586V9.99998L1.75001 10.0489C1.75 11.6512 1.74999 12.9205 1.86869 13.9247C1.99055 14.9557 2.24639 15.8044 2.82821 16.5133C3.02559 16.7539 3.24613 16.9744 3.48664 17.1718C4.19559 17.7536 5.04429 18.0094 6.07526 18.1313C7.07943 18.25 8.3487 18.25 9.95085 18.25H9.95087H9.95089H9.95091H9.95093H9.95095H9.95097H9.95098H9.951H9.9511H10H10.0489H10.049H10.049H10.0491H10.0491H10.0491H10.0491H10.0491H10.0491H10.0492C11.6513 18.25 12.9206 18.25 13.9248 18.1313C14.9557 18.0094 15.8044 17.7536 16.5134 17.1718C16.7539 16.9744 16.9744 16.7539 17.1718 16.5133C17.7536 15.8044 18.0095 14.9557 18.1313 13.9247C18.25 12.9206 18.25 11.6513 18.25 10.0491V10.0491V10.0491V10.0491V10.0491V10.049V10.049V10.049V10.049V10.0489V9.99998V9.95107V9.95097V9.95095V9.95093V9.95091V9.95089V9.95087V9.95085V9.95083V9.95081C18.25 8.34868 18.25 7.0794 18.1313 6.07523C18.0095 5.04426 17.7536 4.19556 17.1718 3.48661C16.9744 3.2461 16.7539 3.02556 16.5134 2.82818C15.8411 2.27647 15.0432 2.01787 14.0833 1.88868V0.833313C14.0833 0.419099 13.7476 0.083313 13.3333 0.083313C12.9191 0.083313 12.5833 0.419099 12.5833 0.833313V1.77544C11.8482 1.74997 11.0082 1.74997 10.0489 1.74998H10.0489H10.0489L10 1.74998H7.41668V0.833313ZM12.5833 3.33331V3.27625C11.8742 3.25045 11.0294 3.24998 10 3.24998H7.41668V3.33331C7.41668 3.74753 7.08089 4.08331 6.66668 4.08331C6.25246 4.08331 5.91668 3.74753 5.91668 3.33331V3.30273C4.54258 3.55298 3.47554 4.6576 3.28118 6.05097C3.25182 6.2614 3.25001 6.52492 3.25001 7.20586V9.99998C3.25001 11.6621 3.25124 12.8427 3.35832 13.7487C3.46344 14.638 3.66158 15.1644 3.98773 15.5618C4.12278 15.7263 4.27367 15.8772 4.43823 16.0123C4.83563 16.3384 5.36198 16.5365 6.25134 16.6417C7.15725 16.7488 8.3379 16.75 10 16.75C11.6621 16.75 12.8428 16.7488 13.7487 16.6417C14.638 16.5365 15.1644 16.3384 15.5618 16.0123C15.7263 15.8772 15.8772 15.7263 16.0123 15.5618C16.3384 15.1644 16.5366 14.638 16.6417 13.7487C16.7488 12.8427 16.75 11.6621 16.75 9.99998C16.75 8.33787 16.7488 7.15722 16.6417 6.25131C16.5366 5.36195 16.3384 4.8356 16.0123 4.4382C15.8772 4.27364 15.7263 4.12275 15.5618 3.9877C15.2164 3.70428 14.7737 3.51752 14.08 3.40447C14.0442 3.78531 13.7236 4.08331 13.3333 4.08331C12.9191 4.08331 12.5833 3.74753 12.5833 3.33331ZM5.83335 5.91665C5.41914 5.91665 5.08335 6.25243 5.08335 6.66665C5.08335 7.08086 5.41914 7.41665 5.83335 7.41665H14.1667C14.5809 7.41665 14.9167 7.08086 14.9167 6.66665C14.9167 6.25243 14.5809 5.91665 14.1667 5.91665H5.83335ZM7.50002 9.99998C7.50002 10.4602 7.12692 10.8333 6.66669 10.8333C6.20645 10.8333 5.83335 10.4602 5.83335 9.99998C5.83335 9.53974 6.20645 9.16665 6.66669 9.16665C7.12692 9.16665 7.50002 9.53974 7.50002 9.99998ZM6.66669 14.1666C7.12692 14.1666 7.50002 13.7936 7.50002 13.3333C7.50002 12.8731 7.12692 12.5 6.66669 12.5C6.20645 12.5 5.83335 12.8731 5.83335 13.3333C5.83335 13.7936 6.20645 14.1666 6.66669 14.1666ZM10.8334 13.3333C10.8334 13.7936 10.4603 14.1666 10 14.1666C9.53978 14.1666 9.16669 13.7936 9.16669 13.3333C9.16669 12.8731 9.53978 12.5 10 12.5C10.4603 12.5 10.8334 12.8731 10.8334 13.3333ZM13.3334 14.1666C13.7936 14.1666 14.1667 13.7936 14.1667 13.3333C14.1667 12.8731 13.7936 12.5 13.3334 12.5C12.8731 12.5 12.5 12.8731 12.5 13.3333C12.5 13.7936 12.8731 14.1666 13.3334 14.1666ZM10.8334 9.99998C10.8334 10.4602 10.4603 10.8333 10 10.8333C9.53978 10.8333 9.16669 10.4602 9.16669 9.99998C9.16669 9.53974 9.53978 9.16665 10 9.16665C10.4603 9.16665 10.8334 9.53974 10.8334 9.99998ZM13.3334 10.8333C13.7936 10.8333 14.1667 10.4602 14.1667 9.99998C14.1667 9.53974 13.7936 9.16665 13.3334 9.16665C12.8731 9.16665 12.5 9.53974 12.5 9.99998C12.5 10.4602 12.8731 10.8333 13.3334 10.8333Z" fill="#0F172A"/>
</svg>
