<svg width="128" height="128" viewBox="0 0 128 128" fill="none" xmlns="http://www.w3.org/2000/svg">
<rect width="128" height="128" rx="64" fill="#EBF8F6"/>
<path d="M64 98C82.7777 98 98 82.7777 98 64C98 45.2223 82.7777 30 64 30C45.2223 30 30 45.2223 30 64C30 82.7777 45.2223 98 64 98Z" fill="#0BA98A"/>
<path d="M40.1982 67.264L46.0802 60.464C51.1122 63.286 55.6682 66.72 59.3912 71.242C64.9842 61.603 71.6142 53.596 79.1452 47L88.1212 53.29C78.9242 58.322 65.8002 73.571 60.1222 82.462C53.1352 75.594 46.4202 70.137 40.2152 67.264H40.1982Z" fill="white"/>
</svg>
