<svg xmlns="http://www.w3.org/2000/svg" width="20" height="20" viewBox="0 0 20 20" fill="none">
  <path fill-rule="evenodd" clip-rule="evenodd" d="M3.09844 9.16706C3.09844 5.81653 5.81458 3.10039 9.1651 3.10039C12.5156 3.10039 15.2318 5.81653 15.2318 9.16706C15.2318 12.5176 12.5156 15.2337 9.1651 15.2337C5.81458 15.2337 3.09844 12.5176 3.09844 9.16706ZM9.1651 1.90039C5.15183 1.90039 1.89844 5.15379 1.89844 9.16706C1.89844 13.1803 5.15183 16.4337 9.1651 16.4337C10.9557 16.4337 12.5951 15.7861 13.8617 14.7122L16.2408 17.0913C16.4752 17.3256 16.8551 17.3256 17.0894 17.0913C17.3237 16.857 17.3237 16.4771 17.0894 16.2428L14.7102 13.8637C15.7841 12.5971 16.4318 10.9577 16.4318 9.16706C16.4318 5.15379 13.1784 1.90039 9.1651 1.90039Z" fill="#94A3B8"/>
</svg>