<svg width="20" height="20" viewBox="0 0 20 20" fill="none" xmlns="http://www.w3.org/2000/svg">
<path fill-rule="evenodd" clip-rule="evenodd" d="M8.75033 1.75L8.72218 1.75C8.008 1.74999 7.43192 1.74999 6.96368 1.78369C6.48204 1.81836 6.05689 1.89149 5.65669 2.06758C4.79815 2.44535 4.11234 3.13115 3.73457 3.9897C3.55849 4.38989 3.48535 4.81505 3.45069 5.29669C3.41698 5.76493 3.41699 6.34101 3.41699 7.05519L3.41699 7.08333V12.9167L3.41699 12.9448C3.41699 13.659 3.41698 14.2351 3.45069 14.7033C3.48535 15.185 3.55849 15.6101 3.73457 16.0103C4.11234 16.8688 4.79815 17.5546 5.65669 17.9324C6.05689 18.1085 6.48204 18.1816 6.96368 18.2163C7.43191 18.25 8.00797 18.25 8.72212 18.25H8.72219H8.75033H9.16699C9.58121 18.25 9.91699 17.9142 9.91699 17.5C9.91699 17.0858 9.58121 16.75 9.16699 16.75H8.75033C8.00143 16.75 7.4794 16.7495 7.07137 16.7202C6.6706 16.6913 6.43803 16.6374 6.26081 16.5595C5.74568 16.3328 5.3342 15.9213 5.10754 15.4062C5.02957 15.229 4.97566 14.9964 4.94682 14.5956C4.91744 14.1876 4.91699 13.6656 4.91699 12.9167V7.08333C4.91699 6.33443 4.91744 5.81241 4.94682 5.40438C4.97566 5.00361 5.02957 4.77103 5.10754 4.59382C5.3342 4.07869 5.74568 3.66721 6.26081 3.44055C6.43803 3.36257 6.6706 3.30867 7.07137 3.27982C7.4794 3.25045 8.00143 3.25 8.75033 3.25H9.16699C9.58121 3.25 9.91699 2.91421 9.91699 2.5C9.91699 2.08579 9.58121 1.75 9.16699 1.75H8.75033ZM13.864 6.13634C13.5711 5.84344 13.0962 5.84344 12.8033 6.13634C12.5104 6.42923 12.5104 6.9041 12.8033 7.197L14.8563 9.25H9.16699C8.75278 9.25 8.41699 9.58579 8.41699 10C8.41699 10.4142 8.75278 10.75 9.16699 10.75H14.8563L12.8033 12.803C12.5104 13.0959 12.5104 13.5708 12.8033 13.8637C13.0962 14.1566 13.5711 14.1566 13.864 13.8637L17.1973 10.5303C17.4902 10.2374 17.4902 9.76256 17.1973 9.46967L13.864 6.13634Z" fill="#F52419"/>
</svg>
