<svg width="44" height="44" viewBox="0 0 44 44" fill="none" xmlns="http://www.w3.org/2000/svg">
<g id="icons / 24 / stroke / Alert - Triangle">
<path id="Union" fill-rule="evenodd" clip-rule="evenodd" d="M20.1674 8.16823C19.2766 9.28769 18.277 11.0068 16.8429 13.4839L9.39557 26.3475C7.95636 28.8334 6.95933 30.5629 6.43023 31.8976C5.90566 33.2208 5.99643 33.7788 6.2071 34.1442C6.41776 34.5096 6.85515 34.8677 8.26317 35.0767C9.68333 35.2875 11.6796 35.2912 14.5521 35.2912H29.4468C32.3193 35.2912 34.3156 35.2875 35.7357 35.0767C37.1437 34.8677 37.5811 34.5096 37.7918 34.1442C38.0025 33.7788 38.0932 33.2208 37.5687 31.8976C37.0396 30.5629 36.0425 28.8334 34.6033 26.3475L27.1559 13.4839C25.7219 11.0068 24.7223 9.28768 23.8314 8.16823C22.9485 7.0588 22.4209 6.85938 21.9994 6.85938C21.578 6.85938 21.0504 7.0588 20.1674 8.16823ZM18.0157 6.4558C19.0721 5.12838 20.3068 4.10938 21.9994 4.10938C23.6921 4.10938 24.9268 5.12838 25.9832 6.4558C27.0165 7.75417 28.1161 9.65352 29.4759 12.0024L29.5359 12.106L36.9833 24.9697L37.0433 25.0734L37.0433 25.0734L37.0434 25.0736C38.4083 27.4311 39.5118 29.337 40.1251 30.8841C40.752 32.4654 41.0216 34.0479 40.1742 35.5178C39.3267 36.9876 37.8221 37.5471 36.1396 37.7969C34.4932 38.0413 32.2909 38.0413 29.5666 38.0412H29.4468H14.5521H14.4323C11.708 38.0413 9.50568 38.0413 7.85934 37.7969C6.17682 37.5471 4.67215 36.9876 3.8247 35.5178C2.97726 34.0479 3.24694 32.4654 3.87378 30.8841C4.48714 29.3369 5.59062 27.431 6.95564 25.0733L7.01564 24.9697L14.463 12.106L14.523 12.0025C15.8828 9.65354 16.9824 7.75418 18.0157 6.4558ZM21.9994 15.1245C22.7588 15.1245 23.3744 15.7401 23.3744 16.4995V23.8329C23.3744 24.5923 22.7588 25.2079 21.9994 25.2079C21.2401 25.2079 20.6244 24.5923 20.6244 23.8329V16.4995C20.6244 15.7401 21.2401 15.1245 21.9994 15.1245ZM21.9994 31.1662C23.012 31.1662 23.8328 30.3454 23.8328 29.3329C23.8328 28.3204 23.012 27.4995 21.9994 27.4995C20.9869 27.4995 20.1661 28.3204 20.1661 29.3329C20.1661 30.3454 20.9869 31.1662 21.9994 31.1662Z" fill="#F52419"/>
</g>
</svg>
