<svg width="41" height="40" viewBox="0 0 41 40" fill="none" xmlns="http://www.w3.org/2000/svg">
<g id="Briefcase">
<path id="Union" fill-rule="evenodd" clip-rule="evenodd" d="M14.7499 9.9987C14.7499 7.00716 17.175 4.58203 20.1666 4.58203C23.1581 4.58203 25.5833 7.00716 25.5833 9.9987L26.8333 9.9987H28.0833C28.0833 5.62644 24.5388 2.08203 20.1666 2.08203C15.7943 2.08203 12.2499 5.62644 12.2499 9.9987C12.2499 10.0076 12.25 10.0164 12.2502 10.0253C9.15708 10.1009 7.30192 10.392 5.9373 11.512C5.59974 11.789 5.29021 12.0985 5.01318 12.4361C4.2137 13.4102 3.8366 14.6344 3.65873 16.3805C3.64633 16.5021 3.63491 16.6263 3.62437 16.7531C3.61569 16.8576 3.67555 16.9556 3.77231 16.9959C4.68001 17.3741 5.99793 17.8812 7.62272 18.3889C8.64781 18.7093 9.79139 19.0287 11.0281 19.3161C11.6574 19.4623 12.2499 18.9781 12.2499 18.332C12.2499 17.6417 12.8095 17.082 13.4999 17.082C14.1902 17.082 14.7499 17.6417 14.7499 18.332C14.7499 18.5426 14.7499 18.6479 14.7623 18.7491C14.8454 19.4259 15.3826 20.0204 16.0476 20.1713C16.147 20.1939 16.2387 20.2032 16.422 20.2218C17.6334 20.3447 18.8866 20.4154 20.1665 20.4154C21.4465 20.4154 22.6997 20.3447 23.9111 20.2218C24.0944 20.2032 24.1861 20.1939 24.2855 20.1713C24.9505 20.0204 25.4877 19.4259 25.5708 18.7491C25.5832 18.6479 25.5832 18.5426 25.5832 18.332C25.5832 17.6417 26.1429 17.082 26.8332 17.082C27.5236 17.082 28.0832 17.6417 28.0832 18.332C28.0832 18.9781 28.6757 19.4623 29.305 19.3161C30.5417 19.0287 31.6853 18.7093 32.7104 18.3889C34.3352 17.8812 35.6531 17.3741 36.5608 16.9959C36.6576 16.9556 36.7175 16.8575 36.7088 16.753C36.6983 16.6263 36.6868 16.5022 36.6745 16.3807C36.4966 14.6345 36.1195 13.4103 35.32 12.4361C35.043 12.0985 34.7334 11.789 34.3959 11.512C32.552 9.9987 29.8124 9.9987 24.3332 9.9987H15.9999C15.5664 9.9987 15.15 9.9987 14.7499 9.99945C14.7499 9.9992 14.7499 9.99895 14.7499 9.9987ZM6.24915 20.5744L6.24919 20.5744C6.45333 20.6411 6.66268 20.7081 6.87703 20.7751C8.11705 21.1626 9.5295 21.5513 11.0734 21.8891C11.7544 22.0381 12.2499 22.6349 12.2499 23.332C12.2499 24.0224 12.8095 24.582 13.4999 24.582C14.1902 24.582 14.7499 24.0224 14.7499 23.332C14.7499 22.9134 15.1189 22.5913 15.5347 22.6398C17.0188 22.8129 18.5712 22.9154 20.1665 22.9154C21.7619 22.9154 23.3142 22.8129 24.7984 22.6398C25.2142 22.5913 25.5832 22.9134 25.5832 23.332C25.5832 24.0224 26.1429 24.582 26.8332 24.582C27.5236 24.582 28.0832 24.0224 28.0832 23.332C28.0832 22.6349 28.5786 22.0381 29.2597 21.8891C30.8036 21.5513 32.216 21.1626 33.4561 20.7751C33.6704 20.7081 33.8798 20.6411 34.084 20.5744L34.084 20.5744C34.5622 20.418 34.8013 20.3398 34.9606 20.32C35.8547 20.2087 36.6306 20.7713 36.8026 21.6557C36.8333 21.8133 36.8333 22.0418 36.8333 22.4987C36.8333 27.9778 36.8333 30.7174 35.32 32.5613C35.043 32.8989 34.7334 33.2084 34.3959 33.4854C32.552 34.9987 29.8124 34.9987 24.3333 34.9987H15.9999C10.5208 34.9987 7.78122 34.9987 5.9373 33.4854C5.59974 33.2084 5.29021 32.8989 5.01318 32.5613C3.49992 30.7174 3.49992 27.9778 3.49992 22.4987C3.49992 22.0418 3.49992 21.8133 3.53058 21.6557C3.70261 20.7713 4.47849 20.2087 5.37257 20.32C5.53192 20.3399 5.771 20.418 6.24915 20.5744Z" fill="#AAB3EC"/>
</g>
</svg>
