<svg width="21" height="20" viewBox="0 0 21 20" fill="none" xmlns="http://www.w3.org/2000/svg">
<g id="Check - Circle">
<path id="Union" fill-rule="evenodd" clip-rule="evenodd" d="M3.75 10C3.75 6.27208 6.77208 3.25 10.5 3.25C14.2279 3.25 17.25 6.27208 17.25 10C17.25 13.7279 14.2279 16.75 10.5 16.75C6.77208 16.75 3.75 13.7279 3.75 10ZM10.5 1.75C5.94365 1.75 2.25 5.44365 2.25 10C2.25 14.5563 5.94365 18.25 10.5 18.25C15.0563 18.25 18.75 14.5563 18.75 10C18.75 5.44365 15.0563 1.75 10.5 1.75ZM14.3637 8.03033C14.6566 7.73744 14.6566 7.26256 14.3637 6.96967C14.0708 6.67678 13.5959 6.67678 13.303 6.96967L9.66667 10.606L8.53033 9.46967C8.23744 9.17678 7.76256 9.17678 7.46967 9.46967C7.17678 9.76256 7.17678 10.2374 7.46967 10.5303L9.13634 12.197C9.27699 12.3376 9.46775 12.4167 9.66667 12.4167C9.86558 12.4167 10.0563 12.3376 10.197 12.197L14.3637 8.03033Z" fill="#0BA98A"/>
</g>
</svg>
