<svg width="41" height="40" viewBox="0 0 41 40" fill="none" xmlns="http://www.w3.org/2000/svg">
<g id="Credit Card - Outcome">
<path id="Union" fill-rule="evenodd" clip-rule="evenodd" d="M15.4081 7.08203L15.4995 7.08203H25.4995L25.591 7.08203H25.591C27.8703 7.082 29.7075 7.08197 31.1524 7.27624C32.6526 7.47793 33.9157 7.90942 34.9189 8.91262C35.9221 9.91581 36.3536 11.1789 36.5553 12.6791C36.6361 13.28 36.6833 13.9488 36.7108 14.689C36.7361 14.788 36.7495 14.8918 36.7495 14.9987C36.7495 15.079 36.7419 15.1575 36.7275 15.2336C36.7495 16.1357 36.7495 17.1359 36.7495 18.2397V18.2405V18.2406V18.332V21.6654C36.7495 22.3557 36.1899 22.9154 35.4995 22.9154C34.8092 22.9154 34.2495 22.3557 34.2495 21.6654V18.332C34.2495 17.567 34.2492 16.876 34.2433 16.2487H6.75569C6.74978 16.876 6.74951 17.567 6.74951 18.332V21.6654C6.74951 24.0577 6.75217 25.7262 6.92142 26.9852C7.08585 28.2081 7.38659 28.8557 7.84786 29.317C8.30913 29.7783 8.95675 30.079 10.1797 30.2435C11.4386 30.4127 13.1072 30.4154 15.4995 30.4154H20.4995C21.1899 30.4154 21.7495 30.975 21.7495 31.6654C21.7495 32.3557 21.1899 32.9154 20.4995 32.9154H15.4995H15.408H15.408H15.408H15.4079H15.4079C13.1287 32.9154 11.2915 32.9154 9.84659 32.7212C8.34641 32.5195 7.08329 32.088 6.0801 31.0848C5.0769 30.0816 4.64541 28.8185 4.44372 27.3183C4.24945 25.8733 4.24948 24.0361 4.24951 21.7568V21.6654V18.332V18.2406C4.2495 17.1364 4.24948 16.136 4.27155 15.2336C4.25708 15.1575 4.24951 15.079 4.24951 14.9987C4.24951 14.8918 4.26293 14.788 4.28818 14.689C4.31574 13.9488 4.36293 13.28 4.44372 12.6791C4.64541 11.1789 5.0769 9.91581 6.0801 8.91262C7.08329 7.90942 8.34641 7.47793 9.84659 7.27624C11.2915 7.08197 13.1287 7.082 15.408 7.08203H15.4081ZM34.7167 27.4481C34.2286 26.96 33.4371 26.96 32.949 27.4481C32.4608 27.9363 32.4608 28.7278 32.949 29.2159L34.1484 30.4154H27.1662C26.4758 30.4154 25.9162 30.975 25.9162 31.6654C25.9162 32.3557 26.4758 32.9154 27.1662 32.9154H34.1484L32.949 34.1148C32.4608 34.603 32.4608 35.3944 32.949 35.8826C33.4371 36.3707 34.2286 36.3707 34.7167 35.8826L38.0501 32.5492C38.5382 32.0611 38.5382 31.2696 38.0501 30.7815L34.7167 27.4481ZM12.1662 20.4154C11.4758 20.4154 10.9162 20.975 10.9162 21.6654C10.9162 22.3557 11.4758 22.9154 12.1662 22.9154H17.1662C17.8565 22.9154 18.4162 22.3557 18.4162 21.6654C18.4162 20.975 17.8565 20.4154 17.1662 20.4154H12.1662Z" fill="#AAB3EC"/>
</g>
</svg>
