<svg width="41" height="40" viewBox="0 0 41 40" fill="none" xmlns="http://www.w3.org/2000/svg">
<g id="Dollar - Circle">
<path id="Subtract" fill-rule="evenodd" clip-rule="evenodd" d="M20.5001 36.6673C29.7048 36.6673 37.1668 29.2054 37.1668 20.0007C37.1668 10.7959 29.7048 3.33398 20.5001 3.33398C11.2954 3.33398 3.83344 10.7959 3.83344 20.0007C3.83344 29.2054 11.2954 36.6673 20.5001 36.6673ZM14.7498 16.2399C14.7498 14.2209 16.3865 12.5842 18.4055 12.5842H19.7499V10.8342C19.7499 10.42 20.0857 10.0842 20.4999 10.0842C20.9141 10.0842 21.2499 10.42 21.2499 10.8342V12.5842H22.1665C24.4216 12.5842 26.2498 14.4124 26.2498 16.6675C26.2498 17.0817 25.914 17.4175 25.4998 17.4175C25.0856 17.4175 24.7498 17.0817 24.7498 16.6675C24.7498 15.2408 23.5932 14.0842 22.1665 14.0842H21.2499V19.4603L23.7501 20.2937C25.2429 20.7913 26.2498 22.1883 26.2498 23.7618C26.2498 25.7808 24.6131 27.4175 22.5941 27.4175H21.2499V29.1675C21.2499 29.5817 20.9141 29.9175 20.4999 29.9175C20.0857 29.9175 19.7499 29.5817 19.7499 29.1675V27.4175H18.8331C16.578 27.4175 14.7498 25.5893 14.7498 23.3342C14.7498 22.92 15.0856 22.5842 15.4998 22.5842C15.914 22.5842 16.2498 22.92 16.2498 23.3342C16.2498 24.7609 17.4064 25.9175 18.8331 25.9175H19.7499V20.5415L17.2494 19.708C15.7567 19.2104 14.7498 17.8134 14.7498 16.2399ZM19.7499 18.9603V14.0842H18.4055C17.2149 14.0842 16.2498 15.0493 16.2498 16.2399C16.2498 17.1677 16.8435 17.9915 17.7238 18.2849L19.7499 18.9603ZM21.2499 21.0415V25.9175H22.5941C23.7846 25.9175 24.7498 24.9524 24.7498 23.7618C24.7498 22.8339 24.156 22.0102 23.2758 21.7167L21.2499 21.0415Z" fill="#AAB3EC"/>
</g>
</svg>
