<svg width="16" height="16" viewBox="0 0 16 16" fill="none" xmlns="http://www.w3.org/2000/svg">
<g id="Question">
<path id="Union" fill-rule="evenodd" clip-rule="evenodd" d="M8 2.75C5.10051 2.75 2.75 5.10051 2.75 8C2.75 10.8995 5.10051 13.25 8 13.25C10.8995 13.25 13.25 10.8995 13.25 8C13.25 5.10051 10.8995 2.75 8 2.75ZM1.25 8C1.25 4.27208 4.27208 1.25 8 1.25C11.7279 1.25 14.75 4.27208 14.75 8C14.75 11.7279 11.7279 14.75 8 14.75C4.27208 14.75 1.25 11.7279 1.25 8ZM8.66667 10.6667C8.66667 11.0349 8.36819 11.3333 8 11.3333C7.63181 11.3333 7.33333 11.0349 7.33333 10.6667C7.33333 10.2985 7.63181 10 8 10C8.36819 10 8.66667 10.2985 8.66667 10.6667ZM7.41667 6.66667C7.41667 6.3445 7.67783 6.08333 8 6.08333C8.32217 6.08333 8.58333 6.3445 8.58333 6.66667V6.74755C8.58333 6.92371 8.51335 7.09265 8.38879 7.21722L7.46967 8.13634C7.17678 8.42923 7.17678 8.9041 7.46967 9.197C7.76256 9.48989 8.23744 9.48989 8.53033 9.197L9.44945 8.27788C9.85532 7.87201 10.0833 7.32153 10.0833 6.74755V6.66667C10.0833 5.51607 9.15059 4.58333 8 4.58333C6.84941 4.58333 5.91667 5.51607 5.91667 6.66667V7C5.91667 7.41421 6.25245 7.75 6.66667 7.75C7.08088 7.75 7.41667 7.41421 7.41667 7V6.66667Z" fill="#CBD5E1"/>
</g>
</svg>
