<svg width="32" height="38" viewBox="0 0 32 38" fill="none" xmlns="http://www.w3.org/2000/svg">
<g id="Shield Done">
<path id="Fill 1" d="M16.1586 37.3327C15.9316 37.3327 15.7046 37.2805 15.4997 37.1745L8.89769 33.757C7.02432 32.7862 5.55885 31.6967 4.41452 30.4275C1.90993 27.6518 0.516439 24.0887 0.494291 20.3925L0.416772 8.22716C0.407544 6.82312 1.31377 5.5629 2.66851 5.0883L14.791 0.861794C15.5108 0.604716 16.3136 0.601121 17.0464 0.84921L29.215 4.93189C30.5771 5.38672 31.4981 6.63795 31.5055 8.0402L31.583 20.2145C31.607 23.9053 30.2615 27.4828 27.7956 30.2891C26.6642 31.5763 25.2117 32.6819 23.3568 33.6707L16.8138 37.1655C16.6108 37.2752 16.3856 37.3309 16.1586 37.3327Z" fill="#AAB3EC"/>
<path id="Fill 4" d="M14.7517 23.254C14.3974 23.2558 14.043 23.1282 13.7698 22.8657L10.2557 19.486C9.71303 18.961 9.70749 18.1089 10.2446 17.5803C10.7817 17.05 11.6584 17.0446 12.2029 17.5678L14.7314 19.9983L20.9053 13.9111C21.4442 13.3808 22.3209 13.3754 22.8635 13.8986C23.408 14.4235 23.4135 15.2774 22.8764 15.8042L15.7281 22.8531C15.4586 23.1192 15.1061 23.2522 14.7517 23.254Z" fill="white"/>
</g>
</svg>
