<svg width="41" height="18" viewBox="0 0 41 18" fill="none" xmlns="http://www.w3.org/2000/svg">
<path id="Stripe" fill-rule="evenodd" clip-rule="evenodd" d="M22.1966 2.79653L19.338 3.41002V1.09237L22.1966 0.490234V2.79653ZM10.5795 1.80818L7.80064 2.39896L7.78925 11.4992C7.78925 13.1806 9.05342 14.4189 10.739 14.4189C11.6729 14.4189 12.3562 14.2485 12.732 14.044V11.7377C12.3676 11.8854 10.5682 12.408 10.5682 10.7266V6.69344H12.732V4.27353H10.5682L10.5795 1.80818ZM3.84945 6.54575C3.24584 6.54575 2.8814 6.71616 2.8814 7.15924C2.8814 7.64302 3.50861 7.85583 4.28674 8.11984C5.55528 8.55024 7.2249 9.11673 7.23196 11.2151C7.23196 13.2488 5.60335 14.419 3.23445 14.419C2.25501 14.419 1.18445 14.2258 0.125278 13.7714V11.0674C1.08195 11.5901 2.28917 11.9763 3.23445 11.9763C3.87223 11.9763 4.32779 11.8059 4.32779 11.2833C4.32779 10.7474 3.64787 10.5025 2.82703 10.2068C1.57694 9.75646 0 9.18837 0 7.29558C0 5.28467 1.5375 4.0804 3.84945 4.0804C4.79473 4.0804 5.72863 4.22809 6.67391 4.60301V7.27285C5.80835 6.80705 4.71501 6.54575 3.84945 6.54575ZM16.2755 5.11529L16.0933 4.27457H13.6333V14.2155H16.4805V7.47839C17.1524 6.60359 18.2913 6.76264 18.6444 6.88761V4.27457C18.2799 4.13824 16.9474 3.8883 16.2755 5.11529ZM19.338 4.27225H22.1966V14.2132H19.338V4.27225ZM40.9999 9.28378C40.9999 6.37536 39.5877 4.08042 36.8885 4.08042C34.1779 4.08042 32.5379 6.37536 32.5379 9.26106C32.5379 12.6807 34.474 14.4076 37.2529 14.4076C38.6082 14.4076 39.6332 14.1009 40.4076 13.6691V11.3969C39.6332 11.7832 38.7449 12.0218 37.6174 12.0218C36.5127 12.0218 35.5332 11.6355 35.4079 10.2949H40.9771C40.9771 10.2324 40.9812 10.0903 40.9859 9.92661L40.9859 9.92633V9.92616L40.9859 9.92578L40.9859 9.92538L40.9859 9.92493C40.9923 9.70251 40.9999 9.44056 40.9999 9.28378ZM35.374 8.20544C35.374 6.92164 36.1599 6.38767 36.8774 6.38767C37.5721 6.38767 38.3124 6.92164 38.3124 8.20544H35.374ZM25.909 4.96659C26.3076 4.60303 27.0251 4.08042 28.1413 4.08042C30.1343 4.08042 32.0135 5.87547 32.0249 9.17018C32.0249 12.7716 30.1685 14.4076 28.1299 14.4076C27.1276 14.4076 26.524 13.9873 26.114 13.6919L26.1026 16.9071L23.2554 17.5092V4.2622H25.761L25.909 4.96659ZM26.1146 11.3745C26.3879 11.6699 26.7865 11.9085 27.4585 11.9085C28.5062 11.9085 29.2124 10.7724 29.2124 9.25C29.2124 7.76171 28.4949 6.60288 27.4585 6.60288C26.8093 6.60288 26.3993 6.8301 26.1032 7.15957L26.1146 11.3745Z" fill="white"/>
</svg>
