<svg width="44" height="44" viewBox="0 0 44 44" fill="none" xmlns="http://www.w3.org/2000/svg">
<g id="Time">
<path id="Union" fill-rule="evenodd" clip-rule="evenodd" d="M22 4.125C12.1279 4.125 4.125 12.1279 4.125 22C4.125 31.8721 12.1279 39.875 22 39.875C31.8721 39.875 39.875 31.8721 39.875 22C39.875 12.1279 31.8721 4.125 22 4.125ZM6.875 22C6.875 13.6467 13.6467 6.875 22 6.875C30.3533 6.875 37.125 13.6467 37.125 22C37.125 30.3533 30.3533 37.125 22 37.125C13.6467 37.125 6.875 30.3533 6.875 22ZM23.375 14.6652C23.375 13.9058 22.7594 13.2902 22 13.2902C21.2406 13.2902 20.625 13.9058 20.625 14.6652V21.9986C20.625 22.4583 20.8548 22.8876 21.2373 23.1426L26.7373 26.8093C27.3691 27.2305 28.2228 27.0598 28.6441 26.4279C29.0653 25.7961 28.8946 24.9424 28.2627 24.5212L23.375 21.2627V14.6652Z" fill="#AAB3EC"/>
</g>
</svg>
