<svg width="128" height="128" viewBox="0 0 128 128" fill="none" xmlns="http://www.w3.org/2000/svg">
<rect width="128" height="128" rx="64" fill="#F0F2FE"/>
<path d="M92.7728 98.0001H36.0648C33.2757 98.0001 31 95.7256 31 92.9498V58.7375C31 55.5712 32.6459 52.6318 35.3503 50.9695L59.7165 36.0033C62.6644 34.1932 66.3902 34.1985 69.3328 36.0191L93.5084 50.9642C96.197 52.6265 97.8376 55.5607 97.8376 58.7164V92.9445C97.8376 95.7256 95.5566 97.9948 92.7728 97.9948V98.0001Z" fill="#2B41D0" stroke="#2B41D0" stroke-width="0.75" stroke-linecap="round" stroke-linejoin="round"/>
<path d="M93.1881 95.0888H33.906C36.0582 83.4977 37.7767 57.8315 36.3649 31.1779C45.4652 31.1779 82.7816 30.0015 82.7816 30.0015C85.8115 29.8859 92.9237 36.5559 92.9237 38.6724C92.9237 60.6255 93.1881 95.094 93.1881 95.094V95.0888Z" fill="white" stroke="#2B41D0" stroke-width="0.75" stroke-miterlimit="10"/>
<path d="M31.5813 95.1418L60.2331 75.9294C62.929 74.3598 66.2618 74.3598 68.9577 75.9294L97.8377 94.4418C97.3495 96.091 95.4921 98.0001 93.0297 98.0001H36.1611C33.7412 98.0001 32.2394 96.5683 31.5813 95.1418Z" fill="#B4BEFB" stroke="#2B41D0" stroke-width="0.75" stroke-linecap="round" stroke-linejoin="round"/>
<path d="M69.3589 76.129L97.8375 59.0598V92.9853C97.8375 93.5441 97.7641 94.0657 97.5648 94.5128L69.3589 76.129Z" fill="#B4BEFB" stroke="#2B41D0" stroke-width="0.75" stroke-linecap="round" stroke-linejoin="round"/>
<path d="M92.8975 39.0085C92.6375 35.5214 85.5127 36.0543 85.5127 36.0543C86.2365 32.3279 84.4607 30.0158 82.7266 30.0158C82.7266 30.0158 85.044 29.5795 89.2153 33.2858C93.1881 36.8157 92.8975 39.0085 92.8975 39.0085Z" fill="#AAB3EC" stroke="#2B41D0" stroke-width="0.75" stroke-miterlimit="10"/>
<path d="M60.801 36.9744H44.789C43.5933 36.9744 42.624 37.9609 42.624 39.1779V39.4204C42.624 40.6374 43.5933 41.6239 44.789 41.6239H60.801C61.9966 41.6239 62.9659 40.6374 62.9659 39.4204V39.1779C62.9659 37.9609 61.9966 36.9744 60.801 36.9744Z" fill="#2B41D0"/>
<path d="M86.0415 48.7749C86.0415 48.7749 70.0897 48.7749 65.0001 48.9772C59.9105 49.1794 43.9586 49.1794 43.9586 49.1794C43.2225 49.1794 42.624 48.6153 42.624 47.9287C42.624 47.2421 43.2225 46.6779 43.9586 46.6779C43.9586 46.6779 59.6245 46.4757 65.0001 46.4757C70.3756 46.4757 86.0415 46.2734 86.0415 46.2734C86.7777 46.2734 87.3762 46.8376 87.3762 47.3219V47.7211C87.3762 48.6099 86.7777 48.7696 86.0415 48.7696V48.7749Z" fill="#AAB3EC"/>
<path d="M86.0415 55.1682C86.0415 55.1682 70.0897 55.1682 65.0001 55.3705C59.9105 55.5727 43.9586 55.5727 43.9586 55.5727C43.2225 55.5727 42.624 55.0086 42.624 54.322C42.624 53.6354 43.2225 53.0712 43.9586 53.0712C43.9586 53.0712 59.6245 52.869 65.0001 52.869C70.3756 52.869 86.0415 52.6667 86.0415 52.6667C86.7777 52.6667 87.3762 53.2309 87.3762 53.9175C87.3762 54.6041 86.7777 55.1682 86.0415 55.1682Z" fill="#AAB3EC"/>
<path d="M86.0415 61.5613C86.0415 61.5613 70.0897 61.5613 65.0001 61.7635C59.9105 61.9658 43.9586 61.9658 43.9586 61.9658C43.2225 61.9658 42.624 61.4016 42.624 60.7151C42.624 60.0285 43.2225 59.4643 43.9586 59.4643C43.9586 59.4643 59.6245 59.2621 65.0001 59.2621C70.3756 59.2621 86.0415 59.0598 86.0415 59.0598C86.7777 59.0598 87.3762 59.624 87.3762 60.3106C87.3762 60.9971 86.7777 61.5613 86.0415 61.5613Z" fill="#AAB3EC"/>
<path d="M70.9201 68.7228C70.9201 68.7228 60.0706 68.5054 54.962 68.7228C49.8535 68.9402 43.9636 68.9402 43.9636 68.9402C43.2247 68.9402 42.624 68.3338 42.624 67.5959C42.624 66.8579 43.2247 66.2516 43.9636 66.2516C49.5665 66.1772 41.7203 66.0342 57.2425 66.0342C62.6381 66.0342 70.9255 66.0342 70.9255 66.0342C71.6644 66.0342 72.2651 66.6405 72.2651 67.3785C72.2651 68.1164 71.6644 68.7228 70.9255 68.7228H70.9201Z" fill="#AAB3EC"/>
<path d="M31 59.0598L60.0598 75.8118L31.5007 95.094C31.195 94.4893 31.0264 93.7466 31 92.8714V59.0598Z" fill="#B4BEFB" stroke="#2B41D0" stroke-width="0.75" stroke-linecap="round" stroke-linejoin="round"/>
</svg>
