<svg xmlns="http://www.w3.org/2000/svg" width="16" height="16" viewBox="0 0 16 16" fill="none">
<path fill-rule="evenodd" clip-rule="evenodd" d="M2.59844 8.00039C2.59844 5.01805 5.0161 2.60039 7.99844 2.60039C10.9808 2.60039 13.3984 5.01805 13.3984 8.00039C13.3984 10.9827 10.9808 13.4004 7.99844 13.4004C5.0161 13.4004 2.59844 10.9827 2.59844 8.00039ZM7.99844 1.40039C4.35336 1.40039 1.39844 4.35531 1.39844 8.00039C1.39844 11.6455 4.35336 14.6004 7.99844 14.6004C11.6435 14.6004 14.5984 11.6455 14.5984 8.00039C14.5984 4.35531 11.6435 1.40039 7.99844 1.40039ZM8.59842 5.33372C8.59842 5.00235 8.32979 4.73372 7.99842 4.73372C7.66705 4.73372 7.39842 5.00235 7.39842 5.33372V7.40039H5.33175C5.00038 7.40039 4.73175 7.66902 4.73175 8.00039C4.73175 8.33176 5.00038 8.60039 5.33175 8.60039H7.39842V10.6671C7.39842 10.9984 7.66705 11.2671 7.99842 11.2671C8.32979 11.2671 8.59842 10.9984 8.59842 10.6671V8.60039H10.6651C10.9965 8.60039 11.2651 8.33176 11.2651 8.00039C11.2651 7.66902 10.9965 7.40039 10.6651 7.40039H8.59842V5.33372Z" fill="#64748B"/>
</svg>