<svg xmlns="http://www.w3.org/2000/svg" width="16" height="16" viewBox="0 0 16 16" fill="none">
  <path fill-rule="evenodd" clip-rule="evenodd" d="M2.5 7.33333C2.5 4.66396 4.66396 2.5 7.33333 2.5C10.0027 2.5 12.1667 4.66396 12.1667 7.33333C12.1667 10.0027 10.0027 12.1667 7.33333 12.1667C4.66396 12.1667 2.5 10.0027 2.5 7.33333ZM7.33333 1.5C4.11167 1.5 1.5 4.11167 1.5 7.33333C1.5 10.555 4.11167 13.1667 7.33333 13.1667C8.76415 13.1667 10.0747 12.6515 11.0895 11.7966L12.9798 13.6869C13.175 13.8821 13.4916 13.8821 13.6869 13.6869C13.8821 13.4916 13.8821 13.175 13.6869 12.9798L11.7966 11.0895C12.6515 10.0747 13.1667 8.76415 13.1667 7.33333C13.1667 4.11167 10.555 1.5 7.33333 1.5Z" fill="#CBD5E1"/>
</svg>