<svg width="18" height="19" viewBox="0 0 18 19" fill="none" xmlns="http://www.w3.org/2000/svg">
<path fill-rule="evenodd" clip-rule="evenodd" d="M8.15621 2L8.19152 2.00001H9.80848L9.84379 2C10.1612 1.99996 10.4592 1.99993 10.709 2.02844C10.9871 2.0602 11.2796 2.13362 11.5525 2.33033C11.8254 2.52705 11.9875 2.78125 12.1056 3.03509C12.2116 3.263 12.3059 3.54574 12.4062 3.84686L12.4062 3.84688L12.4062 3.84691L12.4174 3.88038L12.5406 4.25001H14.25H15.75C16.1642 4.25001 16.5 4.58579 16.5 5.00001C16.5 5.41422 16.1642 5.75001 15.75 5.75001H14.9517L14.5477 11.8099L14.5456 11.8409C14.4945 12.6081 14.4531 13.2282 14.3793 13.7298C14.3031 14.2473 14.1848 14.6995 13.947 15.1144C13.5734 15.7664 13.0126 16.2911 12.3372 16.6205C11.9073 16.8301 11.4483 16.9181 10.9269 16.9597C10.4215 17 9.80001 17 9.03106 17H9H8.96894C8.19999 17 7.5785 17 7.07307 16.9597C6.55166 16.9181 6.09265 16.8301 5.66281 16.6205C4.98742 16.2911 4.42657 15.7664 4.05297 15.1144C3.8152 14.6995 3.69695 14.2473 3.62074 13.7298C3.54687 13.2282 3.50553 12.6081 3.45439 11.8409L3.45233 11.8099L3.04834 5.75001H2.25C1.83579 5.75001 1.5 5.41422 1.5 5.00001C1.5 4.58579 1.83579 4.25001 2.25 4.25001H3.75H5.45943L5.58264 3.88038L5.5938 3.84689L5.5938 3.84687C5.69414 3.54575 5.78835 3.263 5.89438 3.03509C6.01246 2.78125 6.17459 2.52705 6.44752 2.33033C6.72045 2.13362 7.01287 2.0602 7.29102 2.02844C7.54077 1.99993 7.83881 1.99996 8.15621 2ZM7.04063 4.25001H10.9594C10.8646 3.96689 10.8042 3.79379 10.7456 3.66778C10.716 3.60424 10.6957 3.57282 10.6848 3.55824C10.6798 3.5515 10.677 3.54862 10.6764 3.54802L10.6754 3.5472L10.6743 3.54655C10.6736 3.54616 10.67 3.54439 10.662 3.54175C10.6447 3.53604 10.6085 3.52671 10.5388 3.51876C10.3845 3.50114 10.1736 3.50001 9.80848 3.50001H8.19152C7.82638 3.50001 7.61551 3.50114 7.46117 3.51876C7.39154 3.52671 7.35531 3.53604 7.33804 3.54175C7.33005 3.54439 7.32643 3.54616 7.32566 3.54655L7.32458 3.5472L7.32363 3.54802C7.32302 3.54862 7.32019 3.5515 7.31516 3.55824C7.30428 3.57282 7.28397 3.60424 7.25441 3.66778C7.19579 3.79379 7.13538 3.96689 7.04063 4.25001ZM4.55166 5.75001L4.949 11.7101C5.00271 12.5156 5.04061 13.0759 5.10474 13.5113C5.16751 13.9376 5.24788 14.1827 5.35445 14.3687C5.5786 14.7598 5.91512 15.0747 6.32035 15.2723C6.513 15.3663 6.7629 15.4302 7.19242 15.4644C7.63114 15.4995 8.19268 15.5 9 15.5C9.80732 15.5 10.3689 15.4995 10.8076 15.4644C11.2371 15.4302 11.487 15.3663 11.6796 15.2723C12.0849 15.0747 12.4214 14.7598 12.6456 14.3687C12.7521 14.1827 12.8325 13.9376 12.8953 13.5113C12.9594 13.0759 12.9973 12.5156 13.051 11.7101L13.4483 5.75001H12H6H4.55166ZM7.5 7.25001C7.91421 7.25001 8.25 7.58579 8.25 8.00001V13.25C8.25 13.6642 7.91421 14 7.5 14C7.08579 14 6.75 13.6642 6.75 13.25V8.00001C6.75 7.58579 7.08579 7.25001 7.5 7.25001ZM11.25 8.00001C11.25 7.58579 10.9142 7.25001 10.5 7.25001C10.0858 7.25001 9.75 7.58579 9.75 8.00001V11C9.75 11.4142 10.0858 11.75 10.5 11.75C10.9142 11.75 11.25 11.4142 11.25 11V8.00001Z" fill="#F52419"/>
</svg>
