<svg width="128" height="128" viewBox="0 0 128 128" fill="none" xmlns="http://www.w3.org/2000/svg">
<rect width="128" height="128" rx="64" fill="#F0F2FE"/>
<path fill-rule="evenodd" clip-rule="evenodd" d="M27.3329 33.2502L28.9996 33.25H28.9997L33.1306 33.2501L33.1738 33.2501H33.1738C34.1529 33.2501 34.9499 33.2501 35.5966 33.3227C36.2716 33.3984 36.8558 33.5593 37.3831 33.9287C37.9104 34.298 38.2613 34.7921 38.5631 35.4006C38.8523 35.9836 39.1247 36.7326 39.4593 37.6528L39.474 37.6933L41.6526 43.6843C41.7718 43.428 42.0316 43.2502 42.333 43.2502H91.561L91.623 43.2502H91.6231C92.8814 43.2502 93.91 43.2501 94.6949 43.3658C95.5088 43.4858 96.2355 43.753 96.7073 44.4338C97.1791 45.1147 97.1742 45.8889 97.0007 46.6931C96.8334 47.4686 96.4722 48.4317 96.0304 49.6099L96.0086 49.668L89.4952 67.0369L89.4802 67.077C89.1399 67.9846 88.8628 68.7235 88.5709 69.2985C88.2662 69.8987 87.9145 70.3856 87.39 70.7491C86.8655 71.1126 86.2861 71.2709 85.6171 71.3455C84.9762 71.4169 84.187 71.4169 83.2178 71.4169H83.175H54.8689H54.8258C54.6874 71.4169 54.5528 71.4169 54.4216 71.4167H43.9997C42.7397 71.4167 41.8449 71.4174 41.1475 71.4806C40.4604 71.5429 40.0389 71.661 39.708 71.8521C39.2139 72.1373 38.8037 72.5476 38.5184 73.0417C38.3274 73.3726 38.2092 73.7941 38.1469 74.4812C38.0837 75.1786 38.083 76.0734 38.083 77.3333C38.083 78.5933 38.0837 79.4881 38.1469 80.1855C38.2092 80.8726 38.3274 81.2941 38.5184 81.625C38.8037 82.1191 39.2139 82.5293 39.708 82.8146C40.0389 83.0056 40.4604 83.1238 41.1475 83.1861C41.8449 83.2493 42.7397 83.25 43.9997 83.25H53.9997H80.6663H93.9997C94.4139 83.25 94.7497 83.5858 94.7497 84C94.7497 84.4142 94.4139 84.75 93.9997 84.75H85.1392C86.9276 86.1041 88.083 88.2505 88.083 90.6667C88.083 94.7628 84.7625 98.0833 80.6663 98.0833C76.5702 98.0833 73.2497 94.7628 73.2497 90.6667C73.2497 88.2505 74.4051 86.1041 76.1935 84.75H58.4725C60.2609 86.1041 61.4163 88.2505 61.4163 90.6667C61.4163 94.7628 58.0958 98.0833 53.9997 98.0833C49.9036 98.0833 46.583 94.7628 46.583 90.6667C46.583 88.2505 47.7384 86.1041 49.5269 84.75H43.9997H43.9629C42.7479 84.75 41.7851 84.75 41.0121 84.68C40.221 84.6083 39.5553 84.4585 38.958 84.1136C38.2359 83.6967 37.6363 83.0971 37.2194 82.375C36.8745 81.7777 36.7248 81.112 36.6531 80.3209C36.583 79.5479 36.583 78.5851 36.583 77.3701V77.3333V77.2965C36.583 76.0816 36.583 75.1188 36.6531 74.3458C36.7248 73.5546 36.8745 72.8889 37.2194 72.2917C37.6363 71.5696 38.2359 70.9699 38.958 70.553C39.5553 70.2082 40.221 70.0584 41.0121 69.9867C41.7851 69.9167 42.7479 69.9167 43.9629 69.9167H43.9997H49.8132C49.6755 69.7172 49.5522 69.5003 49.4362 69.2664C49.147 68.6834 48.8746 67.9344 48.5401 67.0142L48.5253 66.9736L38.0643 38.206C37.7114 37.2354 37.4668 36.566 37.2194 36.0672C36.9803 35.5853 36.7702 35.3307 36.5225 35.1573C36.2749 34.9838 35.9638 34.8733 35.4293 34.8133C34.876 34.7512 34.1632 34.7501 33.1305 34.7501L28.9998 34.75H28.9997L27.3331 34.7502C26.9189 34.7503 26.5831 34.4145 26.583 34.0003C26.583 33.5861 26.9187 33.2503 27.3329 33.2502ZM70.6838 69.9169C70.678 69.9167 70.6722 69.9167 70.6663 69.9167H54.4739C53.6496 69.9155 53.0499 69.9075 52.5701 69.8537C52.0356 69.7937 51.7244 69.6832 51.4768 69.5098C51.2292 69.3363 51.019 69.0817 50.78 68.5998C50.5325 68.101 50.2879 67.4316 49.935 66.461L42.0144 44.6794C42.1111 44.7248 42.2191 44.7502 42.333 44.7502H91.561C92.8966 44.7502 93.8137 44.7522 94.4762 44.8498C95.1226 44.945 95.3497 45.1082 95.4744 45.2882C95.5991 45.4682 95.6722 45.7381 95.5344 46.3768C95.3932 47.0314 95.073 47.8908 94.6041 49.1414L88.0907 66.5103C87.7317 67.4676 87.483 68.1277 87.2334 68.6195C86.9923 69.0945 86.782 69.3454 86.5356 69.5162C86.2892 69.687 85.9804 69.7957 85.451 69.8547C84.9029 69.9158 84.1974 69.9169 83.175 69.9169H70.6838ZM53.9997 84.75C50.732 84.75 48.083 87.399 48.083 90.6667C48.083 93.9343 50.732 96.5833 53.9997 96.5833C57.2674 96.5833 59.9163 93.9343 59.9163 90.6667C59.9163 87.399 57.2674 84.75 53.9997 84.75ZM80.6663 84.75C77.3987 84.75 74.7497 87.399 74.7497 90.6667C74.7497 93.9343 77.3987 96.5833 80.6663 96.5833C83.934 96.5833 86.583 93.9343 86.583 90.6667C86.583 87.399 83.934 84.75 80.6663 84.75Z" fill="#0D0D0E"/>
<path d="M28.9996 33.25L28.9996 32.25L28.9995 32.25L28.9996 33.25ZM27.3329 33.2502L27.333 34.2502L27.333 34.2502L27.3329 33.2502ZM28.9997 33.25L28.9997 32.25H28.9997V33.25ZM33.1306 33.2501L33.1305 34.2501L33.1306 34.2501L33.1306 33.2501ZM33.1738 33.2501L33.1738 34.2501H33.1738V33.2501ZM33.1738 33.2501L33.1738 32.2501H33.1738V33.2501ZM35.5966 33.3227L35.7081 32.3289L35.7081 32.3289L35.5966 33.3227ZM37.3831 33.9287L36.8094 34.7477L36.8094 34.7477L37.3831 33.9287ZM38.5631 35.4006L39.459 34.9562L39.459 34.9562L38.5631 35.4006ZM39.4593 37.6528L38.5195 37.9945L38.5195 37.9945L39.4593 37.6528ZM39.474 37.6933L40.4138 37.3516L40.4138 37.3516L39.474 37.6933ZM41.6526 43.6843L40.7128 44.0261C40.8511 44.4064 41.205 44.6659 41.6093 44.6834C42.0137 44.7009 42.3887 44.473 42.5593 44.106L41.6526 43.6843ZM91.561 43.2502L91.561 44.2502L91.561 44.2502L91.561 43.2502ZM91.623 43.2502L91.623 42.2502L91.623 42.2502L91.623 43.2502ZM91.6231 43.2502L91.6231 44.2502L91.6231 44.2502L91.6231 43.2502ZM94.6949 43.3658L94.5491 44.3551L94.5491 44.3551L94.6949 43.3658ZM96.7073 44.4338L95.8854 45.0034L95.8854 45.0034L96.7073 44.4338ZM97.0007 46.6931L97.9782 46.9039L97.9782 46.9039L97.0007 46.6931ZM96.0304 49.6099L96.9667 49.961L96.9667 49.961L96.0304 49.6099ZM96.0086 49.668L95.0723 49.3169L95.0722 49.3169L96.0086 49.668ZM89.4952 67.0369L88.5589 66.6858L88.5589 66.6859L89.4952 67.0369ZM89.4802 67.077L90.4165 67.4281L90.4165 67.4281L89.4802 67.077ZM88.5709 69.2985L87.6792 68.8458L87.6792 68.8458L88.5709 69.2985ZM87.39 70.7491L87.9596 71.571L87.9596 71.571L87.39 70.7491ZM85.6171 71.3455L85.7279 72.3393L85.7279 72.3393L85.6171 71.3455ZM83.2178 71.4169L83.2178 70.4169H83.2178V71.4169ZM54.4216 71.4167L54.4231 70.4167H54.4216V71.4167ZM41.1475 71.4806L41.2378 72.4765L41.2378 72.4765L41.1475 71.4806ZM39.708 71.8521L39.208 70.9861L39.208 70.9861L39.708 71.8521ZM38.5184 73.0417L39.3844 73.5417L39.3845 73.5417L38.5184 73.0417ZM38.1469 74.4812L39.1429 74.5714L39.1429 74.5714L38.1469 74.4812ZM38.1469 80.1855L39.1429 80.0952L39.1429 80.0952L38.1469 80.1855ZM38.5184 81.625L39.3845 81.125L39.3844 81.125L38.5184 81.625ZM39.708 82.8146L39.208 83.6806L39.208 83.6806L39.708 82.8146ZM41.1475 83.1861L41.2378 82.1902L41.2378 82.1902L41.1475 83.1861ZM85.1392 84.75V83.75C84.7096 83.75 84.328 84.0244 84.1912 84.4316C84.0544 84.8388 84.193 85.2879 84.5355 85.5473L85.1392 84.75ZM76.1935 84.75L76.7972 85.5473C77.1397 85.2879 77.2783 84.8388 77.1415 84.4316C77.0047 84.0244 76.6231 83.75 76.1935 83.75V84.75ZM58.4725 84.75V83.75C58.0429 83.75 57.6613 84.0244 57.5245 84.4316C57.3878 84.8388 57.5264 85.2879 57.8689 85.5473L58.4725 84.75ZM49.5269 84.75L50.1305 85.5473C50.473 85.2879 50.6116 84.8388 50.4748 84.4316C50.338 84.0244 49.9564 83.75 49.5269 83.75V84.75ZM43.9629 84.75L43.9629 83.75L43.9629 83.75L43.9629 84.75ZM41.0121 84.68L40.9218 85.6759L40.9218 85.6759L41.0121 84.68ZM38.958 84.1136L38.458 84.9796L38.458 84.9796L38.958 84.1136ZM37.2194 82.375L38.0854 81.875L38.0854 81.875L37.2194 82.375ZM36.6531 80.3209L37.649 80.2306L37.649 80.2306L36.6531 80.3209ZM36.583 77.3701L37.583 77.3701V77.3701H36.583ZM36.583 77.2965L37.583 77.2965L37.583 77.2965L36.583 77.2965ZM36.6531 74.3458L35.6571 74.2555L35.6571 74.2555L36.6531 74.3458ZM37.2194 72.2917L38.0854 72.7917L38.0854 72.7917L37.2194 72.2917ZM38.958 70.553L38.458 69.687L38.458 69.687L38.958 70.553ZM41.0121 69.9867L41.1024 70.9826L41.0121 69.9867ZM43.9629 69.9167L43.9629 70.9167H43.9629V69.9167ZM49.8132 69.9167V70.9167C50.1849 70.9167 50.5259 70.7105 50.6986 70.3813C50.8714 70.0522 50.8473 69.6544 50.6361 69.3485L49.8132 69.9167ZM49.4362 69.2664L48.5404 69.7108L48.5404 69.7108L49.4362 69.2664ZM48.5401 67.0142L49.4799 66.6725L49.4799 66.6725L48.5401 67.0142ZM48.5253 66.9736L47.5855 67.3154L47.5855 67.3154L48.5253 66.9736ZM38.0643 38.206L37.1245 38.5477L37.1245 38.5477L38.0643 38.206ZM37.2194 36.0672L36.3235 36.5116L36.3235 36.5116L37.2194 36.0672ZM36.5225 35.1573L37.0963 34.3382L37.0963 34.3382L36.5225 35.1573ZM35.4293 34.8133L35.5408 33.8196L35.5408 33.8196L35.4293 34.8133ZM33.1305 34.7501L33.1306 33.7501L33.1306 33.7501L33.1305 34.7501ZM28.9998 34.75L28.9998 33.75H28.9998V34.75ZM28.9997 34.75L28.9997 33.75L28.9995 33.75L28.9997 34.75ZM27.3331 34.7502L27.333 33.7502L27.333 33.7502L27.3331 34.7502ZM26.583 34.0003L25.583 34.0004L26.583 34.0003ZM70.6838 69.9169L70.6607 70.9166C70.6684 70.9168 70.6761 70.9169 70.6838 70.9169V69.9169ZM54.4739 69.9167L54.4725 70.9167H54.4739V69.9167ZM52.5701 69.8537L52.6816 68.8599L52.6816 68.8599L52.5701 69.8537ZM51.4768 69.5098L52.0505 68.6907L52.0505 68.6907L51.4768 69.5098ZM50.78 68.5998L51.6758 68.1555L51.6758 68.1555L50.78 68.5998ZM49.935 66.461L48.9952 66.8028L48.9952 66.8028L49.935 66.461ZM42.0144 44.6794L42.4397 43.7743C42.0732 43.6021 41.639 43.6679 41.34 43.941C41.041 44.2141 40.9362 44.6405 41.0746 45.0211L42.0144 44.6794ZM94.4762 44.8498L94.622 43.8605L94.622 43.8605L94.4762 44.8498ZM95.4744 45.2882L94.6525 45.8578L94.6525 45.8578L95.4744 45.2882ZM95.5344 46.3768L96.5119 46.5877L96.5119 46.5877L95.5344 46.3768ZM94.6041 49.1414L93.6677 48.7902L93.6677 48.7902L94.6041 49.1414ZM88.0907 66.5103L87.1544 66.1591L87.1544 66.1591L88.0907 66.5103ZM87.2334 68.6195L88.1251 69.0722L88.1251 69.0722L87.2334 68.6195ZM85.451 69.8547L85.3402 68.8609L85.3402 68.8609L85.451 69.8547ZM28.9995 32.25L27.3328 32.2502L27.333 34.2502L28.9997 34.25L28.9995 32.25ZM28.9997 32.25H28.9996V34.25H28.9997V32.25ZM33.1306 32.2501L28.9997 32.25L28.9997 34.25L33.1305 34.2501L33.1306 32.2501ZM33.1738 32.2501L33.1306 32.2501L33.1306 34.2501L33.1738 34.2501L33.1738 32.2501ZM33.1738 32.2501H33.1738V34.2501H33.1738V32.2501ZM35.7081 32.3289C34.9933 32.2487 34.1323 32.2501 33.1738 32.2501L33.1738 34.2501C34.1734 34.2501 34.9064 34.2515 35.4851 34.3164L35.7081 32.3289ZM37.9568 33.1096C37.243 32.6096 36.4767 32.4152 35.7081 32.3289L35.485 34.3164C36.0665 34.3817 36.4686 34.509 36.8094 34.7477L37.9568 33.1096ZM39.459 34.9562C39.1152 34.2633 38.6706 33.6096 37.9568 33.1096L36.8094 34.7477C37.1502 34.9865 37.4073 35.3209 37.6673 35.845L39.459 34.9562ZM40.3991 37.3111C40.0715 36.4102 39.7786 35.6005 39.459 34.9562L37.6673 35.845C37.926 36.3666 38.1779 37.0551 38.5195 37.9945L40.3991 37.3111ZM40.4138 37.3516L40.3991 37.311L38.5195 37.9945L38.5342 38.0351L40.4138 37.3516ZM42.5924 43.3426L40.4138 37.3516L38.5342 38.0351L40.7128 44.0261L42.5924 43.3426ZM42.333 42.2502C41.6283 42.2502 41.0229 42.6668 40.7458 43.2627L42.5593 44.106C42.5207 44.1892 42.435 44.2502 42.333 44.2502V42.2502ZM91.561 42.2502H42.333V44.2502H91.561V42.2502ZM91.623 42.2502L91.561 42.2502L91.561 44.2502L91.623 44.2502L91.623 42.2502ZM91.6231 42.2502H91.623V44.2502H91.6231V42.2502ZM94.8407 42.3765C93.9663 42.2476 92.8517 42.2502 91.6231 42.2502L91.6231 44.2502C92.9112 44.2502 93.8537 44.2527 94.5491 44.3551L94.8407 42.3765ZM97.5292 43.8642C96.8254 42.8486 95.7647 42.5127 94.8407 42.3765L94.5491 44.3551C95.2529 44.4588 95.6455 44.6573 95.8854 45.0034L97.5292 43.8642ZM97.9782 46.9039C98.1752 45.9909 98.233 44.8798 97.5292 43.8642L95.8854 45.0034C96.1252 45.3495 96.1732 45.7869 96.0232 46.4822L97.9782 46.9039ZM96.9667 49.961C97.3981 48.8107 97.7919 47.7679 97.9782 46.9039L96.0232 46.4822C95.875 47.1693 95.5463 48.0527 95.0941 49.2587L96.9667 49.961ZM96.9449 50.0192L96.9667 49.961L95.0941 49.2587L95.0723 49.3169L96.9449 50.0192ZM90.4316 67.3881L96.9449 50.0192L95.0722 49.3169L88.5589 66.6858L90.4316 67.3881ZM90.4165 67.4281L90.4316 67.388L88.5589 66.6859L88.5439 66.7259L90.4165 67.4281ZM89.4626 69.7512C89.7853 69.1155 90.0834 68.3166 90.4165 67.4281L88.5439 66.7259C88.1964 67.6525 87.9403 68.3315 87.6792 68.8458L89.4626 69.7512ZM87.9596 71.571C88.6695 71.079 89.1155 70.4348 89.4626 69.7512L87.6792 68.8458C87.4169 69.3626 87.1595 69.6922 86.8204 69.9272L87.9596 71.571ZM85.7279 72.3393C86.4898 72.2544 87.2497 72.063 87.9596 71.571L86.8204 69.9272C86.4813 70.1621 86.0823 70.2874 85.5063 70.3516L85.7279 72.3393ZM83.2178 72.4169C84.1667 72.4169 85.0194 72.4183 85.7279 72.3393L85.5064 70.3516C84.9331 70.4155 84.2074 70.4169 83.2178 70.4169L83.2178 72.4169ZM83.175 72.4169H83.2178V70.4169H83.175V72.4169ZM54.8689 72.4169H83.175V70.4169H54.8689V72.4169ZM54.8258 72.4169H54.8689V70.4169H54.8258V72.4169ZM54.4201 72.4167C54.5521 72.4169 54.6876 72.4169 54.8258 72.4169V70.4169C54.6873 70.4169 54.5534 70.4169 54.4231 70.4167L54.4201 72.4167ZM54.4216 70.4167H43.9997V72.4167H54.4216V70.4167ZM43.9997 70.4167C42.7584 70.4167 41.8103 70.4164 41.0572 70.4847L41.2378 72.4765C41.8795 72.4183 42.721 72.4167 43.9997 72.4167V70.4167ZM41.0572 70.4847C40.301 70.5532 39.7166 70.6924 39.208 70.9861L40.208 72.7181C40.3613 72.6296 40.6199 72.5325 41.2378 72.4765L41.0572 70.4847ZM39.208 70.9861C38.5619 71.3591 38.0254 71.8956 37.6524 72.5417L39.3845 73.5417C39.5819 73.1996 39.866 72.9156 40.208 72.7181L39.208 70.9861ZM37.6524 72.5417C37.3588 73.0503 37.2196 73.6346 37.151 74.3909L39.1429 74.5714C39.1989 73.9535 39.296 73.6949 39.3844 73.5417L37.6524 72.5417ZM37.151 74.3909C37.0828 75.144 37.083 76.0921 37.083 77.3333H39.083C39.083 76.0547 39.0847 75.2131 39.1429 74.5714L37.151 74.3909ZM37.083 77.3333C37.083 78.5746 37.0828 79.5227 37.151 80.2758L39.1429 80.0952C39.0847 79.4535 39.083 78.612 39.083 77.3333H37.083ZM37.151 80.2758C37.2196 81.032 37.3588 81.6164 37.6524 82.125L39.3844 81.125C39.296 80.9717 39.1989 80.7131 39.1429 80.0952L37.151 80.2758ZM37.6524 82.125C38.0254 82.7711 38.5619 83.3076 39.208 83.6806L40.208 81.9486C39.866 81.7511 39.5819 81.467 39.3845 81.125L37.6524 82.125ZM39.208 83.6806C39.7166 83.9742 40.301 84.1134 41.0572 84.182L41.2378 82.1902C40.6199 82.1342 40.3613 82.037 40.208 81.9486L39.208 83.6806ZM41.0572 84.182C41.8103 84.2502 42.7584 84.25 43.9997 84.25V82.25C42.721 82.25 41.8795 82.2483 41.2378 82.1902L41.0572 84.182ZM43.9997 84.25H53.9997V82.25H43.9997V84.25ZM53.9997 84.25H80.6663V82.25H53.9997V84.25ZM80.6663 84.25H93.9997V82.25H80.6663V84.25ZM93.9997 84.25C93.8616 84.25 93.7497 84.1381 93.7497 84H95.7497C95.7497 83.0335 94.9662 82.25 93.9997 82.25V84.25ZM93.7497 84C93.7497 83.8619 93.8616 83.75 93.9997 83.75V85.75C94.9662 85.75 95.7497 84.9665 95.7497 84H93.7497ZM93.9997 83.75H85.1392V85.75H93.9997V83.75ZM84.5355 85.5473C86.0851 86.7205 87.083 88.5769 87.083 90.6667H89.083C89.083 87.9241 87.7702 85.4878 85.7428 83.9527L84.5355 85.5473ZM87.083 90.6667C87.083 94.2105 84.2102 97.0833 80.6663 97.0833V99.0833C85.3147 99.0833 89.083 95.3151 89.083 90.6667H87.083ZM80.6663 97.0833C77.1225 97.0833 74.2497 94.2105 74.2497 90.6667H72.2497C72.2497 95.3151 76.0179 99.0833 80.6663 99.0833V97.0833ZM74.2497 90.6667C74.2497 88.5769 75.2476 86.7205 76.7972 85.5473L75.5899 83.9527C73.5625 85.4878 72.2497 87.9241 72.2497 90.6667H74.2497ZM76.1935 83.75H58.4725V85.75H76.1935V83.75ZM57.8689 85.5473C59.4184 86.7205 60.4163 88.5769 60.4163 90.6667H62.4163C62.4163 87.9241 61.1035 85.4878 59.0761 83.9527L57.8689 85.5473ZM60.4163 90.6667C60.4163 94.2105 57.5435 97.0833 53.9997 97.0833V99.0833C58.6481 99.0833 62.4163 95.3151 62.4163 90.6667H60.4163ZM53.9997 97.0833C50.4558 97.0833 47.583 94.2105 47.583 90.6667H45.583C45.583 95.3151 49.3513 99.0833 53.9997 99.0833V97.0833ZM47.583 90.6667C47.583 88.5769 48.581 86.7205 50.1305 85.5473L48.9232 83.9527C46.8959 85.4878 45.583 87.9241 45.583 90.6667H47.583ZM49.5269 83.75H43.9997V85.75H49.5269V83.75ZM43.9997 83.75H43.9629V85.75H43.9997V83.75ZM43.9629 83.75C42.7306 83.75 41.8201 83.7491 41.1024 83.684L40.9218 85.6759C41.7502 85.7509 42.7652 85.75 43.9629 85.75L43.9629 83.75ZM41.1024 83.684C40.3807 83.6186 39.8778 83.49 39.458 83.2476L38.458 84.9796C39.2328 85.427 40.0612 85.5979 40.9218 85.6759L41.1024 83.684ZM39.458 83.2476C38.8879 82.9185 38.4145 82.4451 38.0854 81.875L36.3534 82.875C36.858 83.7491 37.5839 84.475 38.458 84.9796L39.458 83.2476ZM38.0854 81.875C37.8431 81.4552 37.7144 80.9523 37.649 80.2306L35.6571 80.4112C35.7351 81.2718 35.906 82.1002 36.3534 82.875L38.0854 81.875ZM37.649 80.2306C37.5839 79.513 37.583 78.6024 37.583 77.3701L35.583 77.3701C35.583 78.5678 35.5821 79.5828 35.6571 80.4112L37.649 80.2306ZM37.583 77.3701V77.3333H35.583V77.3701H37.583ZM37.583 77.3333V77.2965H35.583V77.3333H37.583ZM37.583 77.2965C37.583 76.0643 37.5839 75.1537 37.649 74.436L35.6571 74.2555C35.5821 75.0839 35.583 76.0989 35.583 77.2965L37.583 77.2965ZM37.649 74.436C37.7144 73.7144 37.8431 73.2114 38.0854 72.7917L36.3534 71.7917C35.906 72.5664 35.7351 73.3949 35.6571 74.2555L37.649 74.436ZM38.0854 72.7917C38.4145 72.2216 38.8879 71.7482 39.458 71.4191L38.458 69.687C37.5839 70.1917 36.858 70.9176 36.3534 71.7917L38.0854 72.7917ZM39.458 71.4191C39.8778 71.1767 40.3807 71.048 41.1024 70.9826L40.9218 68.9908C40.0612 69.0688 39.2328 69.2397 38.458 69.687L39.458 71.4191ZM41.1024 70.9826C41.82 70.9176 42.7306 70.9167 43.9629 70.9167L43.9629 68.9167C42.7652 68.9167 41.7502 68.9157 40.9218 68.9908L41.1024 70.9826ZM43.9629 70.9167H43.9997V68.9167H43.9629V70.9167ZM43.9997 70.9167H49.8132V68.9167H43.9997V70.9167ZM48.5404 69.7108C48.6719 69.9759 48.8187 70.2364 48.9902 70.4848L50.6361 69.3485C50.5322 69.198 50.4326 69.0247 50.332 68.822L48.5404 69.7108ZM47.6003 67.356C47.9278 68.2568 48.2207 69.0665 48.5404 69.7108L50.332 68.822C50.0733 68.3004 49.8215 67.6119 49.4799 66.6725L47.6003 67.356ZM47.5855 67.3154L47.6003 67.356L49.4799 66.6725L49.4651 66.6319L47.5855 67.3154ZM37.1245 38.5477L47.5855 67.3154L49.4651 66.6319L39.0041 37.8642L37.1245 38.5477ZM36.3235 36.5116C36.5403 36.9485 36.7637 37.5555 37.1245 38.5477L39.0041 37.8642C38.6591 36.9154 38.3934 36.1835 38.1152 35.6228L36.3235 36.5116ZM35.9488 35.9763C36.0101 36.0192 36.1264 36.1143 36.3235 36.5116L38.1152 35.6228C37.8342 35.0564 37.5303 34.6422 37.0963 34.3382L35.9488 35.9763ZM35.3178 35.8071C35.7585 35.8565 35.8876 35.9334 35.9488 35.9763L37.0963 34.3382C36.6622 34.0342 36.1691 33.8901 35.5408 33.8196L35.3178 35.8071ZM33.1305 35.7501C34.1863 35.7501 34.8331 35.7527 35.3178 35.8071L35.5408 33.8196C34.9188 33.7498 34.1402 33.7501 33.1306 33.7501L33.1305 35.7501ZM28.9997 35.75L33.1305 35.7501L33.1306 33.7501L28.9998 33.75L28.9997 35.75ZM28.9997 35.75H28.9998V33.75H28.9997V35.75ZM27.3332 35.7502L28.9998 35.75L28.9995 33.75L27.333 33.7502L27.3332 35.7502ZM25.583 34.0004C25.5831 34.9669 26.3667 35.7503 27.3332 35.7502L27.333 33.7502C27.471 33.7502 27.583 33.8621 27.583 34.0002L25.583 34.0004ZM27.3328 32.2502C26.3663 32.2503 25.5829 33.0339 25.583 34.0004L27.583 34.0002C27.583 34.1382 27.4711 34.2502 27.333 34.2502L27.3328 32.2502ZM70.6663 70.9167C70.6647 70.9167 70.6629 70.9167 70.6607 70.9166L70.7068 68.9171C70.6931 68.9168 70.6796 68.9167 70.6663 68.9167V70.9167ZM54.4739 70.9167H70.6663V68.9167H54.4739V70.9167ZM54.4753 68.9167C53.6405 68.9155 53.097 68.9065 52.6816 68.8599L52.4586 70.8475C53.0029 70.9085 53.6588 70.9155 54.4725 70.9167L54.4753 68.9167ZM52.6816 68.8599C52.2408 68.8105 52.1117 68.7336 52.0505 68.6907L50.9031 70.3288C51.3371 70.6328 51.8303 70.777 52.4586 70.8475L52.6816 68.8599ZM52.0505 68.6907C51.9893 68.6478 51.8729 68.5528 51.6758 68.1555L49.8841 69.0442C50.1651 69.6106 50.4691 70.0248 50.9031 70.3288L52.0505 68.6907ZM51.6758 68.1555C51.4591 67.7185 51.2356 67.1115 50.8748 66.1193L48.9952 66.8028C49.3402 67.7516 49.606 68.4835 49.8841 69.0442L51.6758 68.1555ZM50.8748 66.1193L42.9542 44.3376L41.0746 45.0211L48.9952 66.8028L50.8748 66.1193ZM41.589 45.5844C41.816 45.6911 42.069 45.7502 42.333 45.7502V43.7502C42.3692 43.7502 42.4061 43.7585 42.4397 43.7743L41.589 45.5844ZM42.333 45.7502H91.561V43.7502H42.333V45.7502ZM91.561 45.7502C92.93 45.7502 93.7582 45.7548 94.3304 45.8391L94.622 43.8605C93.8692 43.7495 92.8632 43.7502 91.561 43.7502V45.7502ZM94.3304 45.8391C94.5982 45.8786 94.7048 45.9224 94.7302 45.9349C94.7385 45.939 94.7262 45.9339 94.7046 45.9153C94.6818 45.8957 94.6639 45.8742 94.6525 45.8578L96.2963 44.7186C95.9415 44.2065 95.3835 43.9727 94.622 43.8605L94.3304 45.8391ZM94.6525 45.8578C94.6411 45.8414 94.6273 45.817 94.617 45.7889C94.6071 45.762 94.6067 45.7487 94.6076 45.758C94.6104 45.7861 94.614 45.9013 94.5569 46.166L96.5119 46.5877C96.6742 45.8353 96.6512 45.2307 96.2963 44.7186L94.6525 45.8578ZM94.5569 46.1659C94.435 46.7313 94.1485 47.5083 93.6677 48.7902L95.5404 49.4925C95.9976 48.2732 96.3515 47.3315 96.5119 46.5877L94.5569 46.1659ZM93.6677 48.7902L87.1544 66.1591L89.0271 66.8614L95.5404 49.4925L93.6677 48.7902ZM87.1544 66.1591C86.7874 67.1379 86.5603 67.7363 86.3417 68.1668L88.1251 69.0722C88.4058 68.5192 88.6761 67.7973 89.0271 66.8614L87.1544 66.1591ZM86.3417 68.1668C86.143 68.5582 86.0271 68.652 85.966 68.6943L87.1052 70.3381C87.5369 70.0389 87.8415 69.6307 88.1251 69.0722L86.3417 68.1668ZM85.966 68.6943C85.9049 68.7366 85.7764 68.8122 85.3402 68.8609L85.5617 70.8485C86.1843 70.7792 86.6735 70.6373 87.1052 70.3381L85.966 68.6943ZM85.3402 68.8609C84.8603 68.9143 84.2203 68.9169 83.175 68.9169V70.9169C84.1745 70.9169 84.9454 70.9172 85.5617 70.8485L85.3402 68.8609ZM83.175 68.9169H70.6838V70.9169H83.175V68.9169ZM53.9997 83.75C50.1797 83.75 47.083 86.8467 47.083 90.6667H49.083C49.083 87.9513 51.2843 85.75 53.9997 85.75V83.75ZM47.083 90.6667C47.083 94.4866 50.1797 97.5833 53.9997 97.5833V95.5833C51.2843 95.5833 49.083 93.3821 49.083 90.6667H47.083ZM53.9997 97.5833C57.8196 97.5833 60.9163 94.4866 60.9163 90.6667H58.9163C58.9163 93.3821 56.7151 95.5833 53.9997 95.5833V97.5833ZM60.9163 90.6667C60.9163 86.8467 57.8196 83.75 53.9997 83.75V85.75C56.7151 85.75 58.9163 87.9513 58.9163 90.6667H60.9163ZM80.6663 83.75C76.8464 83.75 73.7497 86.8467 73.7497 90.6667H75.7497C75.7497 87.9513 77.9509 85.75 80.6663 85.75V83.75ZM73.7497 90.6667C73.7497 94.4866 76.8464 97.5833 80.6663 97.5833V95.5833C77.9509 95.5833 75.7497 93.3821 75.7497 90.6667H73.7497ZM80.6663 97.5833C84.4863 97.5833 87.583 94.4866 87.583 90.6667H85.583C85.583 93.3821 83.3817 95.5833 80.6663 95.5833V97.5833ZM87.583 90.6667C87.583 86.8467 84.4863 83.75 80.6663 83.75V85.75C83.3817 85.75 85.583 87.9513 85.583 90.6667H87.583Z" fill="#2B1694"/>
</svg>
