<svg width="16" height="18" viewBox="0 0 16 18" fill="none" xmlns="http://www.w3.org/2000/svg">
<path fill-rule="evenodd" clip-rule="evenodd" d="M15.4163 1.5C15.4163 1.08579 15.0806 0.75 14.6663 0.75C14.2521 0.75 13.9163 1.08579 13.9163 1.5V16.5C13.9163 16.9142 14.2521 17.25 14.6663 17.25C15.0806 17.25 15.4163 16.9142 15.4163 16.5V1.5ZM6.03 5.13634C5.73711 4.84344 5.26224 4.84344 4.96934 5.13634C4.67645 5.42923 4.67645 5.9041 4.96934 6.197L7.02235 8.25H1.33301C0.918794 8.25 0.583008 8.58579 0.583008 9C0.583008 9.41421 0.918794 9.75 1.33301 9.75H7.02235L4.96934 11.803C4.67645 12.0959 4.67645 12.5708 4.96934 12.8637C5.26224 13.1566 5.73711 13.1566 6.03 12.8637L9.36334 9.53033C9.65623 9.23744 9.65623 8.76256 9.36334 8.46967L6.03 5.13634Z" fill="white"/>
<path fill-rule="evenodd" clip-rule="evenodd" d="M15.4163 1.5C15.4163 1.08579 15.0806 0.75 14.6663 0.75C14.2521 0.75 13.9163 1.08579 13.9163 1.5V16.5C13.9163 16.9142 14.2521 17.25 14.6663 17.25C15.0806 17.25 15.4163 16.9142 15.4163 16.5V1.5ZM6.03 5.13634C5.73711 4.84344 5.26224 4.84344 4.96934 5.13634C4.67645 5.42923 4.67645 5.9041 4.96934 6.197L7.02235 8.25H1.33301C0.918794 8.25 0.583008 8.58579 0.583008 9C0.583008 9.41421 0.918794 9.75 1.33301 9.75H7.02235L4.96934 11.803C4.67645 12.0959 4.67645 12.5708 4.96934 12.8637C5.26224 13.1566 5.73711 13.1566 6.03 12.8637L9.36334 9.53033C9.65623 9.23744 9.65623 8.76256 9.36334 8.46967L6.03 5.13634Z" fill="#F0F2FE" fill-opacity="0.3"/>
</svg>
