<svg width="20" height="20" viewBox="0 0 20 20" fill="none" xmlns="http://www.w3.org/2000/svg">
<g id="icons / 24 / stroke / Close">
<path id="Union" fill-rule="evenodd" clip-rule="evenodd" d="M2.58366 2.5C2.58366 2.08579 2.91945 1.75 3.33366 1.75C3.74787 1.75 4.08366 2.08579 4.08366 2.5V17.5C4.08366 17.9142 3.74787 18.25 3.33366 18.25C2.91945 18.25 2.58366 17.9142 2.58366 17.5V2.5ZM11.97 6.13634C12.2629 5.84344 12.7378 5.84344 13.0307 6.13634C13.3235 6.42923 13.3235 6.9041 13.0307 7.197L10.9777 9.25H16.667C17.0812 9.25 17.417 9.58579 17.417 10C17.417 10.4142 17.0812 10.75 16.667 10.75H10.9777L13.0307 12.803C13.3235 13.0959 13.3235 13.5708 13.0307 13.8637C12.7378 14.1566 12.2629 14.1566 11.97 13.8637L8.63666 10.5303C8.34377 10.2374 8.34377 9.76256 8.63666 9.46967L11.97 6.13634Z" fill="#12006C"/>
</g>
</svg>
