<svg width="14" height="14" viewBox="0 0 14 14" fill="none" xmlns="http://www.w3.org/2000/svg">
<path fill-rule="evenodd" clip-rule="evenodd" d="M5.94777 1.49C6.27253 1.30958 6.48585 1.19167 6.66031 1.11553C6.82498 1.04365 6.91993 1.02539 7 1.02539C7.08007 1.02539 7.17502 1.04365 7.33969 1.11553C7.51415 1.19167 7.72747 1.30958 8.05223 1.49L11.3856 3.34185C11.7017 3.5175 11.9178 3.63808 12.0789 3.74555L7 6.43437L1.92113 3.74555C2.08223 3.63808 2.29826 3.5175 2.61444 3.34185L5.94777 1.49ZM1.50473 4.6566C1.50021 4.81204 1.5 4.99956 1.5 5.23585V8.76437C1.5 9.15681 1.50058 9.4147 1.52055 9.61456C1.5394 9.80332 1.57252 9.89913 1.61511 9.97151C1.6577 10.0439 1.72537 10.1194 1.88122 10.2275C2.04623 10.342 2.27138 10.4678 2.61444 10.6584L5.94777 12.5102C6.17998 12.6392 6.35521 12.7363 6.5 12.8089V7.30115L1.50473 4.6566ZM7.5 12.8089C7.64479 12.7363 7.82002 12.6392 8.05223 12.5102L11.3856 10.6584C11.7286 10.4678 11.9538 10.342 12.1188 10.2275C12.2746 10.1194 12.3423 10.0439 12.3849 9.97151C12.4275 9.89913 12.4606 9.80332 12.4795 9.61456C12.4994 9.4147 12.5 9.15681 12.5 8.76437V5.23585C12.5 4.99956 12.4998 4.81204 12.4953 4.6566L7.5 7.30115V12.8089ZM7 0.0253906C6.73457 0.0253907 6.49851 0.0950482 6.26029 0.199017C6.03673 0.29659 5.78155 0.43837 5.4818 0.604909L5.46213 0.615838L2.1288 2.46769L2.10815 2.47916C1.79131 2.65517 1.52196 2.8048 1.31107 2.95115C1.08644 3.10704 0.894821 3.28096 0.753238 3.52158C0.611655 3.76221 0.552683 4.01417 0.5255 4.28624C0.499978 4.54167 0.499989 4.84979 0.500001 5.21224L0.500001 5.23585V8.76437L0.500001 8.78798C0.499989 9.15043 0.499978 9.45856 0.5255 9.71398C0.552683 9.98605 0.611654 10.238 0.753238 10.4786C0.894821 10.7193 1.08644 10.8932 1.31107 11.0491C1.52196 11.1954 1.79133 11.3451 2.10818 11.5211L2.1288 11.5325L5.46213 13.3844L5.48183 13.3953C5.78157 13.5619 6.03674 13.7036 6.26029 13.8012C6.49851 13.9052 6.73457 13.9748 7 13.9748C7.26543 13.9748 7.50149 13.9052 7.73971 13.8012C7.96326 13.7036 8.21844 13.5619 8.51818 13.3953L8.51823 13.3953L8.53787 13.3844L11.8712 11.5325L11.8918 11.5211C12.2087 11.3451 12.478 11.1954 12.6889 11.0491C12.9136 10.8932 13.1052 10.7193 13.2468 10.4786C13.3883 10.238 13.4473 9.98605 13.4745 9.71398C13.5 9.45856 13.5 9.15043 13.5 8.78799V8.76437V5.23585V5.21224C13.5 4.84979 13.5 4.54167 13.4745 4.28624C13.4473 4.01417 13.3883 3.76221 13.2468 3.52158C13.1052 3.28096 12.9136 3.10704 12.6889 2.95115C12.478 2.8048 12.2087 2.65517 11.8918 2.47916L11.8712 2.46769L8.53787 0.615838L8.5182 0.604909C8.21845 0.43837 7.96327 0.29659 7.73971 0.199017C7.50149 0.0950482 7.26543 0.0253906 7 0.0253906Z" fill="#0F172A"/>
</svg>
