<svg width="80" height="80" viewBox="0 0 80 80" fill="none" xmlns="http://www.w3.org/2000/svg">
<rect width="80" height="80" rx="40" fill="#F0F2FE"/>
<path d="M47.8581 21.25H32.1437C26.4437 21.25 23.125 24.5875 23.125 30.3062V49.675C23.125 55.4875 26.4437 58.75 32.1437 58.75H47.8581C53.65 58.75 56.875 55.4875 56.875 49.675V30.3062C56.875 24.5875 53.65 21.25 47.8581 21.25Z" fill="white"/>
<path fill-rule="evenodd" clip-rule="evenodd" d="M32.6498 29.9688V29.9875C31.8416 29.9875 31.1873 30.6437 31.1873 31.45C31.1873 32.2562 31.8416 32.9125 32.6498 32.9125H38.2541C39.0623 32.9125 39.7185 32.2562 39.7185 31.4294C39.7185 30.625 39.0623 29.9688 38.2541 29.9688H32.6498ZM47.3498 41.3881H32.6498C31.8416 41.3881 31.1873 40.7318 31.1873 39.9256C31.1873 39.1193 31.8416 38.4612 32.6498 38.4612H47.3498C48.156 38.4612 48.8123 39.1193 48.8123 39.9256C48.8123 40.7318 48.156 41.3881 47.3498 41.3881ZM47.35 49.9561H32.65C32.0875 50.0311 31.5438 49.7499 31.2438 49.2811C30.9438 48.7936 30.9438 48.1749 31.2438 47.7061C31.5438 47.2186 32.0875 46.9561 32.65 47.0124H47.35C48.0982 47.0874 48.6625 47.7249 48.6625 48.4936C48.6625 49.2418 48.0982 49.8811 47.35 49.9561Z" fill="#AAB3EC"/>
</svg>
