<svg width="24" height="24" viewBox="0 0 24 24" fill="none" xmlns="http://www.w3.org/2000/svg">
<g id="Comment - 2">
<path id="Union" fill-rule="evenodd" clip-rule="evenodd" d="M12 3.5C7.30558 3.5 3.5 7.30558 3.5 12C3.5 12.8792 3.68549 13.7724 3.94779 14.5928L3.9518 14.6053C4.25685 15.5593 4.49075 16.2908 4.6443 16.8515C4.79499 17.4018 4.88682 17.8488 4.86848 18.2098C4.8552 18.4712 4.84169 18.5675 4.7826 18.8225C4.70408 19.1612 4.54622 19.4918 4.32589 19.8677C4.21523 20.0564 4.08358 20.2651 3.93068 20.5H12C16.6944 20.5 20.5 16.6944 20.5 12C20.5 7.30558 16.6944 3.5 12 3.5ZM2.58778 20.7169C2.53241 20.7974 2.5 20.8949 2.5 21C2.5 21.2761 2.72386 21.5 3 21.5H12C17.2467 21.5 21.5 17.2467 21.5 12C21.5 6.75329 17.2467 2.5 12 2.5C6.75329 2.5 2.5 6.75329 2.5 12C2.5 13.0136 2.71259 14.0132 2.99529 14.8973C3.30515 15.8664 3.53252 16.5778 3.67981 17.1156C3.83061 17.6663 3.87914 17.9745 3.86977 18.159C3.85948 18.3615 3.85419 18.3992 3.80842 18.5967C3.76359 18.7901 3.66441 19.0187 3.46319 19.3619C3.26209 19.705 2.97981 20.1289 2.58778 20.7169Z" fill="#64748B"/>
</g>
</svg>
