<svg width="14" height="14" viewBox="0 0 14 14" fill="none" xmlns="http://www.w3.org/2000/svg">
<path fill-rule="evenodd" clip-rule="evenodd" d="M0.473088 0.474065C0.764029 0.183124 1.23574 0.183124 1.52668 0.474065L6.99988 5.94727L12.4731 0.474065C12.764 0.183124 13.2357 0.183124 13.5267 0.474065C13.8176 0.765005 13.8176 1.23671 13.5267 1.52765L8.05347 7.00086L13.5267 12.4741C13.8176 12.765 13.8176 13.2367 13.5267 13.5277C13.2357 13.8186 12.764 13.8186 12.4731 13.5277L6.99988 8.05445L1.52668 13.5277C1.23574 13.8186 0.764029 13.8186 0.473088 13.5277C0.182148 13.2367 0.182148 12.765 0.473088 12.4741L5.94629 7.00086L0.473088 1.52765C0.182148 1.23671 0.182148 0.765005 0.473088 0.474065Z" fill="#0F172A"/>
</svg>
