<svg width="16" height="16" viewBox="0 0 16 16" fill="none" xmlns="http://www.w3.org/2000/svg">
<g id="Trash">
<path id="Union" fill-rule="evenodd" clip-rule="evenodd" d="M6.93056 1.25001L6.96101 1.25001H9.03899L9.06944 1.25001C9.27468 1.24995 9.48655 1.2499 9.66768 1.27058C9.87694 1.29447 10.1186 1.35216 10.3478 1.51742C10.5771 1.68267 10.7082 1.89364 10.7971 2.08461C10.874 2.24991 10.9409 2.45091 11.0058 2.64564L11.0154 2.67454L11.2072 3.25001H12.6667H14C14.4142 3.25001 14.75 3.5858 14.75 4.00001C14.75 4.41422 14.4142 4.75001 14 4.75001H13.3683L12.9973 10.316L12.9939 10.3658C12.9378 11.2083 12.8909 11.913 12.7796 12.4712C12.662 13.0616 12.4551 13.5896 12.0077 14.0082C11.5602 14.4268 11.0196 14.5982 10.4228 14.6762C9.85837 14.7501 9.15211 14.75 8.30775 14.75H8.30773L8.25779 14.75H7.74221L7.69227 14.75H7.69225C6.84789 14.75 6.14163 14.7501 5.57725 14.6762C4.98037 14.5982 4.43978 14.4268 3.99235 14.0082C3.54492 13.5896 3.33796 13.0616 3.22035 12.4712C3.10915 11.913 3.06219 11.2083 3.00605 10.3658L3.00273 10.316L2.63167 4.75001H2C1.58579 4.75001 1.25 4.41422 1.25 4.00001C1.25 3.5858 1.58579 3.25001 2 3.25001H3.33333H4.79276L4.98459 2.67454L4.99421 2.64564C5.05907 2.45091 5.12602 2.24991 5.20291 2.08461C5.29175 1.89364 5.42288 1.68267 5.65217 1.51742C5.88145 1.35216 6.12306 1.29447 6.33232 1.27058C6.51345 1.2499 6.72531 1.24995 6.93056 1.25001ZM6.3739 3.25001H9.6261L9.59239 3.14888C9.55496 3.03661 9.52567 2.94883 9.49877 2.87369C9.48109 2.82428 9.46659 2.78646 9.45439 2.757C9.42258 2.75474 9.38212 2.75295 9.32966 2.7518C9.24986 2.75005 9.15733 2.75001 9.03899 2.75001H6.96101C6.84267 2.75001 6.75014 2.75005 6.67034 2.7518C6.61788 2.75295 6.57742 2.75474 6.54561 2.757C6.53341 2.78646 6.51891 2.82428 6.50123 2.87369C6.47433 2.94883 6.44504 3.03661 6.40761 3.14888L6.3739 3.25001ZM4.135 4.75001L4.49941 10.2162C4.55977 11.1216 4.60167 11.7275 4.69145 12.1782C4.77701 12.6077 4.88788 12.7919 5.01713 12.9128C5.14637 13.0337 5.33758 13.1321 5.7718 13.1889C6.22743 13.2485 6.83484 13.25 7.74221 13.25H8.25779C9.16516 13.25 9.77257 13.2485 10.2282 13.1889C10.6624 13.1321 10.8536 13.0337 10.9829 12.9128C11.1121 12.7919 11.223 12.6077 11.3086 12.1782C11.3983 11.7275 11.4402 11.1216 11.5006 10.2162L11.865 4.75001H10.6667H5.33333H4.135ZM6.66667 5.91668C7.08088 5.91668 7.41667 6.25246 7.41667 6.66668V11.3333C7.41667 11.7476 7.08088 12.0833 6.66667 12.0833C6.25245 12.0833 5.91667 11.7476 5.91667 11.3333V6.66668C5.91667 6.25246 6.25245 5.91668 6.66667 5.91668ZM10.0833 6.66668C10.0833 6.25246 9.74755 5.91668 9.33333 5.91668C8.91912 5.91668 8.58333 6.25246 8.58333 6.66668V9.33334C8.58333 9.74756 8.91912 10.0833 9.33333 10.0833C9.74755 10.0833 10.0833 9.74756 10.0833 9.33334V6.66668Z" fill="#2B1694"/>
</g>
</svg>
