<svg width="24" height="20" viewBox="0 0 24 20" fill="none" xmlns="http://www.w3.org/2000/svg">
<path id="Union" fill-rule="evenodd" clip-rule="evenodd" d="M15.0001 0.250001H14.9481C14.0496 0.249972 13.3004 0.249947 12.7056 0.329913C12.0778 0.414318 11.511 0.599988 11.0555 1.05546C10.6001 1.51093 10.4144 2.07773 10.33 2.70552C10.2717 3.13899 10.2559 3.65449 10.2516 4.25H6.26483L6.23053 4.25H6.23052H6.23052C5.70666 4.24998 5.26089 4.24997 4.89051 4.28597C4.49589 4.32432 4.12985 4.40747 3.77753 4.60695C3.42521 4.80643 3.16558 5.07753 2.92967 5.39618C2.70824 5.69525 2.4789 6.07751 2.20939 6.52673L2.20939 6.52674L2.19174 6.55615L0.926978 8.66408L0.885437 8.73325C0.642291 9.13789 0.45023 9.45751 0.349853 9.8199C0.249477 10.1823 0.249723 10.5552 0.250034 11.0273L0.250069 11.1079V13L0.250069 13.0253C0.250062 13.4697 0.250056 13.8408 0.270839 14.1454C0.292475 14.4625 0.339117 14.762 0.459401 15.0524C0.738509 15.7262 1.27386 16.2616 1.94769 16.5407C2.23808 16.661 2.5376 16.7076 2.8547 16.7292C2.97843 16.7377 3.11311 16.7427 3.25921 16.7457C3.38478 18.4258 4.78779 19.75 6.50007 19.75C8.21088 19.75 9.61294 18.4281 9.7406 16.75H13.2595C13.3872 18.4281 14.7893 19.75 16.5001 19.75C18.2114 19.75 19.6138 18.4273 19.7407 16.7485C20.3402 16.7443 20.8588 16.7287 21.2945 16.6701C21.9223 16.5857 22.4891 16.4 22.9446 15.9445C23.4001 15.4891 23.5858 14.9223 23.6702 14.2945C23.7501 13.6997 23.7501 12.9505 23.7501 12.0521V12.0521V12.052V12.052L23.7501 12V5L23.7501 4.94801V4.94798V4.94794V4.94791C23.7501 4.04947 23.7501 3.30028 23.6702 2.70552C23.5858 2.07773 23.4001 1.51093 22.9446 1.05546C22.4891 0.599988 21.9223 0.414318 21.2945 0.329913C20.6998 0.249947 19.9505 0.249972 19.0521 0.250001H19.0001H15.0001ZM10.2501 6V5.75H6.26483C5.69738 5.75 5.3249 5.75082 5.03562 5.77893C4.76251 5.80548 4.62276 5.85213 4.51658 5.91225C4.41039 5.97237 4.29849 6.06821 4.13521 6.28873C3.96227 6.52232 3.76993 6.84131 3.47798 7.32789L2.32471 9.25H7.00007C7.96408 9.25 8.61164 9.24841 9.09468 9.18347C9.55614 9.12142 9.75364 9.0142 9.88395 8.88389C10.0143 8.75357 10.1215 8.55607 10.1835 8.09461C10.2485 7.61157 10.2501 6.96401 10.2501 6ZM11.7501 6L11.7501 6.052V6.05203C11.7501 6.9505 11.7501 7.69971 11.6702 8.29448C11.5858 8.92228 11.4001 9.48908 10.9446 9.94455C10.4891 10.4 9.92234 10.5857 9.29455 10.6701C8.69977 10.7501 7.95055 10.75 7.05206 10.75L7.00007 10.75H1.75154C1.75043 10.8479 1.75007 10.9652 1.75007 11.1079V13C1.75007 13.4762 1.75048 13.7958 1.76736 14.0433C1.78378 14.284 1.81326 14.4012 1.84522 14.4784C1.97209 14.7846 2.21543 15.028 2.52172 15.1549C2.59887 15.1868 2.71608 15.2163 2.95681 15.2327C3.10558 15.2429 3.28041 15.2471 3.49966 15.2488C3.98973 14.075 5.14856 13.25 6.50007 13.25C7.85204 13.25 9.01121 14.0755 9.50099 15.25H13.4992C13.9889 14.0755 15.1481 13.25 16.5001 13.25C17.8518 13.25 19.0108 14.0753 19.5008 15.2495C20.1967 15.2473 20.7005 15.2365 21.0947 15.1835C21.5561 15.1214 21.7536 15.0142 21.884 14.8839C22.0143 14.7536 22.1215 14.5561 22.1835 14.0946C22.2485 13.6116 22.2501 12.964 22.2501 12V5C22.2501 4.03599 22.2485 3.38843 22.1835 2.90539C22.1215 2.44393 22.0143 2.24644 21.884 2.11612C21.7536 1.9858 21.5561 1.87858 21.0947 1.81654C20.6116 1.75159 19.9641 1.75 19.0001 1.75H15.0001C14.0361 1.75 13.3885 1.75159 12.9055 1.81654C12.444 1.87858 12.2465 1.9858 12.1162 2.11612C11.9859 2.24644 11.8786 2.44393 11.8166 2.90539C11.7517 3.38843 11.7501 4.03599 11.7501 5V6ZM6.50007 14.75C5.53357 14.75 4.75007 15.5335 4.75007 16.5C4.75007 17.4665 5.53357 18.25 6.50007 18.25C7.46657 18.25 8.25007 17.4665 8.25007 16.5C8.25007 15.5335 7.46657 14.75 6.50007 14.75ZM16.5001 14.75C15.5336 14.75 14.7501 15.5335 14.7501 16.5C14.7501 17.4665 15.5336 18.25 16.5001 18.25C17.4666 18.25 18.2501 17.4665 18.2501 16.5C18.2501 15.5335 17.4666 14.75 16.5001 14.75Z" fill="#143644"/>
</svg>
