<svg width="90" height="102" viewBox="0 0 90 102" fill="none" xmlns="http://www.w3.org/2000/svg">
<path d="M75.595 89.1733L16.6698 88.7108C19.1599 72.761 18.0758 12.0048 18.0758 12.0048L61.0747 12.3421C66.6529 12.3844 75.1676 17.5491 75.1603 22.1161C75.0992 56.387 75.5846 89.1756 75.5846 89.1756L75.595 89.1733Z" fill="white" stroke="#C2CAFE" stroke-width="0.75" stroke-linejoin="round"/>
<path d="M36.9612 23.5743C35.4408 23.6581 27.7753 23.7521 26.6576 23.5908C25.3332 23.4328 24.2783 22.5894 24.2873 21.3831C24.2962 20.1767 25.1889 19.2069 26.6868 19.2158C28.1847 19.2247 33.6879 19.2732 36.9904 19.1993C38.4741 19.1457 39.3697 20.2007 39.3607 21.407C39.3518 22.6133 38.4713 23.4928 36.9612 23.5743Z" fill="#12006C"/>
<path d="M33.0439 56.788C31.9656 56.8476 26.5427 56.9122 25.7521 56.7968C24.8194 56.681 24.0617 56.0873 24.0739 55.2305C24.0757 54.3762 24.7148 53.6831 25.7762 53.693C26.8376 53.7029 30.7424 53.7325 33.068 53.6842C34.1175 53.642 34.7583 54.3937 34.7462 55.2504C34.7444 56.1048 34.1222 56.7283 33.0439 56.788Z" fill="#12006C"/>
<path d="M67.8465 30.6031C63.8566 30.8228 30.5647 30.7254 28.7892 30.6483C27.0138 30.5713 26.59 30.5803 25.5814 30.5146C25.0188 30.4895 24.5737 30.0217 24.6028 29.4786C24.6191 28.9275 25.1004 28.5003 25.663 28.5253C25.663 28.5253 26.4115 28.5518 28.8709 28.659C36.7525 28.9865 67.9281 28.6138 67.9281 28.6138C68.4907 28.6389 68.9358 29.1067 68.9068 29.6498C68.8904 30.2009 68.4091 30.6281 67.8465 30.6031Z" fill="#AAB3EC"/>
<path d="M67.7684 36.6324C63.7785 36.8521 30.4866 36.7547 28.7111 36.6776C26.9356 36.6006 26.5119 36.6096 25.5033 36.5439C24.9407 36.5188 24.4956 36.051 24.5246 35.5079C24.541 34.9568 25.0223 34.5296 25.5849 34.5546C25.5849 34.5546 26.3334 34.5811 28.7927 34.6883C36.6743 35.0158 67.85 34.6431 67.85 34.6431C68.4126 34.6682 68.8577 35.136 68.8286 35.6791C68.8123 36.2302 68.331 36.6574 67.7684 36.6324Z" fill="#AAB3EC"/>
<path d="M63.7791 64.594C59.7892 64.8136 37.513 64.614 35.7375 64.537C33.962 64.46 33.5382 64.469 32.5296 64.4032C31.9671 64.3782 31.5219 63.9104 31.551 63.3673C31.5673 62.8161 32.0487 62.3889 32.6112 62.414C32.6112 62.414 33.3597 62.4404 35.8191 62.5477C43.7007 62.8752 63.8607 62.6047 63.8607 62.6047C64.4233 62.6297 64.8684 63.0976 64.8394 63.6407C64.823 64.1918 64.3417 64.619 63.7791 64.594Z" fill="#AAB3EC"/>
<path d="M67.7995 43.0954C63.8096 43.3151 30.3099 43.0242 28.5344 42.9471C26.7589 42.8701 26.3351 42.8791 25.3265 42.8134C24.7639 42.7884 24.3188 42.3205 24.3479 41.7774C24.3642 41.2263 24.8455 40.7991 25.4081 40.8241C25.4081 40.8241 26.1566 40.8506 28.616 40.9579C36.4976 41.2854 67.8812 41.1061 67.8812 41.1061C68.4437 41.1312 68.8888 41.599 68.8598 42.1421C68.8434 42.6932 68.3621 43.1204 67.7995 43.0954Z" fill="#AAB3EC"/>
<path d="M67.7585 49.904C63.7686 50.1237 30.2688 49.8328 28.4933 49.7557C26.7179 49.6787 26.2941 49.6877 25.2855 49.622C24.7229 49.597 24.2778 49.1291 24.3069 48.586C24.3232 48.0349 24.8045 47.6077 25.3671 47.6327C25.3671 47.6327 26.1156 47.6592 28.575 47.7665C36.4566 48.094 67.8401 47.9147 67.8401 47.9147C68.4027 47.9398 68.8478 48.4076 68.8187 48.9507C68.8024 49.5018 68.3211 49.929 67.7585 49.904Z" fill="#AAB3EC"/>
<path d="M75.0301 20.9194C73.8638 19.5868 69.3932 18.7994 65.9293 20.8479C66.2473 18.0274 64.3172 12.5772 61.0752 12.3418C61.0752 12.3418 64.7021 12.0625 69.5327 15.0999C74.3656 18.1477 75.0301 20.9194 75.0301 20.9194Z" fill="#AAB3EC" stroke="#C2CAFE" stroke-width="0.75" stroke-linecap="round" stroke-linejoin="round"/>
<path d="M27.6129 66.0616C27.4469 66.0994 27.276 66.1165 27.1109 66.1103L26.0495 66.1004C25.4709 66.1009 24.9255 65.864 24.5154 65.4538C24.1053 65.0437 23.8814 64.4926 23.8906 63.9102L23.8992 62.8463C23.9105 61.6503 24.8886 60.672 26.0816 60.6847L27.143 60.6946C28.3361 60.7073 29.3132 61.6889 29.3019 62.8848L29.2933 63.9488C29.2945 64.5288 29.0587 65.0752 28.65 65.4858C28.3549 65.772 28.0074 65.9717 27.6129 66.0616ZM25.7821 61.5741C25.1905 61.7089 24.7536 62.2355 24.7539 62.8595L24.7453 63.9234C24.7381 64.6586 25.333 65.2565 26.0664 65.2645L27.1278 65.2744C27.8612 65.2824 28.457 64.6868 28.4641 63.9516L28.4727 62.8877C28.4799 62.1525 27.885 61.5546 27.1516 61.5466L26.0902 61.5367C25.9817 61.5395 25.8859 61.5504 25.7821 61.5741Z" fill="#AAB3EC"/>
<path d="M66.8637 71.6967C62.8738 71.9164 37.4676 71.6857 35.6945 71.619C33.919 71.542 33.4952 71.551 32.4866 71.4853C31.9241 71.4602 31.479 70.9924 31.508 70.4493C31.5244 69.8982 32.0057 69.471 32.5683 69.496C32.5683 69.496 33.3168 69.5225 35.7761 69.6297C43.6577 69.9572 66.9453 69.7074 66.9453 69.7074C67.5078 69.7324 67.953 70.2003 67.9239 70.7434C67.9075 71.2945 67.4262 71.7217 66.8637 71.6967Z" fill="#AAB3EC"/>
<path d="M27.5668 73.1431C27.4008 73.181 27.23 73.198 27.0648 73.1919L26.0034 73.182C25.4248 73.1825 24.8794 72.9455 24.4693 72.5353C24.0592 72.1252 23.8353 71.5741 23.8445 70.9917L23.8531 69.9278C23.852 69.3478 24.0877 68.8014 24.4964 68.3908C24.9051 67.9801 25.4546 67.7563 26.0356 67.7662L27.0969 67.7761C28.29 67.7888 29.2671 68.7704 29.2558 69.9664L29.2472 71.0303C29.2484 71.6103 29.0126 72.1567 28.6039 72.5673C28.3088 72.8536 27.9613 73.0532 27.5668 73.1431ZM25.736 68.6556C25.4973 68.71 25.2832 68.8245 25.1064 69.0071C24.8561 69.2503 24.7149 69.589 24.7078 69.941L24.6992 71.0049C24.692 71.7401 25.2869 72.338 26.0203 72.3461L27.0817 72.3559C27.8151 72.3639 28.4109 71.7683 28.418 71.0332L28.4266 69.9692C28.4338 69.2341 27.8389 68.6361 27.1055 68.6281L26.0441 68.6182C25.9356 68.6211 25.8398 68.632 25.736 68.6556Z" fill="#AAB3EC"/>
<path d="M50.8396 78.7658C46.8497 78.9855 37.5686 78.8894 35.7931 78.8124C34.0177 78.7353 33.5939 78.7444 32.5853 78.6786C32.0227 78.6536 31.5776 78.1857 31.6067 77.6426C31.623 77.0915 32.1043 76.6643 32.6669 76.6894C32.6669 76.6894 33.4154 76.7158 35.8748 76.8231C43.7564 77.1506 50.9212 76.7766 50.9212 76.7766C51.4838 76.8016 51.9289 77.2695 51.8998 77.8125C51.8835 78.3637 51.4022 78.7909 50.8396 78.7658Z" fill="#AAB3EC"/>
<path d="M27.6656 80.3366C27.5099 80.3721 27.3391 80.3891 27.1659 80.3958L26.1045 80.3859C24.9114 80.3731 23.9343 79.3916 23.9456 78.1956L23.9542 77.1317C23.9531 76.5517 24.1888 76.0053 24.5975 75.5947C25.0062 75.184 25.5557 74.9602 26.1367 74.9701L27.198 74.98C27.7766 74.9795 28.322 75.2165 28.7321 75.6266C29.1422 76.0368 29.3661 76.5879 29.3569 77.1703L29.3483 78.2342C29.3429 79.2646 28.6205 80.119 27.6552 80.339L27.6656 80.3366ZM27.1677 79.5414C27.8907 79.5518 28.4968 78.9538 28.504 78.2186L28.5126 77.1547C28.5198 76.4195 27.9249 75.8216 27.1915 75.8136L26.1301 75.8037C25.3967 75.7957 24.8009 76.3913 24.7938 77.1265L24.7852 78.1904C24.778 78.9256 25.3729 79.5235 26.1063 79.5315L27.1677 79.5414Z" fill="#AAB3EC"/>
</svg>
