<svg width="14" height="18" viewBox="0 0 14 18" fill="none" xmlns="http://www.w3.org/2000/svg">
<path fill-rule="evenodd" clip-rule="evenodd" d="M7.91711 2.25437C7.70435 2.25083 7.45097 2.25007 7.1433 2.25007H7.05955C5.67715 2.25007 4.71307 2.25156 3.98315 2.34631C3.27325 2.43847 2.89385 2.6074 2.62138 2.86496C2.59071 2.89395 2.56087 2.92379 2.53189 2.95446C2.27432 3.22693 2.10539 3.60633 2.01323 4.31623C1.91848 5.04615 1.91699 6.01023 1.91699 7.39263V10.6667C1.91699 12.02 1.91842 12.9637 2.00951 13.6796C2.09817 14.3762 2.26086 14.7503 2.50812 15.0201C2.55234 15.0684 2.59865 15.1147 2.64692 15.1589C2.91675 15.4062 3.29089 15.5689 3.98751 15.6575C4.70334 15.7486 5.64707 15.7501 7.00033 15.7501C8.35358 15.7501 9.29731 15.7486 10.0131 15.6575C10.7098 15.5689 11.0839 15.4062 11.3537 15.1589C11.402 15.1147 11.4483 15.0684 11.4925 15.0201C11.7398 14.7503 11.9025 14.3762 11.9911 13.6795C12.0822 12.9637 12.0837 12.02 12.0837 10.6667V7.19043C12.0837 6.8828 12.0829 6.62943 12.0794 6.41669C11.4243 6.41583 10.8682 6.40897 10.4106 6.35487C9.85971 6.28976 9.35477 6.14741 8.92241 5.79259C8.78317 5.67831 8.65549 5.55063 8.54121 5.41139C8.18638 4.97903 8.04404 4.47409 7.97892 3.9232C7.92483 3.46554 7.91797 2.90941 7.91711 2.25437ZM9.41845 2.57888C9.42179 3.07132 9.43275 3.44423 9.46855 3.74712C9.51693 4.1564 9.60158 4.33898 9.70073 4.4598C9.75267 4.52309 9.81071 4.58113 9.874 4.63307C9.99482 4.73222 10.1774 4.81687 10.5867 4.86525C10.8896 4.90105 11.2625 4.912 11.7549 4.91535C11.579 4.6487 11.2758 4.33616 10.6367 3.69707C9.99763 3.05803 9.68509 2.75479 9.41845 2.57888ZM7.27114 0.750035C8.24613 0.749616 8.92288 0.749326 9.55118 0.980218C9.64631 1.01518 9.73998 1.05397 9.83196 1.09652C10.4395 1.37753 10.9178 1.85627 11.6069 2.54598L11.6973 2.63641L11.7877 2.72677C12.4775 3.4159 12.9562 3.89423 13.2372 4.50177C13.2798 4.59375 13.3186 4.68742 13.3535 4.78255C13.5844 5.41085 13.5841 6.08759 13.5837 7.06258L13.5837 7.19043V10.6667V10.7184C13.5837 12.0078 13.5837 13.0473 13.4791 13.8689C13.3707 14.7206 13.1394 15.4432 12.5984 16.0335C12.5247 16.114 12.4476 16.1912 12.3671 16.2649C11.7768 16.8058 11.0542 17.0372 10.2025 17.1455C9.38091 17.2501 8.34143 17.2501 7.05196 17.2501H7.00033H6.94869C5.65922 17.2501 4.61974 17.2501 3.79815 17.1455C2.94642 17.0372 2.22383 16.8058 1.63353 16.2649C1.55309 16.1912 1.47591 16.114 1.4022 16.0335C0.861297 15.4432 0.629905 14.7206 0.521514 13.8689C0.416959 13.0473 0.416974 12.0078 0.416993 10.7183L0.416993 10.6667V7.39263L0.416993 7.33986C0.416974 6.02267 0.416958 4.96089 0.525716 4.12312C0.638522 3.25417 0.879519 2.5189 1.44181 1.92405C1.49012 1.87294 1.53986 1.8232 1.59097 1.77489C2.18582 1.2126 2.92109 0.971601 3.79004 0.858794C4.62781 0.750036 5.68959 0.750052 7.00678 0.750071L7.05955 0.750071H7.1433L7.27114 0.750035ZM7.00033 7.41681C7.41454 7.41681 7.75033 7.7526 7.75033 8.16681V11.3562L8.55333 10.5531C8.84622 10.2603 9.3211 10.2603 9.61399 10.5531C9.90688 10.846 9.90688 11.3209 9.61399 11.6138L7.53066 13.6971C7.23776 13.99 6.76289 13.99 6.47 13.6971L4.38666 11.6138C4.09377 11.3209 4.09377 10.846 4.38666 10.5531C4.67956 10.2603 5.15443 10.2603 5.44732 10.5531L6.25033 11.3562V8.16681C6.25033 7.7526 6.58611 7.41681 7.00033 7.41681Z" fill="#2B1694"/>
</svg>
