<svg width="20" height="20" viewBox="0 0 20 20" fill="none" xmlns="http://www.w3.org/2000/svg">
<g id="icons / 20 / container">
<path id="container" fill-rule="evenodd" clip-rule="evenodd" d="M14.2811 4.2805C14.6786 3.88305 15.323 3.88306 15.7204 4.28053C16.1178 4.67798 16.1178 5.32236 15.7204 5.7198L15.0842 6.35602C14.2971 6.34714 13.6538 5.70384 13.6448 4.91677L14.2811 4.2805ZM12.3956 4.04464C12.3895 4.05053 12.3835 4.05653 12.3777 4.06263L5.20389 11.2363L5.13034 11.3098C4.42198 12.0179 3.9645 12.4752 3.64574 13.0382C3.32699 13.6012 3.17023 14.2287 2.9275 15.2005L2.90229 15.3013L2.60639 16.4849C2.5425 16.7405 2.61738 17.0109 2.80367 17.1972C2.98996 17.3835 3.26032 17.4584 3.5159 17.3945L4.69952 17.0986L4.80041 17.0733C5.77212 16.8306 6.39968 16.6739 6.96266 16.3551C7.52563 16.0364 7.98293 15.5789 8.691 14.8705L8.76452 14.797L15.9415 7.62004C15.9454 7.61622 15.9492 7.61237 15.953 7.60847L16.7811 6.78046C17.7643 5.79724 17.7643 4.20313 16.7811 3.21989C15.7979 2.23662 14.2037 2.2366 13.2204 3.21984L12.3956 4.04464ZM13.8581 7.5821L7.70386 13.7363C6.8971 14.5431 6.58769 14.8437 6.22361 15.0498C5.86272 15.2541 5.44992 15.3647 4.36478 15.6361C4.63618 14.5509 4.74671 14.1381 4.95104 13.7772C5.15719 13.4132 5.45777 13.1037 6.26454 12.297L12.4188 6.14281C12.7136 6.77475 13.2261 7.28726 13.8581 7.5821Z" fill="#755CF1"/>
</g>
</svg>
