<svg width="20" height="20" viewBox="0 0 20 20" fill="none" xmlns="http://www.w3.org/2000/svg">
<g id="icons / 24 / filled / Eye">
<path id="Union" fill-rule="evenodd" clip-rule="evenodd" d="M9.99984 3.41602C6.89085 3.41602 4.62687 4.53128 3.13696 5.90658C2.3965 6.59009 1.84869 7.33635 1.48309 8.03831C1.12448 8.72684 0.916504 9.42109 0.916504 9.99935C0.916504 10.5776 1.12448 11.2719 1.48309 11.9604C1.84869 12.6623 2.3965 13.4086 3.13696 14.0921C4.62687 15.4674 6.89085 16.5827 9.99984 16.5827C13.1088 16.5827 15.3728 15.4674 16.8627 14.0921C17.6032 13.4086 18.151 12.6623 18.5166 11.9604C18.8752 11.2719 19.0832 10.5776 19.0832 9.99935C19.0832 9.42109 18.8752 8.72684 18.5166 8.03831C18.151 7.33635 17.6032 6.59009 16.8627 5.90658C15.3728 4.53128 13.1088 3.41602 9.99984 3.41602ZM9.99977 8.24943C9.03327 8.24943 8.24977 9.03293 8.24977 9.99943C8.24977 10.9659 9.03327 11.7494 9.99977 11.7494C10.9663 11.7494 11.7498 10.9659 11.7498 9.99943C11.7498 9.03293 10.9663 8.24943 9.99977 8.24943ZM6.74977 9.99943C6.74977 8.2045 8.20484 6.74943 9.99977 6.74943C11.7947 6.74943 13.2498 8.2045 13.2498 9.99943C13.2498 11.7944 11.7947 13.2494 9.99977 13.2494C8.20484 13.2494 6.74977 11.7944 6.74977 9.99943Z" fill="#94A3B8"/>
</g>
</svg>
