<svg width="16" height="12" viewBox="0 0 16 12" fill="none" xmlns="http://www.w3.org/2000/svg">
<path fill-rule="evenodd" clip-rule="evenodd" d="M1.83301 6.00065C1.83301 5.77504 1.92352 5.3976 2.16188 4.93995C2.39557 4.49126 2.75607 3.99572 3.25548 3.53472C4.24832 2.61825 5.79455 1.83398 7.99967 1.83398C10.2048 1.83398 11.751 2.61825 12.7439 3.53472C13.2433 3.99572 13.6038 4.49126 13.8375 4.93995C14.0758 5.3976 14.1663 5.77504 14.1663 6.00065C14.1663 6.22626 14.0758 6.6037 13.8375 7.06135C13.6038 7.51004 13.2433 8.00559 12.7439 8.46658C11.751 9.38305 10.2048 10.1673 7.99967 10.1673C5.79455 10.1673 4.24832 9.38305 3.25548 8.46658C2.75607 8.00559 2.39557 7.51004 2.16188 7.06135C1.92352 6.6037 1.83301 6.22626 1.83301 6.00065ZM7.99967 0.833984C5.53813 0.833984 3.75103 1.71638 2.5772 2.79992C1.99328 3.33892 1.56211 3.92671 1.27497 4.47802C0.992493 5.02037 0.833008 5.55959 0.833008 6.00065C0.833008 6.44171 0.992493 6.98093 1.27497 7.52328C1.56211 8.07459 1.99328 8.66238 2.5772 9.20139C3.75103 10.2849 5.53813 11.1673 7.99967 11.1673C10.4612 11.1673 12.2483 10.2849 13.4221 9.20139C14.0061 8.66238 14.4372 8.07459 14.7244 7.52328C15.0069 6.98093 15.1663 6.44171 15.1663 6.00065C15.1663 5.55959 15.0069 5.02037 14.7244 4.47802C14.4372 3.92671 14.0061 3.33892 13.4221 2.79992C12.2483 1.71638 10.4612 0.833984 7.99967 0.833984ZM6.49961 6.00067C6.49961 5.17224 7.17118 4.50067 7.99961 4.50067C8.82804 4.50067 9.49961 5.17224 9.49961 6.00067C9.49961 6.82909 8.82804 7.50067 7.99961 7.50067C7.17118 7.50067 6.49961 6.82909 6.49961 6.00067ZM7.99961 3.50067C6.6189 3.50067 5.49961 4.61996 5.49961 6.00067C5.49961 7.38138 6.6189 8.50067 7.99961 8.50067C9.38032 8.50067 10.4996 7.38138 10.4996 6.00067C10.4996 4.61996 9.38032 3.50067 7.99961 3.50067Z" fill="#0F172A"/>
</svg>
