<svg width="20" height="20" viewBox="0 0 20 20" fill="none" xmlns="http://www.w3.org/2000/svg">
<g id="icons / 24 / filled / Eye">
<path id="Union" fill-rule="evenodd" clip-rule="evenodd" d="M10.0003 3.41602C6.89134 3.41602 4.62736 4.53128 3.13745 5.90658C2.39698 6.59009 1.84918 7.33635 1.48358 8.03831C1.12497 8.72684 0.916992 9.42109 0.916992 9.99935C0.916992 10.5776 1.12497 11.2719 1.48358 11.9604C1.84918 12.6623 2.39698 13.4086 3.13745 14.0921C4.62736 15.4674 6.89134 16.5827 10.0003 16.5827C13.1093 16.5827 15.3733 15.4674 16.8632 14.0921C17.6037 13.4086 18.1515 12.6623 18.5171 11.9604C18.8757 11.2719 19.0837 10.5776 19.0837 9.99935C19.0837 9.42109 18.8757 8.72684 18.5171 8.03831C18.1515 7.33635 17.6037 6.59009 16.8632 5.90658C15.3733 4.53128 13.1093 3.41602 10.0003 3.41602ZM10.0003 8.24943C9.03376 8.24943 8.25025 9.03293 8.25025 9.99943C8.25025 10.9659 9.03376 11.7494 10.0003 11.7494C10.9668 11.7494 11.7503 10.9659 11.7503 9.99943C11.7503 9.03293 10.9668 8.24943 10.0003 8.24943ZM6.75025 9.99943C6.75025 8.2045 8.20533 6.74943 10.0003 6.74943C11.7952 6.74943 13.2503 8.2045 13.2503 9.99943C13.2503 11.7944 11.7952 13.2494 10.0003 13.2494C8.20533 13.2494 6.75025 11.7944 6.75025 9.99943Z" fill="#755CF1"/>
</g>
</svg>
