<svg width="24" height="24" viewBox="0 0 24 24" fill="none" xmlns="http://www.w3.org/2000/svg">
<g id="icons / 24 / filled / Eye">
<path id="Union" fill-rule="evenodd" clip-rule="evenodd" d="M12 4.25C8.30768 4.25 5.62703 5.5736 3.86629 7.1989C2.99041 8.0074 2.34365 8.88909 1.91294 9.71605C1.48923 10.5296 1.25 11.3384 1.25 12C1.25 12.6616 1.48923 13.4704 1.91294 14.284C2.34365 15.1109 2.99041 15.9926 3.86629 16.8011C5.62703 18.4264 8.30768 19.75 12 19.75C15.6923 19.75 18.373 18.4264 20.1337 16.8011C21.0096 15.9926 21.6564 15.1109 22.0871 14.284C22.5108 13.4704 22.75 12.6616 22.75 12C22.75 11.3384 22.5108 10.5296 22.0871 9.71605C21.6564 8.88909 21.0096 8.0074 20.1337 7.1989C18.373 5.5736 15.6923 4.25 12 4.25ZM11.9999 9.7501C10.7573 9.7501 9.74991 10.7575 9.74991 12.0001C9.74991 13.2427 10.7573 14.2501 11.9999 14.2501C13.2426 14.2501 14.2499 13.2427 14.2499 12.0001C14.2499 10.7575 13.2426 9.7501 11.9999 9.7501ZM8.24991 12.0001C8.24991 9.92903 9.92885 8.2501 11.9999 8.2501C14.071 8.2501 15.7499 9.92903 15.7499 12.0001C15.7499 14.0712 14.071 15.7501 11.9999 15.7501C9.92885 15.7501 8.24991 14.0712 8.24991 12.0001Z" fill="#2B1694"/>
</g>
</svg>
