<svg width="32" height="40" viewBox="0 0 32 40" fill="none" xmlns="http://www.w3.org/2000/svg">
<path fill-rule="evenodd" clip-rule="evenodd" d="M18.5 0.5036C18.1269 0.499699 17.733 0.499887 17.3147 0.500087L17.0294 0.500177H14H13.8903C11.1551 0.500135 8.95043 0.500101 7.2165 0.733223C5.41628 0.975255 3.90053 1.49304 2.6967 2.69688C1.49287 3.90071 0.975081 5.41646 0.733048 7.21667C0.499927 8.95061 0.49996 11.1552 0.500001 13.8904V14.0002V26.0002V26.1099C0.49996 28.8451 0.499927 31.0497 0.733048 32.7837C0.975081 34.5839 1.49287 36.0996 2.6967 37.3035C3.90053 38.5073 5.41628 39.0251 7.2165 39.2671C8.95044 39.5003 11.1551 39.5002 13.8903 39.5002H14H18H18.1097C20.8449 39.5002 23.0496 39.5003 24.7835 39.2671C26.5837 39.0251 28.0995 38.5073 29.3033 37.3035C30.5071 36.0996 31.0249 34.5839 31.267 32.7837C31.5001 31.0498 31.5 28.8451 31.5 26.11V26.11V26.11V26.1099V26.1099V26.0002V14.9707L31.5001 14.6855V14.6855C31.5003 14.2671 31.5005 13.8732 31.4966 13.5001H28L27.896 13.5001C26.099 13.5001 24.6006 13.5002 23.411 13.3402C22.1555 13.1714 21.0219 12.8001 20.1109 11.8891C19.2 10.9782 18.8286 9.84461 18.6598 8.58902C18.4999 7.39946 18.4999 5.90102 18.5 4.10406L18.5 4.00006V0.5036ZM31.2173 10.5001C31.1426 10.1963 31.0483 9.90305 30.9291 9.61533C30.3563 8.23258 29.2868 7.16401 27.7477 5.6264L27.5459 5.4248L26.5754 4.45423L26.3738 4.2525C24.8362 2.71342 23.7676 1.64384 22.3848 1.07108C22.0971 0.95189 21.8038 0.857535 21.5 0.782849V4.00006C21.5 5.92808 21.5032 7.2232 21.6331 8.18927C21.7572 9.1122 21.9716 9.50719 22.2322 9.76783C22.4929 10.0285 22.8879 10.2429 23.8108 10.367C24.7769 10.4969 26.072 10.5001 28 10.5001H31.2173ZM8.5 20C8.5 19.1716 9.17157 18.5 10 18.5H22C22.8284 18.5 23.5 19.1716 23.5 20C23.5 20.8284 22.8284 21.5 22 21.5H10C9.17157 21.5 8.5 20.8284 8.5 20ZM10 26.5C9.17157 26.5 8.5 27.1716 8.5 28C8.5 28.8284 9.17157 29.5 10 29.5H18C18.8284 29.5 19.5 28.8284 19.5 28C19.5 27.1716 18.8284 26.5 18 26.5H10Z" fill="#C2CAFE"/>
</svg>
