<svg width="47" height="44" viewBox="0 0 47 44" fill="none" xmlns="http://www.w3.org/2000/svg">
<path d="M4.645 15.6849V40.855H43.3544L43.247 15.6644V15.6638C43.247 14.4252 42.6638 13.2463 41.6408 12.4731L41.6407 12.473L26.5161 1.01593L26.515 1.01514C25.0116 -0.145048 22.8805 -0.145048 21.377 1.01515L21.3759 1.01599L18.4806 3.20624L18.4806 3.20626L8.90913 10.4509L8.90884 10.4512L6.25151 12.4728L6.25115 12.4731C5.22853 13.2461 4.645 14.4248 4.645 15.6849Z" fill="white" stroke="#2B1694" stroke-width="0.29"/>
<path d="M28.966 24.3296H33.2816C34.4684 24.3296 35.4394 23.3586 35.4394 22.1718V18.9351C35.4394 17.7484 34.4684 16.7773 33.2816 16.7773H28.966C27.7792 16.7773 26.8082 17.7484 26.8082 18.9351V22.1718C26.8082 23.3586 27.7792 24.3296 28.966 24.3296Z" fill="#AAB3EC"/>
<path d="M13.8615 24.3296H18.177C19.3638 24.3296 20.3348 23.3586 20.3348 22.1718V18.9351C20.3348 17.7484 19.3638 16.7773 18.177 16.7773H13.8615C12.6747 16.7773 11.7037 17.7484 11.7037 18.9351V22.1718C11.7037 23.3586 12.6747 24.3296 13.8615 24.3296Z" fill="#AAB3EC"/>
<path d="M8.46629 10.7138L18.0253 3.29102H10.6672C9.48045 3.29102 8.50945 4.24042 8.50945 5.42721L8.46629 10.7138Z" fill="#AAB3EC"/>
<mask id="path-5-inside-1_7687_47392" fill="white">
<path fill-rule="evenodd" clip-rule="evenodd" d="M26.0523 30H21.7367C19.9457 30 18.5 31.4457 18.5 33.2367V40.5137H1.99358C1.10888 40.5137 0.375229 41.2473 0.375229 42.132C0.375229 43.0167 1.10888 43.7504 1.99358 43.7504H45.1495C46.0342 43.7504 46.7678 43.0167 46.7678 42.132C46.7678 41.2473 46.0342 40.5137 45.1495 40.5137H29.289V33.2367C29.289 31.4457 27.8433 30 26.0523 30Z"/>
</mask>
<path fill-rule="evenodd" clip-rule="evenodd" d="M26.0523 30H21.7367C19.9457 30 18.5 31.4457 18.5 33.2367V40.5137H1.99358C1.10888 40.5137 0.375229 41.2473 0.375229 42.132C0.375229 43.0167 1.10888 43.7504 1.99358 43.7504H45.1495C46.0342 43.7504 46.7678 43.0167 46.7678 42.132C46.7678 41.2473 46.0342 40.5137 45.1495 40.5137H29.289V33.2367C29.289 31.4457 27.8433 30 26.0523 30Z" fill="#AAB3EC"/>
<path d="M18.5 40.5137H18.79V40.8037H18.5V40.5137ZM29.289 40.5137V40.8037H28.999V40.5137H29.289ZM21.7367 29.71H26.0523V30.29H21.7367V29.71ZM18.21 33.2367C18.21 31.2856 19.7856 29.71 21.7367 29.71V30.29C20.1059 30.29 18.79 31.6059 18.79 33.2367H18.21ZM18.21 40.5137V33.2367H18.79V40.5137H18.21ZM18.5 40.8037H1.99358V40.2237H18.5V40.8037ZM1.99358 40.8037C1.26905 40.8037 0.66523 41.4075 0.66523 42.132H0.085228C0.085228 41.0872 0.948719 40.2237 1.99358 40.2237V40.8037ZM0.66523 42.132C0.66523 42.8566 1.26905 43.4604 1.99358 43.4604V44.0404C0.948719 44.0404 0.085228 43.1769 0.085228 42.132H0.66523ZM1.99358 43.4604H45.1495V44.0404H1.99358V43.4604ZM45.1495 43.4604C45.874 43.4604 46.4778 42.8566 46.4778 42.132H47.0578C47.0578 43.1769 46.1943 44.0404 45.1495 44.0404V43.4604ZM46.4778 42.132C46.4778 41.4075 45.874 40.8037 45.1495 40.8037V40.2237C46.1943 40.2237 47.0578 41.0872 47.0578 42.132H46.4778ZM45.1495 40.8037H29.289V40.2237H45.1495V40.8037ZM29.579 33.2367V40.5137H28.999V33.2367H29.579ZM26.0523 29.71C28.0034 29.71 29.579 31.2856 29.579 33.2367H28.999C28.999 31.6059 27.6831 30.29 26.0523 30.29V29.71Z" fill="#2B1694" mask="url(#path-5-inside-1_7687_47392)"/>
</svg>
