<svg width="75" height="70" viewBox="0 0 75 70" fill="none" xmlns="http://www.w3.org/2000/svg">
<path d="M2.58973 69.7998H71.6392C73.0547 69.7998 74.2285 68.626 74.2285 67.2104C74.2285 65.7949 73.0547 64.6211 71.6392 64.6211H2.58973C1.17422 64.6211 0.00037384 65.7949 0.00037384 67.2104C0.00037384 68.626 1.17422 69.7998 2.58973 69.7998Z" fill="#5B70F5"/>
<path opacity="0.4" d="M6.04501 25.7121V67.211H68.3621L68.1894 25.6776C68.1894 23.5716 67.2227 21.5694 65.531 20.2574L41.3638 1.47593C38.878 -0.491977 35.3565 -0.491977 32.8707 1.47593L28.2444 5.06643L12.95 16.943L8.70342 20.2574C7.01171 21.5694 6.04501 23.5716 6.04501 25.7121Z" fill="#5B70F5"/>
<path d="M33.662 49.9473H40.5669C43.4324 49.9473 45.7456 52.2604 45.7456 55.126V67.2096H28.4832V55.126C28.4832 52.2604 30.7964 49.9473 33.662 49.9473Z" fill="#5B70F5"/>
<path d="M45.7456 38.7282H52.6506C54.5494 38.7282 56.103 37.1746 56.103 35.2757V30.097C56.103 28.1981 54.5494 26.6445 52.6506 26.6445H45.7456C43.8468 26.6445 42.2931 28.1981 42.2931 30.097V35.2757C42.2931 37.1746 43.8468 38.7282 45.7456 38.7282Z" fill="#5B70F5"/>
<path d="M21.5784 38.7282H28.4833C30.3822 38.7282 31.9358 37.1746 31.9358 35.2757V30.097C31.9358 28.1981 30.3822 26.6445 28.4833 26.6445H21.5784C19.6795 26.6445 18.1259 28.1981 18.1259 30.097V35.2757C18.1259 37.1746 19.6795 38.7282 21.5784 38.7282Z" fill="#5B70F5"/>
<path d="M12.946 16.9429L28.2405 5.06641H16.4675C14.5687 5.06641 13.0151 6.58546 13.0151 8.48432L12.946 16.9429Z" fill="#5B70F5"/>
</svg>
