<svg width="21" height="21" viewBox="0 0 21 21" fill="none" xmlns="http://www.w3.org/2000/svg">
<path d="M10.75 19.625C15.9277 19.625 20.125 15.4277 20.125 10.25C20.125 5.07233 15.9277 0.875 10.75 0.875C5.57233 0.875 1.375 5.07233 1.375 10.25C1.375 15.4277 5.57233 19.625 10.75 19.625Z" fill="#2B1694" stroke="#F0F2FE" stroke-width="1.25" stroke-miterlimit="10"/>
<path fill-rule="evenodd" clip-rule="evenodd" d="M10.75 7.125C11.0952 7.125 11.375 7.40482 11.375 7.75V9.625H13.25C13.5952 9.625 13.875 9.90482 13.875 10.25C13.875 10.5952 13.5952 10.875 13.25 10.875H11.375V12.75C11.375 13.0952 11.0952 13.375 10.75 13.375C10.4048 13.375 10.125 13.0952 10.125 12.75V10.875H8.25C7.90482 10.875 7.625 10.5952 7.625 10.25C7.625 9.90482 7.90482 9.625 8.25 9.625H10.125V7.75C10.125 7.40482 10.4048 7.125 10.75 7.125Z" fill="white"/>
</svg>
