<svg width="34" height="34" viewBox="0 0 34 34" fill="none" xmlns="http://www.w3.org/2000/svg">
<path fill-rule="evenodd" clip-rule="evenodd" d="M15.2393 0.750001H15.3333H18.6667H18.7607C21.8236 0.749973 24.2497 0.749952 26.1484 1.00522C28.1024 1.26794 29.684 1.82147 30.9313 3.06874C32.1785 4.31601 32.7321 5.89759 32.9948 7.85163C33.25 9.75032 33.25 12.1764 33.25 15.2393V15.3333V18.6667V18.7607C33.25 21.8236 33.25 24.2497 32.9948 26.1484C32.7321 28.1024 32.1785 29.684 30.9313 30.9313C29.684 32.1785 28.1024 32.7321 26.1484 32.9948C24.2497 33.25 21.8236 33.25 18.7607 33.25H18.6667H15.3333H15.2393C12.1764 33.25 9.75032 33.25 7.85163 32.9948C5.89759 32.7321 4.31601 32.1785 3.06874 30.9313C1.82147 29.684 1.26794 28.1024 1.00522 26.1484C0.749952 24.2497 0.749973 21.8236 0.750001 18.7607V18.6667V15.3333V15.2393C0.749973 12.1764 0.749952 9.75032 1.00522 7.85163C1.26794 5.89759 1.82147 4.31601 3.06874 3.06874C4.31601 1.82147 5.89759 1.26794 7.85163 1.00522C9.75032 0.749952 12.1764 0.749973 15.2393 0.750001ZM8.18475 3.48293C6.50793 3.70837 5.54185 4.13116 4.83651 4.83651C4.13116 5.54185 3.70837 6.50793 3.48293 8.18475C3.25266 9.89752 3.25 12.1553 3.25 15.3333V18.6667C3.25 20.437 3.25082 21.9218 3.29136 23.1858C3.3136 23.8794 4.12788 24.2025 4.63778 23.7318L8.12667 20.5113C10.3529 18.4563 11.466 17.4288 12.8076 17.4556C14.1491 17.4825 15.2203 18.5536 17.3626 20.6959L19.7441 23.0774C20.0695 23.4028 20.5977 23.4023 20.9231 23.0769V23.0769L20.9231 23.0769C23.0136 20.9864 24.0589 19.9411 25.3743 19.8973C26.6897 19.8535 27.8022 20.8269 30.0272 22.7738V22.7738C30.2977 23.0105 30.7199 22.8271 30.7272 22.4677C30.7495 21.3676 30.75 20.1123 30.75 18.6667V15.3333C30.75 12.1553 30.7473 9.89752 30.5171 8.18475C30.2916 6.50793 29.8688 5.54185 29.1635 4.83651C28.4581 4.13116 27.4921 3.70837 25.8153 3.48293C24.1025 3.25266 21.8447 3.25 18.6667 3.25H15.3333C12.1553 3.25 9.89752 3.25266 8.18475 3.48293ZM25.3333 12C25.3333 13.8409 23.8409 15.3333 22 15.3333C20.1591 15.3333 18.6667 13.8409 18.6667 12C18.6667 10.1591 20.1591 8.66667 22 8.66667C23.8409 8.66667 25.3333 10.1591 25.3333 12Z" fill="#2B1694"/>
</svg>
