<svg width="14" height="14" viewBox="0 0 14 14" fill="none" xmlns="http://www.w3.org/2000/svg">
<path fill-rule="evenodd" clip-rule="evenodd" d="M7 1.5C3.96243 1.5 1.5 3.96243 1.5 7C1.5 10.0376 3.96243 12.5 7 12.5C10.0376 12.5 12.5 10.0376 12.5 7C12.5 3.96243 10.0376 1.5 7 1.5ZM0.5 7C0.5 3.41015 3.41015 0.5 7 0.5C10.5899 0.5 13.5 3.41015 13.5 7C13.5 10.5899 10.5899 13.5 7 13.5C3.41015 13.5 0.5 10.5899 0.5 7ZM7 5.83333C7.27614 5.83333 7.5 6.05719 7.5 6.33333V9.66667C7.5 9.94281 7.27614 10.1667 7 10.1667C6.72386 10.1667 6.5 9.94281 6.5 9.66667V6.33333C6.5 6.05719 6.72386 5.83333 7 5.83333ZM7 5C7.36819 5 7.66667 4.70152 7.66667 4.33333C7.66667 3.96514 7.36819 3.66667 7 3.66667C6.63181 3.66667 6.33333 3.96514 6.33333 4.33333C6.33333 4.70152 6.63181 5 7 5Z" fill="#CBD5E1"/>
</svg>
