<svg width="16" height="18" viewBox="0 0 16 18" fill="none" xmlns="http://www.w3.org/2000/svg">
<path fill-rule="evenodd" clip-rule="evenodd" d="M7.95668 0.0410166H8.00002H8.04335C8.79208 0.0409911 9.41643 0.0409707 9.91208 0.107609C10.4352 0.177947 10.9076 0.332672 11.2871 0.71223C11.6667 1.09179 11.8214 1.56412 11.8918 2.08728C11.9584 2.58293 11.9584 3.20728 11.9583 3.95601L11.9583 3.99935V5.15405C12.5574 5.24125 13.073 5.40106 13.5325 5.70812C13.9647 5.99691 14.3358 6.36801 14.6246 6.80022C14.9855 7.3404 15.143 7.95793 15.2183 8.69764C15.2917 9.4196 15.2917 10.3237 15.2917 11.4647V11.4993V11.534C15.2917 12.675 15.2917 13.5791 15.2183 14.3011C15.143 15.0408 14.9855 15.6583 14.6246 16.1985C14.3358 16.6307 13.9647 17.0018 13.5325 17.2906C12.9923 17.6515 12.3748 17.809 11.6351 17.8843C10.9131 17.9577 10.009 17.9577 8.86802 17.9577H8.83337H7.1667H7.13206C5.99105 17.9577 5.08696 17.9577 4.36499 17.8843C3.62529 17.809 3.00776 17.6515 2.46758 17.2906C2.03536 17.0018 1.66427 16.6307 1.37547 16.1985C1.01453 15.6583 0.857052 15.0408 0.781804 14.3011C0.708361 13.5791 0.708367 12.675 0.708374 11.534L0.708374 11.4993L0.708374 11.4647C0.708367 10.3237 0.708361 9.4196 0.781804 8.69764C0.857052 7.95793 1.01453 7.3404 1.37547 6.80022C1.66427 6.36801 2.03536 5.99691 2.46758 5.70812C2.9271 5.40107 3.44261 5.24126 4.04168 5.15406V3.99935L4.04168 3.95602C4.04166 3.20728 4.04164 2.58293 4.10827 2.08728C4.17861 1.56412 4.33334 1.09179 4.7129 0.71223C5.09245 0.332672 5.56479 0.177947 6.08795 0.107609C6.5836 0.0409707 7.20795 0.0409911 7.95668 0.0410166ZM10.7083 3.99935V5.05781C10.1752 5.04101 9.56593 5.04101 8.86804 5.04102H8.83338H7.16671H7.13205C6.43413 5.04101 5.82486 5.04101 5.29168 5.05781V3.99935C5.29168 3.19601 5.29301 2.65637 5.34713 2.25384C5.39883 1.86929 5.48818 1.70471 5.59678 1.59611C5.70538 1.48752 5.86996 1.39816 6.25451 1.34646C6.65704 1.29234 7.19667 1.29102 8.00002 1.29102C8.80336 1.29102 9.34299 1.29234 9.74552 1.34646C10.1301 1.39816 10.2947 1.48752 10.4033 1.59611C10.5118 1.70471 10.6012 1.86929 10.6529 2.25384C10.707 2.65637 10.7083 3.19601 10.7083 3.99935ZM4.4915 6.35803C3.85063 6.42322 3.4626 6.54662 3.16204 6.74745C2.86631 6.94505 2.61241 7.19896 2.41481 7.49468C2.21398 7.79524 2.09058 8.18328 2.02539 8.82414C1.95913 9.47546 1.95837 10.316 1.95837 11.4993C1.95837 12.6827 1.95913 13.5232 2.02539 14.1746C2.09058 14.8154 2.21398 15.2035 2.41481 15.504C2.61241 15.7997 2.86631 16.0537 3.16204 16.2512C3.4626 16.4521 3.85063 16.5755 4.4915 16.6407C5.14281 16.7069 5.98331 16.7077 7.1667 16.7077H8.83337C10.0168 16.7077 10.8573 16.7069 11.5086 16.6407C12.1494 16.5755 12.5375 16.4521 12.838 16.2512C13.1338 16.0537 13.3877 15.7997 13.5853 15.504C13.7861 15.2035 13.9095 14.8154 13.9747 14.1746C14.041 13.5232 14.0417 12.6827 14.0417 11.4993C14.0417 10.316 14.041 9.47546 13.9747 8.82414C13.9095 8.18328 13.7861 7.79524 13.5853 7.49468C13.3877 7.19896 13.1338 6.94505 12.838 6.74745C12.5375 6.54662 12.1494 6.42322 11.5086 6.35803C10.8573 6.29177 10.0168 6.29102 8.83338 6.29102H7.16671C5.98331 6.29102 5.14281 6.29177 4.4915 6.35803ZM8.62507 10.666C8.62507 10.3208 8.34524 10.041 8.00007 10.041C7.65489 10.041 7.37507 10.3208 7.37507 10.666V12.3327C7.37507 12.6779 7.65489 12.9577 8.00007 12.9577C8.34524 12.9577 8.62507 12.6779 8.62507 12.3327V10.666Z" fill="#64748B"/>
</svg>
