<svg width="81" height="80" viewBox="0 0 81 80" fill="none" xmlns="http://www.w3.org/2000/svg">
<rect x="0.5" width="80" height="80" rx="40" fill="#F0F2FE"/>
<path d="M66.7462 18H15.7538C13.9568 18 12.5 19.5572 12.5 21.4781V25.7719C12.5 27.6928 13.9568 29.25 15.7538 29.25H66.7462C68.5432 29.25 70 27.6928 70 25.7719V21.4781C70 19.5572 68.5432 18 66.7462 18Z" fill="white" stroke="#2B1694" stroke-width="0.29"/>
<path d="M24.4372 20.375H16.1501C15.7118 20.375 15.3564 20.7548 15.3564 21.2233V21.4126C15.3564 21.8811 15.7118 22.2609 16.1501 22.2609H24.4372C24.8755 22.2609 25.2308 21.8811 25.2308 21.4126V21.2233C25.2308 20.7548 24.8755 20.375 24.4372 20.375Z" fill="#C2CAFE"/>
<path d="M42.6422 20.375H34.3551C33.9168 20.375 33.5615 20.7548 33.5615 21.2233V21.4126C33.5615 21.8811 33.9168 22.2609 34.3551 22.2609H42.6422C43.0805 22.2609 43.4358 21.8811 43.4358 21.4126V21.2233C43.4358 20.7548 43.0805 20.375 42.6422 20.375Z" fill="#C2CAFE"/>
<path d="M62.9767 20.375H54.6896C54.2513 20.375 53.896 20.7548 53.896 21.2233V21.4126C53.896 21.8811 54.2513 22.2609 54.6896 22.2609H62.9767C63.415 22.2609 63.7703 21.8811 63.7703 21.4126V21.2233C63.7703 20.7548 63.415 20.375 62.9767 20.375Z" fill="#C2CAFE"/>
<path d="M30.8901 19.8691V27.3833" stroke="#2B1694" stroke-width="0.29" stroke-linecap="round" stroke-linejoin="round"/>
<path d="M50.9929 19.8691V27.3833" stroke="#2B1694" stroke-width="0.29" stroke-linecap="round" stroke-linejoin="round"/>
<path d="M20.0271 23.9082H16.6268C15.9407 23.9082 15.3845 24.5027 15.3845 25.2361V25.5331C15.3845 26.2665 15.9407 26.861 16.6268 26.861H20.0271C20.7132 26.861 21.2694 26.2665 21.2694 25.5331V25.2361C21.2694 24.5027 20.7132 23.9082 20.0271 23.9082Z" fill="#AAB3EC"/>
<path d="M38.2041 23.9082H34.8038C34.1177 23.9082 33.5615 24.5027 33.5615 25.2361V25.5331C33.5615 26.2665 34.1177 26.861 34.8038 26.861H38.2041C38.8902 26.861 39.4464 26.2665 39.4464 25.5331V25.2361C39.4464 24.5027 38.8902 23.9082 38.2041 23.9082Z" fill="#AAB3EC"/>
<path d="M58.5386 23.9082H55.1383C54.4522 23.9082 53.896 24.5027 53.896 25.2361V25.5331C53.896 26.2665 54.4522 26.861 55.1383 26.861H58.5386C59.2247 26.861 59.7809 26.2665 59.7809 25.5331V25.2361C59.7809 24.5027 59.2247 23.9082 58.5386 23.9082Z" fill="#AAB3EC"/>
<path d="M58.7462 34H7.7538C5.95677 34 4.5 35.5572 4.5 37.4781V41.7719C4.5 43.6928 5.95677 45.25 7.7538 45.25H58.7462C60.5432 45.25 62 43.6928 62 41.7719V37.4781C62 35.5572 60.5432 34 58.7462 34Z" fill="white" stroke="#2B1694" stroke-width="0.29"/>
<path d="M16.4372 36.375H8.15006C7.71176 36.375 7.35645 36.7548 7.35645 37.2233V37.4126C7.35645 37.8811 7.71176 38.2609 8.15006 38.2609H16.4372C16.8755 38.2609 17.2308 37.8811 17.2308 37.4126V37.2233C17.2308 36.7548 16.8755 36.375 16.4372 36.375Z" fill="#C2CAFE"/>
<path d="M34.6422 36.375H26.3551C25.9168 36.375 25.5615 36.7548 25.5615 37.2233V37.4126C25.5615 37.8811 25.9168 38.2609 26.3551 38.2609H34.6422C35.0805 38.2609 35.4358 37.8811 35.4358 37.4126V37.2233C35.4358 36.7548 35.0805 36.375 34.6422 36.375Z" fill="#C2CAFE"/>
<path d="M54.9767 36.375H46.6896C46.2513 36.375 45.896 36.7548 45.896 37.2233V37.4126C45.896 37.8811 46.2513 38.2609 46.6896 38.2609H54.9767C55.415 38.2609 55.7703 37.8811 55.7703 37.4126V37.2233C55.7703 36.7548 55.415 36.375 54.9767 36.375Z" fill="#C2CAFE"/>
<path d="M22.8901 35.8691V43.3833" stroke="#2B1694" stroke-width="0.29" stroke-linecap="round" stroke-linejoin="round"/>
<path d="M42.9929 35.8691V43.3833" stroke="#2B1694" stroke-width="0.29" stroke-linecap="round" stroke-linejoin="round"/>
<path d="M12.0271 39.9082H8.62682C7.94072 39.9082 7.38452 40.5027 7.38452 41.2361V41.5331C7.38452 42.2665 7.94072 42.861 8.62682 42.861H12.0271C12.7132 42.861 13.2694 42.2665 13.2694 41.5331V41.2361C13.2694 40.5027 12.7132 39.9082 12.0271 39.9082Z" fill="#AAB3EC"/>
<path d="M30.2041 39.9082H26.8038C26.1177 39.9082 25.5615 40.5027 25.5615 41.2361V41.5331C25.5615 42.2665 26.1177 42.861 26.8038 42.861H30.2041C30.8902 42.861 31.4464 42.2665 31.4464 41.5331V41.2361C31.4464 40.5027 30.8902 39.9082 30.2041 39.9082Z" fill="#AAB3EC"/>
<path d="M50.5386 39.9082H47.1383C46.4522 39.9082 45.896 40.5027 45.896 41.2361V41.5331C45.896 42.2665 46.4522 42.861 47.1383 42.861H50.5386C51.2247 42.861 51.7809 42.2665 51.7809 41.5331V41.2361C51.7809 40.5027 51.2247 39.9082 50.5386 39.9082Z" fill="#AAB3EC"/>
<path d="M63.4443 51H15.5557C13.8681 51 12.5 52.5572 12.5 54.4781V58.7719C12.5 60.6928 13.8681 62.25 15.5557 62.25H63.4443C65.1319 62.25 66.5 60.6928 66.5 58.7719V54.4781C66.5 52.5572 65.1319 51 63.4443 51Z" fill="white" stroke="#2B1694" stroke-width="0.29"/>
<path d="M24.4372 53.375H16.1501C15.7118 53.375 15.3564 53.7548 15.3564 54.2233V54.4126C15.3564 54.8811 15.7118 55.2609 16.1501 55.2609H24.4372C24.8755 55.2609 25.2308 54.8811 25.2308 54.4126V54.2233C25.2308 53.7548 24.8755 53.375 24.4372 53.375Z" fill="#C2CAFE"/>
<path d="M42.6422 53.375H34.3551C33.9168 53.375 33.5615 53.7548 33.5615 54.2233V54.4126C33.5615 54.8811 33.9168 55.2609 34.3551 55.2609H42.6422C43.0805 55.2609 43.4358 54.8811 43.4358 54.4126V54.2233C43.4358 53.7548 43.0805 53.375 42.6422 53.375Z" fill="#C2CAFE"/>
<path d="M62.9767 53.375H54.6896C54.2513 53.375 53.896 53.7548 53.896 54.2233V54.4126C53.896 54.8811 54.2513 55.2609 54.6896 55.2609H62.9767C63.415 55.2609 63.7703 54.8811 63.7703 54.4126V54.2233C63.7703 53.7548 63.415 53.375 62.9767 53.375Z" fill="#C2CAFE"/>
<path d="M30.8901 52.8691V60.3833" stroke="#2B1694" stroke-width="0.29" stroke-linecap="round" stroke-linejoin="round"/>
<path d="M50.9929 52.8691V60.3833" stroke="#2B1694" stroke-width="0.29" stroke-linecap="round" stroke-linejoin="round"/>
<path d="M20.0271 56.9082H16.6268C15.9407 56.9082 15.3845 57.5027 15.3845 58.2361V58.5331C15.3845 59.2665 15.9407 59.861 16.6268 59.861H20.0271C20.7132 59.861 21.2694 59.2665 21.2694 58.5331V58.2361C21.2694 57.5027 20.7132 56.9082 20.0271 56.9082Z" fill="#AAB3EC"/>
<path d="M38.2041 56.9082H34.8038C34.1177 56.9082 33.5615 57.5027 33.5615 58.2361V58.5331C33.5615 59.2665 34.1177 59.861 34.8038 59.861H38.2041C38.8902 59.861 39.4464 59.2665 39.4464 58.5331V58.2361C39.4464 57.5027 38.8902 56.9082 38.2041 56.9082Z" fill="#AAB3EC"/>
<path d="M58.5386 56.9082H55.1383C54.4522 56.9082 53.896 57.5027 53.896 58.2361V58.5331C53.896 59.2665 54.4522 59.861 55.1383 59.861H58.5386C59.2247 59.861 59.7809 59.2665 59.7809 58.5331V58.2361C59.7809 57.5027 59.2247 56.9082 58.5386 56.9082Z" fill="#AAB3EC"/>
<path d="M59.75 66.125C64.9277 66.125 69.125 61.9277 69.125 56.75C69.125 51.5723 64.9277 47.375 59.75 47.375C54.5723 47.375 50.375 51.5723 50.375 56.75C50.375 61.9277 54.5723 66.125 59.75 66.125Z" fill="#2B1694" stroke="#F0F2FE" stroke-width="1.25" stroke-miterlimit="10"/>
<path fill-rule="evenodd" clip-rule="evenodd" d="M59.75 53.625C60.0952 53.625 60.375 53.9048 60.375 54.25V56.125H62.25C62.5952 56.125 62.875 56.4048 62.875 56.75C62.875 57.0952 62.5952 57.375 62.25 57.375H60.375V59.25C60.375 59.5952 60.0952 59.875 59.75 59.875C59.4048 59.875 59.125 59.5952 59.125 59.25V57.375H57.25C56.9048 57.375 56.625 57.0952 56.625 56.75C56.625 56.4048 56.9048 56.125 57.25 56.125H59.125V54.25C59.125 53.9048 59.4048 53.625 59.75 53.625Z" fill="white"/>
</svg>
