<svg width="20" height="20" viewBox="0 0 20 20" fill="none" xmlns="http://www.w3.org/2000/svg">
<g id="Checkbox - Circle">
<path id="Union" fill-rule="evenodd" clip-rule="evenodd" d="M3.25 10C3.25 6.27208 6.27208 3.25 10 3.25C11.079 3.25 12.0968 3.50261 12.9996 3.95124C13.3705 4.13557 13.8206 3.98431 14.005 3.61337C14.1893 3.24244 14.038 2.7923 13.6671 2.60796C12.5616 2.05857 11.3158 1.75 10 1.75C5.44365 1.75 1.75 5.44365 1.75 10C1.75 14.5563 5.44365 18.25 10 18.25C14.5563 18.25 18.25 14.5563 18.25 10C18.25 9.69074 18.233 9.38518 18.1997 9.08426C18.1542 8.67255 17.7835 8.3757 17.3718 8.42121C16.9601 8.46672 16.6633 8.83737 16.7088 9.24907C16.736 9.49537 16.75 9.74591 16.75 10C16.75 13.7279 13.7279 16.75 10 16.75C6.27208 16.75 3.25 13.7279 3.25 10ZM18.0303 4.697C18.3232 4.4041 18.3232 3.92923 18.0303 3.63634C17.7374 3.34344 17.2626 3.34344 16.9697 3.63634L10 10.606L8.03033 8.63634C7.73744 8.34344 7.26256 8.34344 6.96967 8.63634C6.67678 8.92923 6.67678 9.4041 6.96967 9.697L9.46967 12.197C9.61032 12.3376 9.80109 12.4167 10 12.4167C10.1989 12.4167 10.3897 12.3376 10.5303 12.197L18.0303 4.697Z" fill="#0BA98A"/>
</g>
</svg>
