<svg width="25" height="24" viewBox="0 0 25 24" fill="none" xmlns="http://www.w3.org/2000/svg">
<g id="Checkbox - Square">
<path id="Union" fill-rule="evenodd" clip-rule="evenodd" d="M11.3334 2L11.2602 2C9.43676 1.99997 7.967 1.99995 6.81104 2.15537C5.6109 2.31672 4.6004 2.66191 3.79784 3.46447C2.99529 4.26702 2.65009 5.27752 2.48874 6.47767C2.33333 7.63362 2.33335 9.10338 2.33337 10.9268L2.33338 11V13L2.33337 13.0732C2.33335 14.8966 2.33333 16.3664 2.48874 17.5223C2.65009 18.7225 2.99529 19.733 3.79784 20.5355C4.6004 21.3381 5.6109 21.6833 6.81104 21.8446C7.967 22.0001 9.43677 22 11.2602 22H11.3334H13.3334H13.4065C15.23 22 16.6997 22.0001 17.8557 21.8446C19.0559 21.6833 20.0664 21.3381 20.8689 20.5355C21.6715 19.733 22.0167 18.7225 22.178 17.5223C22.3334 16.3664 22.3334 14.8966 22.3334 13.0731V13V11C22.3334 10.4477 21.8857 10 21.3334 10C20.7811 10 20.3334 10.4477 20.3334 11V13C20.3334 14.9139 20.3313 16.2487 20.1958 17.2558C20.0643 18.2342 19.8237 18.7523 19.4547 19.1213C19.0857 19.4903 18.5676 19.7309 17.5892 19.8625C16.5821 19.9979 15.2473 20 13.3334 20H11.3334C9.41949 20 8.08467 19.9979 7.07754 19.8625C6.09917 19.7309 5.58107 19.4903 5.21206 19.1213C4.84304 18.7523 4.60244 18.2342 4.4709 17.2558C4.3355 16.2487 4.33338 14.9139 4.33338 13V11C4.33338 9.08611 4.3355 7.7513 4.4709 6.74416C4.60244 5.76579 4.84304 5.2477 5.21206 4.87868C5.58107 4.50966 6.09917 4.26907 7.07754 4.13753C8.08467 4.00213 9.41949 4 11.3334 4H16.3334C16.8857 4 17.3334 3.55229 17.3334 3C17.3334 2.44772 16.8857 2 16.3334 2H11.3334ZM22.0405 5.70711C22.431 5.31658 22.431 4.68342 22.0405 4.29289C21.65 3.90237 21.0168 3.90237 20.6263 4.29289L12.3334 12.5858L10.0405 10.2929C9.64996 9.90237 9.01679 9.90237 8.62627 10.2929C8.23574 10.6834 8.23574 11.3166 8.62627 11.7071L11.6263 14.7071C11.8138 14.8946 12.0682 15 12.3334 15C12.5986 15 12.8529 14.8946 13.0405 14.7071L22.0405 5.70711Z" fill="#01984B"/>
</g>
</svg>
