<svg width="20" height="20" viewBox="0 0 20 20" fill="none" xmlns="http://www.w3.org/2000/svg">
<g id="icons / 20 / container">
<path id="container" fill-rule="evenodd" clip-rule="evenodd" d="M10.9171 3.25437C10.7044 3.25083 10.451 3.25007 10.1433 3.25007H10.0595C8.67715 3.25007 7.71307 3.25155 6.98315 3.34631C6.27325 3.43847 5.89385 3.6074 5.62138 3.86496C5.59071 3.89395 5.56087 3.92379 5.53189 3.95446C5.27432 4.22693 5.10539 4.60633 5.01323 5.31623C4.91848 6.04615 4.91699 7.01023 4.91699 8.39263V11.6667C4.91699 13.02 4.91842 13.9637 5.00951 14.6796C5.09817 15.3762 5.26086 15.7503 5.50812 16.0201C5.55234 16.0684 5.59865 16.1147 5.64692 16.1589C5.91675 16.4062 6.29089 16.5689 6.98751 16.6575C7.70334 16.7486 8.64707 16.7501 10.0003 16.7501C11.3536 16.7501 12.2973 16.7486 13.0131 16.6575C13.7098 16.5689 14.0839 16.4062 14.3537 16.1589C14.402 16.1147 14.4483 16.0684 14.4925 16.0201C14.7398 15.7503 14.9025 15.3762 14.9911 14.6795C15.0822 13.9637 15.0837 13.02 15.0837 11.6667V8.19043C15.0837 7.8828 15.0829 7.62943 15.0794 7.41669C14.4243 7.41583 13.8682 7.40897 13.4106 7.35487C12.8597 7.28976 12.3548 7.14741 11.9224 6.79259C11.7832 6.67831 11.6555 6.55063 11.5412 6.41139C11.1864 5.97903 11.044 5.47409 10.9789 4.9232C10.9248 4.46554 10.918 3.90941 10.9171 3.25437ZM12.4185 3.57888C12.4218 4.07132 12.4328 4.44423 12.4686 4.74712C12.5169 5.1564 12.6016 5.33898 12.7007 5.4598C12.7527 5.52309 12.8107 5.58113 12.874 5.63307C12.9948 5.73222 13.1774 5.81687 13.5867 5.86525C13.8896 5.90105 14.2625 5.912 14.7549 5.91535C14.579 5.64869 14.2758 5.33616 13.6367 4.69707C12.9976 4.05803 12.6851 3.75479 12.4185 3.57888ZM14.6973 3.63641L14.6069 3.54598C13.9178 2.85627 13.4395 2.37753 12.832 2.09652C12.74 2.05397 12.6463 2.01518 12.5512 1.98022C11.9229 1.74933 11.2461 1.74962 10.2711 1.75003L10.1433 1.75007H10.0595L10.0068 1.75007C8.68959 1.75005 7.62781 1.75004 6.79004 1.85879C5.92109 1.9716 5.18582 2.2126 4.59097 2.77489C4.53986 2.8232 4.49012 2.87294 4.44181 2.92405C3.87952 3.5189 3.63852 4.25417 3.52572 5.12312C3.41696 5.96089 3.41697 7.02267 3.41699 8.33986L3.41699 8.39263V11.6667L3.41699 11.7183C3.41697 13.0078 3.41696 14.0473 3.52151 14.8689C3.6299 15.7206 3.8613 16.4432 4.4022 17.0335C4.47591 17.114 4.55309 17.1912 4.63353 17.2649C5.22383 17.8058 5.94642 18.0372 6.79815 18.1455C7.61974 18.2501 8.65922 18.2501 9.94869 18.2501H10.0003H10.052C11.3414 18.2501 12.3809 18.2501 13.2025 18.1455C14.0542 18.0372 14.7768 17.8058 15.3671 17.2649C15.4476 17.1912 15.5247 17.114 15.5984 17.0335C16.1394 16.4432 16.3707 15.7206 16.4791 14.8689C16.5837 14.0473 16.5837 13.0078 16.5837 11.7184V11.6667V8.19043L16.5837 8.06258C16.5841 7.08759 16.5844 6.41085 16.3535 5.78255C16.3186 5.68742 16.2798 5.59375 16.2372 5.50177C15.9562 4.89423 15.4775 4.4159 14.7877 3.72677L14.6973 3.63641ZM10.0003 8.41685C10.1992 8.41685 10.39 8.49587 10.5307 8.63652L12.614 10.7199C12.9069 11.0128 12.9069 11.4876 12.614 11.7805C12.3211 12.0734 11.8462 12.0734 11.5533 11.7805L10.7503 10.9775V14.1669C10.7503 14.5811 10.4145 14.9169 10.0003 14.9169C9.58611 14.9169 9.25032 14.5811 9.25032 14.1669V10.9775L8.44732 11.7805C8.15443 12.0734 7.67955 12.0734 7.38666 11.7805C7.09376 11.4876 7.09376 11.0128 7.38666 10.7199L9.46999 8.63652C9.61064 8.49587 9.80141 8.41685 10.0003 8.41685Z" fill="#2B1694"/>
</g>
</svg>
