<svg width="20" height="20" viewBox="0 0 20 20" fill="none" xmlns="http://www.w3.org/2000/svg">
<path fill-rule="evenodd" clip-rule="evenodd" d="M14.1843 3.45879C13.1754 2.44993 11.5398 2.44993 10.5309 3.45879L4.63835 9.35135C2.97862 11.0111 2.97862 13.702 4.63835 15.3618C6.29808 17.0215 8.98903 17.0215 10.6488 15.3617L17.1306 8.87994C17.4235 8.58705 17.8983 8.58705 18.1912 8.87994C18.4841 9.17283 18.4841 9.64771 18.1912 9.9406L11.7094 16.4224C9.46391 18.6679 5.82321 18.6679 3.57769 16.4224C1.33218 14.1769 1.33218 10.5362 3.57769 8.29069L9.47025 2.39813C11.0649 0.803489 13.6503 0.803488 15.245 2.39813C16.8396 3.99277 16.8396 6.57819 15.245 8.17283L9.3524 14.0654C8.40863 15.0092 6.87848 15.0092 5.93471 14.0654C4.99095 13.1216 4.99095 11.5915 5.93471 10.6477L11.8273 4.75515C12.1202 4.46226 12.595 4.46226 12.8879 4.75515C13.1808 5.04804 13.1808 5.52292 12.8879 5.81581L6.99537 11.7084C6.63739 12.0663 6.63739 12.6467 6.99537 13.0047C7.35335 13.3627 7.93375 13.3627 8.29174 13.0047L14.1843 7.11217C15.1931 6.10332 15.1931 4.46764 14.1843 3.45879Z" fill="#2B1694"/>
</svg>
