<svg width="20" height="20" viewBox="0 0 20 20" fill="none" xmlns="http://www.w3.org/2000/svg">
<g id="Option">
<path id="Union" fill-rule="evenodd" clip-rule="evenodd" d="M1.24966 1.75H1.24969C2.81581 1.75004 4.21461 2.72981 4.74982 4.20164L4.76742 4.25004H13.523L13.5633 4.25004C14.3925 4.25002 15.0713 4.25001 15.6072 4.30373C16.1557 4.35871 16.6674 4.47808 17.0963 4.79951C17.5722 5.1562 17.9196 5.65757 18.0865 6.22842C18.2369 6.74284 18.169 7.26388 18.0279 7.79679C17.89 8.31744 17.6517 8.95296 17.3605 9.7293L17.3605 9.72933L17.3463 9.76711L17.299 9.8937C17.0345 10.6011 16.8267 11.1569 16.435 11.5667C16.1783 11.8354 15.8697 12.0492 15.528 12.1953C15.0068 12.4181 14.4135 12.4175 13.6582 12.4168L13.523 12.4167H9.46805H9.42734C9.35997 12.4167 9.29368 12.4167 9.22848 12.4166H4.99968C4.49341 12.4166 4.08301 12.827 4.08301 13.3333C4.08301 13.8395 4.49341 14.2499 4.99968 14.2499H7.49967H14.1663H17.4997C17.9139 14.2499 18.2497 14.5857 18.2497 14.9999C18.2497 15.4142 17.9139 15.7499 17.4997 15.7499H16.4031C16.5191 16.0326 16.583 16.3422 16.583 16.6666C16.583 18.0013 15.501 19.0833 14.1663 19.0833C12.8317 19.0833 11.7497 18.0013 11.7497 16.6666C11.7497 16.3422 11.8136 16.0326 11.9296 15.7499H9.73643C9.8524 16.0326 9.91634 16.3422 9.91634 16.6666C9.91634 18.0013 8.83436 19.0833 7.49967 19.0833C6.16499 19.0833 5.08301 18.0013 5.08301 16.6666C5.08301 16.3422 5.14695 16.0326 5.26292 15.7499H4.99968C3.66499 15.7499 2.58301 14.668 2.58301 13.3333C2.58301 11.9986 3.66499 10.9166 4.99968 10.9166H5.65899C5.6466 10.8926 5.63438 10.8685 5.6223 10.8441C5.4232 10.4428 5.23749 9.93204 5.01794 9.32823L5.00403 9.28995L3.34013 4.71426C3.02048 3.83523 2.1851 3.25007 1.24977 3.25H1.24974H1.24966L0.833099 3.25005C0.418886 3.2501 0.0830584 2.91436 0.0830078 2.50014C0.0829573 2.08593 0.418703 1.7501 0.832916 1.75005L1.24958 1.75H1.24966ZM11.6751 10.9167C11.6722 10.9166 11.6693 10.9166 11.6663 10.9166H9.29052C8.69416 10.9162 8.28424 10.9121 7.96338 10.8761C7.63044 10.8388 7.46854 10.7735 7.35007 10.6905C7.2316 10.6075 7.11493 10.4777 6.96605 10.1776C6.80875 9.86046 6.65093 9.42967 6.41372 8.77734L5.31288 5.75004H13.523C14.4024 5.75004 15.0054 5.75093 15.4576 5.79625C15.9058 5.84117 16.0924 5.92161 16.1967 5.9998C16.413 6.16193 16.5709 6.38982 16.6468 6.6493C16.6834 6.77442 16.6932 6.97738 16.5779 7.41281C16.4615 7.85207 16.2506 8.41706 15.9419 9.24042C15.6055 10.1372 15.5019 10.3721 15.3507 10.5303C15.234 10.6524 15.0937 10.7496 14.9384 10.816C14.7371 10.9021 14.4808 10.9167 13.523 10.9167H11.6751ZM7.49967 15.7499C6.99341 15.7499 6.58301 16.1604 6.58301 16.6666C6.58301 17.1729 6.99341 17.5833 7.49967 17.5833C8.00594 17.5833 8.41634 17.1729 8.41634 16.6666C8.41634 16.1604 8.00594 15.7499 7.49967 15.7499ZM14.1663 15.7499C13.6601 15.7499 13.2497 16.1604 13.2497 16.6666C13.2497 17.1729 13.6601 17.5833 14.1663 17.5833C14.6726 17.5833 15.083 17.1729 15.083 16.6666C15.083 16.1604 14.6726 15.7499 14.1663 15.7499Z" fill="#755CF1"/>
</g>
</svg>
