<svg width="24" height="24" viewBox="0 0 24 24" fill="none" xmlns="http://www.w3.org/2000/svg">
    <g id="File - Invoice">
        <path id="Union" fill-rule="evenodd" clip-rule="evenodd" d="M13 4.00141C12.8541 4.0005 12.6931 4.00017 12.5147 4.00017H11C9.55752 4.00017 8.57625 4.0023 7.84143 4.10109C7.13538 4.19602 6.80836 4.36339 6.58579 4.58596C6.36322 4.80853 6.19585 5.13555 6.10092 5.84161C6.00213 6.57643 6 7.55769 6 9.00017V15.0002C6 16.4427 6.00213 17.4239 6.10092 18.1587C6.19585 18.8648 6.36322 19.1918 6.58579 19.4144C6.80836 19.637 7.13538 19.8043 7.84143 19.8993C8.57625 19.9981 9.55752 20.0002 11 20.0002H13C14.4425 20.0002 15.4238 19.9981 16.1586 19.8993C16.8646 19.8043 17.1916 19.637 17.4142 19.4144C17.6368 19.1918 17.8042 18.8648 17.8991 18.1587C17.9979 17.4239 18 16.4427 18 15.0002V9.48546C18 9.30713 17.9997 9.14614 17.9988 9.00026L17.9342 9.00026H17.9341C17.0477 9.00031 16.2839 9.00035 15.6722 8.91812C15.0167 8.82998 14.3883 8.63124 13.8787 8.12158C13.369 7.61191 13.1703 6.98356 13.0821 6.32805C12.9999 5.71639 12.9999 4.95257 13 4.06609L13 4.00141ZM17.5401 6.99981C17.3457 6.76756 17.041 6.45535 16.5355 5.94992L16.0503 5.46464C15.5449 4.95927 15.2327 4.65455 15.0005 4.46014C15.0024 5.17698 15.0125 5.67651 15.0643 6.06155C15.1226 6.49529 15.2168 6.63124 15.2929 6.70736C15.369 6.78349 15.505 6.87764 15.9387 6.93595C16.3237 6.98772 16.8233 6.99786 17.5401 6.99981ZM15.2881 2.30466C14.5493 1.99862 13.7445 1.99925 12.6847 2.00009L12.5147 2.00017H11L10.9294 2.00017H10.9294C9.57531 2.00014 8.4587 2.00011 7.57494 2.11893C6.64711 2.24367 5.82768 2.51564 5.17158 3.17175C4.51547 3.82786 4.2435 4.64728 4.11875 5.57511C3.99994 6.45887 3.99997 7.57548 4 8.9296V8.9296L4 9.00017V15.0002L4 15.0707C3.99997 16.4249 3.99994 17.5415 4.11875 18.4252C4.2435 19.3531 4.51547 20.1725 5.17158 20.8286C5.82768 21.4847 6.64711 21.7567 7.57494 21.8814C8.4587 22.0002 9.57533 22.0002 10.9295 22.0002H11H13H13.0705C14.4247 22.0002 15.5413 22.0002 16.4251 21.8814C17.3529 21.7567 18.1723 21.4847 18.8284 20.8286C19.4845 20.1725 19.7565 19.3531 19.8813 18.4252C20.0001 17.5415 20 16.4249 20 15.0707L20 15.0002V9.48546L20.0001 9.31553V9.31552C20.0009 8.25568 20.0016 7.45091 19.6955 6.71208C19.3895 5.97325 18.82 5.40464 18.07 4.65581L18.07 4.6558L17.9497 4.53571L17.4645 4.05043L17.3444 3.9302C16.5955 3.1802 16.0269 2.61069 15.2881 2.30466ZM13 10.0003C13 9.44798 12.5523 9.00026 12 9.00026C11.4477 9.00026 11 9.44798 11 10.0003V10.0503C9.85888 10.2819 9 11.2908 9 12.5003C9 13.881 10.1193 15.0003 11.5 15.0003H12.5C12.7761 15.0003 13 15.2241 13 15.5003C13 15.7764 12.7761 16.0003 12.5 16.0003H12H10C9.44772 16.0003 9 16.448 9 17.0003C9 17.5525 9.44772 18.0003 10 18.0003H11C11 18.5525 11.4477 19.0003 12 19.0003C12.5523 19.0003 13 18.5525 13 18.0003V17.9503C14.1411 17.7186 15 16.7097 15 15.5003C15 14.1196 13.8807 13.0003 12.5 13.0003H11.5C11.2239 13.0003 11 12.7764 11 12.5003C11 12.2241 11.2239 12.0003 11.5 12.0003H12H14C14.5523 12.0003 15 11.5525 15 11.0003C15 10.448 14.5523 10.0003 14 10.0003H13Z" fill="#FBA7A3"/>
    </g>
</svg>
