<svg width="20" height="20" viewBox="0 0 20 20" fill="none" xmlns="http://www.w3.org/2000/svg">
<g id="Option">
<path id="Union" fill-rule="evenodd" clip-rule="evenodd" d="M8.42166 3.40198C8.90879 3.13136 9.22878 2.95449 9.49046 2.84028C9.73747 2.73247 9.8799 2.70508 10 2.70508C10.1201 2.70508 10.2625 2.73247 10.5095 2.84028C10.7712 2.95449 11.0912 3.13136 11.5783 3.40198L15.0783 5.34643C15.5314 5.59812 15.8474 5.77442 16.0854 5.93021L10 9.15187L3.91465 5.93021C4.15265 5.77442 4.46862 5.59812 4.92166 5.34643L8.42166 3.40198ZM3.2583 7.27998C3.25035 7.52056 3.25 7.81322 3.25 8.18744V11.8135C3.25 12.4022 3.25087 12.789 3.28082 13.0888C3.30911 13.372 3.35878 13.5157 3.42266 13.6243C3.48655 13.7328 3.58806 13.8461 3.82182 14.0083C4.06934 14.1801 4.40708 14.3687 4.92166 14.6546L8.42166 16.599C8.76997 16.7925 9.03282 16.9381 9.25 17.0471V10.4521L3.2583 7.27998ZM10.75 17.0471C10.9672 16.9381 11.23 16.7925 11.5783 16.599L15.0783 14.6546C15.5929 14.3687 15.9307 14.1801 16.1782 14.0083C16.4119 13.8461 16.5135 13.7328 16.5773 13.6243C16.6412 13.5157 16.6909 13.372 16.7192 13.0888C16.7491 12.789 16.75 12.4022 16.75 11.8135V8.18744C16.75 7.81322 16.7497 7.52056 16.7417 7.27998L10.75 10.4521V17.0471ZM10 1.20508C9.60185 1.20508 9.24776 1.30956 8.89044 1.46552C8.5551 1.61188 8.17233 1.82455 7.72271 2.07436L7.6932 2.09075L4.1932 4.03519L4.16223 4.0524L4.16223 4.0524C3.68697 4.31641 3.28294 4.54085 2.96661 4.76039C2.62967 4.99422 2.34223 5.2551 2.12986 5.61603C1.91748 5.97697 1.82903 6.35492 1.78825 6.76302C1.74997 7.14615 1.74998 7.60833 1.75 8.15197V8.15202L1.75 8.18744V11.8135L1.75 11.849V11.849C1.74998 12.3927 1.74997 12.8548 1.78825 13.238C1.82903 13.6461 1.91748 14.024 2.12986 14.385C2.34223 14.7459 2.62967 15.0068 2.96661 15.2406C3.28294 15.4601 3.68698 15.6846 4.16224 15.9486L4.1932 15.9658L7.6932 17.9102L7.72266 17.9266C8.1723 18.1764 8.55509 18.3891 8.89044 18.5355C9.24776 18.6914 9.60185 18.7959 10 18.7959C10.3982 18.7959 10.7522 18.6914 11.1096 18.5355C11.4449 18.3891 11.8276 18.1765 12.2772 17.9267L12.2772 17.9267L12.3068 17.9102L15.8068 15.9658L15.8378 15.9486C16.313 15.6846 16.7171 15.4601 17.0334 15.2406C17.3703 15.0068 17.6578 14.7459 17.8701 14.385C18.0825 14.024 18.171 13.6461 18.2118 13.238C18.25 12.8548 18.25 12.3926 18.25 11.849V11.8135V8.18744V8.15203C18.25 7.60836 18.25 7.14616 18.2118 6.76302C18.171 6.35492 18.0825 5.97697 17.8701 5.61603C17.6578 5.2551 17.3703 4.99422 17.0334 4.76039C16.7171 4.54085 16.313 4.3164 15.8378 4.05239L15.8068 4.03519L12.3068 2.09075L12.2773 2.07435C11.8277 1.82454 11.4449 1.61188 11.1096 1.46552C10.7522 1.30956 10.3982 1.20508 10 1.20508Z" fill="#DE7A05"/>
</g>
</svg>
