<svg width="16" height="17" viewBox="0 0 16 17" fill="none" xmlns="http://www.w3.org/2000/svg">
<path fill-rule="evenodd" clip-rule="evenodd" d="M8.53868 1.11704C8.43788 0.911511 8.2289 0.78125 7.99998 0.78125C7.77106 0.78125 7.56209 0.91151 7.46129 1.11704L5.60029 4.91144L1.91259 5.45431C1.68801 5.48738 1.50132 5.64435 1.43019 5.85992C1.35907 6.0755 1.41569 6.31275 1.57651 6.47297L4.34139 9.22758L3.41487 13.3085C3.36323 13.536 3.4481 13.7728 3.63248 13.9156C3.81686 14.0585 4.06733 14.0816 4.2747 13.9748L7.99998 12.0562L11.7253 13.9748C11.9326 14.0816 12.1831 14.0585 12.3675 13.9156C12.5519 13.7728 12.6367 13.536 12.5851 13.3085L11.6586 9.22758L14.4235 6.47297C14.5843 6.31275 14.6409 6.0755 14.5698 5.85992C14.4986 5.64435 14.3119 5.48738 14.0874 5.45431L10.3997 4.91144L8.53868 1.11704Z" fill="#475569"/>
</svg>
