<svg width="14" height="14" viewBox="0 0 14 14" fill="none" xmlns="http://www.w3.org/2000/svg">
<path fill-rule="evenodd" clip-rule="evenodd" d="M7.00002 0.833984C7.1894 0.833985 7.36253 0.940986 7.44723 1.11038L9.33336 4.88265L13.0822 5.50745C13.267 5.53825 13.419 5.6697 13.4762 5.84806C13.5333 6.02642 13.486 6.22177 13.3536 6.3542L10.5495 9.15825L11.4872 13.2216C11.5307 13.4102 11.4614 13.6071 11.3093 13.7268C11.1572 13.8466 10.9496 13.8678 10.7764 13.7812L7.00002 11.893L3.22362 13.7812C3.05044 13.8678 2.84284 13.8466 2.69071 13.7268C2.53858 13.6071 2.46928 13.4102 2.51282 13.2216L3.4505 9.15825L0.64646 6.3542C0.514023 6.22177 0.466708 6.02642 0.523865 5.84806C0.581023 5.6697 0.733068 5.53825 0.917814 5.50745L4.66667 4.88265L6.5528 1.11038C6.6375 0.940985 6.81063 0.833984 7.00002 0.833984ZM7.00002 2.45202L5.44723 5.55759C5.37569 5.70067 5.24 5.80088 5.08221 5.82718L2.04059 6.33412L4.35357 8.6471C4.47547 8.769 4.52597 8.9451 4.48721 9.11308L3.72592 12.412L6.77641 10.8868C6.91717 10.8164 7.08286 10.8164 7.22362 10.8868L10.2741 12.412L9.51282 9.11308C9.47405 8.9451 9.52456 8.769 9.64646 8.6471L11.9594 6.33412L8.91781 5.82718C8.76002 5.80088 8.62434 5.70067 8.5528 5.55759L7.00002 2.45202Z" fill="#0F172A"/>
</svg>
