<svg width="32" height="32" viewBox="0 0 32 32" fill="none" xmlns="http://www.w3.org/2000/svg">
<path d="M15.0919 2.96867C15.4494 2.1938 16.5506 2.19379 16.9081 2.96866L19.9976 9.66679C20.1433 9.98259 20.4426 10.2 20.7879 10.241L28.1129 11.1095C28.9603 11.21 29.3006 12.2573 28.6741 12.8367L23.2586 17.8449C23.0032 18.081 22.8889 18.4328 22.9567 18.7739L24.3943 26.0088C24.5606 26.8458 23.6696 27.4931 22.925 27.0763L16.4884 23.4734C16.185 23.3035 15.815 23.3035 15.5116 23.4734L9.07501 27.0763C8.3304 27.4931 7.43944 26.8458 7.60574 26.0088L9.0433 18.7739C9.11108 18.4328 8.99677 18.081 8.74143 17.8449L3.32586 12.8367C2.69936 12.2573 3.03967 11.21 3.88707 11.1095L11.2121 10.241C11.5574 10.2 11.8567 9.98259 12.0024 9.66679L15.0919 2.96867Z" fill="white" stroke="#B3BEC3" stroke-width="1.5"/>
</svg>
