<svg width="128" height="128" viewBox="0 0 128 128" fill="none" xmlns="http://www.w3.org/2000/svg">
<g id="No item in your shop cart">
<rect width="128" height="128" rx="64" fill="#F0F2FE"/>
<g id="Document_4">
<path id="Vector" d="M94.5953 102.173L35.6701 101.711C38.1601 85.761 37.0761 25.0048 37.0761 25.0048L80.0749 25.3421C85.6532 25.3844 94.1678 30.5491 94.1606 35.1161C94.0994 69.387 94.5849 102.176 94.5849 102.176L94.5953 102.173Z" fill="white" stroke="#C2CAFE" stroke-width="0.75" stroke-linejoin="round"/>
<path id="Vector_2" d="M55.9612 36.5743C54.4408 36.6581 46.7753 36.7521 45.6576 36.5908C44.3332 36.4328 43.2783 35.5894 43.2873 34.3831C43.2962 33.1767 44.1889 32.2069 45.6868 32.2158C47.1847 32.2247 52.6879 32.2732 55.9904 32.1993C57.4741 32.1457 58.3697 33.2007 58.3607 34.407C58.3518 35.6133 57.4713 36.4928 55.9612 36.5743Z" fill="#12006C"/>
<path id="Vector_3" d="M52.0436 69.788C50.9653 69.8476 45.5425 69.9122 44.7519 69.7968C43.8192 69.681 43.0615 69.0873 43.0737 68.2305C43.0755 67.3762 43.7146 66.6831 44.776 66.693C45.8373 66.7029 49.7421 66.7325 52.0677 66.6842C53.1172 66.642 53.7581 67.3937 53.7459 68.2504C53.7441 69.1048 53.1219 69.7283 52.0436 69.788Z" fill="#12006C"/>
<path id="Vector_4" d="M86.8468 43.6031C82.8569 43.8228 49.565 43.7254 47.7895 43.6483C46.014 43.5713 45.5902 43.5803 44.5816 43.5146C44.019 43.4895 43.5739 43.0217 43.603 42.4786C43.6193 41.9275 44.1007 41.5003 44.6632 41.5253C44.6632 41.5253 45.4117 41.5518 47.8711 41.659C55.7527 41.9865 86.9284 41.6138 86.9284 41.6138C87.491 41.6389 87.9361 42.1067 87.907 42.6498C87.8907 43.2009 87.4093 43.6281 86.8468 43.6031Z" fill="#AAB3EC"/>
<path id="Vector_5" d="M86.7689 49.6324C82.779 49.8521 49.4871 49.7547 47.7116 49.6776C45.9361 49.6006 45.5123 49.6096 44.5038 49.5439C43.9412 49.5188 43.4961 49.051 43.5251 48.5079C43.5415 47.9568 44.0228 47.5296 44.5854 47.5546C44.5854 47.5546 45.3339 47.5811 47.7932 47.6883C55.6748 48.0158 86.8505 47.6431 86.8505 47.6431C87.4131 47.6682 87.8582 48.136 87.8291 48.6791C87.8128 49.2302 87.3315 49.6574 86.7689 49.6324Z" fill="#AAB3EC"/>
<path id="Vector_6" d="M82.7791 77.594C78.7892 77.8136 56.513 77.614 54.7375 77.537C52.962 77.46 52.5382 77.469 51.5296 77.4032C50.9671 77.3782 50.5219 76.9104 50.551 76.3673C50.5673 75.8161 51.0487 75.3889 51.6112 75.414C51.6112 75.414 52.3597 75.4404 54.8191 75.5477C62.7007 75.8752 82.8607 75.6047 82.8607 75.6047C83.4233 75.6297 83.8684 76.0976 83.8394 76.6407C83.823 77.1918 83.3417 77.619 82.7791 77.594Z" fill="#AAB3EC"/>
<path id="Vector_7" d="M86.8003 56.0954C82.8104 56.3151 49.3106 56.0242 47.5351 55.9471C45.7596 55.8701 45.3358 55.8791 44.3272 55.8134C43.7647 55.7884 43.3195 55.3205 43.3486 54.7774C43.3649 54.2263 43.8463 53.7991 44.4088 53.8241C44.4088 53.8241 45.1574 53.8506 47.6167 53.9579C55.4983 54.2854 86.8819 54.1061 86.8819 54.1061C87.4445 54.1312 87.8896 54.599 87.8605 55.1421C87.8442 55.6932 87.3628 56.1204 86.8003 56.0954Z" fill="#AAB3EC"/>
<path id="Vector_8" d="M86.7585 62.904C82.7686 63.1237 49.2688 62.8328 47.4933 62.7557C45.7179 62.6787 45.2941 62.6877 44.2855 62.622C43.7229 62.597 43.2778 62.1291 43.3069 61.586C43.3232 61.0349 43.8045 60.6077 44.3671 60.6327C44.3671 60.6327 45.1156 60.6592 47.575 60.7665C55.4566 61.094 86.8401 60.9147 86.8401 60.9147C87.4027 60.9398 87.8478 61.4076 87.8187 61.9507C87.8024 62.5018 87.3211 62.929 86.7585 62.904Z" fill="#AAB3EC"/>
<path id="Vector_9" d="M94.0299 33.9194C92.8635 32.5868 88.3929 31.7994 84.9291 33.8479C85.2471 31.0274 83.3169 25.5772 80.075 25.3418C80.075 25.3418 83.7019 25.0625 88.5324 28.0999C93.3653 31.1477 94.0299 33.9194 94.0299 33.9194Z" fill="#AAB3EC" stroke="#C2CAFE" stroke-width="0.75" stroke-linecap="round" stroke-linejoin="round"/>
<path id="Vector_10" d="M46.6132 79.0616C46.4471 79.0994 46.2763 79.1165 46.1111 79.1103L45.0497 79.1004C44.4711 79.1009 43.9258 78.864 43.5156 78.4538C43.1055 78.0437 42.8816 77.4926 42.8908 76.9102L42.8995 75.8463C42.9108 74.6503 43.8888 73.672 45.0819 73.6847L46.1433 73.6946C47.3363 73.7073 48.3135 74.6889 48.3022 75.8848L48.2935 76.9488C48.2947 77.5288 48.0589 78.0752 47.6503 78.4858C47.3552 78.772 47.0076 78.9717 46.6132 79.0616ZM44.7824 74.5741C44.1907 74.7089 43.7539 75.2355 43.7541 75.8595L43.7455 76.9234C43.7384 77.6586 44.3333 78.2565 45.0666 78.2645L46.128 78.2744C46.8614 78.2824 47.4572 77.6868 47.4644 76.9516L47.473 75.8877C47.4801 75.1525 46.8852 74.5546 46.1519 74.5466L45.0905 74.5367C44.9819 74.5395 44.8862 74.5504 44.7824 74.5741Z" fill="#AAB3EC"/>
<path id="Vector_11" d="M85.8634 84.6967C81.8735 84.9164 56.4674 84.6857 54.6943 84.619C52.9188 84.542 52.495 84.551 51.4864 84.4853C50.9238 84.4602 50.4787 83.9924 50.5078 83.4493C50.5241 82.8982 51.0054 82.471 51.568 82.496C51.568 82.496 52.3165 82.5225 54.7759 82.6297C62.6575 82.9572 85.945 82.7074 85.945 82.7074C86.5076 82.7324 86.9527 83.2003 86.9236 83.7434C86.9073 84.2945 86.426 84.7217 85.8634 84.6967Z" fill="#AAB3EC"/>
<path id="Vector_12" d="M46.5668 86.1431C46.4008 86.181 46.23 86.198 46.0648 86.1919L45.0034 86.182C44.4248 86.1825 43.8794 85.9455 43.4693 85.5353C43.0592 85.1252 42.8353 84.5741 42.8445 83.9917L42.8531 82.9278C42.852 82.3478 43.0877 81.8014 43.4964 81.3908C43.9051 80.9801 44.4546 80.7563 45.0356 80.7662L46.0969 80.7761C47.29 80.7888 48.2671 81.7704 48.2558 82.9664L48.2472 84.0303C48.2484 84.6103 48.0126 85.1567 47.6039 85.5673C47.3088 85.8536 46.9613 86.0532 46.5668 86.1431ZM44.736 81.6556C44.4973 81.71 44.2832 81.8245 44.1064 82.0071C43.8561 82.2503 43.7149 82.589 43.7078 82.941L43.6992 84.0049C43.692 84.7401 44.2869 85.338 45.0203 85.3461L46.0817 85.3559C46.8151 85.3639 47.4109 84.7683 47.418 84.0332L47.4266 82.9692C47.4338 82.2341 46.8389 81.6361 46.1055 81.6281L45.0441 81.6182C44.9356 81.6211 44.8398 81.632 44.736 81.6556Z" fill="#AAB3EC"/>
<path id="Vector_13" d="M69.8401 91.7658C65.8502 91.9855 56.5691 91.8894 54.7936 91.8124C53.0181 91.7353 52.5944 91.7444 51.5858 91.6786C51.0232 91.6536 50.5781 91.1857 50.6072 90.6426C50.6235 90.0915 51.1048 89.6643 51.6674 89.6894C51.6674 89.6894 52.4159 89.7158 54.8753 89.8231C62.7569 90.1506 69.9217 89.7766 69.9217 89.7766C70.4843 89.8016 70.9294 90.2695 70.9003 90.8125C70.884 91.3637 70.4027 91.7909 69.8401 91.7658Z" fill="#AAB3EC"/>
<path id="Vector_14" d="M46.6661 93.3366C46.5104 93.3721 46.3395 93.3891 46.1664 93.3958L45.105 93.3859C43.9119 93.3731 42.9348 92.3916 42.9461 91.1956L42.9547 90.1317C42.9536 89.5517 43.1893 89.0053 43.598 88.5947C44.0067 88.184 44.5562 87.9602 45.1372 87.9701L46.1985 87.98C46.7771 87.9795 47.3225 88.2165 47.7326 88.6266C48.1427 89.0368 48.3666 89.5879 48.3574 90.1703L48.3488 91.2342C48.3434 92.2646 47.621 93.119 46.6557 93.339L46.6661 93.3366ZM46.1681 92.5414C46.8912 92.5518 47.4973 91.9538 47.5045 91.2186L47.5131 90.1547C47.5203 89.4195 46.9254 88.8216 46.192 88.8136L45.1306 88.8037C44.3972 88.7957 43.8014 89.3913 43.7943 90.1265L43.7856 91.1904C43.7785 91.9256 44.3734 92.5235 45.1068 92.5315L46.1681 92.5414Z" fill="#AAB3EC"/>
</g>
<g id="Create">
<path id="Vector_15" d="M91.0767 108.924C97.8741 108.924 103.384 103.414 103.384 96.6163C103.384 89.8189 97.8741 84.3086 91.0767 84.3086C84.2794 84.3086 78.769 89.8189 78.769 96.6163C78.769 103.414 84.2794 108.924 91.0767 108.924Z" fill="#0BA98A"/>
</g>
<path id="Vector_16" d="M82.4614 97.7963L84.5907 95.3348C86.4122 96.3563 88.0614 97.5994 89.4091 99.2363C91.4337 95.7471 93.8337 92.8486 96.5599 90.4609L99.8091 92.7379C96.4799 94.5594 91.7291 100.079 89.6737 103.298C87.1445 100.812 84.7137 98.8363 82.4676 97.7963H82.4614Z" fill="white"/>
</g>
</svg>
