<svg width="25" height="24" viewBox="0 0 25 24" fill="none" xmlns="http://www.w3.org/2000/svg">
<g id="Dollar">
<path id="Union" fill-rule="evenodd" clip-rule="evenodd" d="M13.6666 3C13.6666 2.44772 13.2189 2 12.6666 2C12.1143 2 11.6666 2.44772 11.6666 3V4H10.5723C8.36985 4 6.66663 5.86022 6.66663 8.05098C6.66663 9.76355 7.71186 11.3253 9.32311 11.8892L11.6666 12.7095V18H11C9.75671 18 8.66663 16.9273 8.66663 15.5C8.66663 14.9477 8.21891 14.5 7.66663 14.5C7.11434 14.5 6.66663 14.9477 6.66663 15.5C6.66663 17.9387 8.56131 20 11 20H11.6666V21C11.6666 21.5523 12.1143 22 12.6666 22C13.2189 22 13.6666 21.5523 13.6666 21V20H14.7609C16.9634 20 18.6666 18.1398 18.6666 15.949C18.6666 14.2365 17.6214 12.6747 16.0101 12.1108L13.6666 11.2905V6H14.3333C15.5765 6 16.6666 7.07275 16.6666 8.5C16.6666 9.05229 17.1143 9.5 17.6666 9.5C18.2189 9.5 18.6666 9.05229 18.6666 8.5C18.6666 6.06126 16.7719 4 14.3333 4H13.6666V3ZM11.6666 6H10.5723C9.56525 6 8.66663 6.87172 8.66663 8.05098C8.66663 8.96488 9.22203 9.73491 9.98381 10.0015L11.6666 10.5905V6ZM13.6666 13.4095V18H14.7609C15.768 18 16.6666 17.1283 16.6666 15.949C16.6666 15.0351 16.1112 14.2651 15.3494 13.9985L13.6666 13.4095Z" fill="#2B1694"/>
</g>
</svg>
