<svg width="14" height="17" viewBox="0 0 14 17" fill="none" xmlns="http://www.w3.org/2000/svg">
<path fill-rule="evenodd" clip-rule="evenodd" d="M10.3254 2.51414V2.68628C11.3105 2.77636 12.2915 2.90588 13.2662 3.07454C13.3398 3.08729 13.4102 3.11441 13.4733 3.15435C13.5364 3.19429 13.591 3.24627 13.6341 3.30732C13.6771 3.36837 13.7077 3.4373 13.724 3.51017C13.7404 3.58304 13.7423 3.65843 13.7296 3.73202C13.7168 3.80561 13.6897 3.87598 13.6497 3.93909C13.6098 4.0022 13.5578 4.05683 13.4968 4.09986C13.4357 4.14288 13.3668 4.17346 13.2939 4.18985C13.2211 4.20623 13.1457 4.20811 13.0721 4.19536L12.9136 4.16882L12.1515 14.0802C12.1075 14.6517 11.8495 15.1855 11.429 15.575C11.0085 15.9644 10.4564 16.1808 9.88329 16.1808H3.94326C3.37011 16.1808 2.81809 15.9644 2.39757 15.575C1.97705 15.1855 1.71903 14.6517 1.67509 14.0802L0.912204 4.16882L0.753712 4.19536C0.680118 4.20811 0.604734 4.20623 0.531865 4.18985C0.458995 4.17346 0.390066 4.14288 0.329013 4.09986C0.205713 4.01296 0.121981 3.88065 0.0962372 3.73202C0.0704936 3.58339 0.104847 3.43062 0.191741 3.30732C0.278634 3.18402 0.410949 3.10029 0.559579 3.07454C1.53424 2.90568 2.51531 2.77616 3.5004 2.68628V2.51414C3.5004 1.3281 4.42025 0.31497 5.63586 0.276295C6.48725 0.249048 7.3393 0.249048 8.19069 0.276295C9.4063 0.31497 10.3254 1.3281 10.3254 2.51414ZM5.67226 1.41304C6.49939 1.38658 7.32716 1.38658 8.15429 1.41304C8.72531 1.43124 9.1879 1.91202 9.1879 2.51414V2.59983C7.67263 2.5078 6.15317 2.5078 4.6379 2.59983V2.51414C4.6379 1.91202 5.09972 1.43124 5.67226 1.41304ZM5.40305 5.92133C5.40017 5.84664 5.3826 5.77325 5.35134 5.70535C5.32009 5.63745 5.27578 5.57637 5.22092 5.5256C5.16606 5.47483 5.10175 5.43536 5.03164 5.40945C4.96153 5.38353 4.887 5.37168 4.81231 5.37457C4.73762 5.37746 4.66423 5.39503 4.59634 5.42628C4.52844 5.45753 4.46736 5.50185 4.41659 5.5567C4.36582 5.61156 4.32635 5.67588 4.30043 5.74599C4.27452 5.81609 4.26267 5.89062 4.26555 5.96531L4.5287 12.7903C4.53453 12.9411 4.6 13.0833 4.71072 13.1858C4.76554 13.2365 4.82981 13.2759 4.89988 13.3018C4.96994 13.3277 5.04442 13.3396 5.11906 13.3367C5.1937 13.3338 5.26704 13.3162 5.33489 13.285C5.40274 13.2538 5.46378 13.2095 5.51452 13.1547C5.56525 13.0998 5.60469 13.0356 5.63059 12.9655C5.65648 12.8954 5.66832 12.821 5.66544 12.7463L5.40305 5.92133ZM9.55872 5.96531C9.56428 5.88919 9.55446 5.81272 9.52985 5.74047C9.50523 5.66822 9.46633 5.60167 9.41545 5.54477C9.36458 5.48787 9.30277 5.4418 9.23371 5.40929C9.16465 5.37678 9.08976 5.35851 9.01349 5.35556C8.93722 5.3526 8.86113 5.36503 8.78977 5.3921C8.7184 5.41917 8.65322 5.46033 8.59809 5.51312C8.54297 5.56592 8.49903 5.62927 8.46891 5.6994C8.43878 5.76953 8.42308 5.845 8.42274 5.92133L8.1596 12.7463C8.15376 12.8972 8.20809 13.0442 8.31063 13.1549C8.41317 13.2657 8.55551 13.3312 8.70635 13.3371C8.8572 13.3429 9.00418 13.2886 9.11496 13.186C9.22575 13.0835 9.29126 12.9412 9.2971 12.7903L9.55872 5.96531Z" fill="white"/>
</svg>
