<svg width="18" height="18" viewBox="0 0 18 18" fill="none" xmlns="http://www.w3.org/2000/svg">
<path fill-rule="evenodd" clip-rule="evenodd" d="M7.90621 0.750003L7.94152 0.750006H10.0585L10.0938 0.750003C10.4112 0.749964 10.7092 0.749927 10.959 0.778441C11.2371 0.810197 11.5296 0.883615 11.8025 1.08033C12.0754 1.27705 12.2375 1.53125 12.3556 1.78509C12.4616 2.013 12.5559 2.29576 12.6562 2.59688L12.6674 2.63038L12.8739 3.25001H14.8333H16.5C16.9142 3.25001 17.25 3.58579 17.25 4.00001C17.25 4.41422 16.9142 4.75001 16.5 4.75001H15.535L15.0809 11.561L15.0782 11.6015C15.0118 12.5985 14.9581 13.4042 14.8481 14.0482C14.7343 14.7144 14.549 15.2867 14.1688 15.7824C13.9182 16.1091 13.6154 16.3923 13.2727 16.6207C12.7529 16.9671 12.1695 17.1139 11.4972 17.1831C10.8474 17.25 10.0399 17.25 9.0407 17.25H9.0406H9H8.9594H8.9593C7.96007 17.25 7.15262 17.25 6.5028 17.1831C5.83046 17.1139 5.24713 16.9671 4.72729 16.6207C4.38459 16.3923 4.08184 16.1091 3.8312 15.7824C3.451 15.2867 3.26568 14.7144 3.1519 14.0482C3.04193 13.4042 2.98823 12.5986 2.92177 11.6015L2.91907 11.561L2.465 4.75001H1.5C1.08579 4.75001 0.75 4.41422 0.75 4.00001C0.75 3.58579 1.08579 3.25001 1.5 3.25001H3.16667H5.1261L5.33264 2.63038L5.3438 2.59689C5.44413 2.29577 5.53835 2.01301 5.64438 1.78509C5.76246 1.53125 5.92459 1.27705 6.19752 1.08033C6.47045 0.883615 6.76287 0.810197 7.04102 0.778441C7.29077 0.749927 7.58881 0.749964 7.90621 0.750003ZM6.70724 3.25001H11.2928L11.2443 3.10472C11.1289 2.75832 11.0611 2.55863 10.9956 2.41778C10.966 2.35424 10.9457 2.32282 10.9348 2.30824C10.9298 2.3015 10.927 2.29862 10.9264 2.29802L10.9254 2.2972L10.9243 2.29655C10.9236 2.29616 10.92 2.29439 10.912 2.29175C10.8947 2.28604 10.8585 2.27671 10.7888 2.26876C10.6345 2.25114 10.4236 2.25001 10.0585 2.25001H7.94152C7.57638 2.25001 7.36551 2.25114 7.21117 2.26876C7.14154 2.27671 7.10531 2.28604 7.08804 2.29175C7.08005 2.29439 7.07643 2.29616 7.07566 2.29655L7.07458 2.2972L7.07363 2.29802C7.07302 2.29862 7.07019 2.3015 7.06516 2.30824C7.05428 2.32282 7.03397 2.35424 7.00441 2.41778C6.93889 2.55863 6.87113 2.75832 6.75566 3.10472L6.70724 3.25001ZM3.96833 4.75001L4.41574 11.4612C4.48555 12.5083 4.53504 13.2368 4.6305 13.7957C4.72362 14.341 4.84898 14.6447 5.02138 14.8694C5.17177 15.0655 5.35342 15.2354 5.55904 15.3724C5.79476 15.5295 6.1061 15.6344 6.6564 15.691C7.22043 15.7491 7.95052 15.75 9 15.75C10.0495 15.75 10.7796 15.7491 11.3436 15.691C11.8939 15.6344 12.2052 15.5295 12.441 15.3724C12.6466 15.2354 12.8282 15.0655 12.9786 14.8694C13.151 14.6447 13.2764 14.341 13.3695 13.7957C13.465 13.2368 13.5144 12.5083 13.5843 11.4612L14.0317 4.75001H12.3333H5.66667H3.96833ZM7.33333 6.58334C7.74755 6.58334 8.08333 6.91913 8.08333 7.33334V13.1667C8.08333 13.5809 7.74755 13.9167 7.33333 13.9167C6.91912 13.9167 6.58333 13.5809 6.58333 13.1667V7.33334C6.58333 6.91913 6.91912 6.58334 7.33333 6.58334ZM11.4167 7.33334C11.4167 6.91913 11.0809 6.58334 10.6667 6.58334C10.2525 6.58334 9.91667 6.91913 9.91667 7.33334V10.6667C9.91667 11.0809 10.2525 11.4167 10.6667 11.4167C11.0809 11.4167 11.4167 11.0809 11.4167 10.6667V7.33334Z" fill="#6F848C"/>
</svg>
