<svg width="18" height="18" viewBox="0 0 18 18" fill="none" xmlns="http://www.w3.org/2000/svg">
<path fill-rule="evenodd" clip-rule="evenodd" d="M8.86233 0.750001L8.90253 0.750003H9.09747L9.13767 0.750001C9.68309 0.749975 10.1543 0.749952 10.5416 0.794168C10.9575 0.841654 11.3516 0.946531 11.7118 1.20617C12.072 1.4658 12.2961 1.80647 12.4727 2.18603C12.6096 2.48027 12.7358 2.83939 12.8737 3.25H14.8333H16.5C16.9142 3.25 17.25 3.58579 17.25 4C17.25 4.41422 16.9142 4.75 16.5 4.75H15.535L15.0809 11.561L15.0792 11.5869C15.0608 11.8627 15.0496 12.0309 15.032 12.1791C14.7013 14.9594 12.4161 17.0973 9.62001 17.2423C9.47098 17.25 9.30243 17.25 9.02594 17.25H9H8.97406C8.69757 17.25 8.52902 17.25 8.37999 17.2423C5.58387 17.0973 3.29868 14.9594 2.96801 12.1791C2.95038 12.0309 2.93918 11.8627 2.92079 11.5869L2.91907 11.561L2.465 4.75H1.5C1.08579 4.75 0.75 4.41422 0.75 4C0.75 3.58579 1.08579 3.25 1.5 3.25H3.16667H5.1263C5.26424 2.83939 5.39043 2.48027 5.52731 2.18603C5.70389 1.80647 5.92799 1.4658 6.28822 1.20617C6.64844 0.946531 7.04249 0.841654 7.45842 0.794168C7.8457 0.749952 8.31691 0.749975 8.86233 0.750001ZM6.7137 3.25H11.2863C11.2245 3.07981 11.1687 2.93925 11.1127 2.81873C10.9968 2.56964 10.911 2.47799 10.8347 2.42303C10.7585 2.36807 10.6444 2.31565 10.3714 2.28449C10.0793 2.25114 9.69451 2.25 9.09747 2.25H8.90253C8.30549 2.25 7.92069 2.25114 7.62857 2.28449C7.35561 2.31565 7.24153 2.36807 7.16528 2.42303C7.08903 2.47799 7.00322 2.56964 6.88734 2.81873C6.83128 2.93925 6.77547 3.07981 6.7137 3.25ZM3.96833 4.75L4.41574 11.4612C4.43639 11.7709 4.44508 11.8974 4.45751 12.0019C4.70192 14.0569 6.39098 15.6371 8.45767 15.7443C8.5628 15.7498 8.68961 15.75 9 15.75C9.31039 15.75 9.4372 15.7498 9.54233 15.7443C11.609 15.6371 13.2981 14.0569 13.5425 12.0019C13.5549 11.8974 13.5636 11.7709 13.5843 11.4612L14.0317 4.75H12.3333H5.66667H3.96833Z" fill="#F52419"/>
</svg>
