<svg width="12" height="13" viewBox="0 0 12 13" fill="none" xmlns="http://www.w3.org/2000/svg">
<g id="Trend - Up">
<path id="Union" fill-rule="evenodd" clip-rule="evenodd" d="M7.04999 3.54766C7.04999 3.29913 7.25146 3.09766 7.49999 3.09766H10.5C10.7485 3.09766 10.95 3.29913 10.95 3.54766V6.54764C10.95 6.79617 10.7485 6.99764 10.5 6.99764C10.2515 6.99764 10.05 6.79617 10.05 6.54764V4.63405L7.81819 6.86585C7.80237 6.88167 7.78674 6.89733 7.7713 6.91281C7.5458 7.13881 7.35897 7.32605 7.1438 7.43268C6.73813 7.6337 6.26185 7.6337 5.85618 7.43268C5.64101 7.32605 5.45418 7.13881 5.22868 6.91281C5.21323 6.89733 5.19761 6.88167 5.18178 6.86585C4.88346 6.56752 4.80837 6.50085 4.74418 6.46904C4.5903 6.39279 4.40964 6.39279 4.25577 6.46904C4.19157 6.50085 4.11649 6.56752 3.81816 6.86585L1.81819 8.86582C1.64245 9.04156 1.35753 9.04156 1.18179 8.86582C1.00605 8.69009 1.00605 8.40516 1.18179 8.22943L3.18177 6.22945C3.19759 6.21362 3.21322 6.19796 3.22866 6.18249C3.45416 5.95649 3.64099 5.76925 3.85616 5.66262C4.26183 5.4616 4.73811 5.4616 5.14378 5.66262C5.35895 5.76925 5.54578 5.95649 5.77128 6.18249C5.78673 6.19796 5.80235 6.21362 5.81818 6.22945C6.1165 6.52777 6.19159 6.59444 6.25578 6.62626C6.40966 6.70251 6.59032 6.70251 6.74419 6.62626C6.80839 6.59444 6.88347 6.52777 7.1818 6.22945L9.41359 3.99766H7.49999C7.25146 3.99766 7.04999 3.79618 7.04999 3.54766Z" fill="#0BA98A"/>
</g>
</svg>
