<svg width="12" height="13" viewBox="0 0 12 13" fill="none" xmlns="http://www.w3.org/2000/svg">
<g id="Trend - Down">
<path id="Union" fill-rule="evenodd" clip-rule="evenodd" d="M1.18179 3.22946C1.35753 3.05372 1.64245 3.05372 1.81819 3.22946L3.81816 5.22944C4.11649 5.52776 4.19157 5.59443 4.25577 5.62624C4.40964 5.70249 4.5903 5.70249 4.74418 5.62624C4.80837 5.59443 4.88346 5.52776 5.18178 5.22944C5.19761 5.21361 5.21323 5.19795 5.22868 5.18247C5.45418 4.95647 5.64101 4.76923 5.85618 4.66261C6.26185 4.46158 6.73813 4.46158 7.1438 4.66261C7.35897 4.76923 7.5458 4.95647 7.7713 5.18247C7.78674 5.19795 7.80237 5.21361 7.81819 5.22944L10.05 7.46123V5.54764C10.05 5.29911 10.2515 5.09764 10.5 5.09764C10.7485 5.09764 10.95 5.29911 10.95 5.54764V8.54763C10.95 8.79615 10.7485 8.99763 10.5 8.99763H7.49999C7.25146 8.99763 7.04999 8.79615 7.04999 8.54763C7.04999 8.2991 7.25146 8.09763 7.49999 8.09763H9.41359L7.1818 5.86583C6.88347 5.56751 6.80839 5.50084 6.74419 5.46903C6.59032 5.39278 6.40966 5.39278 6.25578 5.46903C6.19159 5.50084 6.1165 5.56751 5.81818 5.86583C5.80235 5.88166 5.78673 5.89732 5.77128 5.9128C5.54578 6.1388 5.35895 6.32604 5.14378 6.43266C4.73811 6.63368 4.26183 6.63368 3.85616 6.43266C3.64099 6.32604 3.45416 6.1388 3.22866 5.9128C3.21322 5.89732 3.19759 5.88166 3.18177 5.86583L1.18179 3.86585C1.00605 3.69012 1.00605 3.40519 1.18179 3.22946Z" fill="#F52419"/>
</g>
</svg>
