<svg width="10" height="6" viewBox="0 0 10 6" fill="none" xmlns="http://www.w3.org/2000/svg">
<path fill-rule="evenodd" clip-rule="evenodd" d="M0.181851 0.229458C0.357587 0.0537223 0.642511 0.0537223 0.818247 0.229458L2.81822 2.22944C3.11655 2.52776 3.19163 2.59443 3.25583 2.62624C3.4097 2.70249 3.59036 2.70249 3.74424 2.62624C3.80844 2.59443 3.88352 2.52776 4.18184 2.22944C4.19767 2.21361 4.2133 2.19795 4.22874 2.18247C4.45424 1.95647 4.64107 1.76923 4.85624 1.66261C5.26191 1.46158 5.73819 1.46158 6.14386 1.66261C6.35903 1.76923 6.54586 1.95647 6.77136 2.18247C6.7868 2.19795 6.80243 2.21361 6.81825 2.22944L9.05005 4.46123V2.54764C9.05005 2.29911 9.25152 2.09764 9.50005 2.09764C9.74858 2.09764 9.95005 2.29911 9.95005 2.54764V5.54763C9.95005 5.79615 9.74858 5.99763 9.50005 5.99763H6.50005C6.25152 5.99763 6.05005 5.79615 6.05005 5.54763C6.05005 5.2991 6.25152 5.09763 6.50005 5.09763H8.41365L6.18186 2.86583C5.88353 2.56751 5.80845 2.50084 5.74425 2.46903C5.59038 2.39278 5.40972 2.39278 5.25584 2.46903C5.19165 2.50084 5.11656 2.56751 4.81824 2.86583C4.80241 2.88166 4.78679 2.89732 4.77134 2.9128C4.54584 3.1388 4.35901 3.32604 4.14385 3.43266C3.73818 3.63368 3.26189 3.63368 2.85622 3.43266C2.64105 3.32604 2.45422 3.1388 2.22872 2.9128C2.21328 2.89732 2.19766 2.88166 2.18183 2.86583L0.181851 0.865854C0.00611484 0.690118 0.00611484 0.405194 0.181851 0.229458Z" fill="#F52419"/>
</svg>
