<svg width="10" height="6" viewBox="0 0 10 6" fill="none" xmlns="http://www.w3.org/2000/svg">
<path fill-rule="evenodd" clip-rule="evenodd" d="M6.05005 0.547656C6.05005 0.299128 6.25152 0.0976562 6.50005 0.0976562H9.50005C9.74858 0.0976562 9.95005 0.299128 9.95005 0.547656V3.54764C9.95005 3.79617 9.74858 3.99764 9.50005 3.99764C9.25152 3.99764 9.05005 3.79617 9.05005 3.54764V1.63405L6.81825 3.86585C6.80243 3.88167 6.7868 3.89733 6.77136 3.91281C6.54586 4.13881 6.35903 4.32605 6.14386 4.43268C5.73819 4.6337 5.26191 4.6337 4.85624 4.43268C4.64107 4.32605 4.45424 4.13881 4.22874 3.91281C4.21329 3.89733 4.19767 3.88167 4.18184 3.86585C3.88352 3.56752 3.80844 3.50085 3.74424 3.46904C3.59036 3.39279 3.4097 3.39279 3.25583 3.46904C3.19163 3.50085 3.11655 3.56752 2.81822 3.86585L0.818247 5.86582C0.642511 6.04156 0.357587 6.04156 0.181851 5.86582C0.00611484 5.69009 0.00611484 5.40516 0.181851 5.22943L2.18183 3.22945C2.19766 3.21362 2.21328 3.19796 2.22872 3.18249C2.45422 2.95649 2.64105 2.76925 2.85622 2.66262C3.26189 2.4616 3.73818 2.4616 4.14385 2.66262C4.35901 2.76925 4.54584 2.95649 4.77134 3.18249C4.78679 3.19796 4.80241 3.21362 4.81824 3.22945C5.11656 3.52777 5.19165 3.59444 5.25584 3.62626C5.40972 3.70251 5.59038 3.70251 5.74425 3.62626C5.80845 3.59444 5.88353 3.52777 6.18186 3.22945L8.41365 0.997656H6.50005C6.25152 0.997656 6.05005 0.796184 6.05005 0.547656Z" fill="#94A3B8"/>
</svg>
