<svg width="41" height="40" viewBox="0 0 41 40" fill="none" xmlns="http://www.w3.org/2000/svg">
<g id="File - Upload">
<path id="Subtract" fill-rule="evenodd" clip-rule="evenodd" d="M23.0149 4.25002L23.0835 4.25V9.3335L23.0835 9.3855V9.38553V9.38556C23.0835 10.284 23.0834 11.0332 23.1634 11.628C23.2478 12.2558 23.4335 12.8226 23.889 13.278C24.3444 13.7335 24.9112 13.9192 25.539 14.0036C26.1338 14.0836 26.883 14.0835 27.7815 14.0835H27.7815L27.8335 14.0835H32.9169L32.9168 14.152V29V29.0549C32.9169 30.4225 32.9169 31.5248 32.8003 32.3918C32.6793 33.2919 32.4204 34.0498 31.8185 34.6517C31.2166 35.2536 30.4587 35.5125 29.5586 35.6335C28.6916 35.7501 27.5893 35.75 26.2218 35.75H26.1668H14.8335H14.7786C13.411 35.75 12.3087 35.7501 11.4417 35.6335C10.5416 35.5125 9.78376 35.2536 9.18185 34.6517C8.57993 34.0498 8.32104 33.2919 8.20002 32.3918C8.08346 31.5248 8.08348 30.4225 8.0835 29.0549L8.0835 29V11L8.0835 10.9451C8.08348 9.57756 8.08346 8.47524 8.20002 7.60827C8.32104 6.70816 8.57993 5.95029 9.18185 5.34837C9.78376 4.74645 10.5416 4.48756 11.4417 4.36654C12.3087 4.24998 13.411 4.25 14.7786 4.25002L14.8335 4.25002H23.0149ZM32.6314 11.4743C32.7734 11.8172 32.8449 12.1761 32.8809 12.5835H27.8335C26.8695 12.5835 26.2219 12.5819 25.7389 12.517C25.2774 12.4549 25.0799 12.3477 24.9496 12.2174C24.8193 12.0871 24.7121 11.8896 24.65 11.4281C24.5851 10.9451 24.5835 10.2975 24.5835 9.3335V4.286C24.9908 4.32192 25.3497 4.39342 25.6926 4.53547C26.384 4.82185 26.9182 5.35664 27.687 6.12617L27.6871 6.12619L27.7879 6.22705L30.9398 9.379L31.0407 9.4798C31.8102 10.2486 32.345 10.7829 32.6314 11.4743ZM21.0305 17.8033C20.7376 17.5104 20.2627 17.5104 19.9698 17.8033L15.8032 21.9699C15.5103 22.2628 15.5103 22.7377 15.8032 23.0306C16.0961 23.3235 16.5709 23.3235 16.8638 23.0306L19.7502 20.1443V28.3336C19.7502 28.7478 20.0859 29.0836 20.5002 29.0836C20.9144 29.0836 21.2502 28.7478 21.2502 28.3336V20.1443L24.1365 23.0306C24.4294 23.3235 24.9043 23.3235 25.1972 23.0306C25.4901 22.7377 25.4901 22.2628 25.1972 21.9699L21.0305 17.8033Z" fill="#2B1694"/>
</g>
</svg>
