<svg width="38" height="35" viewBox="0 0 38 35" fill="none" xmlns="http://www.w3.org/2000/svg">
<path fill-rule="evenodd" clip-rule="evenodd" d="M17.1674 4.66823C16.2766 5.78769 15.277 7.50683 13.8429 9.98387L6.39556 22.8475C4.95636 25.3334 3.95933 27.0629 3.43023 28.3976C2.90566 29.7208 2.99643 30.2788 3.2071 30.6442C3.41776 31.0096 3.85515 31.3677 5.26317 31.5767C6.68333 31.7875 8.67959 31.7912 11.5521 31.7912H26.4468C29.3193 31.7912 31.3156 31.7875 32.7357 31.5767C34.1437 31.3677 34.5811 31.0096 34.7918 30.6442C35.0025 30.2788 35.0932 29.7208 34.5687 28.3976C34.0396 27.0629 33.0425 25.3334 31.6033 22.8475L24.1559 9.98387C22.7219 7.50683 21.7223 5.78768 20.8315 4.66823C19.9485 3.5588 19.4209 3.35938 18.9994 3.35938C18.578 3.35938 18.0504 3.5588 17.1674 4.66823ZM15.0157 2.9558C16.0721 1.62838 17.3068 0.609375 18.9994 0.609375C20.6921 0.609375 21.9268 1.62838 22.9832 2.9558C24.0165 4.25417 25.1161 6.15352 26.4759 8.50242L26.5359 8.60602L33.9833 21.4697L34.0433 21.5734L34.0433 21.5734L34.0434 21.5736C35.4083 23.9311 36.5118 25.837 37.1251 27.3841C37.752 28.9654 38.0216 30.5479 37.1742 32.0178C36.3267 33.4876 34.8221 34.0471 33.1396 34.2969C31.4932 34.5413 29.2909 34.5413 26.5666 34.5412H26.4468H11.5521H11.4323C8.70802 34.5413 6.50568 34.5413 4.85934 34.2969C3.17682 34.0471 1.67215 33.4876 0.824704 32.0178C-0.0227414 30.5479 0.24694 28.9654 0.87378 27.3841C1.48714 25.8369 2.59062 23.931 3.95564 21.5733L4.01564 21.4697L11.463 8.60602L11.523 8.50246C12.8828 6.15354 13.9824 4.25418 15.0157 2.9558ZM18.9994 11.6245C19.7588 11.6245 20.3744 12.2401 20.3744 12.9995V20.3329C20.3744 21.0923 19.7588 21.7079 18.9994 21.7079C18.2401 21.7079 17.6244 21.0923 17.6244 20.3329V12.9995C17.6244 12.2401 18.2401 11.6245 18.9994 11.6245ZM18.9994 27.6662C20.012 27.6662 20.8328 26.8454 20.8328 25.8329C20.8328 24.8204 20.012 23.9995 18.9994 23.9995C17.9869 23.9995 17.1661 24.8204 17.1661 25.8329C17.1661 26.8454 17.9869 27.6662 18.9994 27.6662Z" fill="#F52419"/>
</svg>
