<svg width="20" height="20" viewBox="0 0 20 20" fill="none" xmlns="http://www.w3.org/2000/svg">
    <g id="Send - 2">
        <path id="Union" fill-rule="evenodd" clip-rule="evenodd" d="M17.1972 1.96969C17.3981 2.17057 17.4682 2.4677 17.3784 2.7372L12.3781 17.7372C12.2822 18.025 12.0224 18.2266 11.7198 18.2481C11.4172 18.2696 11.1315 18.1067 10.9958 17.8354L7.77429 11.3924L1.33123 8.17084C1.0599 8.03518 0.897018 7.74944 0.918522 7.44685C0.940027 7.14427 1.14169 6.88443 1.42947 6.78851L16.4297 1.78851C16.6992 1.69867 16.9963 1.76882 17.1972 1.96969ZM9.24588 10.9815L11.5277 15.5451L15.481 3.68587L3.62156 7.63896L8.18523 9.92079L10.7198 7.38637C11.0127 7.09349 11.4876 7.0935 11.7805 7.3864C12.0733 7.6793 12.0733 8.15418 11.7804 8.44706L9.24588 10.9815Z" fill="white"/>
    </g>
</svg>