<svg width="20" height="20" viewBox="0 0 20 20" fill="none" xmlns="http://www.w3.org/2000/svg">
<g id="Comment - 2 - Dots">
<path id="Union" fill-rule="evenodd" clip-rule="evenodd" d="M3.125 10C3.125 6.20304 6.20304 3.125 10 3.125C13.797 3.125 16.875 6.20304 16.875 10C16.875 13.797 13.797 16.875 10 16.875H3.65559C3.70173 16.8007 3.74476 16.7298 3.78463 16.6617C3.97223 16.3417 4.11601 16.045 4.18845 15.7325C4.24047 15.508 4.25344 15.4155 4.26513 15.1854C4.28228 14.8478 4.19674 14.4464 4.07118 13.9879C3.94207 13.5164 3.74606 12.9034 3.49319 12.1126L3.48826 12.0972C3.27393 11.4269 3.125 10.7047 3.125 10ZM1.875 17.5C1.875 17.3687 1.9155 17.2468 1.9847 17.1462C2.31191 16.6554 2.54269 16.3086 2.70626 16.0296C2.86997 15.7503 2.94038 15.5811 2.97073 15.4502C2.99199 15.3585 2.99945 15.3201 3.00402 15.2875C3.00858 15.2549 3.01197 15.216 3.01674 15.122C3.02269 15.0049 2.99127 14.7771 2.86557 14.3181C2.74427 13.8751 2.55645 13.2873 2.29764 12.4779C2.05781 11.7278 1.875 10.8726 1.875 10C1.875 5.51269 5.51269 1.875 10 1.875C14.4873 1.875 18.125 5.51269 18.125 10C18.125 14.4873 14.4873 18.125 10 18.125H2.5C2.15482 18.125 1.875 17.8452 1.875 17.5ZM6.66667 10.8333C7.1269 10.8333 7.5 10.4602 7.5 10C7.5 9.53976 7.1269 9.16667 6.66667 9.16667C6.20643 9.16667 5.83333 9.53976 5.83333 10C5.83333 10.4602 6.20643 10.8333 6.66667 10.8333ZM10.8333 10C10.8333 10.4602 10.4602 10.8333 10 10.8333C9.53976 10.8333 9.16667 10.4602 9.16667 10C9.16667 9.53976 9.53976 9.16667 10 9.16667C10.4602 9.16667 10.8333 9.53976 10.8333 10ZM13.3333 10.8333C13.7936 10.8333 14.1667 10.4602 14.1667 10C14.1667 9.53976 13.7936 9.16667 13.3333 9.16667C12.8731 9.16667 12.5 9.53976 12.5 10C12.5 10.4602 12.8731 10.8333 13.3333 10.8333Z" fill="#64748B"/>
</g>
</svg>
