<svg xmlns="http://www.w3.org/2000/svg" width="21" height="20" viewBox="0 0 21 20" fill="none">
  <path fill-rule="evenodd" clip-rule="evenodd" d="M10.5 0.916992C10.7841 0.916992 11.0438 1.07749 11.1708 1.33158L13.5 5.98998L18.1233 6.76053C18.4004 6.80672 18.6285 7.0039 18.7142 7.27144C18.8 7.53898 18.729 7.832 18.5303 8.03065L15.0743 11.4867L16.2308 16.4983C16.2961 16.7813 16.1922 17.0766 15.964 17.2563C15.7358 17.4359 15.4244 17.4677 15.1646 17.3378L10.5 15.0055L5.83543 17.3378C5.57566 17.4677 5.26425 17.4359 5.03606 17.2563C4.80787 17.0766 4.70392 16.7813 4.76923 16.4983L5.92576 11.4867L2.46969 8.03065C2.27103 7.832 2.20006 7.53898 2.2858 7.27144C2.37153 7.0039 2.5996 6.80672 2.87672 6.76053L7.5 5.98998L9.8292 1.33158C9.95625 1.07749 10.2159 0.916992 10.5 0.916992ZM10.5 3.34404L8.67084 7.0024C8.56353 7.21702 8.36001 7.36734 8.12332 7.40679L4.56088 8.00053L7.28035 10.72C7.4632 10.9028 7.53896 11.167 7.48081 11.419L6.58887 15.284L10.1646 13.4962C10.3758 13.3906 10.6243 13.3906 10.8354 13.4962L14.4112 15.284L13.5192 11.419C13.4611 11.167 13.5368 10.9028 13.7197 10.72L16.4392 8.00053L12.8767 7.40679C12.64 7.36734 12.4365 7.21702 12.3292 7.0024L10.5 3.34404Z" fill="#334155"/>
</svg>