<svg xmlns="http://www.w3.org/2000/svg" width="20" height="20" viewBox="0 0 20 20" fill="none">
  <path fill-rule="evenodd" clip-rule="evenodd" d="M10.6734 1.33673C10.5474 1.07982 10.2862 0.916992 10 0.916992C9.71388 0.916992 9.45266 1.07982 9.32665 1.33673L7.00041 6.07972L2.39079 6.75832C2.11006 6.79965 1.87669 6.99587 1.78778 7.26534C1.69888 7.5348 1.76966 7.83137 1.97068 8.03164L5.42678 11.4749L4.26863 16.5761C4.20408 16.8604 4.31016 17.1564 4.54064 17.335C4.77112 17.5136 5.08421 17.5424 5.34342 17.4089L10 15.0106L14.6566 17.4089C14.9158 17.5424 15.2289 17.5136 15.4594 17.335C15.6899 17.1564 15.796 16.8604 15.7314 16.5761L14.5733 11.4749L18.0294 8.03164C18.2304 7.83137 18.3012 7.5348 18.2123 7.26534C18.1234 6.99587 17.89 6.79965 17.6093 6.75832L12.9996 6.07972L10.6734 1.33673Z" fill="#4259ED"/>
</svg>