<svg width="81" height="80" viewBox="0 0 81 80" fill="none" xmlns="http://www.w3.org/2000/svg">
<g id="3 2" clip-path="url(#clip0_8717_91482)">
<g id="Group">
<path id="Vector" d="M1.74255 48.4587V65.8542L19.138 75.7945V58.399L1.74255 48.4587Z" fill="#EDF1F6"/>
<path id="Vector_2" d="M71.3243 38.5186L67.5967 41.0036L63.8691 38.5186V68.3393H71.3243V38.5186Z" fill="#EDF1F6"/>
<g id="Group_2">
<path id="Vector_3" d="M77.1717 12.7881L64.7489 0.365305C64.524 0.139164 64.2134 0 63.8692 0H31.5633C30.8762 0 30.3208 0.556655 30.3208 1.24253V43.4775L19.7543 37.44C19.3728 37.2213 18.9019 37.2213 18.5217 37.44L1.12624 47.3803C0.738566 47.6014 0.5 48.0127 0.5 48.4588V65.8542C0.5 66.3003 0.738566 66.7116 1.12624 66.9328L18.5217 76.873C18.7118 76.9824 18.9255 77.037 19.138 77.037C19.3505 77.037 19.5642 76.9824 19.7543 76.873L37.1497 66.9328C37.5374 66.7116 37.776 66.3003 37.776 65.8542V62.1266H62.6266V72.0669C62.6266 74.8079 64.8557 77.037 67.5968 77.037C70.3378 77.037 72.5669 74.8079 72.5669 72.0669V62.1266H76.2945C76.9816 62.1266 77.537 61.57 77.537 60.8841V13.6679C77.537 13.3237 77.3979 13.013 77.1717 12.7881ZM65.1117 4.24201L73.295 12.4253H65.1117V4.24201ZM19.138 39.9499L34.0285 48.4588L30.1655 50.6668L15.275 42.1579L19.138 39.9499ZM25.967 53.5929L10.6142 44.8206L12.77 43.5893L29.0783 52.9071V57.6312L26.5932 58.8737V54.6714C26.5932 54.2254 26.3546 53.8141 25.967 53.5929ZM8.11051 46.2508L23.0023 54.7597L19.138 56.9676L4.24748 48.4588L8.11051 46.2508ZM2.98507 50.5997L17.8955 59.1197V73.6536L2.98507 65.1336V50.5997ZM20.3805 73.6536V59.1197L24.1081 56.99V60.8841C24.1081 61.3153 24.3318 61.7141 24.6983 61.9415C24.8971 62.0645 25.1233 62.1266 25.3507 62.1266C25.5408 62.1266 25.7309 62.0832 25.9061 61.9962L30.8762 59.5111C31.2974 59.2999 31.5633 58.87 31.5633 58.399V52.7306L35.2909 50.6009V65.1336L20.3805 73.6536ZM66.3542 41.6683V67.0968H65.1117V40.8396L66.3542 41.6683ZM68.8393 41.6683L70.0818 40.8396V67.0968H68.8393V41.6683ZM67.5968 39.5101L65.3789 38.0314L67.5968 32.117L69.8147 38.0314L67.5968 39.5101ZM67.5968 74.552C66.2263 74.552 65.1117 73.4374 65.1117 72.0669V69.5818H70.0818V72.0669C70.0818 73.4374 68.9673 74.552 67.5968 74.552ZM75.052 59.6416H72.5669V38.5185C72.5669 38.3694 72.5408 38.2216 72.4886 38.0824L68.761 28.1421C68.5784 27.6575 68.1149 27.3357 67.5968 27.3357C67.0786 27.3357 66.6152 27.6575 66.4325 28.1421L62.7049 38.0824C62.6527 38.2216 62.6266 38.3694 62.6266 38.5185V59.6416H37.776V48.4588C37.776 48.0127 37.5374 47.6014 37.1497 47.3803L32.8059 44.8977V2.48507H62.6266V13.6679C62.6266 14.3537 63.1821 14.9104 63.8692 14.9104H75.052V59.6416Z" fill="#2B1694"/>
<path id="Vector_4" d="M35.2909 17.3955H37.776V19.8806H35.2909V17.3955Z" fill="#2B1694"/>
<path id="Vector_5" d="M40.2611 17.3955H72.567V19.8806H40.2611V17.3955Z" fill="#2B1694"/>
<path id="Vector_6" d="M70.0818 22.3655H72.5669V24.8505H70.0818V22.3655Z" fill="#2B1694"/>
<path id="Vector_7" d="M35.2909 22.3655H67.5967V24.8505H35.2909V22.3655Z" fill="#2B1694"/>
<path id="Vector_8" d="M35.2909 27.3357H60.1415V29.8208H35.2909V27.3357Z" fill="#2B1694"/>
<path id="Vector_9" d="M35.2909 32.3059H60.1415V34.791H35.2909V32.3059Z" fill="#2B1694"/>
</g>
</g>
</g>
<defs>
<clipPath id="clip0_8717_91482">
<rect width="80" height="80" fill="white" transform="translate(0.5)"/>
</clipPath>
</defs>
</svg>
