<svg width="41" height="40" viewBox="0 0 41 40" fill="none" xmlns="http://www.w3.org/2000/svg">
<g id="icons / 24 / filled/ Check - Circle">
<path id="Union" fill-rule="evenodd" clip-rule="evenodd" d="M20.7497 36.6666C29.9544 36.6666 37.4163 29.2047 37.4163 19.9999C37.4163 10.7952 29.9544 3.33325 20.7497 3.33325C11.5449 3.33325 4.08301 10.7952 4.08301 19.9999C4.08301 29.2047 11.5449 36.6666 20.7497 36.6666ZM27.9467 15.5302C28.2396 15.2374 28.2396 14.7625 27.9467 14.4696C27.6538 14.1767 27.1789 14.1767 26.886 14.4696L19.083 22.2726L16.28 19.4696C15.9871 19.1767 15.5122 19.1767 15.2193 19.4696C14.9265 19.7625 14.9265 20.2374 15.2193 20.5302L18.5527 23.8636C18.6933 24.0042 18.8841 24.0833 19.083 24.0833C19.2819 24.0833 19.4727 24.0042 19.6133 23.8636L27.9467 15.5302Z" fill="#0BA98A"/>
</g>
</svg>
