<svg width="69" height="18" viewBox="0 0 69 18" fill="none" xmlns="http://www.w3.org/2000/svg">
<g id="Group">
<path id="Vector" fill-rule="evenodd" clip-rule="evenodd" d="M0.29834 11.447C1.18459 13.1836 3.20522 14.314 5.73004 14.314C8.81417 14.314 10.9648 12.6478 10.9648 10.3362C10.9648 8.47437 9.77526 7.23448 7.37255 6.62822L5.73004 6.19797C3.98118 5.76772 3.29582 5.30227 3.29582 4.44178C3.29582 3.49132 4.30811 2.83031 5.65914 2.83031C7.01017 2.83031 8.20365 3.45612 8.70782 4.39093L10.7836 3.28011C9.93675 1.63344 7.98701 0.593018 5.69459 0.593018C2.75226 0.593018 0.767066 2.25925 0.767066 4.55521C0.767066 6.36616 1.9566 7.58259 4.35931 8.19276L6.00182 8.62301C7.75068 9.05325 8.43998 9.53826 8.43998 10.4496C8.43998 11.4353 7.28589 12.0806 5.76943 12.0806C4.25296 12.0806 2.95314 11.3297 2.39382 10.3049L0.30228 11.4509L0.29834 11.447Z" fill="white"/>
<path id="Vector_2" fill-rule="evenodd" clip-rule="evenodd" d="M19.5396 4.42236V9.44062C19.5396 11.0912 18.5115 12.1825 17.066 12.1825C15.6204 12.1825 14.8838 11.3415 14.8838 9.69094V4.42236H12.4299V9.85131C12.4299 12.6636 13.9818 14.3141 16.5067 14.3141C17.8774 14.3141 19.0157 13.6688 19.5396 12.6831V14.0638H22.0132V4.42236H19.5396Z" fill="white"/>
<path id="Vector_3" fill-rule="evenodd" clip-rule="evenodd" d="M34.3379 9.24107C34.3931 6.42882 32.3173 4.11721 29.6113 4.16806C28.2563 4.16806 27.1022 4.72347 26.4523 5.77953V4.41839H23.9984V17.8773H26.4523V12.6791C27.1022 13.7352 28.2406 14.3102 29.6113 14.3102C32.3173 14.3454 34.3931 12.0533 34.3379 9.23716V9.24107ZM31.9904 9.24107C31.9904 10.9073 30.852 12.1785 29.2095 12.1785C27.567 12.1785 26.4681 11.0129 26.4681 9.24107C26.4681 7.46923 27.6064 6.30365 29.2095 6.30365C30.0209 6.30365 30.6905 6.58918 31.2144 7.14459C31.7383 7.7 31.9904 8.40013 31.9904 9.24107Z" fill="white"/>
<path id="Vector_4" fill-rule="evenodd" clip-rule="evenodd" d="M45.3747 8.61541C45.3747 5.80316 43.8228 4.17213 41.298 4.17213C39.9273 4.17213 38.8086 4.8175 38.2493 5.80316V0.60498H35.7954V14.0639H38.2493V9.03001C38.2493 7.39898 39.2971 6.30772 40.7229 6.30772C42.1488 6.30772 42.9051 7.14866 42.9051 8.79924V14.0678H45.3787V8.61932L45.3747 8.61541Z" fill="white"/>
<path id="Vector_5" fill-rule="evenodd" clip-rule="evenodd" d="M54.2647 4.42236V9.44062C54.2647 11.0912 53.2366 12.1825 51.7911 12.1825C50.3455 12.1825 49.6089 11.3415 49.6089 9.69094V4.42236H47.155V9.85131C47.155 12.6636 48.7069 14.3141 51.2318 14.3141C52.6025 14.3141 53.7408 13.6688 54.2647 12.6831V14.0638H56.7383V4.42236H54.2647Z" fill="white"/>
<path id="Vector_6" fill-rule="evenodd" clip-rule="evenodd" d="M68.9999 9.24099C69.0551 6.42873 66.9793 4.11713 64.2733 4.16798C62.9183 4.16798 61.7642 4.72339 61.1143 5.77945V0.60083H58.6604V14.0598H61.1143V12.6791C61.7642 13.7351 62.9026 14.3101 64.2733 14.3101C66.9793 14.3453 69.0551 12.0532 68.9999 9.23708V9.24099ZM66.6524 9.24099C66.6524 10.9072 65.514 12.1784 63.8715 12.1784C62.229 12.1784 61.1301 11.0128 61.1301 9.24099C61.1301 7.46915 62.2684 6.30357 63.8715 6.30357C64.6829 6.30357 65.3525 6.5891 65.8764 7.14451C66.4003 7.69992 66.6524 8.40005 66.6524 9.24099Z" fill="white"/>
</g>
</svg>
