<svg width="27" height="30" viewBox="0 0 27 30" fill="none" xmlns="http://www.w3.org/2000/svg">
<g id="Clip path group">
<mask id="mask0_8908_23836" style="mask-type:luminance" maskUnits="userSpaceOnUse" x="0" y="0" width="27" height="30">
<g id="clippath">
<path id="Vector" d="M19.9542 3.81347L23.2786 5.72221L24.5115 6.43016C25.8429 7.19287 26.607 8.50317 26.607 10.0325V20.4875C26.607 22.013 25.8468 23.3233 24.5155 24.0899L19.9582 26.7027L15.4009 29.3154C14.0696 30.0781 12.5452 30.0781 11.2139 29.3154L9.98103 28.6075L6.65662 26.6987L3.33222 24.7939L2.09935 24.086C0.768014 23.3233 0.0078125 22.013 0.0078125 20.4836V10.0286C0.0078125 8.50317 0.768014 7.19287 2.09935 6.42625L6.65662 3.81347L11.2139 1.2007C12.5452 0.437984 14.0696 0.437984 15.4009 1.2007L16.6338 1.90865L19.9582 3.81738L19.9542 3.81347Z" fill="white"/>
</g>
</mask>
<g mask="url(#mask0_8908_23836)">
<g id="Group">
<g id="Group_2">
<path id="Vector_2" fill-rule="evenodd" clip-rule="evenodd" d="M13.3016 22.8813L6.65283 26.6948L9.97724 28.5997L19.9544 22.8813V19.0677V15.2542V11.4406V7.62704L23.2827 5.7183L19.9544 3.81348L13.3016 7.62704V11.4406V15.2542V19.0677V22.8813Z" fill="#FF0066"/>
<path id="Vector_3" fill-rule="evenodd" clip-rule="evenodd" d="M13.3016 22.8813L6.65283 26.6948L9.97724 28.5997L19.9544 22.8813V19.0677V15.2542V11.4406V7.62704L23.2827 5.7183L19.9544 3.81348L13.3016 7.62704V11.4406V15.2542V19.0677V22.8813Z" fill="#FF0066"/>
<path id="Vector_4" fill-rule="evenodd" clip-rule="evenodd" d="M19.9543 22.8815L9.97717 28.5999L13.3016 30.5086L19.9543 26.695L26.6071 22.8815V19.0679V15.2544V11.4408V7.62724L23.2827 5.71851L19.9543 7.62724V11.4408V15.2544V19.0679V22.8815Z" fill="#FF9000"/>
<path id="Vector_5" fill-rule="evenodd" clip-rule="evenodd" d="M19.9543 22.8815L9.97717 28.5999L13.3016 30.5086L19.9543 26.695L26.6071 22.8815V19.0679V15.2544V11.4408V7.62724L23.2827 5.71851L19.9543 7.62724V11.4408V15.2544V19.0679V22.8815Z" fill="#FFD038"/>
<path id="Vector_6" fill-rule="evenodd" clip-rule="evenodd" d="M19.9544 7.62704L23.2827 5.7183L19.9544 3.81348L13.3016 7.62704H19.9544Z" fill="#FF1F8B"/>
<path id="Vector_7" fill-rule="evenodd" clip-rule="evenodd" d="M26.607 7.62724L23.2826 5.71851L19.9542 7.62724H26.607Z" fill="#FFD851"/>
<path id="Vector_8" fill-rule="evenodd" clip-rule="evenodd" d="M13.3016 22.8813L6.65283 26.6949L9.97724 28.5997L19.9544 22.8813H13.3016Z" fill="#DC0045"/>
<path id="Vector_9" fill-rule="evenodd" clip-rule="evenodd" d="M19.9543 22.8813L9.97717 28.5997L13.3016 30.5085L19.9543 26.6949L26.6071 22.8813H19.9543Z" fill="#E3BC35"/>
<path id="Vector_10" fill-rule="evenodd" clip-rule="evenodd" d="M3.3244 24.7862L6.65275 22.8814V19.0678V15.2542V11.4407V7.62712L16.6299 1.90874L13.3016 0L6.65275 3.81356L0 7.62712V11.4407V15.2542V19.0678V22.8814L3.3244 24.7862Z" fill="#3ECE7A"/>
<path id="Vector_11" fill-rule="evenodd" clip-rule="evenodd" d="M6.65281 22.8813L3.32446 24.7861L6.65281 26.6949L13.3016 22.8813V19.0678V15.2542V11.4406V7.62708L19.9544 3.81352L16.63 1.90869L6.65281 7.62708V11.4406V15.2542V19.0678V22.8813Z" fill="#000DB2"/>
<path id="Vector_12" fill-rule="evenodd" clip-rule="evenodd" d="M6.65275 7.62712L16.6299 1.90874L13.3016 0L6.65275 3.81356L0 7.62712H6.65275Z" fill="#74E2A1"/>
<path id="Vector_13" fill-rule="evenodd" clip-rule="evenodd" d="M13.3016 7.62708L19.9544 3.81352L16.63 1.90869L6.65283 7.62708H13.3016Z" fill="#1A25BA"/>
<path id="Vector_14" fill-rule="evenodd" clip-rule="evenodd" d="M3.3244 24.7862L6.65275 22.8813H0L3.3244 24.7862Z" fill="#3CB16C"/>
<path id="Vector_15" fill-rule="evenodd" clip-rule="evenodd" d="M6.65281 22.8813L3.32446 24.7862L6.65281 26.6949L13.3016 22.8813H6.65281Z" fill="#000A82"/>
</g>
</g>
</g>
</g>
</svg>
