<svg width="81" height="80" viewBox="0 0 81 80" fill="none" xmlns="http://www.w3.org/2000/svg">
<g id="4 1">
<g id="Group">
<path id="Vector" d="M51.75 58.75H56.75V70H51.75V58.75Z" fill="#EDF1F6"/>
<path id="Vector_2" d="M24.25 58.75H29.25V70H24.25V58.75Z" fill="#EDF1F6"/>
<path id="Vector_3" d="M21.75 77.5V72.5C21.75 71.837 22.0134 71.2011 22.4822 70.7322C22.9511 70.2634 23.587 70 24.25 70H56.75C57.413 70 58.0489 70.2634 58.5178 70.7322C58.9866 71.2011 59.25 71.837 59.25 72.5V77.5" fill="#EDF1F6"/>
</g>
<path id="Vector_4" d="M57.9363 40H59.25C60.2446 40 61.1984 39.6049 61.9016 38.9016C62.6049 38.1984 63 37.2446 63 36.25V33.4025C63.3788 33.1848 63.6937 32.8714 63.9131 32.4936C64.1325 32.1157 64.2487 31.6869 64.25 31.25V26.25C64.25 25.587 63.9866 24.9511 63.5178 24.4822C63.0489 24.0134 62.413 23.75 61.75 23.75H60.5C60.4887 19.3097 59.0035 14.9989 56.2773 11.494C53.5511 7.98918 49.7384 5.48868 45.4375 4.385C45.2922 3.51106 44.8422 2.71679 44.1672 2.14295C43.4923 1.56911 42.6359 1.25277 41.75 1.25H39.25C38.3641 1.25277 37.5077 1.56911 36.8328 2.14295C36.1578 2.71679 35.7078 3.51106 35.5625 4.385C31.2616 5.48868 27.4489 7.98918 24.7227 11.494C21.9965 14.9989 20.5113 19.3097 20.5 23.75H19.25C18.587 23.75 17.9511 24.0134 17.4822 24.4822C17.0134 24.9511 16.75 25.587 16.75 26.25V31.25C16.7513 31.6869 16.8675 32.1157 17.0869 32.4936C17.3063 32.8714 17.6212 33.1848 18 33.4025V36.25C18 37.2446 18.3951 38.1984 19.0983 38.9016C19.8016 39.6049 20.7554 40 21.75 40H23.0638C23.2874 43.0851 24.3248 46.0558 26.0702 48.6095C27.8157 51.1632 30.2068 53.2087 33 54.5375V57.5H23C18.6918 57.505 14.5614 59.2186 11.515 62.265C8.4686 65.3114 6.75496 69.4418 6.75 73.75V77.5C6.75 77.8315 6.8817 78.1495 7.11612 78.3839C7.35054 78.6183 7.66848 78.75 8 78.75H73C73.3315 78.75 73.6495 78.6183 73.8839 78.3839C74.1183 78.1495 74.25 77.8315 74.25 77.5V73.75C74.245 69.4418 72.5314 65.3114 69.485 62.265C66.4386 59.2186 62.3082 57.505 58 57.5H48V54.5375C50.7932 53.2087 53.1843 51.1632 54.9298 48.6095C56.6752 46.0558 57.7126 43.0851 57.9363 40ZM59.25 37.5H58V33.75H60.5V36.25C60.5 36.5815 60.3683 36.8995 60.1339 37.1339C59.8995 37.3683 59.5815 37.5 59.25 37.5ZM58 23.75H55.5V22.5C55.5 21.5054 55.1049 20.5516 54.4016 19.8483C53.6984 19.1451 52.7446 18.75 51.75 18.75H45.5V6.975C49.1075 8.06013 52.2703 10.2768 54.5212 13.2975C56.7721 16.3182 57.9918 19.9829 58 23.75ZM51.75 21.25C52.0815 21.25 52.3995 21.3817 52.6339 21.6161C52.8683 21.8505 53 22.1685 53 22.5V23.75H28V22.5C28 22.1685 28.1317 21.8505 28.3661 21.6161C28.6005 21.3817 28.9185 21.25 29.25 21.25H51.75ZM39.25 3.75H41.75C42.0815 3.75 42.3995 3.8817 42.6339 4.11612C42.8683 4.35054 43 4.66848 43 5V18.75H38V5C38 4.66848 38.1317 4.35054 38.3661 4.11612C38.6005 3.8817 38.9185 3.75 39.25 3.75ZM35.5 6.975V18.75H29.25C28.2554 18.75 27.3016 19.1451 26.5983 19.8483C25.8951 20.5516 25.5 21.5054 25.5 22.5V23.75H23C23.0082 19.9829 24.2279 16.3182 26.4788 13.2975C28.7297 10.2768 31.8925 8.06013 35.5 6.975ZM19.25 26.25H61.75V31.25H19.25V26.25ZM20.5 36.25V33.75H23V37.5H21.75C21.4185 37.5 21.1005 37.3683 20.8661 37.1339C20.6317 36.8995 20.5 36.5815 20.5 36.25ZM25.5 38.75V33.75H55.5V38.75C55.5 42.7282 53.9197 46.5436 51.1066 49.3566C48.2936 52.1697 44.4782 53.75 40.5 53.75C36.5218 53.75 32.7064 52.1697 29.8934 49.3566C27.0804 46.5436 25.5 42.7282 25.5 38.75ZM47.8875 60H50.5V68.75H30.5V60H33.1125C33.4063 61.7469 34.3096 63.3331 35.6621 64.4771C37.0145 65.6211 38.7286 66.2488 40.5 66.2488C42.2714 66.2488 43.9855 65.6211 45.3379 64.4771C46.6904 63.3331 47.5937 61.7469 47.8875 60ZM25.5 68.75V60H28V68.75H25.5ZM24.25 71.25H56.75C57.0815 71.25 57.3995 71.3817 57.6339 71.6161C57.8683 71.8505 58 72.1685 58 72.5V76.25H23V72.5C23 72.1685 23.1317 71.8505 23.3661 71.6161C23.6005 71.3817 23.9185 71.25 24.25 71.25ZM55.5 68.75H53V60H55.5V68.75ZM9.25 73.75C9.2543 70.1046 10.7043 66.6097 13.282 64.032C15.8597 61.4543 19.3546 60.0043 23 60V68.98C22.2714 69.2376 21.6401 69.714 21.1926 70.3441C20.7451 70.9742 20.5032 71.7272 20.5 72.5V76.25H9.25V73.75ZM71.75 73.75V76.25H60.5V72.5C60.4968 71.7272 60.2549 70.9742 59.8074 70.3441C59.3599 69.714 58.7286 69.2376 58 68.98V60C61.6454 60.0043 65.1403 61.4543 67.718 64.032C70.2957 66.6097 71.7457 70.1046 71.75 73.75ZM45.5 58.75C45.5 60.0761 44.9732 61.3479 44.0355 62.2855C43.0979 63.2232 41.8261 63.75 40.5 63.75C39.1739 63.75 37.9021 63.2232 36.9645 62.2855C36.0268 61.3479 35.5 60.0761 35.5 58.75V55.5125C38.7608 56.4959 42.2392 56.4959 45.5 55.5125V58.75Z" fill="#64748B"/>
</g>
</svg>
