<svg width="20" height="20" viewBox="0 0 20 20" fill="none" xmlns="http://www.w3.org/2000/svg">
<path fill-rule="evenodd" clip-rule="evenodd" d="M10 3.25C6.27208 3.25 3.25 6.27208 3.25 10C3.25 10.6879 3.39554 11.3968 3.60732 12.0591L3.61068 12.0696C3.82868 12.7514 3.99647 13.2761 4.11295 13.6722C4.22485 14.0528 4.30981 14.3793 4.33134 14.6349C4.35678 14.9367 4.37001 15.1987 4.33147 15.4736C4.29294 15.7485 4.2082 15.9967 4.10076 16.2799C4.04524 16.4263 3.96923 16.5802 3.8728 16.75H10C13.7279 16.75 16.75 13.7279 16.75 10C16.75 6.27208 13.7279 3.25 10 3.25ZM1.88165 17.0754C1.79861 17.1962 1.75 17.3424 1.75 17.5C1.75 17.9142 2.08579 18.25 2.5 18.25H10C14.5563 18.25 18.25 14.5563 18.25 10C18.25 5.44365 14.5563 1.75 10 1.75C5.44365 1.75 1.75 5.44365 1.75 10C1.75 10.8894 1.9362 11.7579 2.17858 12.5159C2.40063 13.2104 2.56298 13.7183 2.67388 14.0954C2.78994 14.4901 2.82966 14.6781 2.83664 14.7609C2.86071 15.0464 2.85979 15.1669 2.84599 15.2654C2.83219 15.3638 2.79994 15.4799 2.69829 15.7479C2.6164 15.9637 2.42416 16.2616 1.88165 17.0754Z" fill="#0F172A"/>
</svg>
