<svg width="80" height="80" viewBox="0 0 80 80" fill="none" xmlns="http://www.w3.org/2000/svg">
<g id="No item in your shop cart">
<rect width="80" height="80" rx="40" fill="#F0F2FE"/>
<g id="No item in your shop cart_2">
<path id="Vector" d="M58.9848 14.9998H25.6298C23.37 14.9998 21.5381 16.9492 21.5381 19.354V62.5686C21.5381 64.9734 23.37 66.9228 25.6298 66.9228H58.9848C61.2446 66.9228 63.0765 64.9734 63.0765 62.5686V19.354C63.0765 16.9492 61.2446 14.9998 58.9848 14.9998Z" fill="#C2CAFE"/>
<g id="Group 14">
<path id="Vector_2" opacity="0.5" d="M56.5287 12.6919H23.8764C21.9486 12.6919 20.3857 14.2484 20.3857 16.1685V60.5123C20.3857 62.4324 21.9486 63.9889 23.8764 63.9889H56.5287C58.4566 63.9889 60.0194 62.4324 60.0194 60.5123V16.1685C60.0194 14.2484 58.4566 12.6919 56.5287 12.6919Z" fill="#2B41D0" stroke="#2B41D0" stroke-width="0.288462"/>
<path id="Vector_3" d="M54.9543 12.6921H20.4079C18.4837 12.6921 16.9238 14.2457 16.9238 16.1622V60.5581C16.9238 62.4745 18.4837 64.0281 20.4079 64.0281H54.9543C56.8785 64.0281 58.4383 62.4745 58.4383 60.5581V16.1622C58.4383 14.2457 56.8785 12.6921 54.9543 12.6921Z" fill="white" stroke="#5B70F5" stroke-width="0.288462" stroke-miterlimit="10"/>
<path id="Vector_4" opacity="0.5" d="M29.71 51.4341H24.1996C23.453 51.4341 22.8477 52.0369 22.8477 52.7806C22.8477 53.5243 23.453 54.1271 24.1996 54.1271H29.71C30.4567 54.1271 31.062 53.5243 31.062 52.7806C31.062 52.0369 30.4567 51.4341 29.71 51.4341Z" fill="#2B41D0"/>
<path id="Vector_5" d="M47.2493 32.4998H23.5484C23.1614 32.4998 22.8477 32.8115 22.8477 33.1961C22.8477 33.5806 23.1614 33.8924 23.5484 33.8924H47.2493C47.6363 33.8924 47.9501 33.5806 47.9501 33.1961C47.9501 32.8115 47.6363 32.4998 47.2493 32.4998Z" fill="#AAB3EC"/>
<path id="Vector_6" d="M47.2493 35.6248H23.5484C23.1614 35.6248 22.8477 35.9365 22.8477 36.3211C22.8477 36.7056 23.1614 37.0174 23.5484 37.0174H47.2493C47.6363 37.0174 47.9501 36.7056 47.9501 36.3211C47.9501 35.9365 47.6363 35.6248 47.2493 35.6248Z" fill="#AAB3EC"/>
<path id="Vector_7" d="M47.2493 38.7498H23.5484C23.1614 38.7498 22.8477 39.0615 22.8477 39.4461C22.8477 39.8306 23.1614 40.1424 23.5484 40.1424H47.2493C47.6363 40.1424 47.9501 39.8306 47.9501 39.4461C47.9501 39.0615 47.6363 38.7498 47.2493 38.7498Z" fill="#AAB3EC"/>
<path id="Vector_8" d="M37.0987 41.8748H23.5263C23.3047 41.8748 23.125 42.1546 23.125 42.4998C23.125 42.8449 23.3047 43.1248 23.5263 43.1248H37.0987C37.3203 43.1248 37.5 42.8449 37.5 42.4998C37.5 42.1546 37.3203 41.8748 37.0987 41.8748Z" fill="#AAB3EC"/>
</g>
</g>
<g id="Create">
<path id="Vector_9" d="M56.9228 68.0768C61.1711 68.0768 64.6151 64.6328 64.6151 60.3844C64.6151 56.1361 61.1711 52.6921 56.9228 52.6921C52.6744 52.6921 49.2305 56.1361 49.2305 60.3844C49.2305 64.6328 52.6744 68.0768 56.9228 68.0768Z" fill="#0BA98A"/>
</g>
<path id="Vector_10" d="M51.5381 61.1232L52.8689 59.5847C54.0073 60.2232 55.0381 61.0001 55.8804 62.0232C57.1458 59.8424 58.6458 58.0309 60.3496 56.5386L62.3804 57.9617C60.2996 59.1001 57.3304 62.5501 56.0458 64.5617C54.465 63.0078 52.9458 61.7732 51.5419 61.1232H51.5381Z" fill="white"/>
<rect id="Rectangle 4644" x="23.125" y="18.75" width="11.875" height="10.625" rx="0.625" fill="#AAB3EC"/>
</g>
</svg>
