<svg width="80" height="80" viewBox="0 0 80 80" fill="none" xmlns="http://www.w3.org/2000/svg">
<g id="No item in your shop cart">
<rect width="80" height="80" rx="40" fill="#F0F2FE"/>
<g id="No item in your shop cart_2">
<path id="Vector" d="M58.937 15H25.582C23.3222 15 21.4902 16.9495 21.4902 19.3543V62.5688C21.4902 64.9736 23.3222 66.9231 25.582 66.9231H58.937C61.1968 66.9231 63.0287 64.9736 63.0287 62.5688V19.3543C63.0287 16.9495 61.1968 15 58.937 15Z" fill="#C2CAFE"/>
<g id="Group 14">
<path id="Vector_2" opacity="0.5" d="M56.4789 12.6924H23.8266C21.8988 12.6924 20.3359 14.2489 20.3359 16.169V60.5128C20.3359 62.4328 21.8988 63.9894 23.8266 63.9894H56.4789C58.4068 63.9894 59.9696 62.4328 59.9696 60.5128V16.169C59.9696 14.2489 58.4068 12.6924 56.4789 12.6924Z" fill="#2B41D0" stroke="#2B41D0" stroke-width="0.288462"/>
<path id="Vector_3" d="M54.9055 12.6924H20.3591C18.4349 12.6924 16.875 14.246 16.875 16.1624V60.5583C16.875 62.4748 18.4349 64.0284 20.3591 64.0284H54.9055C56.8296 64.0284 58.3895 62.4748 58.3895 60.5583V16.1624C58.3895 14.246 56.8296 12.6924 54.9055 12.6924Z" fill="white" stroke="#2B1694" stroke-width="0.288462" stroke-miterlimit="10"/>
<path id="Vector_4" opacity="0.5" d="M29.6612 51.4343H24.1508C23.4041 51.4343 22.7988 52.0372 22.7988 52.7809C22.7988 53.5245 23.4041 54.1274 24.1508 54.1274H29.6612C30.4078 54.1274 31.0131 53.5245 31.0131 52.7809C31.0131 52.0372 30.4078 51.4343 29.6612 51.4343Z" fill="#2B41D0"/>
<path id="Vector_5" d="M47.2005 32.5H23.4996C23.1126 32.5 22.7988 32.8118 22.7988 33.1963C22.7988 33.5809 23.1126 33.8926 23.4996 33.8926H47.2005C47.5875 33.8926 47.9012 33.5809 47.9012 33.1963C47.9012 32.8118 47.5875 32.5 47.2005 32.5Z" fill="#AAB3EC"/>
<path id="Vector_6" d="M47.2005 35.625H23.4996C23.1126 35.625 22.7988 35.9368 22.7988 36.3213C22.7988 36.7059 23.1126 37.0176 23.4996 37.0176H47.2005C47.5875 37.0176 47.9012 36.7059 47.9012 36.3213C47.9012 35.9368 47.5875 35.625 47.2005 35.625Z" fill="#AAB3EC"/>
<path id="Vector_7" d="M47.2005 38.75H23.4996C23.1126 38.75 22.7988 39.0618 22.7988 39.4463C22.7988 39.8309 23.1126 40.1426 23.4996 40.1426H47.2005C47.5875 40.1426 47.9012 39.8309 47.9012 39.4463C47.9012 39.0618 47.5875 38.75 47.2005 38.75Z" fill="#AAB3EC"/>
<path id="Vector_8" d="M37.0499 41.875H23.4775C23.2558 41.875 23.0762 42.1548 23.0762 42.5C23.0762 42.8452 23.2558 43.125 23.4775 43.125H37.0499C37.2715 43.125 37.4512 42.8452 37.4512 42.5C37.4512 42.1548 37.2715 41.875 37.0499 41.875Z" fill="#AAB3EC"/>
</g>
</g>
<rect id="Rectangle 4644" x="23.125" y="18.75" width="11.875" height="10.625" rx="0.625" fill="#AAB3EC"/>
</g>
</svg>
