<svg width="20" height="20" viewBox="0 0 20 20" fill="none" xmlns="http://www.w3.org/2000/svg">
<g id="icons / 20 / container">
<path id="container" fill-rule="evenodd" clip-rule="evenodd" d="M10.9166 3.25437C10.7039 3.25083 10.4505 3.25007 10.1428 3.25007H10.0591C8.67666 3.25007 7.71258 3.25156 6.98266 3.34631C6.27277 3.43847 5.89337 3.6074 5.62089 3.86496C5.59023 3.89395 5.56038 3.92379 5.5314 3.95446C5.27384 4.22693 5.1049 4.60633 5.01275 5.31623C4.91799 6.04615 4.9165 7.01023 4.9165 8.39263V11.6667C4.9165 13.02 4.91793 13.9637 5.00903 14.6796C5.09768 15.3762 5.26037 15.7503 5.50763 16.0201C5.55185 16.0684 5.59816 16.1147 5.64643 16.1589C5.91627 16.4062 6.2904 16.5689 6.98703 16.6575C7.70286 16.7486 8.64658 16.7501 9.99984 16.7501C11.3531 16.7501 12.2968 16.7486 13.0127 16.6575C13.7093 16.5689 14.0834 16.4062 14.3532 16.1589C14.4015 16.1147 14.4478 16.0684 14.492 16.0201C14.7393 15.7503 14.902 15.3762 14.9907 14.6795C15.0817 13.9637 15.0832 13.02 15.0832 11.6667V8.19043C15.0832 7.8828 15.0824 7.62943 15.0789 7.41669C14.4239 7.41583 13.8678 7.40897 13.4101 7.35487C12.8592 7.28976 12.3543 7.14741 11.9219 6.79259C11.7827 6.67831 11.655 6.55063 11.5407 6.41139C11.1859 5.97903 11.0436 5.47409 10.9784 4.9232C10.9243 4.46554 10.9175 3.90941 10.9166 3.25437ZM12.418 3.57888C12.4213 4.07132 12.4323 4.44423 12.4681 4.74712C12.5164 5.1564 12.6011 5.33898 12.7002 5.4598C12.7522 5.52309 12.8102 5.58113 12.8735 5.63307C12.9943 5.73222 13.1769 5.81687 13.5862 5.86525C13.8891 5.90105 14.262 5.912 14.7544 5.91535C14.5785 5.6487 14.2753 5.33616 13.6362 4.69707C12.9971 4.05803 12.6846 3.75479 12.418 3.57888ZM14.6968 3.63641L14.6065 3.54598C13.9173 2.85627 13.439 2.37753 12.8315 2.09652C12.7395 2.05397 12.6458 2.01518 12.5507 1.98022C11.9224 1.74933 11.2456 1.74962 10.2707 1.75003L10.1428 1.75007H10.0591L10.0063 1.75007C8.68911 1.75005 7.62733 1.75004 6.78956 1.85879C5.92061 1.9716 5.18533 2.2126 4.59048 2.77489C4.53937 2.8232 4.48964 2.87294 4.44133 2.92405C3.87903 3.5189 3.63803 4.25417 3.52523 5.12312C3.41647 5.96089 3.41649 7.02267 3.4165 8.33986L3.4165 8.39263V11.6667L3.4165 11.7183C3.41649 13.0078 3.41647 14.0473 3.52103 14.8689C3.62942 15.7206 3.86081 16.4432 4.40171 17.0335C4.47542 17.114 4.5526 17.1912 4.63304 17.2649C5.22334 17.8058 5.94593 18.0372 6.79766 18.1455C7.61925 18.2501 8.65873 18.2501 9.9482 18.2501H9.99984H10.0515C11.3409 18.2501 12.3804 18.2501 13.202 18.1455C14.0537 18.0372 14.7763 17.8058 15.3666 17.2649C15.4471 17.1912 15.5243 17.114 15.598 17.0335C16.1389 16.4432 16.3703 15.7206 16.4787 14.8689C16.5832 14.0473 16.5832 13.0078 16.5832 11.7184V11.6667V8.19043L16.5832 8.06258C16.5836 7.08759 16.5839 6.41085 16.353 5.78255C16.3181 5.68742 16.2793 5.59375 16.2367 5.50177C15.9557 4.89423 15.477 4.4159 14.7873 3.72677L14.6968 3.63641ZM9.99983 8.41685C10.1987 8.41685 10.3895 8.49587 10.5302 8.63652L12.6135 10.7199C12.9064 11.0128 12.9064 11.4876 12.6135 11.7805C12.3206 12.0734 11.8457 12.0734 11.5528 11.7805L10.7498 10.9775V14.1669C10.7498 14.5811 10.414 14.9169 9.99983 14.9169C9.58562 14.9169 9.24983 14.5811 9.24983 14.1669V10.9775L8.44683 11.7805C8.15394 12.0734 7.67906 12.0734 7.38617 11.7805C7.09328 11.4876 7.09328 11.0128 7.38617 10.7199L9.4695 8.63652C9.61015 8.49587 9.80092 8.41685 9.99983 8.41685Z" fill="#2B1694"/>
</g>
</svg>
