<svg width="28" height="28" viewBox="0 0 28 28" fill="none" xmlns="http://www.w3.org/2000/svg">
<g id="icons / 20 / container">
<path id="container" fill-rule="evenodd" clip-rule="evenodd" d="M11.4268 2.5L11.5 2.5H14C14.5523 2.5 15 2.94772 15 3.5C15 4.05229 14.5523 4.5 14 4.5H11.5C9.58611 4.5 8.2513 4.50213 7.24416 4.63753C6.26579 4.76907 5.7477 5.00966 5.37868 5.37868C5.00966 5.7477 4.76907 6.26579 4.63753 7.24416C4.50213 8.2513 4.5 9.58611 4.5 11.5V16.5C4.5 17.8152 4.501 18.857 4.54558 19.7069L5.12623 19.1262L7.5478 16.7047L7.59435 16.6581L7.59436 16.6581L7.59437 16.6581C8.22117 16.0312 8.76123 15.4911 9.25188 15.1167C9.77772 14.7155 10.3626 14.4118 11.0833 14.4118C11.8041 14.4118 12.3889 14.7155 12.9148 15.1167C13.4054 15.4911 13.9455 16.0312 14.5723 16.6581L14.6189 16.7047L16.3333 18.4191L16.3444 18.4081L16.3444 18.4081C16.9712 17.7812 17.5112 17.2411 18.0019 16.8667C18.5277 16.4655 19.1126 16.1618 19.8333 16.1618C20.5541 16.1618 21.139 16.4655 21.6648 16.8667C22.1554 17.2411 22.6955 17.7812 23.3222 18.408L23.3223 18.4081L23.3223 18.4081L23.3689 18.4547L23.4899 18.5757C23.4996 17.9693 23.5 17.2831 23.5 16.5V14C23.5 13.4477 23.9477 13 24.5 13C25.0523 13 25.5 13.4477 25.5 14V16.5V16.5731C25.5 18.3966 25.5001 19.8664 25.3446 21.0223C25.1833 22.2225 24.8381 23.233 24.0355 24.0355C23.233 24.8381 22.2225 25.1833 21.0223 25.3446C19.8664 25.5001 18.3966 25.5 16.5731 25.5H16.5H11.5H11.4269C9.6034 25.5 8.13363 25.5001 6.97767 25.3446C5.77752 25.1833 4.76702 24.8381 3.96447 24.0355C3.16191 23.233 2.81672 22.2225 2.65537 21.0223C2.49995 19.8664 2.49997 18.3966 2.5 16.5732L2.5 16.5V11.5L2.5 11.4268C2.49997 9.60338 2.49995 8.13362 2.65537 6.97767C2.81672 5.77752 3.16191 4.76702 3.96447 3.96447C4.76702 3.16191 5.77752 2.81672 6.97767 2.65537C8.13362 2.49995 9.60338 2.49997 11.4268 2.5ZM5.37868 22.6213C5.23071 22.4733 5.10338 22.3014 4.99546 22.0854L6.54044 20.5404L8.96201 18.1189C9.64867 17.4322 10.094 16.9899 10.465 16.7068C10.813 16.4413 10.9757 16.4118 11.0833 16.4118C11.191 16.4118 11.3537 16.4413 11.7016 16.7068C12.0726 16.9899 12.518 17.4322 13.2047 18.1189L15.6262 20.5404L18.5757 23.4899C17.9693 23.4996 17.2831 23.5 16.5 23.5H11.5C9.58611 23.5 8.2513 23.4979 7.24416 23.3625C6.26579 23.2309 5.7477 22.9903 5.37868 22.6213ZM22.6213 22.6213C22.312 22.9306 21.898 23.1497 21.196 23.29C21.1736 23.2622 21.1496 23.2353 21.1238 23.2096L17.7476 19.8333C18.4141 19.1669 18.8505 18.7349 19.215 18.4568C19.563 18.1913 19.7257 18.1618 19.8333 18.1618C19.941 18.1618 20.1037 18.1913 20.4516 18.4568C20.8226 18.7399 21.268 19.1822 21.9547 19.8689L23.2096 21.1238C23.2353 21.1496 23.2622 21.1736 23.29 21.196C23.1497 21.898 22.9306 22.312 22.6213 22.6213ZM21.7071 2.7929C21.5196 2.60536 21.2652 2.5 21 2.5C20.7348 2.5 20.4804 2.60536 20.2929 2.7929L17.3762 5.70956C16.9857 6.10009 16.9857 6.73325 17.3762 7.12378C17.7668 7.5143 18.3999 7.5143 18.7904 7.12378L20 5.91422V10.5C20 11.0523 20.4477 11.5 21 11.5C21.5523 11.5 22 11.0523 22 10.5V5.91422L23.2096 7.12378C23.6001 7.5143 24.2332 7.5143 24.6238 7.12378C25.0143 6.73325 25.0143 6.10009 24.6238 5.70956L21.7071 2.7929Z" fill="#2B1694"/>
</g>
</svg>
