<svg width="80" height="80" viewBox="0 0 80 80" fill="none" xmlns="http://www.w3.org/2000/svg">
<g id="No item in your shop cart">
<rect width="80" height="80" rx="40" fill="#EBF8F6"/>
<g id="Create">
<path id="Vector" d="M40 61.25C51.736 61.25 61.25 51.7361 61.25 40C61.25 28.264 51.736 18.75 40 18.75C28.2639 18.75 18.75 28.264 18.75 40C18.75 51.7361 28.2639 61.25 40 61.25Z" fill="#0BA98A"/>
<path id="Vector_2" d="M25.124 42.04L28.8003 37.79C31.9453 39.5538 34.7928 41.7 37.1196 44.5262C40.6153 38.5019 44.759 33.4975 49.4659 29.375L55.0759 33.3063C49.3278 36.4513 41.1253 45.9819 37.5765 51.5387C33.2096 47.2462 29.0128 43.8356 25.1346 42.04H25.124Z" fill="white"/>
</g>
</g>
</svg>
