<svg width="20" height="20" viewBox="0 0 20 20" fill="none" xmlns="http://www.w3.org/2000/svg">
<g id="icons / 20 / container">
<path id="container" fill-rule="evenodd" clip-rule="evenodd" d="M14.2804 4.28026C14.6779 3.88281 15.3223 3.88282 15.7197 4.28028C16.1172 4.67773 16.1172 5.32211 15.7197 5.71956L15.0835 6.35578C14.2964 6.3469 13.6531 5.70359 13.6442 4.91653L14.2804 4.28026ZM12.395 4.0444C12.3889 4.05029 12.3829 4.05628 12.377 4.06238L5.20322 11.2361L5.12967 11.3096C4.42131 12.0177 3.96383 12.475 3.64507 13.0379C3.32632 13.6009 3.16956 14.2285 2.92683 15.2002L2.90162 15.3011L2.60572 16.4847C2.54183 16.7403 2.61671 17.0106 2.803 17.1969C2.98928 17.3832 3.25965 17.4581 3.51523 17.3942L4.69885 17.0983L4.79974 17.0731C5.77145 16.8304 6.39901 16.6736 6.96198 16.3549C7.52496 16.0361 7.98225 15.5786 8.69033 14.8703L8.76385 14.7967L15.9408 7.61979C15.9447 7.61598 15.9486 7.61212 15.9524 7.60823L16.7804 6.78022C17.7636 5.797 17.7636 4.20289 16.7804 3.21964C15.7972 2.23638 14.203 2.23635 13.2198 3.21959L12.395 4.0444ZM13.8574 7.58185L7.70319 13.7361C6.89643 14.5428 6.58702 14.8434 6.22294 15.0496C5.86205 15.2539 5.44925 15.3644 4.36411 15.6358C4.63551 14.5507 4.74604 14.1379 4.95037 13.777C5.15652 13.4129 5.4571 13.1035 6.26387 12.2967L12.4181 6.14257C12.713 6.7745 13.2255 7.28701 13.8574 7.58185Z" fill="#94A3B8"/>
</g>
</svg>
