<svg xmlns="http://www.w3.org/2000/svg" width="20" height="20" viewBox="0 0 20 20" fill="none">
    <path fill-rule="evenodd" clip-rule="evenodd" d="M10.0005 3.25C6.27263 3.25 3.25055 6.27208 3.25055 10C3.25055 10.6879 3.39609 11.3968 3.60787 12.0591L3.61123 12.0696C3.82923 12.7514 3.99702 13.2761 4.1135 13.6722C4.2254 14.0528 4.31036 14.3793 4.33189 14.6349C4.35733 14.9367 4.37056 15.1987 4.33202 15.4736C4.29349 15.7485 4.20875 15.9967 4.10131 16.2799C4.04579 16.4263 3.96978 16.5802 3.87334 16.75H10.0005C13.7285 16.75 16.7505 13.7279 16.7505 10C16.7505 6.27208 13.7285 3.25 10.0005 3.25ZM1.8822 17.0754C1.79916 17.1962 1.75055 17.3424 1.75055 17.5C1.75055 17.9142 2.08634 18.25 2.50055 18.25H10.0005C14.5569 18.25 18.2505 14.5563 18.2505 10C18.2505 5.44365 14.5569 1.75 10.0005 1.75C5.4442 1.75 1.75055 5.44365 1.75055 10C1.75055 10.8894 1.93675 11.7579 2.17913 12.5159C2.40118 13.2104 2.56353 13.7183 2.67442 14.0954C2.79049 14.4901 2.83021 14.6781 2.83719 14.7609C2.86125 15.0464 2.86034 15.1669 2.84654 15.2654C2.83274 15.3638 2.80049 15.4799 2.69884 15.7479C2.61695 15.9637 2.42471 16.2616 1.8822 17.0754Z" fill="#2B1694"/>
</svg>