<svg width="20" height="20" viewBox="0 0 20 20" fill="none" xmlns="http://www.w3.org/2000/svg">
<g id="icons / 24 / container">
<path id="Union" fill-rule="evenodd" clip-rule="evenodd" d="M14.1839 3.45926C13.175 2.45041 11.5393 2.45041 10.5305 3.45927L4.63793 9.35182C2.9782 11.0115 2.9782 13.7025 4.63793 15.3622C6.29766 17.022 8.98861 17.022 10.6483 15.3622L17.1301 8.88042C17.423 8.58752 17.8979 8.58752 18.1908 8.88042C18.4837 9.17331 18.4837 9.64818 18.1908 9.94108L11.709 16.4229C9.46348 18.6684 5.82278 18.6684 3.57727 16.4229C1.33175 14.1774 1.33175 10.5367 3.57727 8.29116L9.46982 2.39861C11.0645 0.803964 13.6499 0.803963 15.2445 2.3986C16.8392 3.99325 16.8392 6.57867 15.2445 8.17331L9.35197 14.0659C8.40821 15.0096 6.87806 15.0096 5.93429 14.0659C4.99052 13.1221 4.99052 11.592 5.93429 10.6482L11.8268 4.75563C12.1197 4.46273 12.5946 4.46273 12.8875 4.75563C13.1804 5.04852 13.1804 5.52339 12.8875 5.81629L6.99495 11.7088C6.63697 12.0668 6.63697 12.6472 6.99495 13.0052C7.35293 13.3632 7.93333 13.3632 8.29131 13.0052L14.1839 7.11265C15.1927 6.1038 15.1927 4.46812 14.1839 3.45926Z" fill="#64748B"/>
</g>
</svg>
