<svg width="20" height="20" viewBox="0 0 20 20" fill="none" xmlns="http://www.w3.org/2000/svg">
<g id="Image - 3">
<path id="Union" fill-rule="evenodd" clip-rule="evenodd" d="M9.95109 1.75H10H10.0489C11.6512 1.74999 12.9205 1.74998 13.9248 1.86868C14.9557 1.99055 15.8044 2.24638 16.5134 2.8282C16.7539 3.02558 16.9744 3.24612 17.1718 3.48663C17.7536 4.19558 18.0095 5.04428 18.1313 6.07525C18.25 7.07947 18.25 8.34883 18.25 9.95109V10V10.0489C18.25 11.6512 18.25 12.9205 18.1313 13.9248C18.0095 14.9557 17.7536 15.8044 17.1718 16.5134C16.9744 16.7539 16.7539 16.9744 16.5134 17.1718C15.8044 17.7536 14.9557 18.0095 13.9248 18.1313C12.9205 18.25 11.6512 18.25 10.0489 18.25H10H9.95109C8.34883 18.25 7.07947 18.25 6.07525 18.1313C5.04428 18.0095 4.19558 17.7536 3.48663 17.1718C3.24612 16.9744 3.02558 16.7539 2.8282 16.5134C2.70378 16.3618 2.59427 16.2038 2.49778 16.039C2.45848 16.0124 2.42112 15.9818 2.38634 15.947C2.21735 15.778 2.14586 15.5484 2.17187 15.3282C2.02234 14.9017 1.92906 14.4356 1.86868 13.9248C1.74998 12.9205 1.74999 11.6512 1.75 10.0489V10V9.95109C1.74999 8.34883 1.74998 7.07947 1.86868 6.07525C1.99055 5.04428 2.24638 4.19558 2.8282 3.48663C3.02558 3.24612 3.24612 3.02558 3.48663 2.8282C4.19558 2.24638 5.04428 1.99055 6.07525 1.86868C7.07947 1.74998 8.34883 1.74999 9.95109 1.75ZM3.91963 15.4744C3.94168 15.5042 3.96437 15.5333 3.98772 15.5618C4.12277 15.7263 4.27366 15.8772 4.43822 16.0123C4.83563 16.3384 5.36197 16.5366 6.25133 16.6417C7.15724 16.7488 8.33789 16.75 10 16.75C11.3109 16.75 12.3224 16.7492 13.1357 16.6964L11.1363 14.697L10.2148 13.7754C9.53311 13.0938 9.07409 12.637 8.68661 12.3414C8.31643 12.0589 8.10096 11.9951 7.91667 11.9951C7.73237 11.9951 7.5169 12.0589 7.14673 12.3414C6.75925 12.637 6.30023 13.0938 5.61857 13.7754L4.697 14.697L3.91963 15.4744ZM14.935 16.3743C15.1831 16.2769 15.3852 16.1572 15.5618 16.0123C15.7263 15.8772 15.8772 15.7263 16.0123 15.5618C16.1572 15.3852 16.2769 15.1831 16.3743 14.935L16.1363 14.697C15.6165 14.1772 15.2668 13.8288 14.9734 13.5908C14.6903 13.361 14.5252 13.2901 14.3934 13.2658C14.2435 13.2382 14.0898 13.2382 13.9399 13.2658C13.8082 13.2901 13.6431 13.361 13.3599 13.5908C13.1797 13.737 12.9782 13.9248 12.7291 14.1685L14.935 16.3743ZM16.6962 13.1383C16.4114 12.8587 16.1556 12.6183 15.9186 12.426C15.5403 12.1191 15.1454 11.8792 14.6655 11.7907C14.3357 11.7299 13.9976 11.7299 13.6679 11.7907C13.188 11.8792 12.793 12.1191 12.4147 12.426C12.1864 12.6113 11.9407 12.8412 11.6683 13.1077L11.2754 12.7148L11.2387 12.678C10.6034 12.0427 10.0736 11.5129 9.59648 11.1488C9.09288 10.7646 8.5608 10.4951 7.91667 10.4951C7.27254 10.4951 6.74046 10.7646 6.23686 11.1488C5.75974 11.5129 5.22998 12.0427 4.59468 12.678L4.55791 12.7148L3.63634 13.6363L3.37699 13.8957C3.37046 13.8478 3.36424 13.7988 3.35831 13.7487C3.25123 12.8428 3.25 11.6621 3.25 10C3.25 8.33789 3.25123 7.15724 3.35831 6.25133C3.46344 5.36197 3.66158 4.83563 3.98772 4.43822C4.12277 4.27366 4.27366 4.12277 4.43822 3.98772C4.83563 3.66158 5.36197 3.46344 6.25133 3.35831C7.15724 3.25123 8.33789 3.25 10 3.25C11.6621 3.25 12.8428 3.25123 13.7487 3.35831C14.638 3.46344 15.1644 3.66158 15.5618 3.98772C15.7263 4.12277 15.8772 4.27366 16.0123 4.43822C16.3384 4.83563 16.5366 5.36197 16.6417 6.25133C16.7488 7.15724 16.75 8.33789 16.75 10C16.75 11.3123 16.7492 12.3245 16.6962 13.1383ZM12.5 6.58333C11.9937 6.58333 11.5833 6.99374 11.5833 7.5C11.5833 8.00626 11.9937 8.41667 12.5 8.41667C13.0063 8.41667 13.4167 8.00626 13.4167 7.5C13.4167 6.99374 13.0063 6.58333 12.5 6.58333ZM10.0833 7.5C10.0833 6.16531 11.1653 5.08333 12.5 5.08333C13.8347 5.08333 14.9167 6.16531 14.9167 7.5C14.9167 8.83469 13.8347 9.91667 12.5 9.91667C11.1653 9.91667 10.0833 8.83469 10.0833 7.5Z" fill="#64748B"/>
</g>
</svg>
