<svg xmlns="http://www.w3.org/2000/svg" width="20" height="20" viewBox="0 0 20 20" fill="none">
  <path fill-rule="evenodd" clip-rule="evenodd" d="M3.03066 1.96967C2.73776 1.67678 2.26289 1.67678 1.97 1.96967C1.6771 2.26256 1.6771 2.73744 1.97 3.03033L4.08621 5.14654C3.11252 5.82239 2.37594 6.62092 1.86034 7.40058C1.25842 8.31076 0.916992 9.25931 0.916992 9.9998C0.916992 10.5781 1.12497 11.2723 1.48358 11.9608C1.84918 12.6628 2.39699 13.4091 3.13745 14.0926C4.62736 15.4679 6.89134 16.5831 10.0003 16.5831C11.7964 16.5831 13.3145 16.2109 14.5663 15.6267L16.97 18.0303C17.2629 18.3232 17.7378 18.3232 18.0307 18.0303C18.3235 17.7374 18.3235 17.2626 18.0307 16.9697L3.03066 1.96967ZM13.4233 14.4837L11.7064 12.7668C11.2105 13.0731 10.6256 13.2502 10.0003 13.2502C8.2054 13.2502 6.75033 11.7951 6.75033 10.0002C6.75033 9.37493 6.92745 8.79002 7.23377 8.2941L5.16758 6.22791C4.24225 6.82155 3.56443 7.5431 3.1115 8.22799C2.60251 8.99764 2.41699 9.65816 2.41699 9.9998C2.41699 10.2549 2.52151 10.7065 2.81395 11.2679C3.09938 11.816 3.54117 12.4239 4.15487 12.9904C5.37329 14.1151 7.27598 15.0831 10.0003 15.0831C11.3358 15.0831 12.471 14.8506 13.4233 14.4837ZM8.35149 9.41182C8.28594 9.59557 8.25033 9.79354 8.25033 10.0002C8.25033 10.9667 9.03383 11.7502 10.0003 11.7502C10.207 11.7502 10.405 11.7146 10.5887 11.649L8.35149 9.41182ZM10.0003 4.91646C9.14257 4.91646 8.36855 5.01243 7.67363 5.17747C7.27063 5.27319 6.86634 5.02408 6.77062 4.62108C6.67491 4.21807 6.92402 3.81378 7.32702 3.71807C8.13933 3.52514 9.02985 3.41646 10.0003 3.41646C13.1093 3.41646 15.3733 4.53173 16.8632 5.90703C17.6037 6.59053 18.1515 7.3368 18.5171 8.03876C18.8757 8.72729 19.0837 9.42154 19.0837 9.9998C19.0837 11.0531 18.3909 12.5783 17.1012 13.8642C16.8079 14.1567 16.333 14.156 16.0406 13.8627C15.7481 13.5694 15.7488 13.0945 16.0421 12.802C17.1603 11.6871 17.5837 10.5214 17.5837 9.9998C17.5837 9.74472 17.4791 9.29314 17.1867 8.73166C16.9013 8.18363 16.4595 7.57573 15.8458 7.00923C14.6274 5.88453 12.7247 4.91646 10.0003 4.91646Z" fill="#0F172A"/>
</svg>