<svg width="20" height="20" viewBox="0 0 20 20" fill="none" xmlns="http://www.w3.org/2000/svg">
<path fill-rule="evenodd" clip-rule="evenodd" d="M8.33335 2.58325L8.29656 2.58325C7.08159 2.58325 6.11881 2.58324 5.34578 2.6533C4.55466 2.725 3.88896 2.87479 3.29169 3.21963C2.5696 3.63653 1.96997 4.23616 1.55307 4.95825C1.20823 5.55553 1.05844 6.22123 0.986736 7.01235C0.916674 7.78537 0.91668 8.74815 0.916687 9.96313L0.916687 9.99992L0.916687 10.0367C0.91668 11.2517 0.916674 12.2145 0.986736 12.9875C1.05844 13.7786 1.20823 14.4443 1.55307 15.0416C1.96997 15.7637 2.5696 16.3633 3.29169 16.7802C3.88896 17.125 4.55466 17.2748 5.34578 17.3465C6.11881 17.4166 7.0816 17.4166 8.29659 17.4166H8.33336H11.6667H11.7035C12.9184 17.4166 13.8812 17.4166 14.6543 17.3465C15.4454 17.2748 16.1111 17.125 16.7084 16.7802C17.4304 16.3633 18.0301 15.7637 18.447 15.0416C18.7918 14.4443 18.9416 13.7786 19.0133 12.9875C19.0834 12.2145 19.0834 11.2517 19.0834 10.0367V9.99992V9.9631C19.0834 8.74814 19.0834 7.78537 19.0133 7.01235C18.9416 6.22123 18.7918 5.55553 18.447 4.95825C18.0301 4.23616 17.4304 3.63653 16.7084 3.21963C16.1111 2.87479 15.4454 2.725 14.6543 2.6533C13.8812 2.58324 12.9185 2.58325 11.7035 2.58325L11.6667 2.58325H8.33335ZM4.04169 4.51867C4.37261 4.32761 4.79409 4.20945 5.48118 4.14718C6.17857 4.08397 7.0734 4.08325 8.33335 4.08325H11.6667C12.9266 4.08325 13.8215 4.08397 14.5189 4.14718C15.2059 4.20945 15.6274 4.32761 15.9584 4.51867C16.4524 4.80392 16.8627 5.21419 17.1479 5.70825C17.339 6.03918 17.4572 6.46066 17.5194 7.14774C17.5826 7.84514 17.5834 8.73996 17.5834 9.99992C17.5834 11.2599 17.5826 12.1547 17.5194 12.8521C17.4572 13.5392 17.339 13.9607 17.1479 14.2916C16.8627 14.7856 16.4524 15.1959 15.9584 15.4812C15.6274 15.6722 15.2059 15.7904 14.5189 15.8527C13.8215 15.9159 12.9266 15.9166 11.6667 15.9166H8.33336C7.0734 15.9166 6.17858 15.9159 5.48118 15.8527C4.79409 15.7904 4.37261 15.6722 4.04169 15.4812C3.54762 15.1959 3.13735 14.7856 2.8521 14.2916C2.66104 13.9607 2.54289 13.5392 2.48061 12.8521C2.41741 12.1547 2.41669 11.2599 2.41669 9.99992C2.41669 8.73996 2.41741 7.84514 2.48061 7.14774C2.54289 6.46066 2.66104 6.03918 2.8521 5.70825C3.13735 5.21419 3.54762 4.80392 4.04169 4.51867ZM5.41605 6.04255C5.0714 5.81278 4.60575 5.90591 4.37598 6.25056C4.14622 6.59521 4.23935 7.06086 4.584 7.29062L9.584 10.624C9.83592 10.7919 10.1641 10.7919 10.416 10.624L15.416 7.29062C15.7607 7.06086 15.8538 6.59521 15.6241 6.25056C15.3943 5.90591 14.9286 5.81278 14.584 6.04255L10 9.09853L5.41605 6.04255Z" fill="#64748B"/>
</svg>
