<svg width="20" height="20" viewBox="0 0 20 20" fill="none" xmlns="http://www.w3.org/2000/svg">
<path fill-rule="evenodd" clip-rule="evenodd" d="M2.41663 10.0003C2.41663 9.74525 2.52115 9.29367 2.81358 8.73219C3.09902 8.18415 3.5408 7.57626 4.1545 7.00976C5.37293 5.88506 7.27561 4.91699 9.99996 4.91699C12.7243 4.91699 14.627 5.88506 15.8454 7.00976C16.4591 7.57626 16.9009 8.18415 17.1863 8.73219C17.4788 9.29367 17.5833 9.74525 17.5833 10.0003C17.5833 10.2554 17.4788 10.707 17.1863 11.2685C16.9009 11.8165 16.4591 12.4244 15.8454 12.9909C14.627 14.1156 12.7243 15.0837 9.99996 15.0837C7.27561 15.0837 5.37293 14.1156 4.1545 12.9909C3.5408 12.4244 3.09902 11.8165 2.81358 11.2685C2.52115 10.707 2.41663 10.2554 2.41663 10.0003ZM9.99996 3.41699C6.89097 3.41699 4.62699 4.53226 3.13708 5.90756C2.39662 6.59106 1.84882 7.33733 1.48321 8.03929C1.1246 8.72782 0.916626 9.42207 0.916626 10.0003C0.916626 10.5786 1.1246 11.2728 1.48321 11.9614C1.84882 12.6633 2.39662 13.4096 3.13708 14.0931C4.62699 15.4684 6.89097 16.5837 9.99996 16.5837C13.1089 16.5837 15.3729 15.4684 16.8628 14.0931C17.6033 13.4096 18.1511 12.6633 18.5167 11.9614C18.8753 11.2728 19.0833 10.5786 19.0833 10.0003C19.0833 9.42207 18.8753 8.72782 18.5167 8.03929C18.1511 7.33733 17.6033 6.59106 16.8628 5.90756C15.3729 4.53226 13.1089 3.41699 9.99996 3.41699ZM8.24986 10.0005C8.24986 9.03398 9.03336 8.25048 9.99986 8.25048C10.9664 8.25048 11.7499 9.03398 11.7499 10.0005C11.7499 10.967 10.9664 11.7505 9.99986 11.7505C9.03336 11.7505 8.24986 10.967 8.24986 10.0005ZM9.99986 6.75048C8.20493 6.75048 6.74986 8.20555 6.74986 10.0005C6.74986 11.7954 8.20493 13.2505 9.99986 13.2505C11.7948 13.2505 13.2499 11.7954 13.2499 10.0005C13.2499 8.20555 11.7948 6.75048 9.99986 6.75048Z" fill="#0F172A"/>
</svg>
