<svg width="24" height="24" viewBox="0 0 24 24" fill="none" xmlns="http://www.w3.org/2000/svg">
<path fill-rule="evenodd" clip-rule="evenodd" d="M12.0001 2.2417C11.0768 2.2417 10.4033 2.79752 9.82709 3.52157C9.26349 4.22977 8.66372 5.26578 7.92199 6.547L7.88928 6.60351L3.82707 13.62L3.79432 13.6766C3.04978 14.9626 2.44788 16.0022 2.11333 16.8461C1.77141 17.7086 1.62431 18.5718 2.08656 19.3735C2.5488 20.1753 3.36953 20.4805 4.28727 20.6167C5.18526 20.75 6.38653 20.75 7.8725 20.75H7.93784H16.0623H16.1276C17.6136 20.75 18.8148 20.75 19.7128 20.6167C20.6306 20.4805 21.4513 20.1753 21.9136 19.3735C22.3758 18.5718 22.2287 17.7086 21.8868 16.8461C21.5522 16.0022 20.9503 14.9626 20.2058 13.6766L20.2058 13.6766L20.173 13.62L16.1108 6.6035L16.0781 6.547C15.3364 5.26578 14.7366 4.22977 14.173 3.52157C13.5968 2.79752 12.9233 2.2417 12.0001 2.2417ZM12.75 8.99999C12.75 8.58578 12.4142 8.24999 12 8.24999C11.5858 8.24999 11.25 8.58578 11.25 8.99999V13C11.25 13.4142 11.5858 13.75 12 13.75C12.4142 13.75 12.75 13.4142 12.75 13V8.99999ZM12.9999 16C12.9999 16.5523 12.5522 17 11.9999 17C11.4476 17 10.9999 16.5523 10.9999 16C10.9999 15.4477 11.4476 15 11.9999 15C12.5522 15 12.9999 15.4477 12.9999 16Z" fill="#F52419"/>
</svg>
