<svg width="20" height="20" viewBox="0 0 20 20" fill="none" xmlns="http://www.w3.org/2000/svg">
<path fill-rule="evenodd" clip-rule="evenodd" d="M10 3.25C6.27208 3.25 3.25 6.27208 3.25 10C3.25 13.7279 6.27208 16.75 10 16.75C13.7279 16.75 16.75 13.7279 16.75 10C16.75 6.27208 13.7279 3.25 10 3.25ZM1.75 10C1.75 5.44365 5.44365 1.75 10 1.75C14.5563 1.75 18.25 5.44365 18.25 10C18.25 14.5563 14.5563 18.25 10 18.25C5.44365 18.25 1.75 14.5563 1.75 10ZM10 5.91667C10.4142 5.91667 10.75 6.25245 10.75 6.66667V10.8333C10.75 11.2475 10.4142 11.5833 10 11.5833C9.58579 11.5833 9.25 11.2475 9.25 10.8333V6.66667C9.25 6.25245 9.58579 5.91667 10 5.91667ZM10 14.1667C10.4602 14.1667 10.8333 13.7936 10.8333 13.3333C10.8333 12.8731 10.4602 12.5 10 12.5C9.53976 12.5 9.16667 12.8731 9.16667 13.3333C9.16667 13.7936 9.53976 14.1667 10 14.1667Z" fill="#F52419"/>
</svg>
