<svg width="33" height="32" viewBox="0 0 33 32" fill="none" xmlns="http://www.w3.org/2000/svg">
<mask id="mask0_201_6813" style="mask-type:luminance" maskUnits="userSpaceOnUse" x="0" y="0" width="33" height="32">
<path d="M24.366 3.48319L28.3209 5.57075L29.7876 6.34503C31.3714 7.1792 32.2805 8.61226 32.2805 10.2849V21.7194C32.2805 23.3877 31.3761 24.8208 29.7923 25.6592L24.3706 28.5168L18.949 31.3744C17.3652 32.2085 15.5517 32.2085 13.9679 31.3744L12.5012 30.6001L8.54626 28.5125L4.59134 26.4293L3.12464 25.655C1.5408 24.8208 0.636414 23.3877 0.636414 21.7151V10.2806C0.636414 8.61226 1.5408 7.1792 3.12464 6.34075L8.54626 3.48319L13.9679 0.625627C15.5517 -0.208542 17.3652 -0.208542 18.949 0.625627L20.4157 1.39991L24.3706 3.48747L24.366 3.48319Z" fill="white"/>
</mask>
<g mask="url(#mask0_201_6813)">
<path fill-rule="evenodd" clip-rule="evenodd" d="M16.452 24.3376L8.54211 28.5085L12.497 30.5917L24.3665 24.3376V20.1668V15.9959V11.8251V7.65424L28.3261 5.56668L24.3665 3.4834L16.452 7.65424V11.8251V15.9959V20.1668V24.3376Z" fill="#FF0066"/>
<path fill-rule="evenodd" clip-rule="evenodd" d="M16.452 24.3376L8.54211 28.5085L12.497 30.5917L24.3665 24.3376V20.1668V15.9959V11.8251V7.65424L28.3261 5.56668L24.3665 3.4834L16.452 7.65424V11.8251V15.9959V20.1668V24.3376Z" fill="#FF0066"/>
<path fill-rule="evenodd" clip-rule="evenodd" d="M24.366 24.3373L12.4965 30.5915L16.4514 32.679L24.366 28.5082L32.2805 24.3373V20.1665V15.9957V11.8248V7.65397L28.3256 5.56641L24.366 7.65397V11.8248V15.9957V20.1665V24.3373Z" fill="#FF9000"/>
<path fill-rule="evenodd" clip-rule="evenodd" d="M24.366 24.3373L12.4965 30.5915L16.4514 32.679L24.366 28.5082L32.2805 24.3373V20.1665V15.9957V11.8248V7.65397L28.3256 5.56641L24.366 7.65397V11.8248V15.9957V20.1665V24.3373Z" fill="#FFD038"/>
<path fill-rule="evenodd" clip-rule="evenodd" d="M24.3663 7.65424L28.3259 5.56668L24.3663 3.4834L16.4518 7.65424H24.3663Z" fill="#FF1F8B"/>
<path fill-rule="evenodd" clip-rule="evenodd" d="M32.2811 7.65397L28.3262 5.56641L24.3666 7.65397H32.2811Z" fill="#FFD851"/>
<path fill-rule="evenodd" clip-rule="evenodd" d="M16.452 24.3376L8.54211 28.5085L12.497 30.5918L24.3665 24.3376H16.452Z" fill="#DC0045"/>
<path fill-rule="evenodd" clip-rule="evenodd" d="M24.366 24.3376L12.4965 30.5918L16.4514 32.6793L24.366 28.5085L32.2805 24.3376H24.366Z" fill="#E3BC35"/>
<path fill-rule="evenodd" clip-rule="evenodd" d="M4.58218 26.4208L8.54179 24.3376V20.1667V15.9959V11.825V7.65419L20.4112 1.40006L16.4516 -0.6875L8.54179 3.48334L0.627258 7.65419V11.825V15.9959V20.1667V24.3376L4.58218 26.4208Z" fill="#3ECE7A"/>
<path fill-rule="evenodd" clip-rule="evenodd" d="M8.54213 24.3374L4.58252 26.4207L8.54213 28.5083L16.452 24.3374V20.1666V15.9957V11.8249V7.65403L24.3665 3.48319L20.4116 1.3999L8.54213 7.65403V11.8249V15.9957V20.1666V24.3374Z" fill="#000DB2"/>
<path fill-rule="evenodd" clip-rule="evenodd" d="M8.54179 7.65419L20.4112 1.40006L16.4516 -0.6875L8.54179 3.48334L0.627258 7.65419H8.54179Z" fill="#74E2A1"/>
<path fill-rule="evenodd" clip-rule="evenodd" d="M16.452 7.65403L24.3665 3.48319L20.4116 1.3999L8.54211 7.65403H16.452Z" fill="#1A25BA"/>
<path fill-rule="evenodd" clip-rule="evenodd" d="M4.58218 26.4209L8.54179 24.3376H0.627258L4.58218 26.4209Z" fill="#3CB16C"/>
<path fill-rule="evenodd" clip-rule="evenodd" d="M8.54213 24.3376L4.58252 26.4209L8.54213 28.5085L16.452 24.3376H8.54213Z" fill="#000A82"/>
</g>
</svg>
