<svg width="16" height="16" viewBox="0 0 16 16" fill="none" xmlns="http://www.w3.org/2000/svg">
<path fill-rule="evenodd" clip-rule="evenodd" d="M8.00016 14.6666C11.6821 14.6666 14.6668 11.6818 14.6668 7.99992C14.6668 4.31802 11.6821 1.33325 8.00016 1.33325C4.31826 1.33325 1.3335 4.31802 1.3335 7.99992C1.3335 11.6818 4.31826 14.6666 8.00016 14.6666ZM11.1972 6.53025C11.4901 6.23736 11.4901 5.76248 11.1972 5.46959C10.9043 5.1767 10.4294 5.1767 10.1365 5.46959L7.3335 8.27259L6.53049 7.46959C6.2376 7.17669 5.76273 7.17669 5.46983 7.46959C5.17694 7.76248 5.17694 8.23736 5.46983 8.53025L6.80317 9.86358C7.09606 10.1565 7.57093 10.1565 7.86383 9.86358L11.1972 6.53025Z" fill="#CBD5E1"/>
</svg>
