<svg width="16" height="20" viewBox="0 0 16 20" fill="none" xmlns="http://www.w3.org/2000/svg">
<path fill-rule="evenodd" clip-rule="evenodd" d="M7.96605 0.916749L7.99998 0.916749L8.03391 0.916749C8.6281 0.916735 9.12401 0.916725 9.52761 0.953304C9.94918 0.991513 10.3431 1.07432 10.7083 1.28518C11.1264 1.52654 11.4735 1.8737 11.7149 2.29175C11.9257 2.65697 12.0085 3.05088 12.0468 3.47245C12.0833 3.87604 12.0833 4.37192 12.0833 4.96609V4.9661V4.96615L12.0833 5.00008V6.13594C12.1701 6.16116 12.2555 6.18944 12.3398 6.2212C13.62 6.70303 14.6304 7.71336 15.1122 8.99356C15.2777 9.43316 15.3489 9.90036 15.3831 10.4472C15.4167 10.9827 15.4166 11.6425 15.4166 12.475V12.5001V12.5251C15.4166 13.3576 15.4167 14.0174 15.3831 14.553C15.3489 15.0998 15.2777 15.567 15.1122 16.0066C14.6304 17.2868 13.62 18.2971 12.3398 18.779C11.9002 18.9444 11.433 19.0157 10.8862 19.0499C10.3507 19.0834 9.69086 19.0834 8.85835 19.0834H8.83331H7.16664H7.1416C6.3091 19.0834 5.64929 19.0834 5.11378 19.0499C4.56692 19.0157 4.09973 18.9444 3.66013 18.779C2.37993 18.2971 1.36959 17.2868 0.88776 16.0066C0.722305 15.567 0.651053 15.0998 0.616825 14.553C0.583307 14.0174 0.58331 13.3576 0.583313 12.5251L0.583313 12.5001L0.583313 12.475C0.58331 11.6425 0.583307 10.9827 0.616825 10.4472C0.651053 9.90036 0.722305 9.43316 0.88776 8.99356C1.36959 7.71336 2.37993 6.70303 3.66013 6.2212C3.74449 6.18944 3.82988 6.16116 3.91665 6.13594V5.00008L3.91665 4.96616C3.91663 4.37196 3.91662 3.87605 3.9532 3.47245C3.99141 3.05088 4.07421 2.65697 4.28508 2.29175C4.52644 1.8737 4.87359 1.52654 5.29165 1.28518C5.65687 1.07432 6.05077 0.991513 6.47235 0.953304C6.87595 0.916725 7.37185 0.916735 7.96605 0.916749ZM10.5833 5.00008V5.93517C10.1065 5.91674 9.54039 5.91675 8.85839 5.91675H8.85837H8.83332H7.16665H7.14159H7.14157C6.45957 5.91675 5.89346 5.91674 5.41665 5.93517V5.00008C5.41665 4.3632 5.41736 3.93569 5.44708 3.60784C5.47586 3.29031 5.52703 3.14062 5.58411 3.04175C5.69383 2.85172 5.85162 2.69393 6.04165 2.58422C6.14052 2.52713 6.29021 2.47596 6.60774 2.44718C6.93558 2.41747 7.3631 2.41675 7.99998 2.41675C8.63686 2.41675 9.06438 2.41747 9.39222 2.44718C9.70975 2.47596 9.85944 2.52713 9.95831 2.58422C10.1483 2.69393 10.3061 2.85172 10.4158 3.04175C10.4729 3.14062 10.5241 3.29031 10.5529 3.60784C10.5826 3.93569 10.5833 4.3632 10.5833 5.00008ZM5.20748 7.44733C4.73033 7.4772 4.43007 7.53413 4.1885 7.62505C3.31258 7.95473 2.62129 8.64601 2.29162 9.52194C2.2007 9.76351 2.14376 10.0638 2.1139 10.5409C2.08365 11.0241 2.08331 11.637 2.08331 12.5001C2.08331 13.3632 2.08365 13.9761 2.1139 14.4592C2.14376 14.9364 2.2007 15.2367 2.29162 15.4782C2.62129 16.3542 3.31258 17.0454 4.1885 17.3751C4.43007 17.466 4.73033 17.523 5.20748 17.5528C5.69063 17.5831 6.30354 17.5834 7.16664 17.5834H8.83331C9.69642 17.5834 10.3093 17.5831 10.7925 17.5528C11.2696 17.523 11.5699 17.466 11.8115 17.3751C12.6874 17.0454 13.3787 16.3542 13.7083 15.4782C13.7993 15.2367 13.8562 14.9364 13.8861 14.4592C13.9163 13.9761 13.9166 13.3632 13.9166 12.5001C13.9166 11.637 13.9163 11.0241 13.8861 10.5409C13.8562 10.0638 13.7993 9.76351 13.7083 9.52194C13.3787 8.64601 12.6874 7.95473 11.8115 7.62505C11.5699 7.53413 11.2696 7.4772 10.7925 7.44733C10.3093 7.41709 9.69643 7.41675 8.83332 7.41675H7.16665C6.30354 7.41675 5.69063 7.41709 5.20748 7.44733ZM8.74998 11.6667C8.74998 11.2525 8.41419 10.9167 7.99998 10.9167C7.58577 10.9167 7.24998 11.2525 7.24998 11.6667V13.3334C7.24998 13.7476 7.58577 14.0834 7.99998 14.0834C8.41419 14.0834 8.74998 13.7476 8.74998 13.3334V11.6667Z" fill="#64748B"/>
</svg>
