<svg width="200" height="240" viewBox="0 0 200 240" fill="none" xmlns="http://www.w3.org/2000/svg">
<g opacity="0.3">
<path opacity="0.3" d="M139.67 49.25C134.202 49.2421 128.96 47.0657 125.095 43.1982C121.229 39.3308 119.055 34.0881 119.05 28.62V0H26.9099C19.7729 0 12.9284 2.83511 7.88184 7.88171C2.83523 12.9283 0 19.7731 0 26.91V189.13C0 196.267 2.83523 203.112 7.88184 208.158C12.9284 213.205 19.7729 216.04 26.9099 216.04H137.51C141.045 216.041 144.545 215.346 147.811 213.995C151.077 212.643 154.045 210.661 156.545 208.162C159.045 205.663 161.028 202.696 162.381 199.43C163.734 196.165 164.43 192.665 164.43 189.13V49.25H139.67Z" fill="#FF9908"/>
</g>
<path d="M164.43 49.25H139.67C134.202 49.2421 128.96 47.0657 125.094 43.1982C121.229 39.3308 119.055 34.0881 119.05 28.62V0L164.43 49.25Z" fill="#FF9908"/>
<path d="M183.94 170.61H58.8997C50.03 170.61 42.8398 177.8 42.8398 186.67V223.95C42.8398 232.82 50.03 240.01 58.8997 240.01H183.94C192.809 240.01 200 232.82 200 223.95V186.67C200 177.8 192.809 170.61 183.94 170.61Z" fill="#FF9908"/>
<path d="M103.79 213.38V220.65H96.2598V213.38H103.79Z" fill="white"/>
<path d="M126.21 215.16H114.93L113.06 220.65H105.41L116.41 190.79H124.79L135.79 220.65H128.05L126.21 215.16ZM124.33 209.63L120.59 198.57L116.81 209.63H124.33Z" fill="white"/>
<path d="M145.9 190.58V220.65H138.63V190.58H145.9Z" fill="white"/>
<path d="M76.0698 114.08C76.0164 113.645 76.0634 113.203 76.2073 112.789C76.3512 112.375 76.5879 111.999 76.8997 111.69C77.1727 111.417 77.4971 111.2 77.854 111.052C78.2109 110.904 78.5934 110.828 78.9797 110.828C79.3661 110.828 79.7486 110.904 80.1055 111.052C80.4624 111.2 80.7868 111.417 81.0598 111.69C81.3331 111.963 81.5498 112.288 81.6978 112.644C81.8457 113.001 81.9219 113.384 81.9219 113.77C81.9219 114.157 81.8457 114.539 81.6978 114.896C81.5498 115.253 81.3331 115.577 81.0598 115.85C80.7513 116.162 80.3755 116.399 79.9612 116.543C79.5469 116.687 79.105 116.734 78.6697 116.68L44.5098 150.84L95.5098 125.84C95.5098 125.84 101.24 104.5 107.74 97.9902L94.7397 84.9902C88.2297 91.4902 66.8896 97.2202 66.8896 97.2202L41.8896 148.22L76.0698 114.08Z" fill="#FF9908"/>
<path d="M122.518 90.4062L102.344 70.2324L92.4518 80.1248L112.626 100.299L122.518 90.4062Z" fill="#FF9908"/>
</svg>
