<svg width="201" height="240" viewBox="0 0 201 240" fill="none" xmlns="http://www.w3.org/2000/svg">
<g opacity="0.3">
<path opacity="0.3" d="M140.53 49.25C135.06 49.2447 129.816 47.0695 125.948 43.2018C122.081 39.3341 119.905 34.0898 119.9 28.62V0H27.7703C20.6333 0 13.7885 2.83511 8.74194 7.88171C3.69534 12.9283 0.860352 19.7731 0.860352 26.91V189.13C0.860352 196.267 3.69534 203.112 8.74194 208.158C13.7885 213.205 20.6333 216.04 27.7703 216.04H138.37C145.507 216.04 152.352 213.205 157.398 208.158C162.445 203.112 165.28 196.267 165.28 189.13V49.25H140.53Z" fill="#A140FF"/>
</g>
<path d="M165.281 49.25H140.531C135.061 49.2447 129.816 47.0695 125.949 43.2018C122.081 39.3341 119.906 34.0898 119.9 28.62V0L165.281 49.25Z" fill="#A140FF"/>
<path d="M184.8 170.61H59.7603C50.8906 170.61 43.7002 177.8 43.7002 186.67V223.95C43.7002 232.82 50.8906 240.01 59.7603 240.01H184.8C193.67 240.01 200.86 232.82 200.86 223.95V186.67C200.86 177.8 193.67 170.61 184.8 170.61Z" fill="#A140FF"/>
<path d="M90.0002 213.38V220.65H82.4702V213.38H90.0002Z" fill="white"/>
<path d="M119 213.4C117.751 215.673 115.859 217.527 113.56 218.73C110.979 220.061 108.104 220.721 105.2 220.65H93.8003V190.58H105.15C108.055 190.503 110.934 191.145 113.53 192.45C115.815 193.636 117.7 195.469 118.95 197.72C120.247 200.123 120.901 202.82 120.85 205.55C120.914 208.282 120.277 210.984 119 213.4ZM111.18 211.89C111.993 211.055 112.622 210.06 113.028 208.969C113.435 207.877 113.609 206.713 113.54 205.55C113.609 204.387 113.435 203.223 113.028 202.131C112.622 201.04 111.993 200.045 111.18 199.21C109.355 197.62 106.977 196.812 104.56 196.96H101.12V214.14H104.56C106.96 214.275 109.317 213.468 111.13 211.89H111.18Z" fill="white"/>
<path d="M132.24 215.08H141.94V220.65H124.94V190.58H132.21L132.24 215.08Z" fill="white"/>
<path d="M152.571 215.08H162.271V220.65H145.271V190.58H152.541L152.571 215.08Z" fill="white"/>
<path d="M69.2405 159.4C68.1 159.4 67.0064 158.947 66.2 158.141C65.3935 157.334 64.9404 156.241 64.9404 155.1V148.49C64.9404 147.926 65.0518 147.367 65.2681 146.846C65.4843 146.325 65.801 145.852 66.2004 145.453C66.5999 145.055 67.0741 144.739 67.5957 144.524C68.1173 144.309 68.6763 144.199 69.2405 144.2C70.3783 144.2 71.4694 144.652 72.2739 145.457C73.0785 146.261 73.5305 147.352 73.5305 148.49V155.1C73.5305 156.239 73.0789 157.331 72.2747 158.137C71.4704 158.943 70.3792 159.398 69.2405 159.4Z" fill="#A140FF"/>
<path d="M69.2405 106.1C68.6763 106.101 68.1173 105.991 67.5957 105.776C67.0741 105.561 66.5999 105.245 66.2004 104.847C65.801 104.448 65.4843 103.975 65.2681 103.454C65.0518 102.933 64.9404 102.374 64.9404 101.81V94.1199C64.9404 92.9794 65.3935 91.8858 66.2 91.0793C67.0064 90.2729 68.1 89.8198 69.2405 89.8198C70.3792 89.8225 71.4704 90.2768 72.2747 91.0829C73.0789 91.889 73.5305 92.9812 73.5305 94.1199V101.81C73.5305 102.948 73.0785 104.039 72.2739 104.843C71.4694 105.648 70.3783 106.1 69.2405 106.1Z" fill="#A140FF"/>
<path d="M84.4902 155.32C83.7348 155.319 82.9929 155.12 82.3384 154.743C81.6839 154.365 81.1397 153.823 80.7603 153.17L77.5603 147.61C76.991 146.623 76.8365 145.451 77.1309 144.35C77.4252 143.25 78.1442 142.311 79.1301 141.74C80.1182 141.171 81.2916 141.019 82.3923 141.315C83.4931 141.611 84.4311 142.332 85.0003 143.32L88.2102 148.87C88.7787 149.858 88.9315 151.031 88.6353 152.132C88.339 153.233 87.6178 154.171 86.6301 154.74C85.9807 155.119 85.2423 155.319 84.4902 155.32Z" fill="#A140FF"/>
<path d="M57.9404 109.32C57.1845 109.321 56.4419 109.123 55.7871 108.746C55.1322 108.368 54.5883 107.825 54.2104 107.17L50.2805 100.35C49.9975 99.8626 49.8137 99.324 49.7395 98.7652C49.6652 98.2064 49.702 97.6384 49.8479 97.0939C49.9937 96.5494 50.2457 96.0392 50.5893 95.5923C50.933 95.1455 51.3617 94.7709 51.8505 94.4902C52.3388 94.2069 52.8781 94.0229 53.4377 93.9485C53.9973 93.8742 54.566 93.911 55.1113 94.0568C55.6566 94.2027 56.1677 94.4547 56.6154 94.7985C57.0632 95.1423 57.4387 95.5711 57.7204 96.0602L61.6503 102.88C61.9336 103.368 62.1177 103.908 62.1921 104.467C62.2665 105.027 62.2295 105.596 62.0837 106.141C61.9378 106.686 61.686 107.198 61.3422 107.645C60.9985 108.093 60.5697 108.468 60.0805 108.75C59.4297 109.125 58.6914 109.322 57.9404 109.32Z" fill="#A140FF"/>
<path d="M95.6505 144.15C94.8954 144.148 94.1541 143.948 93.5006 143.57L87.9406 140.36C86.9553 139.791 86.2364 138.854 85.942 137.755C85.6476 136.656 85.8019 135.485 86.3707 134.5C86.9399 133.512 87.8779 132.791 88.9786 132.495C90.0794 132.199 91.2526 132.352 92.2406 132.92L97.8007 136.13C98.7866 136.701 99.5056 137.64 99.7999 138.74C100.094 139.841 99.94 141.013 99.3707 142C98.9952 142.655 98.4532 143.198 97.7999 143.576C97.1466 143.953 96.4051 144.151 95.6505 144.15Z" fill="#A140FF"/>
<path d="M49.6404 117.6C48.8887 117.596 48.151 117.396 47.5005 117.02L40.6804 113.09C39.6945 112.519 38.9755 111.58 38.6812 110.48C38.3868 109.379 38.5413 108.207 39.1106 107.22C39.6798 106.232 40.6178 105.511 41.7185 105.215C42.8192 104.918 43.9924 105.071 44.9805 105.64L51.8005 109.58C52.7865 110.151 53.5055 111.089 53.7998 112.19C54.0942 113.291 53.9399 114.463 53.3706 115.45C52.9927 116.104 52.4488 116.648 51.794 117.025C51.1391 117.403 50.3962 117.601 49.6404 117.6Z" fill="#A140FF"/>
<path d="M99.7305 128.91H93.1106C91.971 128.907 90.8786 128.453 90.0728 127.647C89.2669 126.842 88.8132 125.749 88.8105 124.61C88.8132 123.471 89.2674 122.38 90.0735 121.576C90.8796 120.772 91.9719 120.32 93.1106 120.32H99.7305C100.869 120.32 101.961 120.772 102.768 121.576C103.574 122.38 104.028 123.471 104.031 124.61C104.028 125.749 103.574 126.842 102.768 127.647C101.962 128.453 100.87 128.907 99.7305 128.91Z" fill="#A140FF"/>
<path d="M46.4302 128.91H38.7502C37.6106 128.907 36.5185 128.453 35.7126 127.647C34.9068 126.842 34.4528 125.749 34.4502 124.61C34.4528 123.471 34.907 122.38 35.7131 121.576C36.5193 120.772 37.6115 120.32 38.7502 120.32H46.4302C47.568 120.32 48.6591 120.772 49.4636 121.576C50.2682 122.381 50.7202 123.472 50.7202 124.61C50.7202 125.749 50.2686 126.841 49.4644 127.647C48.6601 128.453 47.5689 128.907 46.4302 128.91Z" fill="#A140FF"/>
<path d="M89.6206 117.14C88.8648 117.141 88.1219 116.943 87.4671 116.565C86.8122 116.188 86.2683 115.644 85.8904 114.99C85.6092 114.501 85.4271 113.962 85.3543 113.403C85.2815 112.844 85.3196 112.277 85.4663 111.732C85.6131 111.188 85.8656 110.678 86.2095 110.232C86.5534 109.785 86.9818 109.411 87.4705 109.13L93.4705 105.64C94.4585 105.071 95.632 104.918 96.7327 105.215C97.8334 105.511 98.7714 106.232 99.3406 107.22C99.9099 108.207 100.064 109.379 99.7698 110.48C99.4754 111.58 98.7565 112.519 97.7705 113.09L91.7705 116.57C91.1174 116.948 90.3753 117.145 89.6206 117.14Z" fill="#A140FF"/>
<path d="M42.8306 144.15C42.0764 144.149 41.3356 143.95 40.6826 143.573C40.0297 143.195 39.4877 142.653 39.1106 142C38.5413 141.013 38.3868 139.841 38.6812 138.74C38.9755 137.64 39.6945 136.701 40.6804 136.13L47.0405 132.46C48.028 131.893 49.1995 131.74 50.2993 132.035C51.3991 132.329 52.3377 133.046 52.9104 134.03C53.4797 135.017 53.6342 136.189 53.3399 137.29C53.0455 138.39 52.3265 139.329 51.3406 139.9L44.9805 143.57C44.327 143.948 43.5857 144.148 42.8306 144.15Z" fill="#A140FF"/>
<path d="M69.77 152.79H69.0801C64.1653 152.684 59.3701 151.253 55.2 148.65C51.0776 146.094 47.6983 142.501 45.3999 138.23C43.2516 134.208 42.1254 129.72 42.1201 125.16C42.1201 124.92 42.1201 124.7 42.1201 124.47C42.2384 119.771 43.553 115.18 45.9399 111.13C48.3238 107.086 51.696 103.714 55.74 101.33C59.8064 98.9412 64.4151 97.6299 69.1299 97.52H69.76C74.3255 97.5144 78.8206 98.645 82.8401 100.81C87.1079 103.101 90.6979 106.473 93.25 110.59C95.859 114.78 97.2892 119.596 97.3899 124.53C97.3899 124.7 97.3899 124.92 97.3899 125.16C97.3909 129.934 96.1541 134.627 93.8 138.78C91.3391 143.139 87.7366 146.745 83.3799 149.21C79.2284 151.558 74.5397 152.792 69.77 152.79ZM69.6599 106.1H69.3899C66.1267 106.166 62.9352 107.068 60.1201 108.72C57.3279 110.364 54.9985 112.69 53.3501 115.48C51.7009 118.282 50.7954 121.459 50.72 124.71C50.72 124.89 50.72 125.02 50.72 125.15C50.721 128.289 51.4937 131.38 52.97 134.15C54.5563 137.102 56.891 139.585 59.74 141.35C62.6247 143.14 65.9362 144.124 69.3301 144.2H69.77C73.0611 144.204 76.2967 143.353 79.1599 141.73C82.1666 140.028 84.6526 137.539 86.3501 134.53C87.9711 131.67 88.8221 128.438 88.8201 125.15V124.77C88.7461 121.354 87.7622 118.019 85.97 115.11C84.203 112.271 81.7243 109.944 78.78 108.36C75.972 106.868 72.8395 106.092 69.6599 106.1Z" fill="#A140FF"/>
<path d="M80.8003 108.87C80.0493 108.872 79.311 108.675 78.6602 108.3C78.171 108.019 77.7422 107.643 77.3984 107.195C77.0547 106.748 76.8028 106.236 76.657 105.691C76.5111 105.146 76.4742 104.577 76.5486 104.017C76.623 103.458 76.8071 102.919 77.0903 102.43L80.7603 96.0602C81.042 95.5711 81.4175 95.1423 81.8652 94.7985C82.313 94.4547 82.8241 94.2027 83.3694 94.0568C83.9147 93.911 84.4834 93.8742 85.043 93.9485C85.6025 94.0229 86.1418 94.2069 86.6301 94.4902C87.1188 94.771 87.5475 95.1455 87.8914 95.5921C88.2353 96.0386 88.4878 96.5486 88.6345 97.0928C88.7813 97.637 88.8194 98.2048 88.7466 98.7637C88.6738 99.3226 88.4915 99.8617 88.2102 100.35L84.5303 106.72C84.1524 107.375 83.6085 107.918 82.9536 108.296C82.2988 108.673 81.5561 108.871 80.8003 108.87Z" fill="#A140FF"/>
<path d="M54 155.32C53.2479 155.319 52.5096 155.119 51.8601 154.74C51.3709 154.458 50.9422 154.083 50.5984 153.635C50.2546 153.187 50.0025 152.676 49.8567 152.131C49.7108 151.585 49.6739 151.017 49.7483 150.457C49.8227 149.898 50.0068 149.358 50.29 148.87L53.76 142.87C54.0417 142.381 54.4173 141.952 54.865 141.608C55.3127 141.264 55.8238 141.012 56.3691 140.866C56.9145 140.721 57.4832 140.684 58.0427 140.758C58.6023 140.832 59.1416 141.017 59.6299 141.3C60.6158 141.871 61.335 142.809 61.6294 143.91C61.9238 145.011 61.7693 146.183 61.2 147.17L57.73 153.17C57.3521 153.824 56.8084 154.368 56.1536 154.745C55.4987 155.123 54.7558 155.321 54 155.32Z" fill="#A140FF"/>
<path d="M108.84 100.66C108.145 100.66 107.479 100.384 106.988 99.8927C106.496 99.4014 106.22 98.735 106.22 98.0402V94.0402C106.22 93.6966 106.288 93.3564 106.42 93.0391C106.552 92.7218 106.745 92.4336 106.988 92.1911C107.232 91.9486 107.521 91.7566 107.838 91.626C108.156 91.4954 108.497 91.4289 108.84 91.4302C109.533 91.4302 110.196 91.7051 110.686 92.1946C111.175 92.6841 111.45 93.348 111.45 94.0402V98.0402C111.452 98.3838 111.385 98.7242 111.254 99.042C111.124 99.3598 110.932 99.6487 110.689 99.8921C110.447 100.136 110.159 100.329 109.841 100.46C109.524 100.592 109.184 100.66 108.84 100.66Z" fill="#A140FF"/>
<path d="M108.84 68.2299C108.497 68.2312 108.156 68.1646 107.838 68.0341C107.521 67.9035 107.232 67.7115 106.988 67.469C106.745 67.2265 106.552 66.9383 106.42 66.621C106.288 66.3037 106.22 65.9635 106.22 65.6199V60.9398C106.22 60.245 106.496 59.5786 106.988 59.0873C107.479 58.5959 108.145 58.3198 108.84 58.3198C109.184 58.3198 109.524 58.3877 109.841 58.5195C110.159 58.6513 110.447 58.8445 110.689 59.0879C110.932 59.3313 111.124 59.6202 111.254 59.938C111.385 60.2558 111.452 60.5962 111.45 60.9398V65.6199C111.45 66.3121 111.175 66.976 110.686 67.4655C110.196 67.9549 109.533 68.2299 108.84 68.2299Z" fill="#A140FF"/>
<path d="M118.12 98.1699C117.661 98.1711 117.21 98.0516 116.811 97.8235C116.413 97.5953 116.082 97.2664 115.85 96.8699L113.9 93.4899C113.559 92.8824 113.472 92.1642 113.659 91.4929C113.847 90.8217 114.293 90.2523 114.9 89.9099C115.2 89.741 115.531 89.6327 115.873 89.5915C116.214 89.5504 116.561 89.577 116.893 89.6699C117.224 89.7628 117.534 89.92 117.805 90.1328C118.075 90.3456 118.302 90.6097 118.47 90.9099L120.47 94.2899C120.639 94.5899 120.747 94.9202 120.789 95.2621C120.83 95.6039 120.803 95.9505 120.71 96.2821C120.617 96.6137 120.46 96.9237 120.247 97.1944C120.035 97.4652 119.77 97.6913 119.47 97.8599C119.057 98.0848 118.59 98.1921 118.12 98.1699Z" fill="#A140FF"/>
<path d="M102 70.19C101.54 70.1892 101.088 70.0678 100.69 69.8379C100.292 69.6081 99.9608 69.2778 99.73 68.8801L97.3401 64.73C97.1711 64.43 97.0629 64.0996 97.0217 63.7577C96.9805 63.4159 97.0072 63.0693 97.1001 62.7377C97.193 62.4062 97.3502 62.0962 97.563 61.8255C97.7757 61.5548 98.0399 61.3287 98.3401 61.1601C98.6398 60.9898 98.9701 60.8806 99.3122 60.8387C99.6544 60.7968 100.002 60.8231 100.333 60.9161C100.665 61.009 100.975 61.1668 101.246 61.3803C101.517 61.5938 101.742 61.8589 101.91 62.1601L104.3 66.3101C104.469 66.6101 104.577 66.9404 104.618 67.2823C104.66 67.6241 104.633 67.9707 104.54 68.3023C104.447 68.6339 104.29 68.9439 104.077 69.2147C103.864 69.4854 103.6 69.7115 103.3 69.8801C102.9 70.0919 102.453 70.1985 102 70.19Z" fill="#A140FF"/>
<path d="M124.91 91.3799C124.45 91.3822 123.998 91.2613 123.6 91.03L120.22 89.03C119.92 88.8614 119.656 88.6351 119.443 88.3644C119.23 88.0937 119.073 87.7838 118.98 87.4522C118.887 87.1206 118.86 86.774 118.902 86.4322C118.943 86.0903 119.051 85.7599 119.22 85.4599C119.388 85.1587 119.613 84.8937 119.884 84.6802C120.154 84.4667 120.465 84.3088 120.797 84.2159C121.129 84.1229 121.475 84.0966 121.818 84.1385C122.16 84.1804 122.49 84.2896 122.79 84.4599L126.17 86.4599C126.471 86.6275 126.736 86.8532 126.95 87.1238C127.163 87.3944 127.321 87.7046 127.414 88.0366C127.507 88.3685 127.533 88.7155 127.491 89.0577C127.45 89.3998 127.34 89.7303 127.17 90.03C126.947 90.4357 126.621 90.7748 126.223 91.0121C125.826 91.2495 125.373 91.3764 124.91 91.3799Z" fill="#A140FF"/>
<path d="M96.9202 75.22C96.4601 75.2222 96.008 75.1014 95.6103 74.87L91.4602 72.48C91.16 72.3114 90.8959 72.0853 90.6831 71.8146C90.4703 71.5439 90.3131 71.2338 90.2202 70.9023C90.1273 70.5707 90.1007 70.2241 90.1418 69.8822C90.183 69.5404 90.2912 69.2101 90.4602 68.9101C90.8026 68.303 91.372 67.8567 92.0432 67.6692C92.7145 67.4817 93.4328 67.5684 94.0403 67.9101L98.1802 70.3001C98.7872 70.6425 99.2336 71.2118 99.4211 71.8831C99.6086 72.5543 99.5218 73.2726 99.1802 73.88C98.9556 74.2833 98.6282 74.6197 98.2312 74.8551C97.8342 75.0905 97.3817 75.2164 96.9202 75.22Z" fill="#A140FF"/>
<path d="M127.39 82.1099H123.39C123.047 82.1099 122.706 82.0421 122.389 81.9103C122.072 81.7785 121.784 81.5854 121.541 81.3419C121.299 81.0985 121.107 80.8095 120.976 80.4917C120.846 80.1739 120.779 79.8335 120.78 79.4899C120.78 78.7977 121.055 78.1338 121.545 77.6443C122.034 77.1548 122.698 76.8799 123.39 76.8799H127.39C127.734 76.8786 128.074 76.9451 128.392 77.0757C128.71 77.2063 128.999 77.3983 129.242 77.6408C129.486 77.8833 129.679 78.1715 129.811 78.4888C129.942 78.8061 130.01 79.1463 130.01 79.4899C130.01 80.1848 129.734 80.8512 129.243 81.3425C128.752 81.8339 128.085 82.1099 127.39 82.1099Z" fill="#A140FF"/>
<path d="M95 82.1099H90.3201C89.9765 82.1099 89.6362 82.0421 89.3189 81.9103C89.0016 81.7785 88.7135 81.5853 88.471 81.3419C88.2285 81.0985 88.0364 80.8095 87.9058 80.4917C87.7752 80.1739 87.7087 79.8335 87.71 79.4899C87.71 79.1471 87.7775 78.8077 87.9087 78.4911C88.0399 78.1744 88.232 77.8866 88.4744 77.6443C88.7167 77.4019 89.0046 77.2098 89.3213 77.0786C89.638 76.9474 89.9773 76.8799 90.3201 76.8799H95C95.6922 76.8799 96.356 77.1548 96.8455 77.6443C97.3349 78.1338 97.6101 78.7977 97.6101 79.4899C97.6114 79.8335 97.5449 80.1739 97.4143 80.4917C97.2838 80.8095 97.0916 81.0985 96.8491 81.3419C96.6066 81.5853 96.3186 81.7785 96.0012 81.9103C95.6839 82.0421 95.3436 82.1099 95 82.1099Z" fill="#A140FF"/>
<path d="M121.24 75.0001C120.78 74.9993 120.328 74.878 119.93 74.6481C119.532 74.4182 119.201 74.0878 118.97 73.6901C118.801 73.3901 118.693 73.0598 118.652 72.7179C118.61 72.3761 118.637 72.0295 118.73 71.6979C118.823 71.3663 118.98 71.0563 119.193 70.7855C119.406 70.5148 119.67 70.2887 119.97 70.1201L123.64 68.0001C123.94 67.8312 124.27 67.7231 124.612 67.6819C124.954 67.6407 125.301 67.6673 125.632 67.7601C125.964 67.853 126.274 68.0104 126.545 68.2232C126.815 68.4359 127.041 68.6999 127.21 69.0001C127.38 69.2998 127.49 69.6303 127.531 69.9724C127.573 70.3146 127.547 70.6616 127.454 70.9935C127.361 71.3255 127.203 71.6357 126.99 71.9063C126.776 72.1769 126.511 72.4025 126.21 72.5701L122.54 74.6901C122.14 74.9019 121.693 75.0087 121.24 75.0001Z" fill="#A140FF"/>
<path d="M92.77 91.3799C92.3112 91.3804 91.8605 91.2594 91.4636 91.0293C91.0667 90.7993 90.7376 90.4682 90.51 90.0699C90.3363 89.7735 90.2232 89.4458 90.177 89.1054C90.1308 88.765 90.1524 88.4188 90.2407 88.0868C90.329 87.7549 90.4824 87.4438 90.6916 87.1714C90.9009 86.8991 91.162 86.6708 91.4599 86.4999L95.3301 84.2699C95.6298 84.0997 95.9601 83.9904 96.3022 83.9485C96.6444 83.9067 96.9916 83.933 97.3235 84.0259C97.6554 84.1189 97.9655 84.2766 98.2361 84.4902C98.5067 84.7037 98.7323 84.9688 98.8999 85.2699C99.0688 85.57 99.1771 85.9004 99.2182 86.2422C99.2594 86.5841 99.2328 86.9307 99.1399 87.2623C99.047 87.5938 98.8898 87.9038 98.677 88.1745C98.4642 88.4452 98.2001 88.6713 97.8999 88.8399L94.04 91.0799C93.6486 91.285 93.2118 91.3882 92.77 91.3799Z" fill="#A140FF"/>
<path d="M109.16 96.64H108.73C105.744 96.575 102.832 95.7043 100.3 94.12C97.7775 92.5711 95.7079 90.3842 94.3003 87.78C92.9848 85.3188 92.2978 82.5707 92.3003 79.78V79.3499C92.373 76.4922 93.1749 73.7005 94.6301 71.24C96.0856 68.7609 98.1511 66.6954 100.63 65.24C103.106 63.787 105.911 62.9887 108.78 62.92H109.16C111.952 62.9113 114.701 63.5987 117.16 64.92C119.764 66.328 121.951 68.3975 123.5 70.92C125.081 73.4718 125.951 76.3993 126.02 79.4V79.79C126.022 82.6921 125.271 85.545 123.84 88.0699C122.341 90.7248 120.145 92.9204 117.49 94.42C114.954 95.8728 112.083 96.638 109.16 96.64ZM109.09 68.2299H108.94C106.951 68.2632 105.005 68.811 103.29 69.8199C101.589 70.8211 100.171 72.239 99.1702 73.9399C98.1681 75.6432 97.6175 77.5743 97.5703 79.55V79.8199C97.5693 81.7315 98.0397 83.6138 98.9402 85.3C99.9056 87.0902 101.323 88.5967 103.05 89.67C104.807 90.7596 106.823 91.3603 108.89 91.41H109.16C111.161 91.4113 113.128 90.8945 114.87 89.91C116.701 88.8744 118.215 87.3603 119.25 85.53C120.232 83.787 120.749 81.8205 120.75 79.8199V79.5799C120.705 77.5043 120.108 75.4783 119.02 73.7099C117.944 71.9815 116.433 70.5647 114.64 69.5999C112.932 68.691 111.025 68.2203 109.09 68.2299Z" fill="#A140FF"/>
<path d="M115.871 69.9103C115.414 69.9112 114.965 69.7904 114.571 69.5603C114.27 69.3917 114.006 69.1655 113.793 68.8948C113.581 68.6241 113.423 68.3141 113.331 67.9826C113.238 67.651 113.211 67.3044 113.252 66.9625C113.293 66.6207 113.402 66.2903 113.571 65.9903L115.811 62.1203C115.979 61.82 116.205 61.556 116.476 61.3433C116.747 61.1305 117.057 60.9731 117.388 60.8803C117.72 60.7874 118.066 60.7608 118.408 60.802C118.75 60.8432 119.08 60.9513 119.38 61.1203C119.681 61.2889 119.945 61.5149 120.157 61.7857C120.37 62.0564 120.527 62.3665 120.62 62.698C120.713 63.0296 120.74 63.3762 120.699 63.718C120.658 64.0599 120.549 64.3902 120.38 64.6902L118.14 68.5702C117.916 68.9756 117.587 69.3136 117.188 69.5492C116.789 69.7848 116.334 69.9095 115.871 69.9103Z" fill="#A140FF"/>
<path d="M99.56 98.1701C99.1033 98.171 98.6545 98.0501 98.26 97.82C97.9598 97.6514 97.6957 97.4253 97.4829 97.1546C97.2701 96.8838 97.1129 96.5739 97.02 96.2423C96.9271 95.9108 96.9005 95.5642 96.9416 95.2223C96.9828 94.8805 97.091 94.55 97.26 94.25L99.3701 90.59C99.5387 90.2898 99.7647 90.0258 100.035 89.813C100.306 89.6002 100.616 89.4429 100.948 89.35C101.279 89.2571 101.626 89.2306 101.968 89.2717C102.31 89.3129 102.64 89.421 102.94 89.59C103.24 89.7586 103.504 89.9848 103.717 90.2555C103.93 90.5262 104.087 90.8362 104.18 91.1677C104.273 91.4993 104.299 91.8459 104.258 92.1878C104.217 92.5296 104.109 92.86 103.94 93.1601L101.83 96.83C101.602 97.2326 101.273 97.5684 100.874 97.8036C100.476 98.0388 100.023 98.1652 99.56 98.1701Z" fill="#A140FF"/>
</svg>
