<svg width="201" height="240" viewBox="0 0 201 240" fill="none" xmlns="http://www.w3.org/2000/svg">
<g opacity="0.3">
<path opacity="0.3" d="M140.53 49.24C135.062 49.2347 129.819 47.0609 125.952 43.1953C122.084 39.3297 119.908 34.0881 119.9 28.62V0H27.7703C20.6333 0 13.7885 2.83517 8.74194 7.88177C3.69534 12.9284 0.860352 19.773 0.860352 26.91V189.13C0.87095 196.26 3.71065 203.094 8.7561 208.132C13.8016 213.17 20.6402 216 27.7703 216H138.37C145.507 216 152.352 213.165 157.398 208.118C162.445 203.072 165.28 196.227 165.28 189.09V49.24H140.53Z" fill="#00C650"/>
</g>
<path d="M165.281 49.24H140.531C135.062 49.2347 129.82 47.0609 125.952 43.1953C122.085 39.3297 119.908 34.0881 119.9 28.62V0L165.281 49.24Z" fill="#00C650"/>
<path d="M184.8 170.6H59.7603C50.8906 170.6 43.7002 177.79 43.7002 186.66V223.94C43.7002 232.81 50.8906 240 59.7603 240H184.8C193.67 240 200.86 232.81 200.86 223.94V186.66C200.86 177.79 193.67 170.6 184.8 170.6Z" fill="#00C650"/>
<path d="M65.9202 213.37V220.64H58.3901V213.37H65.9202Z" fill="white"/>
<path d="M103.52 190.79V220.64H96.2402V202L89.7803 220.67H83.4802L76.9802 201.96V220.67H69.7002V190.82H78.5903L86.7202 211.61L94.7202 190.82L103.52 190.79Z" fill="white"/>
<path d="M115.81 210.1V220.64H108.54V190.57H120.32C123.887 190.57 126.607 191.457 128.48 193.23C129.43 194.158 130.171 195.277 130.656 196.513C131.14 197.749 131.356 199.074 131.29 200.4C131.317 202.148 130.886 203.872 130.04 205.4C129.166 206.889 127.872 208.086 126.32 208.84C124.448 209.729 122.392 210.161 120.32 210.1H115.81ZM123.89 200.4C123.89 197.734 122.43 196.4 119.51 196.4H115.81V204.23H119.51C122.43 204.257 123.89 202.98 123.89 200.4Z" fill="white"/>
<path d="M142.14 196.36V202.65H152.3V208.14H142.14V214.82H153.58V220.64H134.86V190.57H153.58V196.36H142.14Z" fill="white"/>
<path d="M181.1 193C183.524 194.819 185.153 197.501 185.65 200.49H178C177.495 199.415 176.68 198.517 175.66 197.91C174.515 197.229 173.202 196.883 171.87 196.91C170.836 196.869 169.805 197.054 168.85 197.453C167.894 197.852 167.038 198.455 166.34 199.22C164.884 200.978 164.141 203.22 164.26 205.5C164.26 208.36 164.99 210.557 166.45 212.09C167.271 212.886 168.249 213.502 169.322 213.898C170.395 214.294 171.539 214.462 172.68 214.39C174.312 214.42 175.909 213.918 177.23 212.96C178.561 211.978 179.534 210.587 180 209H170.81V203.77H186V211C185.412 212.788 184.489 214.448 183.28 215.89C181.965 217.439 180.331 218.688 178.49 219.55C176.407 220.512 174.134 220.991 171.84 220.95C169.049 221.02 166.289 220.351 163.84 219.01C161.599 217.754 159.775 215.87 158.59 213.59C157.327 211.133 156.691 208.402 156.74 205.64C156.685 202.861 157.321 200.112 158.59 197.64C159.776 195.368 161.592 193.486 163.82 192.22C166.234 190.893 168.956 190.227 171.71 190.29C175.054 190.124 178.359 191.078 181.1 193Z" fill="white"/>
<path d="M120.3 131.91V84.2001C120.298 83.9685 120.274 83.7375 120.23 83.5101C120.236 83.4436 120.236 83.3767 120.23 83.3101C120.23 83.1501 120.14 83.0001 120.09 82.8501L120 82.6501C119.936 82.5039 119.859 82.3633 119.77 82.2301L119.68 82.0701C119.551 81.8913 119.411 81.721 119.26 81.5601L119.19 81.5001C119.054 81.3719 118.91 81.2517 118.76 81.1401L118.58 81.0301C118.45 80.9501 118.31 80.8801 118.17 80.8101L117.97 80.7201C117.81 80.6597 117.647 80.6096 117.48 80.5701H117.32C117.097 80.5216 116.869 80.4981 116.64 80.5001H49.2802C48.3544 80.5849 47.4937 81.0122 46.8666 81.6985C46.2395 82.3848 45.8912 83.2805 45.8901 84.2101C45.8901 84.2701 45.8901 84.3201 45.8901 84.3801V132.06C45.8702 132.673 46.0647 133.275 46.4401 133.76C46.7705 134.314 47.2391 134.773 47.8 135.092C48.3608 135.411 48.9948 135.579 49.6401 135.58H116.64C117.606 135.56 118.527 135.166 119.209 134.482C119.891 133.798 120.282 132.876 120.3 131.91ZM49.8102 89.4801V82.2401H55.7001V89.4801H49.8102ZM59.7502 89.4801V82.2401H65.6401V89.4801H59.7502ZM69.6901 89.4801V82.2401H75.5802V89.4801H69.6901ZM79.63 89.4801V82.2401H85.5202V89.4801H79.63ZM89.5702 89.4801V82.2401H95.4601V89.4801H89.5702ZM99.5102 89.4801V82.2401H105.4V89.4801H99.5102ZM109.45 89.4801V82.2401H115.34V89.4801H109.45ZM48.4501 124.59V91.4401H117.67V124.59H48.4501ZM49.8002 133.78V126.54H55.6901V133.78H49.8002ZM59.7401 133.78V126.54H65.63V133.78H59.7401ZM69.6801 133.78V126.54H75.5702V133.78H69.6801ZM79.6203 133.78V126.54H85.5102V133.78H79.6203ZM89.5602 133.78V126.54H95.4501V133.78H89.5602ZM99.5002 133.78V126.54H105.39V133.78H99.5002ZM109.44 133.78V126.54H115.33V133.78H109.44Z" fill="#00C650"/>
<path d="M91.0801 105.56L81.51 100.03C81.0147 99.744 80.4528 99.5934 79.8809 99.5933C79.3089 99.5931 78.747 99.7434 78.2515 100.029C77.756 100.315 77.3442 100.726 77.0579 101.221C76.7715 101.716 76.6207 102.278 76.6201 102.85V113.91C76.6207 114.482 76.7715 115.044 77.0579 115.539C77.3442 116.034 77.756 116.445 78.2515 116.731C78.747 117.017 79.3089 117.167 79.8809 117.167C80.4528 117.167 81.0147 117.016 81.51 116.73L91.0801 111.2C91.5741 110.913 91.9842 110.502 92.2693 110.007C92.5544 109.512 92.7043 108.951 92.7043 108.38C92.7043 107.809 92.5544 107.248 92.2693 106.753C91.9842 106.258 91.5741 105.847 91.0801 105.56Z" fill="#00C650"/>
</svg>
