<svg width="201" height="240" viewBox="0 0 201 240" fill="none" xmlns="http://www.w3.org/2000/svg">
<g opacity="0.3">
<path opacity="0.3" d="M140.24 49.24C134.773 49.2347 129.531 47.0606 125.665 43.1947C121.799 39.3288 119.625 34.0871 119.62 28.62V0H27.48C20.3431 0 13.4984 2.83517 8.45184 7.88177C3.40524 12.9284 0.570068 19.773 0.570068 26.91V189.13C0.580667 196.26 3.42049 203.094 8.46594 208.132C13.5114 213.17 20.35 216 27.48 216H138.09C145.222 216 152.062 213.169 157.108 208.129C162.153 203.089 164.992 196.252 165 189.12V49.24H140.24Z" fill="#005FAD"/>
</g>
<path d="M165 49.24H140.24C134.773 49.2347 129.531 47.0606 125.665 43.1947C121.8 39.3288 119.625 34.0871 119.62 28.62V0L165 49.24Z" fill="#005FAD"/>
<path d="M184.51 170.6H59.4702C50.6005 170.6 43.4102 177.79 43.4102 186.66V223.94C43.4102 232.81 50.6005 240 59.4702 240H184.51C193.38 240 200.57 232.81 200.57 223.94V186.66C200.57 177.79 193.38 170.6 184.51 170.6Z" fill="#005FAD"/>
<path d="M79.6301 213.37V220.64H72.1001V213.37H79.6301Z" fill="white"/>
<path d="M90.6902 210.1V220.64H83.4102V190.57H95.1902C98.7702 190.57 101.494 191.457 103.36 193.23C104.308 194.16 105.048 195.279 105.532 196.515C106.017 197.75 106.234 199.075 106.17 200.4C106.202 202.149 105.767 203.875 104.91 205.4C104.042 206.893 102.746 208.091 101.19 208.84C99.3192 209.733 97.262 210.165 95.1902 210.1H90.6902ZM98.7702 200.4C98.7702 197.734 97.3102 196.4 94.3902 196.4H90.6902V204.23H94.3902C97.3102 204.257 98.7702 202.98 98.7702 200.4Z" fill="white"/>
<path d="M136.45 220.64H129.18L117 202.18V220.64H109.73V190.57H117L129.17 209.2V190.57H136.44L136.45 220.64Z" fill="white"/>
<path d="M164.86 193C167.287 194.816 168.917 197.5 169.41 200.49H161.71C161.205 199.419 160.394 198.521 159.38 197.91C158.234 197.231 156.922 196.884 155.59 196.91C154.555 196.867 153.524 197.052 152.569 197.451C151.613 197.85 150.757 198.454 150.06 199.22C148.599 200.976 147.856 203.219 147.98 205.5C147.98 208.36 148.71 210.557 150.17 212.09C150.991 212.887 151.969 213.503 153.042 213.899C154.115 214.295 155.259 214.462 156.4 214.39C158.031 214.418 159.628 213.916 160.95 212.96C162.297 211.952 163.268 210.523 163.71 208.9H154.53V203.67H169.8V211C169.209 212.788 168.282 214.448 167.07 215.89C165.761 217.442 164.13 218.691 162.29 219.55C160.204 220.513 157.927 220.992 155.63 220.95C152.839 221.021 150.079 220.351 147.63 219.01C145.389 217.754 143.564 215.87 142.38 213.59C141.112 211.135 140.477 208.403 140.53 205.64C140.47 202.861 141.106 200.111 142.38 197.64C143.563 195.366 145.379 193.483 147.61 192.22C150.023 190.891 152.746 190.225 155.5 190.29C158.835 190.126 162.128 191.08 164.86 193Z" fill="white"/>
<path d="M55.27 66.7197H41.52V80.4697H55.27V66.7197Z" fill="#005FAD"/>
<path d="M69.03 80.4697H55.28V94.2197H69.03V80.4697Z" fill="#005FAD"/>
<path d="M82.78 66.7197H69.03V80.4697H82.78V66.7197Z" fill="#005FAD"/>
<path d="M96.5301 80.4697H82.78V94.2197H96.5301V80.4697Z" fill="#005FAD"/>
<path d="M110.3 66.7197H96.55V80.4697H110.3V66.7197Z" fill="#005FAD"/>
<path d="M124.05 80.4697H110.3V94.2197H124.05V80.4697Z" fill="#005FAD"/>
<path d="M55.27 94.2002H41.52V107.95H55.27V94.2002Z" fill="#005FAD"/>
<path d="M69.03 107.95H55.28V121.7H69.03V107.95Z" fill="#005FAD"/>
<path d="M82.78 94.2002H69.03V107.95H82.78V94.2002Z" fill="#005FAD"/>
<path d="M96.5301 107.95H82.78V121.7H96.5301V107.95Z" fill="#005FAD"/>
<path d="M110.3 94.2002H96.55V107.95H110.3V94.2002Z" fill="#005FAD"/>
<path d="M124.05 107.95H110.3V121.7H124.05V107.95Z" fill="#005FAD"/>
<path d="M55.27 121.81H41.52V135.56H55.27V121.81Z" fill="#005FAD"/>
<path d="M69.03 135.56H55.28V149.31H69.03V135.56Z" fill="#005FAD"/>
<path d="M82.78 121.81H69.03V135.56H82.78V121.81Z" fill="#005FAD"/>
<path d="M96.5301 135.56H82.78V149.31H96.5301V135.56Z" fill="#005FAD"/>
<path d="M110.3 121.81H96.55V135.56H110.3V121.81Z" fill="#005FAD"/>
<path d="M124.05 135.56H110.3V149.31H124.05V135.56Z" fill="#005FAD"/>
</svg>
