<svg width="201" height="240" viewBox="0 0 201 240" fill="none" xmlns="http://www.w3.org/2000/svg">
<g opacity="0.3">
<path opacity="0.3" d="M140 49.25C134.532 49.2447 129.289 47.0709 125.422 43.2053C121.554 39.3398 119.378 34.0979 119.37 28.6299V0H27.2C20.063 0 13.2184 2.83523 8.17175 7.88184C3.12515 12.9284 0.290039 19.7729 0.290039 26.9099V189.13C0.300637 196.26 3.14046 203.094 8.18591 208.132C13.2314 213.17 20.0699 216 27.2 216H137.8C144.937 216 151.782 213.165 156.828 208.118C161.875 203.072 164.71 196.227 164.71 189.09V49.21L140 49.25Z" fill="#FF3E4C"/>
</g>
<path d="M164.71 49.25H140C134.532 49.2447 129.289 47.0709 125.422 43.2053C121.554 39.3398 119.378 34.0979 119.37 28.6299V0L164.71 49.25Z" fill="#FF3E4C"/>
<path d="M184.23 170.61H59.1898C50.3201 170.61 43.1299 177.8 43.1299 186.67V223.95C43.1299 232.82 50.3201 240.01 59.1898 240.01H184.23C193.1 240.01 200.29 232.82 200.29 223.95V186.67C200.29 177.8 193.1 170.61 184.23 170.61Z" fill="#FF3E4C"/>
<path d="M89.33 210.1V220.65H82.05V190.58H93.84C97.4133 190.58 100.133 191.467 102 193.24C102.948 194.169 103.688 195.289 104.172 196.524C104.656 197.76 104.874 199.084 104.81 200.41C104.843 202.159 104.408 203.885 103.55 205.41C102.682 206.906 101.387 208.107 99.83 208.86C97.9582 209.749 95.901 210.178 93.83 210.11L89.33 210.1ZM97.41 200.41C97.41 197.743 95.95 196.41 93.03 196.41H89.33V204.24H93.03C95.95 204.267 97.41 202.99 97.41 200.41Z" fill="white"/>
<path d="M115.44 190.58V207.93C115.33 209.561 115.805 211.178 116.78 212.49C117.269 213.027 117.872 213.447 118.546 213.719C119.219 213.991 119.945 214.108 120.67 214.06C121.396 214.108 122.124 213.992 122.799 213.72C123.475 213.449 124.08 213.028 124.57 212.49C125.545 211.178 126.02 209.561 125.91 207.93V190.58H133.18V207.93C133.265 210.424 132.692 212.897 131.52 215.1C130.477 216.976 128.9 218.5 126.99 219.48C124.976 220.484 122.75 220.989 120.5 220.95C118.287 220.996 116.096 220.498 114.12 219.5C112.259 218.522 110.747 216.992 109.79 215.12C108.674 212.892 108.131 210.421 108.21 207.93V190.58H115.44Z" fill="white"/>
<path d="M160.38 207.81C161.432 209.122 161.994 210.759 161.97 212.44C162.023 213.569 161.819 214.696 161.374 215.735C160.929 216.774 160.254 217.699 159.4 218.44C157.68 219.887 155.22 220.61 152.02 220.61H138.02V190.54H151.67C154.73 190.54 157.097 191.207 158.77 192.54C159.61 193.224 160.275 194.097 160.711 195.088C161.148 196.079 161.343 197.159 161.28 198.24C161.338 199.871 160.829 201.472 159.84 202.77C158.885 203.969 157.547 204.802 156.05 205.13C157.76 205.496 159.29 206.443 160.38 207.81ZM145.3 202.87H150.06C152.59 202.87 153.85 201.8 153.85 199.64C153.85 197.48 152.56 196.41 149.98 196.41H145.3V202.87ZM154.53 211.42C154.552 210.946 154.468 210.473 154.285 210.036C154.102 209.598 153.823 209.207 153.47 208.89C152.611 208.237 151.547 207.914 150.47 207.98H145.32V214.74H150.51C153.183 214.74 154.523 213.633 154.53 211.42Z" fill="white"/>
<path d="M71.2999 83.7302H27.6399C26.648 83.7302 25.6966 83.3362 24.9953 82.6348C24.2939 81.9334 23.8999 80.9821 23.8999 79.9902C23.8986 79.4982 23.9943 79.0108 24.1817 78.5559C24.369 78.101 24.6443 77.6875 24.9917 77.3391C25.3391 76.9908 25.7519 76.7145 26.2063 76.5259C26.6607 76.3373 27.1479 76.2402 27.6399 76.2402H71.2999C72.2875 76.2534 73.23 76.6556 73.9227 77.3596C74.6155 78.0636 75.0026 79.0126 74.9999 80.0002C74.9947 80.9827 74.6042 81.924 73.9122 82.6216C73.2203 83.3191 72.2824 83.7171 71.2999 83.7302Z" fill="#FF3E4C"/>
<path d="M71.2999 106.1H27.6399C26.648 106.1 25.6966 105.706 24.9953 105.005C24.2939 104.303 23.8999 103.352 23.8999 102.36C23.8986 101.868 23.9943 101.381 24.1817 100.926C24.369 100.471 24.6443 100.058 24.9917 99.7092C25.3391 99.3609 25.7519 99.0846 26.2063 98.896C26.6607 98.7074 27.1479 98.6103 27.6399 98.6104H71.2999C72.2928 98.613 73.244 99.0092 73.9451 99.7122C74.6462 100.415 75.0399 101.368 75.0399 102.36C75.0373 103.351 74.6424 104.301 73.9415 105.002C73.2407 105.703 72.291 106.098 71.2999 106.1Z" fill="#FF3E4C"/>
<path d="M71.2999 128.47H27.6399C27.1479 128.47 26.6607 128.373 26.2063 128.184C25.7519 127.996 25.3391 127.719 24.9917 127.371C24.6443 127.023 24.369 126.609 24.1817 126.154C23.9943 125.699 23.8986 125.212 23.8999 124.72C23.8999 123.728 24.2939 122.777 24.9953 122.075C25.6966 121.374 26.648 120.98 27.6399 120.98H71.2999C72.291 120.983 73.2407 121.378 73.9415 122.078C74.6424 122.779 75.0373 123.729 75.0399 124.72C75.0399 125.713 74.6462 126.665 73.9451 127.368C73.244 128.071 72.2928 128.467 71.2999 128.47Z" fill="#FF3E4C"/>
<path d="M71.2999 150.84H27.6399C27.1479 150.84 26.6607 150.743 26.2063 150.554C25.7519 150.366 25.3391 150.089 24.9917 149.741C24.6443 149.393 24.369 148.979 24.1817 148.524C23.9943 148.07 23.8986 147.582 23.8999 147.09C23.8999 146.098 24.2939 145.147 24.9953 144.445C25.6966 143.744 26.648 143.35 27.6399 143.35H71.2999C72.291 143.353 73.2407 143.747 73.9415 144.448C74.6424 145.149 75.0373 146.099 75.0399 147.09C75.0399 148.083 74.6462 149.035 73.9451 149.738C73.244 150.441 72.2928 150.837 71.2999 150.84Z" fill="#FF3E4C"/>
<path d="M130.88 83.7302H88.3201C87.3282 83.7302 86.3769 83.3362 85.6756 82.6348C84.9742 81.9334 84.5801 80.9821 84.5801 79.9902C84.5788 79.4982 84.6746 79.0108 84.862 78.5559C85.0493 78.101 85.3246 77.6875 85.672 77.3391C86.0194 76.9908 86.4322 76.7145 86.8866 76.5259C87.341 76.3373 87.8281 76.2402 88.3201 76.2402H130.88C131.875 76.2402 132.828 76.6354 133.532 77.3386C134.235 78.0419 134.63 78.9957 134.63 79.9902C134.627 80.9831 134.231 81.9344 133.528 82.6355C132.825 83.3366 131.873 83.7302 130.88 83.7302Z" fill="#FF3E4C"/>
<path d="M130.88 106.1H88.3201C87.3282 106.1 86.3769 105.706 85.6756 105.005C84.9742 104.303 84.5801 103.352 84.5801 102.36C84.5788 101.868 84.6746 101.381 84.862 100.926C85.0493 100.471 85.3246 100.058 85.672 99.7092C86.0194 99.3609 86.4322 99.0846 86.8866 98.896C87.341 98.7074 87.8281 98.6103 88.3201 98.6104H130.88C131.875 98.6104 132.828 99.0052 133.532 99.7085C134.235 100.412 134.63 101.366 134.63 102.36C134.627 103.353 134.231 104.304 133.528 105.005C132.825 105.706 131.873 106.1 130.88 106.1Z" fill="#FF3E4C"/>
<path d="M130.88 128.47H88.3201C87.8281 128.47 87.341 128.373 86.8866 128.184C86.4322 127.996 86.0194 127.719 85.672 127.371C85.3246 127.023 85.0493 126.609 84.862 126.154C84.6746 125.699 84.5788 125.212 84.5801 124.72C84.5801 123.728 84.9742 122.777 85.6756 122.075C86.3769 121.374 87.3282 120.98 88.3201 120.98H130.88C131.873 120.98 132.825 121.374 133.528 122.075C134.231 122.776 134.627 123.727 134.63 124.72C134.63 125.715 134.235 126.668 133.532 127.372C132.828 128.075 131.875 128.47 130.88 128.47Z" fill="#FF3E4C"/>
<path d="M130.88 150.84H88.3201C87.8281 150.84 87.341 150.743 86.8866 150.554C86.4322 150.366 86.0194 150.089 85.672 149.741C85.3246 149.393 85.0493 148.979 84.862 148.524C84.6746 148.07 84.5788 147.582 84.5801 147.09C84.5801 146.098 84.9742 145.147 85.6756 144.445C86.3769 143.744 87.3282 143.35 88.3201 143.35H130.88C131.873 143.35 132.825 143.744 133.528 144.445C134.231 145.146 134.627 146.097 134.63 147.09C134.63 148.085 134.235 149.038 133.532 149.742C132.828 150.445 131.875 150.84 130.88 150.84Z" fill="#FF3E4C"/>
</svg>
