<svg width="201" height="240" viewBox="0 0 201 240" fill="none" xmlns="http://www.w3.org/2000/svg">
<g opacity="0.3">
<path opacity="0.3" d="M140.53 49.24C135.062 49.2347 129.819 47.0609 125.952 43.1953C122.084 39.3297 119.908 34.0881 119.9 28.62V0H27.7703C20.6333 0 13.7885 2.83514 8.74194 7.88174C3.69534 12.9283 0.860352 19.773 0.860352 26.91V189.13C0.87095 196.26 3.71065 203.094 8.7561 208.132C13.8016 213.17 20.6402 216 27.7703 216H138.37C145.507 216 152.352 213.165 157.398 208.118C162.445 203.072 165.28 196.227 165.28 189.09V49.24H140.53Z" fill="#FF9908"/>
</g>
<path d="M165.281 49.24H140.531C135.062 49.2347 129.82 47.0609 125.952 43.1953C122.085 39.3297 119.908 34.0881 119.9 28.62V0L165.281 49.24Z" fill="#FF9908"/>
<path d="M184.8 170.6H59.7603C50.8906 170.6 43.7002 177.79 43.7002 186.66V223.94C43.7002 232.81 50.8906 240 59.7603 240H184.8C193.67 240 200.86 232.81 200.86 223.94V186.66C200.86 177.79 193.67 170.6 184.8 170.6Z" fill="#FF9908"/>
<path d="M86.7605 213.37V220.64H79.2305V213.37H86.7605Z" fill="white"/>
<path d="M106 220.64L99.4905 209.28H97.8306V220.64H90.5605V190.57H103C105.069 190.512 107.122 190.933 109 191.8C110.543 192.533 111.831 193.71 112.7 195.18C113.538 196.682 113.962 198.38 113.93 200.1C113.987 202.108 113.351 204.074 112.13 205.67C110.784 207.285 108.93 208.395 106.871 208.82L114.021 220.64H106ZM97.8306 204.31H102.341C103.493 204.396 104.634 204.038 105.531 203.31C105.886 202.934 106.158 202.488 106.33 202.001C106.503 201.513 106.571 200.995 106.531 200.48C106.566 199.969 106.495 199.457 106.323 198.975C106.151 198.493 105.881 198.052 105.531 197.68C105.094 197.312 104.589 197.034 104.045 196.863C103.501 196.691 102.929 196.629 102.361 196.68H97.8506L97.8306 204.31Z" fill="white"/>
<path d="M138 216.56C137.134 217.941 135.892 219.047 134.42 219.75C132.633 220.588 130.674 220.996 128.7 220.94C125.727 221.063 122.797 220.194 120.371 218.47C119.293 217.665 118.411 216.628 117.792 215.435C117.172 214.242 116.829 212.924 116.791 211.58H124.531C124.589 212.594 125.024 213.549 125.75 214.26C126.467 214.93 127.42 215.289 128.4 215.26C129.213 215.303 130.01 215.027 130.621 214.49C130.884 214.229 131.091 213.917 131.229 213.573C131.366 213.229 131.431 212.86 131.42 212.49C131.432 212.138 131.372 211.788 131.245 211.459C131.118 211.131 130.926 210.832 130.68 210.58C130.149 210.046 129.522 209.619 128.831 209.32C128.091 209 127.071 208.61 125.771 208.15C124.177 207.624 122.62 206.993 121.111 206.26C119.872 205.618 118.808 204.684 118.01 203.54C117.089 202.151 116.634 200.505 116.71 198.84C116.668 197.189 117.144 195.567 118.071 194.2C119.019 192.868 120.321 191.828 121.831 191.2C123.58 190.494 125.455 190.153 127.341 190.2C130.202 190.045 133.029 190.886 135.341 192.58C136.321 193.38 137.124 194.376 137.699 195.504C138.274 196.631 138.608 197.866 138.68 199.13H130.811C130.713 198.246 130.33 197.417 129.72 196.77C129.407 196.472 129.036 196.242 128.63 196.092C128.224 195.943 127.792 195.877 127.361 195.9C126.613 195.862 125.878 196.104 125.301 196.58C125.028 196.833 124.815 197.144 124.678 197.49C124.542 197.836 124.484 198.209 124.51 198.58C124.499 199.251 124.75 199.901 125.21 200.39C125.714 200.907 126.316 201.318 126.98 201.6C127.69 201.91 128.711 202.31 130.041 202.79C131.662 203.314 133.24 203.962 134.76 204.73C136.015 205.395 137.094 206.348 137.91 207.51C138.844 208.92 139.306 210.59 139.23 212.28C139.213 213.791 138.788 215.27 138 216.56Z" fill="white"/>
<path d="M163.63 216.56C162.765 217.939 161.527 219.045 160.06 219.75C158.273 220.588 156.314 220.996 154.34 220.94C151.363 221.063 148.43 220.194 146 218.47C144.926 217.664 144.047 216.625 143.429 215.432C142.811 214.24 142.469 212.923 142.43 211.58H150.17C150.225 212.593 150.657 213.549 151.38 214.26C152.101 214.929 153.057 215.289 154.04 215.26C154.849 215.304 155.644 215.027 156.25 214.49C156.517 214.231 156.727 213.92 156.866 213.575C157.006 213.231 157.072 212.861 157.06 212.49C157.069 212.138 157.008 211.789 156.881 211.461C156.754 211.133 156.564 210.834 156.32 210.58C155.788 210.048 155.16 209.62 154.47 209.32C153.73 209 152.71 208.61 151.4 208.15C149.809 207.627 148.255 206.995 146.75 206.26C145.509 205.618 144.442 204.685 143.64 203.54C142.727 202.148 142.276 200.503 142.35 198.84C142.308 197.189 142.784 195.567 143.71 194.2C144.656 192.866 145.959 191.826 147.47 191.2C149.219 190.494 151.094 190.154 152.98 190.2C155.842 190.044 158.669 190.885 160.98 192.58C161.962 193.379 162.767 194.374 163.342 195.502C163.917 196.63 164.25 197.866 164.32 199.13H156.45C156.362 198.245 155.983 197.415 155.37 196.77C155.056 196.473 154.685 196.242 154.279 196.093C153.874 195.943 153.442 195.877 153.01 195.9C152.263 195.862 151.528 196.104 150.95 196.58C150.677 196.833 150.465 197.144 150.328 197.49C150.191 197.836 150.134 198.209 150.16 198.58C150.145 199.252 150.397 199.903 150.86 200.39C151.364 200.907 151.966 201.318 152.63 201.6C153.33 201.91 154.35 202.31 155.69 202.79C157.311 203.314 158.889 203.962 160.41 204.73C161.665 205.395 162.744 206.348 163.56 207.51C164.493 208.92 164.955 210.59 164.88 212.28C164.861 213.794 164.428 215.274 163.63 216.56Z" fill="white"/>
<path d="M58.7202 139.61C62.7243 139.61 65.9702 136.364 65.9702 132.36C65.9702 128.356 62.7243 125.11 58.7202 125.11C54.7162 125.11 51.4702 128.356 51.4702 132.36C51.4702 136.364 54.7162 139.61 58.7202 139.61Z" fill="#FF9908"/>
<path d="M51.4702 97V106.45C60.2642 106.461 68.695 109.959 74.9133 116.177C81.1316 122.395 84.6296 130.826 84.6401 139.62H94.0903C94.0771 128.321 89.5825 117.488 81.5925 109.498C73.6026 101.508 62.7697 97.0132 51.4702 97Z" fill="#FF9908"/>
<path d="M114.67 139.61H105.22C105.204 125.36 99.5364 111.697 89.4597 101.621C79.3831 91.5441 65.7207 85.876 51.4702 85.8601V76.4102C68.2262 76.4287 84.2906 83.0932 96.1389 94.9415C107.987 106.79 114.652 122.854 114.67 139.61Z" fill="#FF9908"/>
</svg>
