<svg width="201" height="240" viewBox="0 0 201 240" fill="none" xmlns="http://www.w3.org/2000/svg">
<g opacity="0.3">
<path opacity="0.3" d="M140.53 49.25C135.062 49.2447 129.819 47.0709 125.952 43.2053C122.084 39.3398 119.908 34.0979 119.9 28.6299V0H27.7703C20.6333 0 13.7885 2.83523 8.74194 7.88184C3.69534 12.9284 0.860352 19.7729 0.860352 26.9099V189.13C0.860352 196.267 3.69534 203.112 8.74194 208.158C13.7885 213.205 20.6333 216.04 27.7703 216.04H138.37C145.507 216.04 152.352 213.205 157.398 208.158C162.445 203.112 165.28 196.267 165.28 189.13V49.25H140.53Z" fill="#0072FF"/>
</g>
<path d="M165.281 49.25H140.531C135.062 49.2447 129.82 47.0709 125.952 43.2053C122.085 39.3398 119.908 34.0979 119.9 28.6299V0L165.281 49.25Z" fill="#0072FF"/>
<path d="M131.46 83.7302H28.2102C27.2191 83.7276 26.2694 83.3327 25.5686 82.6318C24.8678 81.931 24.4729 80.9813 24.4702 79.9902C24.4702 78.9974 24.8638 78.045 25.5649 77.342C26.266 76.6391 27.2174 76.2429 28.2102 76.2402H131.46C132.453 76.2429 133.404 76.6391 134.105 77.342C134.807 78.045 135.2 78.9974 135.2 79.9902C135.198 80.9813 134.803 81.931 134.102 82.6318C133.401 83.3327 132.451 83.7276 131.46 83.7302Z" fill="#0072FF"/>
<path d="M131.46 106.1H28.2102C27.2191 106.098 26.2694 105.703 25.5686 105.002C24.8678 104.301 24.4729 103.351 24.4702 102.36C24.4702 101.368 24.8638 100.415 25.5649 99.7122C26.266 99.0092 27.2174 98.613 28.2102 98.6104H131.46C132.453 98.613 133.404 99.0092 134.105 99.7122C134.807 100.415 135.2 101.368 135.2 102.36C135.198 103.351 134.803 104.301 134.102 105.002C133.401 105.703 132.451 106.098 131.46 106.1Z" fill="#0072FF"/>
<path d="M131.46 128.47H28.2102C27.2174 128.467 26.266 128.071 25.5649 127.368C24.8638 126.665 24.4702 125.713 24.4702 124.72C24.4729 123.729 24.8678 122.779 25.5686 122.078C26.2694 121.378 27.2191 120.983 28.2102 120.98H131.46C132.451 120.983 133.401 121.378 134.102 122.078C134.803 122.779 135.198 123.729 135.2 124.72C135.2 125.713 134.807 126.665 134.105 127.368C133.404 128.071 132.453 128.467 131.46 128.47Z" fill="#0072FF"/>
<path d="M131.46 150.83H28.2102C27.2183 150.83 26.2671 150.436 25.5657 149.734C24.8643 149.033 24.4702 148.082 24.4702 147.09C24.4702 146.097 24.8638 145.145 25.5649 144.442C26.266 143.739 27.2174 143.342 28.2102 143.34H131.46C132.453 143.342 133.404 143.739 134.105 144.442C134.807 145.145 135.2 146.097 135.2 147.09C135.2 148.082 134.806 149.033 134.105 149.734C133.403 150.436 132.452 150.83 131.46 150.83Z" fill="#0072FF"/>
<path d="M184.8 170.61H59.7603C50.8906 170.61 43.7002 177.8 43.7002 186.67V223.95C43.7002 232.82 50.8906 240.01 59.7603 240.01H184.8C193.67 240.01 200.86 232.82 200.86 223.95V186.67C200.86 177.8 193.67 170.61 184.8 170.61Z" fill="#0072FF"/>
<path d="M86.4202 213.38V220.65H78.8901V213.38H86.4202Z" fill="white"/>
<path d="M111.81 190.58V196.37H103.64V220.65H96.3303V196.37H88.2402V190.58H111.81Z" fill="white"/>
<path d="M133.12 220.65L126.78 211.29L121.33 220.65H113L122.61 205.17L112.7 190.58H121.33L127.5 199.64L132.82 190.58H141.11L131.63 205.72L141.75 220.65H133.12Z" fill="white"/>
<path d="M166.16 190.58V196.37H158V220.65H150.68V196.37H142.601V190.58H166.16Z" fill="white"/>
</svg>
