<svg width="201" height="240" viewBox="0 0 201 240" fill="none" xmlns="http://www.w3.org/2000/svg">
<g opacity="0.3">
<path opacity="0.3" d="M140.1 49.24C134.633 49.2347 129.391 47.0606 125.525 43.1947C121.659 39.3288 119.485 34.0871 119.48 28.62V0H27.3398C20.2029 0 13.3581 2.83514 8.31152 7.88174C3.26492 12.9283 0.429687 19.773 0.429688 26.91V189.13C0.440286 196.26 3.28023 203.094 8.32568 208.132C13.3711 213.17 20.2098 216 27.3398 216H137.94C145.077 216 151.921 213.165 156.968 208.118C162.015 203.072 164.85 196.227 164.85 189.09V49.24H140.1Z" fill="#A140FF"/>
</g>
<path d="M164.85 49.24H140.1C134.632 49.2347 129.391 47.0606 125.525 43.1947C121.659 39.3288 119.485 34.0871 119.479 28.62V0L164.85 49.24Z" fill="#A140FF"/>
<path d="M184.37 170.6H59.3296C50.4599 170.6 43.2695 177.79 43.2695 186.66V223.94C43.2695 232.81 50.4599 240 59.3296 240H184.37C193.239 240 200.429 232.81 200.429 223.94V186.66C200.429 177.79 193.239 170.6 184.37 170.6Z" fill="#A140FF"/>
<path d="M81.2698 213.37V220.64H73.7397V213.37H81.2698Z" fill="white"/>
<path d="M103.3 220.64L96.9597 211.28L91.5198 220.64H83.1797L92.7998 205.16L82.8896 190.57H91.5198L97.6897 199.63L103 190.57H111.3L101.81 205.71L111.94 220.64H103.3Z" fill="white"/>
<path d="M148.56 190.78V220.64H141.28V202L134.82 220.67H128.52L122.02 201.96V220.67H114.74V190.81H123.63L131.76 211.61L139.71 190.81L148.56 190.78Z" fill="white"/>
<path d="M160.85 215.07H170.55V220.64H153.55V190.57H160.83L160.85 215.07Z" fill="white"/>
<path d="M40.9395 114.19C40.9256 113.76 41.0559 113.338 41.3096 112.99C41.6129 112.601 41.9775 112.263 42.3894 111.99C43.0133 111.667 43.6582 111.387 44.3196 111.15L46.2495 110.35L53.9695 107.1C55.0428 106.6 57.0428 105.767 59.9695 104.6L63.6394 103.1L64.9595 102.63L65.1895 102.53C65.2521 102.517 65.3168 102.517 65.3794 102.53C65.5275 102.465 65.6877 102.431 65.8496 102.43C66.1594 102.413 66.4693 102.458 66.7613 102.563C67.0533 102.668 67.3214 102.83 67.5496 103.04C67.7431 103.223 67.897 103.443 68.002 103.687C68.1069 103.931 68.1605 104.194 68.1595 104.46V107C68.1499 107.472 68.0041 107.93 67.7395 108.32C67.4613 108.756 67.0463 109.087 66.5596 109.26L50.7896 115.71L66.5596 122.16C67.0291 122.354 67.4369 122.672 67.7395 123.08C68.0144 123.454 68.1616 123.906 68.1595 124.37V126.91C68.1597 127.179 68.1058 127.445 68.001 127.692C67.8962 127.94 67.7428 128.164 67.5496 128.35C67.3251 128.567 67.058 128.735 66.7654 128.843C66.4728 128.952 66.1611 128.998 65.8496 128.98C65.6889 128.979 65.5295 128.948 65.3794 128.89L64.9595 128.75L63.6394 128.28L59.9995 126.8L53.9995 124.31L46.2796 121.06L44.3496 120.26C43.7296 120.01 43.0795 119.73 42.4195 119.41C42.0099 119.219 41.6592 118.922 41.4041 118.549C41.149 118.176 40.9989 117.741 40.9695 117.29L40.9395 114.19Z" fill="#A140FF"/>
<path d="M88.0498 131.7C87.5493 131.712 87.0545 131.592 86.6155 131.351C86.1764 131.111 85.8088 130.758 85.5498 130.33C85.335 130.021 85.1634 129.685 85.0398 129.33L84.7097 128.44L77.5098 112.53L76.9897 111.35C76.3897 110.07 75.2298 107.53 73.5098 103.73C71.2764 98.8965 70.1597 96.2465 70.1597 95.7798C70.16 95.4986 70.2242 95.2212 70.3472 94.9683C70.4701 94.7154 70.6489 94.4937 70.8699 94.3198C71.3688 93.898 72.0067 93.677 72.6597 93.6999H74.9998C75.4928 93.6913 75.9793 93.8136 76.4097 94.0543C76.84 94.2949 77.1988 94.6454 77.4497 95.0698L77.9697 96.0698L78.2998 96.9598L80.1797 101.1L85.4998 112.87L86.1997 114.37L89.4998 121.62C90.7648 124.221 91.8801 126.892 92.8398 129.62C92.8381 129.899 92.7733 130.175 92.6504 130.426C92.5275 130.677 92.3493 130.897 92.1296 131.07C91.6312 131.493 90.993 131.714 90.3398 131.69L88.0498 131.7Z" fill="#A140FF"/>
<path d="M96.7597 129C96.4404 129.021 96.1201 128.975 95.819 128.867C95.5179 128.759 95.2425 128.589 95.0097 128.37C94.625 127.989 94.4057 127.471 94.3996 126.93V124.39C94.395 123.929 94.535 123.478 94.7997 123.1C95.0989 122.68 95.5168 122.36 95.9997 122.18L111.82 115.73L95.9997 109.29C95.5193 109.08 95.1122 108.732 94.8297 108.29C94.5572 107.91 94.407 107.457 94.3996 106.99V104.41C94.3962 104.146 94.4479 103.884 94.5512 103.642C94.6545 103.399 94.8072 103.18 94.9997 103C95.4697 102.577 96.0882 102.358 96.7196 102.39C96.8658 102.387 97.0102 102.422 97.1396 102.49C97.2256 102.475 97.3136 102.475 97.3996 102.49L97.6098 102.59C97.5498 102.59 97.9695 102.71 98.8795 103.06L102.6 104.56C102.406 104.473 104.406 105.306 108.6 107.06C110.886 108 113.506 109.113 116.46 110.4L117.21 110.68L118.29 111.11C118.926 111.336 119.542 111.617 120.13 111.95C120.55 112.141 120.908 112.446 121.166 112.829C121.424 113.212 121.57 113.659 121.59 114.12V117.22C121.581 117.645 121.441 118.057 121.19 118.4C120.91 118.788 120.548 119.109 120.13 119.34C119.56 119.62 118.89 119.92 118.13 120.24L116.13 121.04L98.7096 128.33C98.2096 128.58 97.9097 128.74 97.8197 128.8L97.6295 128.94L96.7597 129Z" fill="#A140FF"/>
</svg>
