<svg width="201" height="240" viewBox="0 0 201 240" fill="none" xmlns="http://www.w3.org/2000/svg">
<g opacity="0.3">
<path opacity="0.3" d="M140.24 49.25C134.772 49.2421 129.53 47.0657 125.665 43.1982C121.799 39.3308 119.625 34.0881 119.62 28.62V0H27.48C20.3431 0 13.4984 2.83511 8.45184 7.88171C3.40524 12.9283 0.570068 19.7731 0.570068 26.91V189.13C0.580667 196.26 3.42049 203.094 8.46594 208.132C13.5114 213.17 20.35 216 27.48 216H138.09C145.22 216 152.059 213.17 157.104 208.132C162.15 203.094 164.989 196.26 165 189.13V49.25H140.24Z" fill="#FF3E4C"/>
</g>
<path d="M165 49.25H140.24C134.772 49.2421 129.53 47.0657 125.665 43.1982C121.799 39.3308 119.625 34.0881 119.62 28.62V0L165 49.25Z" fill="#FF3E4C"/>
<path d="M184.51 170.61H59.4702C50.6005 170.61 43.4102 177.8 43.4102 186.67V223.95C43.4102 232.82 50.6005 240.01 59.4702 240.01H184.51C193.38 240.01 200.57 232.82 200.57 223.95V186.67C200.57 177.8 193.38 170.61 184.51 170.61Z" fill="#FF3E4C"/>
<path d="M92.9201 213.38V220.65H85.3901V213.38H92.9201Z" fill="white"/>
<path d="M104.23 214.78H117.5V220.65H96.1501V215.12L109.21 196.41H96.3201V190.58H117.42V196.11L104.23 214.78Z" fill="white"/>
<path d="M129.24 190.58V220.65H122V190.58H129.24Z" fill="white"/>
<path d="M141.53 210.1V220.65H134.26V190.58H146C149.57 190.58 152.3 191.46 154.17 193.24C155.117 194.168 155.857 195.286 156.341 196.52C156.825 197.754 157.043 199.076 156.98 200.4C157.011 202.149 156.576 203.875 155.72 205.4C154.847 206.892 153.553 208.092 152 208.85C150.126 209.731 148.07 210.16 146 210.1H141.53ZM149.61 200.4C149.61 197.767 148.15 196.433 145.23 196.4H141.53V204.22H145.23C148.15 204.253 149.61 202.98 149.61 200.4Z" fill="white"/>
<path d="M82.7701 152.52C79.407 152.515 76.1834 151.176 73.8063 148.797C71.4292 146.418 70.0927 143.193 70.0901 139.83V127.14H95.4601V139.83C95.4574 143.195 94.1196 146.421 91.7403 148.8C89.361 151.18 86.1349 152.517 82.7701 152.52ZM76.5801 133.63V139.83C76.5801 141.473 77.2319 143.048 78.3925 144.211C79.553 145.373 81.1275 146.028 82.7701 146.03C84.4136 146.028 85.989 145.373 87.1512 144.211C88.3133 143.049 88.9674 141.474 88.97 139.83V133.63H76.5801Z" fill="#FF3E4C"/>
<path d="M70.0801 127.15H82.8V114.43H70.0801V127.15Z" fill="#FF3E4C"/>
<path d="M82.77 114.44H95.49V101.72H82.77V114.44Z" fill="#FF3E4C"/>
<path d="M70.0801 101.73H82.8V89.01H70.0801V101.73Z" fill="#FF3E4C"/>
<path d="M82.77 89.02H95.49V76.3H82.77V89.02Z" fill="#FF3E4C"/>
</svg>
